G04 #@! TF.FileFunction,Profile,NP*
%FSLAX46Y46*%
G04 Gerber Fmt 4.6, Leading zero omitted, Abs format (unit mm)*
G04 Created by KiCad (PCBNEW 4.0.4-snap1-stable) date Wed Jun 19 19:26:08 2019*
%MOMM*%
%LPD*%
G01*
G04 APERTURE LIST*
%ADD10C,0.150000*%
G04 APERTURE END LIST*
D10*
X155500000Y-120000000D02*
G75*
G03X155000000Y-119500000I-500000J0D01*
G01*
X155000000Y-119500000D02*
G75*
G03X154500000Y-120000000I0J-500000D01*
G01*
X154500000Y-120500000D02*
G75*
G03X155000000Y-121000000I500000J0D01*
G01*
X155000000Y-121000000D02*
G75*
G03X155500000Y-120500000I0J500000D01*
G01*
X154500000Y-120000000D02*
X154500000Y-120500000D01*
X155500000Y-120000000D02*
X155500000Y-120500000D01*
X145500000Y-120000000D02*
G75*
G03X145000000Y-119500000I-500000J0D01*
G01*
X145000000Y-119500000D02*
G75*
G03X144500000Y-120000000I0J-500000D01*
G01*
X144500000Y-120500000D02*
G75*
G03X145000000Y-121000000I500000J0D01*
G01*
X145000000Y-121000000D02*
G75*
G03X145500000Y-120500000I0J500000D01*
G01*
X144500000Y-120000000D02*
X144500000Y-120500000D01*
X145500000Y-120500000D02*
X145500000Y-120000000D01*
X155500000Y-111500000D02*
X155500000Y-112000000D01*
X154500000Y-111500000D02*
X154500000Y-112000000D01*
X145500000Y-112000000D02*
X145500000Y-111500000D01*
X144500000Y-111500000D02*
X144500000Y-112000000D01*
X155000000Y-112500000D02*
G75*
G03X155500000Y-112000000I0J500000D01*
G01*
X154500000Y-112000000D02*
G75*
G03X155000000Y-112500000I500000J0D01*
G01*
X155000000Y-111000000D02*
G75*
G03X154500000Y-111500000I0J-500000D01*
G01*
X155500000Y-111500000D02*
G75*
G03X155000000Y-111000000I-500000J0D01*
G01*
X145000000Y-112500000D02*
G75*
G03X145500000Y-112000000I0J500000D01*
G01*
X144500000Y-112000000D02*
G75*
G03X145000000Y-112500000I500000J0D01*
G01*
X145000000Y-111000000D02*
G75*
G03X144500000Y-111500000I0J-500000D01*
G01*
X145500000Y-111500000D02*
G75*
G03X145000000Y-111000000I-500000J0D01*
G01*
X90000000Y-118000000D02*
G75*
G03X95000000Y-123000000I5000000J0D01*
G01*
X205000000Y-123000000D02*
G75*
G03X210000000Y-118000000I0J5000000D01*
G01*
X210000000Y-74000000D02*
G75*
G03X205000000Y-69000000I-5000000J0D01*
G01*
X170000000Y-69000000D02*
G75*
G03X169000000Y-70000000I0J-1000000D01*
G01*
X168000000Y-76000000D02*
G75*
G03X169000000Y-75000000I0J1000000D01*
G01*
X149000000Y-75000000D02*
G75*
G03X150000000Y-76000000I1000000J0D01*
G01*
X149000000Y-70000000D02*
G75*
G03X148000000Y-69000000I-1000000J0D01*
G01*
X95000000Y-69000000D02*
G75*
G03X90000000Y-74000000I0J-5000000D01*
G01*
X205000000Y-123000000D02*
X95000000Y-123000000D01*
X210000000Y-74000000D02*
X210000000Y-118000000D01*
X170000000Y-69000000D02*
X205000000Y-69000000D01*
X169000000Y-75000000D02*
X169000000Y-70000000D01*
X150000000Y-76000000D02*
X168000000Y-76000000D01*
X149000000Y-70000000D02*
X149000000Y-75000000D01*
X95000000Y-69000000D02*
X148000000Y-69000000D01*
X90000000Y-74000000D02*
X90000000Y-118000000D01*
M02*
