G04 #@! TF.FileFunction,Legend,Top*
%FSLAX46Y46*%
G04 Gerber Fmt 4.6, Leading zero omitted, Abs format (unit mm)*
G04 Created by KiCad (PCBNEW 4.0.4-snap1-stable) date Wed Jun 19 19:26:08 2019*
%MOMM*%
%LPD*%
G01*
G04 APERTURE LIST*
%ADD10C,0.150000*%
%ADD11C,0.300000*%
%ADD12C,0.500000*%
%ADD13C,0.200000*%
%ADD14C,0.120000*%
%ADD15C,0.152400*%
%ADD16C,0.010000*%
G04 APERTURE END LIST*
D10*
D11*
X110750000Y-96428571D02*
X110250000Y-95714286D01*
X109892857Y-96428571D02*
X109892857Y-94928571D01*
X110464285Y-94928571D01*
X110607143Y-95000000D01*
X110678571Y-95071429D01*
X110750000Y-95214286D01*
X110750000Y-95428571D01*
X110678571Y-95571429D01*
X110607143Y-95642857D01*
X110464285Y-95714286D01*
X109892857Y-95714286D01*
X111392857Y-96428571D02*
X111392857Y-94928571D01*
X112892857Y-95000000D02*
X112750000Y-94928571D01*
X112535714Y-94928571D01*
X112321429Y-95000000D01*
X112178571Y-95142857D01*
X112107143Y-95285714D01*
X112035714Y-95571429D01*
X112035714Y-95785714D01*
X112107143Y-96071429D01*
X112178571Y-96214286D01*
X112321429Y-96357143D01*
X112535714Y-96428571D01*
X112678571Y-96428571D01*
X112892857Y-96357143D01*
X112964286Y-96285714D01*
X112964286Y-95785714D01*
X112678571Y-95785714D01*
X113607143Y-96428571D02*
X113607143Y-94928571D01*
X113607143Y-95642857D02*
X114464286Y-95642857D01*
X114464286Y-96428571D02*
X114464286Y-94928571D01*
X114964286Y-94928571D02*
X115821429Y-94928571D01*
X115392858Y-96428571D02*
X115392858Y-94928571D01*
X95571429Y-96428571D02*
X94857143Y-96428571D01*
X94857143Y-94928571D01*
X96071429Y-95642857D02*
X96571429Y-95642857D01*
X96785715Y-96428571D02*
X96071429Y-96428571D01*
X96071429Y-94928571D01*
X96785715Y-94928571D01*
X97928572Y-95642857D02*
X97428572Y-95642857D01*
X97428572Y-96428571D02*
X97428572Y-94928571D01*
X98142858Y-94928571D01*
X98500000Y-94928571D02*
X99357143Y-94928571D01*
X98928572Y-96428571D02*
X98928572Y-94928571D01*
X102178571Y-104928571D02*
X102178571Y-103428571D01*
X102535714Y-103428571D01*
X102749999Y-103500000D01*
X102892857Y-103642857D01*
X102964285Y-103785714D01*
X103035714Y-104071429D01*
X103035714Y-104285714D01*
X102964285Y-104571429D01*
X102892857Y-104714286D01*
X102749999Y-104857143D01*
X102535714Y-104928571D01*
X102178571Y-104928571D01*
X103964285Y-103428571D02*
X104249999Y-103428571D01*
X104392857Y-103500000D01*
X104535714Y-103642857D01*
X104607142Y-103928571D01*
X104607142Y-104428571D01*
X104535714Y-104714286D01*
X104392857Y-104857143D01*
X104249999Y-104928571D01*
X103964285Y-104928571D01*
X103821428Y-104857143D01*
X103678571Y-104714286D01*
X103607142Y-104428571D01*
X103607142Y-103928571D01*
X103678571Y-103642857D01*
X103821428Y-103500000D01*
X103964285Y-103428571D01*
X105107143Y-103428571D02*
X105464286Y-104928571D01*
X105750000Y-103857143D01*
X106035714Y-104928571D01*
X106392857Y-103428571D01*
X106964286Y-104928571D02*
X106964286Y-103428571D01*
X107821429Y-104928571D01*
X107821429Y-103428571D01*
X104321429Y-78178571D02*
X104321429Y-79392857D01*
X104392857Y-79535714D01*
X104464286Y-79607143D01*
X104607143Y-79678571D01*
X104892857Y-79678571D01*
X105035715Y-79607143D01*
X105107143Y-79535714D01*
X105178572Y-79392857D01*
X105178572Y-78178571D01*
X105892858Y-79678571D02*
X105892858Y-78178571D01*
X106464286Y-78178571D01*
X106607144Y-78250000D01*
X106678572Y-78321429D01*
X106750001Y-78464286D01*
X106750001Y-78678571D01*
X106678572Y-78821429D01*
X106607144Y-78892857D01*
X106464286Y-78964286D01*
X105892858Y-78964286D01*
D12*
X190892857Y-104857143D02*
X191178571Y-104952381D01*
X191273810Y-105047619D01*
X191369048Y-105238095D01*
X191369048Y-105523810D01*
X191273810Y-105714286D01*
X191178571Y-105809524D01*
X190988095Y-105904762D01*
X190226190Y-105904762D01*
X190226190Y-103904762D01*
X190892857Y-103904762D01*
X191083333Y-104000000D01*
X191178571Y-104095238D01*
X191273810Y-104285714D01*
X191273810Y-104476190D01*
X191178571Y-104666667D01*
X191083333Y-104761905D01*
X190892857Y-104857143D01*
X190226190Y-104857143D01*
X195583333Y-76654762D02*
X196916667Y-78654762D01*
X196916667Y-76654762D02*
X195583333Y-78654762D01*
X180000000Y-91202381D02*
X180000000Y-92154762D01*
X179333333Y-90154762D02*
X180000000Y-91202381D01*
X180666667Y-90154762D01*
X208023809Y-91333333D02*
X208976190Y-91333333D01*
X207833333Y-91904762D02*
X208500000Y-89904762D01*
X209166667Y-91904762D01*
D13*
X203047619Y-84452381D02*
X203238096Y-84452381D01*
X203333334Y-84500000D01*
X203428572Y-84595238D01*
X203476191Y-84785714D01*
X203476191Y-85119048D01*
X203428572Y-85309524D01*
X203333334Y-85404762D01*
X203238096Y-85452381D01*
X203047619Y-85452381D01*
X202952381Y-85404762D01*
X202857143Y-85309524D01*
X202809524Y-85119048D01*
X202809524Y-84785714D01*
X202857143Y-84595238D01*
X202952381Y-84500000D01*
X203047619Y-84452381D01*
X204238096Y-84928571D02*
X203904762Y-84928571D01*
X203904762Y-85452381D02*
X203904762Y-84452381D01*
X204380953Y-84452381D01*
X205095239Y-84928571D02*
X204761905Y-84928571D01*
X204761905Y-85452381D02*
X204761905Y-84452381D01*
X205238096Y-84452381D01*
D11*
X119607144Y-79978571D02*
X119107144Y-79264286D01*
X118750001Y-79978571D02*
X118750001Y-78478571D01*
X119321429Y-78478571D01*
X119464287Y-78550000D01*
X119535715Y-78621429D01*
X119607144Y-78764286D01*
X119607144Y-78978571D01*
X119535715Y-79121429D01*
X119464287Y-79192857D01*
X119321429Y-79264286D01*
X118750001Y-79264286D01*
X120821429Y-79907143D02*
X120678572Y-79978571D01*
X120392858Y-79978571D01*
X120250001Y-79907143D01*
X120178572Y-79764286D01*
X120178572Y-79192857D01*
X120250001Y-79050000D01*
X120392858Y-78978571D01*
X120678572Y-78978571D01*
X120821429Y-79050000D01*
X120892858Y-79192857D01*
X120892858Y-79335714D01*
X120178572Y-79478571D01*
X121392858Y-78978571D02*
X121750001Y-79978571D01*
X122107143Y-78978571D01*
X122678572Y-79835714D02*
X122750000Y-79907143D01*
X122678572Y-79978571D01*
X122607143Y-79907143D01*
X122678572Y-79835714D01*
X122678572Y-79978571D01*
X124464286Y-78621429D02*
X124535715Y-78550000D01*
X124678572Y-78478571D01*
X125035715Y-78478571D01*
X125178572Y-78550000D01*
X125250001Y-78621429D01*
X125321429Y-78764286D01*
X125321429Y-78907143D01*
X125250001Y-79121429D01*
X124392858Y-79978571D01*
X125321429Y-79978571D01*
D12*
X120358631Y-74130952D02*
X119168155Y-74130952D01*
X119480655Y-71630952D01*
X121191965Y-74130952D02*
X121400298Y-72464286D01*
X121504465Y-71630952D02*
X121370536Y-71750000D01*
X121474703Y-71869048D01*
X121608632Y-71750000D01*
X121504465Y-71630952D01*
X121474703Y-71869048D01*
X123662203Y-72464286D02*
X123409227Y-74488095D01*
X123260417Y-74726190D01*
X123126488Y-74845238D01*
X122873512Y-74964286D01*
X122516369Y-74964286D01*
X122293155Y-74845238D01*
X123468751Y-74011905D02*
X123215774Y-74130952D01*
X122739584Y-74130952D01*
X122516370Y-74011905D01*
X122412203Y-73892857D01*
X122322917Y-73654762D01*
X122412203Y-72940476D01*
X122561012Y-72702381D01*
X122694941Y-72583333D01*
X122947917Y-72464286D01*
X123424107Y-72464286D01*
X123647322Y-72583333D01*
X124644346Y-74130952D02*
X124956846Y-71630952D01*
X125715775Y-74130952D02*
X125879465Y-72821429D01*
X125790179Y-72583333D01*
X125566965Y-72464286D01*
X125209822Y-72464286D01*
X124956846Y-72583333D01*
X124822917Y-72702381D01*
X126757441Y-72464286D02*
X127709822Y-72464286D01*
X127218751Y-71630952D02*
X126950894Y-73773810D01*
X127040180Y-74011905D01*
X127263394Y-74130952D01*
X127501489Y-74130952D01*
X130239584Y-74130952D02*
X130552084Y-71630952D01*
X131400298Y-72464286D02*
X131787203Y-74130952D01*
X132590774Y-72464286D01*
X133305060Y-72464286D02*
X133691965Y-74130952D01*
X134495536Y-72464286D02*
X133691965Y-74130952D01*
X133379465Y-74726190D01*
X133245536Y-74845238D01*
X132992560Y-74964286D01*
D14*
X148270000Y-97750000D02*
G75*
G03X148270000Y-97750000I-3270000J0D01*
G01*
X148230000Y-97750000D02*
X141770000Y-97750000D01*
X148230000Y-97790000D02*
X141770000Y-97790000D01*
X148230000Y-97830000D02*
X141770000Y-97830000D01*
X148228000Y-97870000D02*
X141772000Y-97870000D01*
X148227000Y-97910000D02*
X141773000Y-97910000D01*
X148224000Y-97950000D02*
X141776000Y-97950000D01*
X148222000Y-97990000D02*
X146040000Y-97990000D01*
X143960000Y-97990000D02*
X141778000Y-97990000D01*
X148218000Y-98030000D02*
X146040000Y-98030000D01*
X143960000Y-98030000D02*
X141782000Y-98030000D01*
X148215000Y-98070000D02*
X146040000Y-98070000D01*
X143960000Y-98070000D02*
X141785000Y-98070000D01*
X148211000Y-98110000D02*
X146040000Y-98110000D01*
X143960000Y-98110000D02*
X141789000Y-98110000D01*
X148206000Y-98150000D02*
X146040000Y-98150000D01*
X143960000Y-98150000D02*
X141794000Y-98150000D01*
X148201000Y-98190000D02*
X146040000Y-98190000D01*
X143960000Y-98190000D02*
X141799000Y-98190000D01*
X148195000Y-98230000D02*
X146040000Y-98230000D01*
X143960000Y-98230000D02*
X141805000Y-98230000D01*
X148189000Y-98270000D02*
X146040000Y-98270000D01*
X143960000Y-98270000D02*
X141811000Y-98270000D01*
X148182000Y-98310000D02*
X146040000Y-98310000D01*
X143960000Y-98310000D02*
X141818000Y-98310000D01*
X148175000Y-98350000D02*
X146040000Y-98350000D01*
X143960000Y-98350000D02*
X141825000Y-98350000D01*
X148167000Y-98390000D02*
X146040000Y-98390000D01*
X143960000Y-98390000D02*
X141833000Y-98390000D01*
X148159000Y-98430000D02*
X146040000Y-98430000D01*
X143960000Y-98430000D02*
X141841000Y-98430000D01*
X148150000Y-98471000D02*
X146040000Y-98471000D01*
X143960000Y-98471000D02*
X141850000Y-98471000D01*
X148141000Y-98511000D02*
X146040000Y-98511000D01*
X143960000Y-98511000D02*
X141859000Y-98511000D01*
X148131000Y-98551000D02*
X146040000Y-98551000D01*
X143960000Y-98551000D02*
X141869000Y-98551000D01*
X148121000Y-98591000D02*
X146040000Y-98591000D01*
X143960000Y-98591000D02*
X141879000Y-98591000D01*
X148110000Y-98631000D02*
X146040000Y-98631000D01*
X143960000Y-98631000D02*
X141890000Y-98631000D01*
X148098000Y-98671000D02*
X146040000Y-98671000D01*
X143960000Y-98671000D02*
X141902000Y-98671000D01*
X148086000Y-98711000D02*
X146040000Y-98711000D01*
X143960000Y-98711000D02*
X141914000Y-98711000D01*
X148074000Y-98751000D02*
X146040000Y-98751000D01*
X143960000Y-98751000D02*
X141926000Y-98751000D01*
X148061000Y-98791000D02*
X146040000Y-98791000D01*
X143960000Y-98791000D02*
X141939000Y-98791000D01*
X148047000Y-98831000D02*
X146040000Y-98831000D01*
X143960000Y-98831000D02*
X141953000Y-98831000D01*
X148033000Y-98871000D02*
X146040000Y-98871000D01*
X143960000Y-98871000D02*
X141967000Y-98871000D01*
X148018000Y-98911000D02*
X146040000Y-98911000D01*
X143960000Y-98911000D02*
X141982000Y-98911000D01*
X148002000Y-98951000D02*
X146040000Y-98951000D01*
X143960000Y-98951000D02*
X141998000Y-98951000D01*
X147986000Y-98991000D02*
X146040000Y-98991000D01*
X143960000Y-98991000D02*
X142014000Y-98991000D01*
X147970000Y-99031000D02*
X146040000Y-99031000D01*
X143960000Y-99031000D02*
X142030000Y-99031000D01*
X147952000Y-99071000D02*
X146040000Y-99071000D01*
X143960000Y-99071000D02*
X142048000Y-99071000D01*
X147934000Y-99111000D02*
X146040000Y-99111000D01*
X143960000Y-99111000D02*
X142066000Y-99111000D01*
X147916000Y-99151000D02*
X146040000Y-99151000D01*
X143960000Y-99151000D02*
X142084000Y-99151000D01*
X147896000Y-99191000D02*
X146040000Y-99191000D01*
X143960000Y-99191000D02*
X142104000Y-99191000D01*
X147876000Y-99231000D02*
X146040000Y-99231000D01*
X143960000Y-99231000D02*
X142124000Y-99231000D01*
X147856000Y-99271000D02*
X146040000Y-99271000D01*
X143960000Y-99271000D02*
X142144000Y-99271000D01*
X147834000Y-99311000D02*
X146040000Y-99311000D01*
X143960000Y-99311000D02*
X142166000Y-99311000D01*
X147812000Y-99351000D02*
X146040000Y-99351000D01*
X143960000Y-99351000D02*
X142188000Y-99351000D01*
X147790000Y-99391000D02*
X146040000Y-99391000D01*
X143960000Y-99391000D02*
X142210000Y-99391000D01*
X147766000Y-99431000D02*
X146040000Y-99431000D01*
X143960000Y-99431000D02*
X142234000Y-99431000D01*
X147742000Y-99471000D02*
X146040000Y-99471000D01*
X143960000Y-99471000D02*
X142258000Y-99471000D01*
X147716000Y-99511000D02*
X146040000Y-99511000D01*
X143960000Y-99511000D02*
X142284000Y-99511000D01*
X147690000Y-99551000D02*
X146040000Y-99551000D01*
X143960000Y-99551000D02*
X142310000Y-99551000D01*
X147664000Y-99591000D02*
X146040000Y-99591000D01*
X143960000Y-99591000D02*
X142336000Y-99591000D01*
X147636000Y-99631000D02*
X146040000Y-99631000D01*
X143960000Y-99631000D02*
X142364000Y-99631000D01*
X147607000Y-99671000D02*
X146040000Y-99671000D01*
X143960000Y-99671000D02*
X142393000Y-99671000D01*
X147578000Y-99711000D02*
X146040000Y-99711000D01*
X143960000Y-99711000D02*
X142422000Y-99711000D01*
X147548000Y-99751000D02*
X146040000Y-99751000D01*
X143960000Y-99751000D02*
X142452000Y-99751000D01*
X147516000Y-99791000D02*
X146040000Y-99791000D01*
X143960000Y-99791000D02*
X142484000Y-99791000D01*
X147484000Y-99831000D02*
X146040000Y-99831000D01*
X143960000Y-99831000D02*
X142516000Y-99831000D01*
X147450000Y-99871000D02*
X146040000Y-99871000D01*
X143960000Y-99871000D02*
X142550000Y-99871000D01*
X147416000Y-99911000D02*
X146040000Y-99911000D01*
X143960000Y-99911000D02*
X142584000Y-99911000D01*
X147380000Y-99951000D02*
X146040000Y-99951000D01*
X143960000Y-99951000D02*
X142620000Y-99951000D01*
X147343000Y-99991000D02*
X146040000Y-99991000D01*
X143960000Y-99991000D02*
X142657000Y-99991000D01*
X147305000Y-100031000D02*
X146040000Y-100031000D01*
X143960000Y-100031000D02*
X142695000Y-100031000D01*
X147265000Y-100071000D02*
X142735000Y-100071000D01*
X147224000Y-100111000D02*
X142776000Y-100111000D01*
X147182000Y-100151000D02*
X142818000Y-100151000D01*
X147137000Y-100191000D02*
X142863000Y-100191000D01*
X147092000Y-100231000D02*
X142908000Y-100231000D01*
X147044000Y-100271000D02*
X142956000Y-100271000D01*
X146995000Y-100311000D02*
X143005000Y-100311000D01*
X146944000Y-100351000D02*
X143056000Y-100351000D01*
X146890000Y-100391000D02*
X143110000Y-100391000D01*
X146834000Y-100431000D02*
X143166000Y-100431000D01*
X146776000Y-100471000D02*
X143224000Y-100471000D01*
X146714000Y-100511000D02*
X143286000Y-100511000D01*
X146650000Y-100551000D02*
X143350000Y-100551000D01*
X146581000Y-100591000D02*
X143419000Y-100591000D01*
X146509000Y-100631000D02*
X143491000Y-100631000D01*
X146432000Y-100671000D02*
X143568000Y-100671000D01*
X146350000Y-100711000D02*
X143650000Y-100711000D01*
X146262000Y-100751000D02*
X143738000Y-100751000D01*
X146165000Y-100791000D02*
X143835000Y-100791000D01*
X146059000Y-100831000D02*
X143941000Y-100831000D01*
X145940000Y-100871000D02*
X144060000Y-100871000D01*
X145802000Y-100911000D02*
X144198000Y-100911000D01*
X145633000Y-100951000D02*
X144367000Y-100951000D01*
X145402000Y-100991000D02*
X144598000Y-100991000D01*
X146839000Y-94249759D02*
X146839000Y-94879759D01*
X147154000Y-94564759D02*
X146524000Y-94564759D01*
X112361000Y-112413000D02*
X112361000Y-113587000D01*
X110639000Y-112413000D02*
X110639000Y-113587000D01*
X175670000Y-85330000D02*
X178330000Y-85330000D01*
X175670000Y-85270000D02*
X175670000Y-85330000D01*
X178330000Y-85270000D02*
X178330000Y-85330000D01*
X175670000Y-85270000D02*
X178330000Y-85270000D01*
X175670000Y-84000000D02*
X175670000Y-82670000D01*
X175670000Y-82670000D02*
X177000000Y-82670000D01*
X175670000Y-101330000D02*
X178330000Y-101330000D01*
X175670000Y-101270000D02*
X175670000Y-101330000D01*
X178330000Y-101270000D02*
X178330000Y-101330000D01*
X175670000Y-101270000D02*
X178330000Y-101270000D01*
X175670000Y-100000000D02*
X175670000Y-98670000D01*
X175670000Y-98670000D02*
X177000000Y-98670000D01*
X171970000Y-69670000D02*
X171970000Y-72330000D01*
X184730000Y-69670000D02*
X171970000Y-69670000D01*
X184730000Y-72330000D02*
X171970000Y-72330000D01*
X184730000Y-69670000D02*
X184730000Y-72330000D01*
X186000000Y-69670000D02*
X187330000Y-69670000D01*
X187330000Y-69670000D02*
X187330000Y-71000000D01*
X155270000Y-97750000D02*
G75*
G03X155270000Y-97750000I-3270000J0D01*
G01*
X155230000Y-97750000D02*
X148770000Y-97750000D01*
X155230000Y-97790000D02*
X148770000Y-97790000D01*
X155230000Y-97830000D02*
X148770000Y-97830000D01*
X155228000Y-97870000D02*
X148772000Y-97870000D01*
X155227000Y-97910000D02*
X148773000Y-97910000D01*
X155224000Y-97950000D02*
X148776000Y-97950000D01*
X155222000Y-97990000D02*
X153040000Y-97990000D01*
X150960000Y-97990000D02*
X148778000Y-97990000D01*
X155218000Y-98030000D02*
X153040000Y-98030000D01*
X150960000Y-98030000D02*
X148782000Y-98030000D01*
X155215000Y-98070000D02*
X153040000Y-98070000D01*
X150960000Y-98070000D02*
X148785000Y-98070000D01*
X155211000Y-98110000D02*
X153040000Y-98110000D01*
X150960000Y-98110000D02*
X148789000Y-98110000D01*
X155206000Y-98150000D02*
X153040000Y-98150000D01*
X150960000Y-98150000D02*
X148794000Y-98150000D01*
X155201000Y-98190000D02*
X153040000Y-98190000D01*
X150960000Y-98190000D02*
X148799000Y-98190000D01*
X155195000Y-98230000D02*
X153040000Y-98230000D01*
X150960000Y-98230000D02*
X148805000Y-98230000D01*
X155189000Y-98270000D02*
X153040000Y-98270000D01*
X150960000Y-98270000D02*
X148811000Y-98270000D01*
X155182000Y-98310000D02*
X153040000Y-98310000D01*
X150960000Y-98310000D02*
X148818000Y-98310000D01*
X155175000Y-98350000D02*
X153040000Y-98350000D01*
X150960000Y-98350000D02*
X148825000Y-98350000D01*
X155167000Y-98390000D02*
X153040000Y-98390000D01*
X150960000Y-98390000D02*
X148833000Y-98390000D01*
X155159000Y-98430000D02*
X153040000Y-98430000D01*
X150960000Y-98430000D02*
X148841000Y-98430000D01*
X155150000Y-98471000D02*
X153040000Y-98471000D01*
X150960000Y-98471000D02*
X148850000Y-98471000D01*
X155141000Y-98511000D02*
X153040000Y-98511000D01*
X150960000Y-98511000D02*
X148859000Y-98511000D01*
X155131000Y-98551000D02*
X153040000Y-98551000D01*
X150960000Y-98551000D02*
X148869000Y-98551000D01*
X155121000Y-98591000D02*
X153040000Y-98591000D01*
X150960000Y-98591000D02*
X148879000Y-98591000D01*
X155110000Y-98631000D02*
X153040000Y-98631000D01*
X150960000Y-98631000D02*
X148890000Y-98631000D01*
X155098000Y-98671000D02*
X153040000Y-98671000D01*
X150960000Y-98671000D02*
X148902000Y-98671000D01*
X155086000Y-98711000D02*
X153040000Y-98711000D01*
X150960000Y-98711000D02*
X148914000Y-98711000D01*
X155074000Y-98751000D02*
X153040000Y-98751000D01*
X150960000Y-98751000D02*
X148926000Y-98751000D01*
X155061000Y-98791000D02*
X153040000Y-98791000D01*
X150960000Y-98791000D02*
X148939000Y-98791000D01*
X155047000Y-98831000D02*
X153040000Y-98831000D01*
X150960000Y-98831000D02*
X148953000Y-98831000D01*
X155033000Y-98871000D02*
X153040000Y-98871000D01*
X150960000Y-98871000D02*
X148967000Y-98871000D01*
X155018000Y-98911000D02*
X153040000Y-98911000D01*
X150960000Y-98911000D02*
X148982000Y-98911000D01*
X155002000Y-98951000D02*
X153040000Y-98951000D01*
X150960000Y-98951000D02*
X148998000Y-98951000D01*
X154986000Y-98991000D02*
X153040000Y-98991000D01*
X150960000Y-98991000D02*
X149014000Y-98991000D01*
X154970000Y-99031000D02*
X153040000Y-99031000D01*
X150960000Y-99031000D02*
X149030000Y-99031000D01*
X154952000Y-99071000D02*
X153040000Y-99071000D01*
X150960000Y-99071000D02*
X149048000Y-99071000D01*
X154934000Y-99111000D02*
X153040000Y-99111000D01*
X150960000Y-99111000D02*
X149066000Y-99111000D01*
X154916000Y-99151000D02*
X153040000Y-99151000D01*
X150960000Y-99151000D02*
X149084000Y-99151000D01*
X154896000Y-99191000D02*
X153040000Y-99191000D01*
X150960000Y-99191000D02*
X149104000Y-99191000D01*
X154876000Y-99231000D02*
X153040000Y-99231000D01*
X150960000Y-99231000D02*
X149124000Y-99231000D01*
X154856000Y-99271000D02*
X153040000Y-99271000D01*
X150960000Y-99271000D02*
X149144000Y-99271000D01*
X154834000Y-99311000D02*
X153040000Y-99311000D01*
X150960000Y-99311000D02*
X149166000Y-99311000D01*
X154812000Y-99351000D02*
X153040000Y-99351000D01*
X150960000Y-99351000D02*
X149188000Y-99351000D01*
X154790000Y-99391000D02*
X153040000Y-99391000D01*
X150960000Y-99391000D02*
X149210000Y-99391000D01*
X154766000Y-99431000D02*
X153040000Y-99431000D01*
X150960000Y-99431000D02*
X149234000Y-99431000D01*
X154742000Y-99471000D02*
X153040000Y-99471000D01*
X150960000Y-99471000D02*
X149258000Y-99471000D01*
X154716000Y-99511000D02*
X153040000Y-99511000D01*
X150960000Y-99511000D02*
X149284000Y-99511000D01*
X154690000Y-99551000D02*
X153040000Y-99551000D01*
X150960000Y-99551000D02*
X149310000Y-99551000D01*
X154664000Y-99591000D02*
X153040000Y-99591000D01*
X150960000Y-99591000D02*
X149336000Y-99591000D01*
X154636000Y-99631000D02*
X153040000Y-99631000D01*
X150960000Y-99631000D02*
X149364000Y-99631000D01*
X154607000Y-99671000D02*
X153040000Y-99671000D01*
X150960000Y-99671000D02*
X149393000Y-99671000D01*
X154578000Y-99711000D02*
X153040000Y-99711000D01*
X150960000Y-99711000D02*
X149422000Y-99711000D01*
X154548000Y-99751000D02*
X153040000Y-99751000D01*
X150960000Y-99751000D02*
X149452000Y-99751000D01*
X154516000Y-99791000D02*
X153040000Y-99791000D01*
X150960000Y-99791000D02*
X149484000Y-99791000D01*
X154484000Y-99831000D02*
X153040000Y-99831000D01*
X150960000Y-99831000D02*
X149516000Y-99831000D01*
X154450000Y-99871000D02*
X153040000Y-99871000D01*
X150960000Y-99871000D02*
X149550000Y-99871000D01*
X154416000Y-99911000D02*
X153040000Y-99911000D01*
X150960000Y-99911000D02*
X149584000Y-99911000D01*
X154380000Y-99951000D02*
X153040000Y-99951000D01*
X150960000Y-99951000D02*
X149620000Y-99951000D01*
X154343000Y-99991000D02*
X153040000Y-99991000D01*
X150960000Y-99991000D02*
X149657000Y-99991000D01*
X154305000Y-100031000D02*
X153040000Y-100031000D01*
X150960000Y-100031000D02*
X149695000Y-100031000D01*
X154265000Y-100071000D02*
X149735000Y-100071000D01*
X154224000Y-100111000D02*
X149776000Y-100111000D01*
X154182000Y-100151000D02*
X149818000Y-100151000D01*
X154137000Y-100191000D02*
X149863000Y-100191000D01*
X154092000Y-100231000D02*
X149908000Y-100231000D01*
X154044000Y-100271000D02*
X149956000Y-100271000D01*
X153995000Y-100311000D02*
X150005000Y-100311000D01*
X153944000Y-100351000D02*
X150056000Y-100351000D01*
X153890000Y-100391000D02*
X150110000Y-100391000D01*
X153834000Y-100431000D02*
X150166000Y-100431000D01*
X153776000Y-100471000D02*
X150224000Y-100471000D01*
X153714000Y-100511000D02*
X150286000Y-100511000D01*
X153650000Y-100551000D02*
X150350000Y-100551000D01*
X153581000Y-100591000D02*
X150419000Y-100591000D01*
X153509000Y-100631000D02*
X150491000Y-100631000D01*
X153432000Y-100671000D02*
X150568000Y-100671000D01*
X153350000Y-100711000D02*
X150650000Y-100711000D01*
X153262000Y-100751000D02*
X150738000Y-100751000D01*
X153165000Y-100791000D02*
X150835000Y-100791000D01*
X153059000Y-100831000D02*
X150941000Y-100831000D01*
X152940000Y-100871000D02*
X151060000Y-100871000D01*
X152802000Y-100911000D02*
X151198000Y-100911000D01*
X152633000Y-100951000D02*
X151367000Y-100951000D01*
X152402000Y-100991000D02*
X151598000Y-100991000D01*
X153839000Y-94249759D02*
X153839000Y-94879759D01*
X154154000Y-94564759D02*
X153524000Y-94564759D01*
X198870000Y-107750000D02*
G75*
G03X198870000Y-107750000I-2120000J0D01*
G01*
X196750000Y-106910000D02*
X196750000Y-105670000D01*
X196750000Y-109830000D02*
X196750000Y-108590000D01*
X196710000Y-106910000D02*
X196710000Y-105670000D01*
X196710000Y-109830000D02*
X196710000Y-108590000D01*
X196670000Y-106910000D02*
X196670000Y-105671000D01*
X196670000Y-109829000D02*
X196670000Y-108590000D01*
X196630000Y-109827000D02*
X196630000Y-108590000D01*
X196630000Y-106910000D02*
X196630000Y-105673000D01*
X196590000Y-109824000D02*
X196590000Y-108590000D01*
X196590000Y-106910000D02*
X196590000Y-105676000D01*
X196550000Y-109821000D02*
X196550000Y-108590000D01*
X196550000Y-106910000D02*
X196550000Y-105679000D01*
X196510000Y-109817000D02*
X196510000Y-108590000D01*
X196510000Y-106910000D02*
X196510000Y-105683000D01*
X196470000Y-109812000D02*
X196470000Y-108590000D01*
X196470000Y-106910000D02*
X196470000Y-105688000D01*
X196430000Y-109806000D02*
X196430000Y-108590000D01*
X196430000Y-106910000D02*
X196430000Y-105694000D01*
X196390000Y-109800000D02*
X196390000Y-108590000D01*
X196390000Y-106910000D02*
X196390000Y-105700000D01*
X196350000Y-109792000D02*
X196350000Y-108590000D01*
X196350000Y-106910000D02*
X196350000Y-105708000D01*
X196310000Y-109784000D02*
X196310000Y-108590000D01*
X196310000Y-106910000D02*
X196310000Y-105716000D01*
X196270000Y-109775000D02*
X196270000Y-108590000D01*
X196270000Y-106910000D02*
X196270000Y-105725000D01*
X196230000Y-109766000D02*
X196230000Y-108590000D01*
X196230000Y-106910000D02*
X196230000Y-105734000D01*
X196190000Y-109755000D02*
X196190000Y-108590000D01*
X196190000Y-106910000D02*
X196190000Y-105745000D01*
X196150000Y-109744000D02*
X196150000Y-108590000D01*
X196150000Y-106910000D02*
X196150000Y-105756000D01*
X196110000Y-109732000D02*
X196110000Y-108590000D01*
X196110000Y-106910000D02*
X196110000Y-105768000D01*
X196070000Y-109718000D02*
X196070000Y-108590000D01*
X196070000Y-106910000D02*
X196070000Y-105782000D01*
X196029000Y-109704000D02*
X196029000Y-108590000D01*
X196029000Y-106910000D02*
X196029000Y-105796000D01*
X195989000Y-109690000D02*
X195989000Y-108590000D01*
X195989000Y-106910000D02*
X195989000Y-105810000D01*
X195949000Y-109674000D02*
X195949000Y-108590000D01*
X195949000Y-106910000D02*
X195949000Y-105826000D01*
X195909000Y-109657000D02*
X195909000Y-108590000D01*
X195909000Y-106910000D02*
X195909000Y-105843000D01*
X195869000Y-109639000D02*
X195869000Y-108590000D01*
X195869000Y-106910000D02*
X195869000Y-105861000D01*
X195829000Y-109620000D02*
X195829000Y-108590000D01*
X195829000Y-106910000D02*
X195829000Y-105880000D01*
X195789000Y-109601000D02*
X195789000Y-108590000D01*
X195789000Y-106910000D02*
X195789000Y-105899000D01*
X195749000Y-109580000D02*
X195749000Y-108590000D01*
X195749000Y-106910000D02*
X195749000Y-105920000D01*
X195709000Y-109558000D02*
X195709000Y-108590000D01*
X195709000Y-106910000D02*
X195709000Y-105942000D01*
X195669000Y-109535000D02*
X195669000Y-108590000D01*
X195669000Y-106910000D02*
X195669000Y-105965000D01*
X195629000Y-109510000D02*
X195629000Y-108590000D01*
X195629000Y-106910000D02*
X195629000Y-105990000D01*
X195589000Y-109485000D02*
X195589000Y-108590000D01*
X195589000Y-106910000D02*
X195589000Y-106015000D01*
X195549000Y-109458000D02*
X195549000Y-108590000D01*
X195549000Y-106910000D02*
X195549000Y-106042000D01*
X195509000Y-109430000D02*
X195509000Y-108590000D01*
X195509000Y-106910000D02*
X195509000Y-106070000D01*
X195469000Y-109400000D02*
X195469000Y-108590000D01*
X195469000Y-106910000D02*
X195469000Y-106100000D01*
X195429000Y-109369000D02*
X195429000Y-108590000D01*
X195429000Y-106910000D02*
X195429000Y-106131000D01*
X195389000Y-109337000D02*
X195389000Y-108590000D01*
X195389000Y-106910000D02*
X195389000Y-106163000D01*
X195349000Y-109302000D02*
X195349000Y-108590000D01*
X195349000Y-106910000D02*
X195349000Y-106198000D01*
X195309000Y-109266000D02*
X195309000Y-108590000D01*
X195309000Y-106910000D02*
X195309000Y-106234000D01*
X195269000Y-109228000D02*
X195269000Y-108590000D01*
X195269000Y-106910000D02*
X195269000Y-106272000D01*
X195229000Y-109188000D02*
X195229000Y-108590000D01*
X195229000Y-106910000D02*
X195229000Y-106312000D01*
X195189000Y-109146000D02*
X195189000Y-108590000D01*
X195189000Y-106910000D02*
X195189000Y-106354000D01*
X195149000Y-109101000D02*
X195149000Y-106399000D01*
X195109000Y-109054000D02*
X195109000Y-106446000D01*
X195069000Y-109004000D02*
X195069000Y-106496000D01*
X195029000Y-108950000D02*
X195029000Y-106550000D01*
X194989000Y-108892000D02*
X194989000Y-106608000D01*
X194949000Y-108830000D02*
X194949000Y-106670000D01*
X194909000Y-108763000D02*
X194909000Y-106737000D01*
X194869000Y-108690000D02*
X194869000Y-106810000D01*
X194829000Y-108609000D02*
X194829000Y-106891000D01*
X194789000Y-108518000D02*
X194789000Y-106982000D01*
X194749000Y-108414000D02*
X194749000Y-107086000D01*
X194709000Y-108287000D02*
X194709000Y-107213000D01*
X194669000Y-108120000D02*
X194669000Y-107380000D01*
X199019801Y-108945000D02*
X198619801Y-108945000D01*
X198819801Y-109145000D02*
X198819801Y-108745000D01*
X145913000Y-91139000D02*
X147087000Y-91139000D01*
X145913000Y-92861000D02*
X147087000Y-92861000D01*
X197200000Y-112220000D02*
X198400000Y-112220000D01*
X198400000Y-112220000D02*
X198400000Y-114920000D01*
X193600000Y-116220000D02*
X193600000Y-112220000D01*
X193600000Y-112220000D02*
X194800000Y-112220000D01*
X204870000Y-98000000D02*
G75*
G03X204870000Y-98000000I-2120000J0D01*
G01*
X202750000Y-98840000D02*
X202750000Y-100080000D01*
X202750000Y-95920000D02*
X202750000Y-97160000D01*
X202790000Y-98840000D02*
X202790000Y-100080000D01*
X202790000Y-95920000D02*
X202790000Y-97160000D01*
X202830000Y-98840000D02*
X202830000Y-100079000D01*
X202830000Y-95921000D02*
X202830000Y-97160000D01*
X202870000Y-95923000D02*
X202870000Y-97160000D01*
X202870000Y-98840000D02*
X202870000Y-100077000D01*
X202910000Y-95926000D02*
X202910000Y-97160000D01*
X202910000Y-98840000D02*
X202910000Y-100074000D01*
X202950000Y-95929000D02*
X202950000Y-97160000D01*
X202950000Y-98840000D02*
X202950000Y-100071000D01*
X202990000Y-95933000D02*
X202990000Y-97160000D01*
X202990000Y-98840000D02*
X202990000Y-100067000D01*
X203030000Y-95938000D02*
X203030000Y-97160000D01*
X203030000Y-98840000D02*
X203030000Y-100062000D01*
X203070000Y-95944000D02*
X203070000Y-97160000D01*
X203070000Y-98840000D02*
X203070000Y-100056000D01*
X203110000Y-95950000D02*
X203110000Y-97160000D01*
X203110000Y-98840000D02*
X203110000Y-100050000D01*
X203150000Y-95958000D02*
X203150000Y-97160000D01*
X203150000Y-98840000D02*
X203150000Y-100042000D01*
X203190000Y-95966000D02*
X203190000Y-97160000D01*
X203190000Y-98840000D02*
X203190000Y-100034000D01*
X203230000Y-95975000D02*
X203230000Y-97160000D01*
X203230000Y-98840000D02*
X203230000Y-100025000D01*
X203270000Y-95984000D02*
X203270000Y-97160000D01*
X203270000Y-98840000D02*
X203270000Y-100016000D01*
X203310000Y-95995000D02*
X203310000Y-97160000D01*
X203310000Y-98840000D02*
X203310000Y-100005000D01*
X203350000Y-96006000D02*
X203350000Y-97160000D01*
X203350000Y-98840000D02*
X203350000Y-99994000D01*
X203390000Y-96018000D02*
X203390000Y-97160000D01*
X203390000Y-98840000D02*
X203390000Y-99982000D01*
X203430000Y-96032000D02*
X203430000Y-97160000D01*
X203430000Y-98840000D02*
X203430000Y-99968000D01*
X203471000Y-96046000D02*
X203471000Y-97160000D01*
X203471000Y-98840000D02*
X203471000Y-99954000D01*
X203511000Y-96060000D02*
X203511000Y-97160000D01*
X203511000Y-98840000D02*
X203511000Y-99940000D01*
X203551000Y-96076000D02*
X203551000Y-97160000D01*
X203551000Y-98840000D02*
X203551000Y-99924000D01*
X203591000Y-96093000D02*
X203591000Y-97160000D01*
X203591000Y-98840000D02*
X203591000Y-99907000D01*
X203631000Y-96111000D02*
X203631000Y-97160000D01*
X203631000Y-98840000D02*
X203631000Y-99889000D01*
X203671000Y-96130000D02*
X203671000Y-97160000D01*
X203671000Y-98840000D02*
X203671000Y-99870000D01*
X203711000Y-96149000D02*
X203711000Y-97160000D01*
X203711000Y-98840000D02*
X203711000Y-99851000D01*
X203751000Y-96170000D02*
X203751000Y-97160000D01*
X203751000Y-98840000D02*
X203751000Y-99830000D01*
X203791000Y-96192000D02*
X203791000Y-97160000D01*
X203791000Y-98840000D02*
X203791000Y-99808000D01*
X203831000Y-96215000D02*
X203831000Y-97160000D01*
X203831000Y-98840000D02*
X203831000Y-99785000D01*
X203871000Y-96240000D02*
X203871000Y-97160000D01*
X203871000Y-98840000D02*
X203871000Y-99760000D01*
X203911000Y-96265000D02*
X203911000Y-97160000D01*
X203911000Y-98840000D02*
X203911000Y-99735000D01*
X203951000Y-96292000D02*
X203951000Y-97160000D01*
X203951000Y-98840000D02*
X203951000Y-99708000D01*
X203991000Y-96320000D02*
X203991000Y-97160000D01*
X203991000Y-98840000D02*
X203991000Y-99680000D01*
X204031000Y-96350000D02*
X204031000Y-97160000D01*
X204031000Y-98840000D02*
X204031000Y-99650000D01*
X204071000Y-96381000D02*
X204071000Y-97160000D01*
X204071000Y-98840000D02*
X204071000Y-99619000D01*
X204111000Y-96413000D02*
X204111000Y-97160000D01*
X204111000Y-98840000D02*
X204111000Y-99587000D01*
X204151000Y-96448000D02*
X204151000Y-97160000D01*
X204151000Y-98840000D02*
X204151000Y-99552000D01*
X204191000Y-96484000D02*
X204191000Y-97160000D01*
X204191000Y-98840000D02*
X204191000Y-99516000D01*
X204231000Y-96522000D02*
X204231000Y-97160000D01*
X204231000Y-98840000D02*
X204231000Y-99478000D01*
X204271000Y-96562000D02*
X204271000Y-97160000D01*
X204271000Y-98840000D02*
X204271000Y-99438000D01*
X204311000Y-96604000D02*
X204311000Y-97160000D01*
X204311000Y-98840000D02*
X204311000Y-99396000D01*
X204351000Y-96649000D02*
X204351000Y-99351000D01*
X204391000Y-96696000D02*
X204391000Y-99304000D01*
X204431000Y-96746000D02*
X204431000Y-99254000D01*
X204471000Y-96800000D02*
X204471000Y-99200000D01*
X204511000Y-96858000D02*
X204511000Y-99142000D01*
X204551000Y-96920000D02*
X204551000Y-99080000D01*
X204591000Y-96987000D02*
X204591000Y-99013000D01*
X204631000Y-97060000D02*
X204631000Y-98940000D01*
X204671000Y-97141000D02*
X204671000Y-98859000D01*
X204711000Y-97232000D02*
X204711000Y-98768000D01*
X204751000Y-97336000D02*
X204751000Y-98664000D01*
X204791000Y-97463000D02*
X204791000Y-98537000D01*
X204831000Y-97630000D02*
X204831000Y-98370000D01*
X200480199Y-96805000D02*
X200880199Y-96805000D01*
X200680199Y-96605000D02*
X200680199Y-97005000D01*
X200940000Y-114460000D02*
X205060000Y-114460000D01*
X205060000Y-114460000D02*
X205060000Y-104840000D01*
X205060000Y-104840000D02*
X200940000Y-104840000D01*
X200940000Y-104840000D02*
X200940000Y-114460000D01*
X203000000Y-114820000D02*
X203000000Y-114460000D01*
X203000000Y-104480000D02*
X203000000Y-104840000D01*
D10*
X210250000Y-81000000D02*
X210250000Y-76500000D01*
X210250000Y-76500000D02*
X205750000Y-76500000D01*
X205750000Y-76500000D02*
X205750000Y-85500000D01*
X205750000Y-85500000D02*
X210000000Y-85500000D01*
X210000000Y-85500000D02*
X210250000Y-85500000D01*
X210250000Y-85500000D02*
X210250000Y-81000000D01*
D14*
X186130000Y-74920000D02*
X182290000Y-74920000D01*
X186130000Y-73080000D02*
X182290000Y-73080000D01*
X177587000Y-75111000D02*
X176413000Y-75111000D01*
X177587000Y-73389000D02*
X176413000Y-73389000D01*
X171620000Y-76580000D02*
X175460000Y-76580000D01*
X171620000Y-78420000D02*
X175460000Y-78420000D01*
X176620000Y-79580000D02*
X180460000Y-79580000D01*
X176620000Y-81420000D02*
X180460000Y-81420000D01*
X142620000Y-71580000D02*
X146460000Y-71580000D01*
X142620000Y-73420000D02*
X146460000Y-73420000D01*
X192520000Y-114250000D02*
G75*
G03X192520000Y-114250000I-3270000J0D01*
G01*
X192480000Y-114250000D02*
X186020000Y-114250000D01*
X192480000Y-114290000D02*
X186020000Y-114290000D01*
X192480000Y-114330000D02*
X186020000Y-114330000D01*
X192478000Y-114370000D02*
X186022000Y-114370000D01*
X192477000Y-114410000D02*
X186023000Y-114410000D01*
X192474000Y-114450000D02*
X186026000Y-114450000D01*
X192472000Y-114490000D02*
X190290000Y-114490000D01*
X188210000Y-114490000D02*
X186028000Y-114490000D01*
X192468000Y-114530000D02*
X190290000Y-114530000D01*
X188210000Y-114530000D02*
X186032000Y-114530000D01*
X192465000Y-114570000D02*
X190290000Y-114570000D01*
X188210000Y-114570000D02*
X186035000Y-114570000D01*
X192461000Y-114610000D02*
X190290000Y-114610000D01*
X188210000Y-114610000D02*
X186039000Y-114610000D01*
X192456000Y-114650000D02*
X190290000Y-114650000D01*
X188210000Y-114650000D02*
X186044000Y-114650000D01*
X192451000Y-114690000D02*
X190290000Y-114690000D01*
X188210000Y-114690000D02*
X186049000Y-114690000D01*
X192445000Y-114730000D02*
X190290000Y-114730000D01*
X188210000Y-114730000D02*
X186055000Y-114730000D01*
X192439000Y-114770000D02*
X190290000Y-114770000D01*
X188210000Y-114770000D02*
X186061000Y-114770000D01*
X192432000Y-114810000D02*
X190290000Y-114810000D01*
X188210000Y-114810000D02*
X186068000Y-114810000D01*
X192425000Y-114850000D02*
X190290000Y-114850000D01*
X188210000Y-114850000D02*
X186075000Y-114850000D01*
X192417000Y-114890000D02*
X190290000Y-114890000D01*
X188210000Y-114890000D02*
X186083000Y-114890000D01*
X192409000Y-114930000D02*
X190290000Y-114930000D01*
X188210000Y-114930000D02*
X186091000Y-114930000D01*
X192400000Y-114971000D02*
X190290000Y-114971000D01*
X188210000Y-114971000D02*
X186100000Y-114971000D01*
X192391000Y-115011000D02*
X190290000Y-115011000D01*
X188210000Y-115011000D02*
X186109000Y-115011000D01*
X192381000Y-115051000D02*
X190290000Y-115051000D01*
X188210000Y-115051000D02*
X186119000Y-115051000D01*
X192371000Y-115091000D02*
X190290000Y-115091000D01*
X188210000Y-115091000D02*
X186129000Y-115091000D01*
X192360000Y-115131000D02*
X190290000Y-115131000D01*
X188210000Y-115131000D02*
X186140000Y-115131000D01*
X192348000Y-115171000D02*
X190290000Y-115171000D01*
X188210000Y-115171000D02*
X186152000Y-115171000D01*
X192336000Y-115211000D02*
X190290000Y-115211000D01*
X188210000Y-115211000D02*
X186164000Y-115211000D01*
X192324000Y-115251000D02*
X190290000Y-115251000D01*
X188210000Y-115251000D02*
X186176000Y-115251000D01*
X192311000Y-115291000D02*
X190290000Y-115291000D01*
X188210000Y-115291000D02*
X186189000Y-115291000D01*
X192297000Y-115331000D02*
X190290000Y-115331000D01*
X188210000Y-115331000D02*
X186203000Y-115331000D01*
X192283000Y-115371000D02*
X190290000Y-115371000D01*
X188210000Y-115371000D02*
X186217000Y-115371000D01*
X192268000Y-115411000D02*
X190290000Y-115411000D01*
X188210000Y-115411000D02*
X186232000Y-115411000D01*
X192252000Y-115451000D02*
X190290000Y-115451000D01*
X188210000Y-115451000D02*
X186248000Y-115451000D01*
X192236000Y-115491000D02*
X190290000Y-115491000D01*
X188210000Y-115491000D02*
X186264000Y-115491000D01*
X192220000Y-115531000D02*
X190290000Y-115531000D01*
X188210000Y-115531000D02*
X186280000Y-115531000D01*
X192202000Y-115571000D02*
X190290000Y-115571000D01*
X188210000Y-115571000D02*
X186298000Y-115571000D01*
X192184000Y-115611000D02*
X190290000Y-115611000D01*
X188210000Y-115611000D02*
X186316000Y-115611000D01*
X192166000Y-115651000D02*
X190290000Y-115651000D01*
X188210000Y-115651000D02*
X186334000Y-115651000D01*
X192146000Y-115691000D02*
X190290000Y-115691000D01*
X188210000Y-115691000D02*
X186354000Y-115691000D01*
X192126000Y-115731000D02*
X190290000Y-115731000D01*
X188210000Y-115731000D02*
X186374000Y-115731000D01*
X192106000Y-115771000D02*
X190290000Y-115771000D01*
X188210000Y-115771000D02*
X186394000Y-115771000D01*
X192084000Y-115811000D02*
X190290000Y-115811000D01*
X188210000Y-115811000D02*
X186416000Y-115811000D01*
X192062000Y-115851000D02*
X190290000Y-115851000D01*
X188210000Y-115851000D02*
X186438000Y-115851000D01*
X192040000Y-115891000D02*
X190290000Y-115891000D01*
X188210000Y-115891000D02*
X186460000Y-115891000D01*
X192016000Y-115931000D02*
X190290000Y-115931000D01*
X188210000Y-115931000D02*
X186484000Y-115931000D01*
X191992000Y-115971000D02*
X190290000Y-115971000D01*
X188210000Y-115971000D02*
X186508000Y-115971000D01*
X191966000Y-116011000D02*
X190290000Y-116011000D01*
X188210000Y-116011000D02*
X186534000Y-116011000D01*
X191940000Y-116051000D02*
X190290000Y-116051000D01*
X188210000Y-116051000D02*
X186560000Y-116051000D01*
X191914000Y-116091000D02*
X190290000Y-116091000D01*
X188210000Y-116091000D02*
X186586000Y-116091000D01*
X191886000Y-116131000D02*
X190290000Y-116131000D01*
X188210000Y-116131000D02*
X186614000Y-116131000D01*
X191857000Y-116171000D02*
X190290000Y-116171000D01*
X188210000Y-116171000D02*
X186643000Y-116171000D01*
X191828000Y-116211000D02*
X190290000Y-116211000D01*
X188210000Y-116211000D02*
X186672000Y-116211000D01*
X191798000Y-116251000D02*
X190290000Y-116251000D01*
X188210000Y-116251000D02*
X186702000Y-116251000D01*
X191766000Y-116291000D02*
X190290000Y-116291000D01*
X188210000Y-116291000D02*
X186734000Y-116291000D01*
X191734000Y-116331000D02*
X190290000Y-116331000D01*
X188210000Y-116331000D02*
X186766000Y-116331000D01*
X191700000Y-116371000D02*
X190290000Y-116371000D01*
X188210000Y-116371000D02*
X186800000Y-116371000D01*
X191666000Y-116411000D02*
X190290000Y-116411000D01*
X188210000Y-116411000D02*
X186834000Y-116411000D01*
X191630000Y-116451000D02*
X190290000Y-116451000D01*
X188210000Y-116451000D02*
X186870000Y-116451000D01*
X191593000Y-116491000D02*
X190290000Y-116491000D01*
X188210000Y-116491000D02*
X186907000Y-116491000D01*
X191555000Y-116531000D02*
X190290000Y-116531000D01*
X188210000Y-116531000D02*
X186945000Y-116531000D01*
X191515000Y-116571000D02*
X186985000Y-116571000D01*
X191474000Y-116611000D02*
X187026000Y-116611000D01*
X191432000Y-116651000D02*
X187068000Y-116651000D01*
X191387000Y-116691000D02*
X187113000Y-116691000D01*
X191342000Y-116731000D02*
X187158000Y-116731000D01*
X191294000Y-116771000D02*
X187206000Y-116771000D01*
X191245000Y-116811000D02*
X187255000Y-116811000D01*
X191194000Y-116851000D02*
X187306000Y-116851000D01*
X191140000Y-116891000D02*
X187360000Y-116891000D01*
X191084000Y-116931000D02*
X187416000Y-116931000D01*
X191026000Y-116971000D02*
X187474000Y-116971000D01*
X190964000Y-117011000D02*
X187536000Y-117011000D01*
X190900000Y-117051000D02*
X187600000Y-117051000D01*
X190831000Y-117091000D02*
X187669000Y-117091000D01*
X190759000Y-117131000D02*
X187741000Y-117131000D01*
X190682000Y-117171000D02*
X187818000Y-117171000D01*
X190600000Y-117211000D02*
X187900000Y-117211000D01*
X190512000Y-117251000D02*
X187988000Y-117251000D01*
X190415000Y-117291000D02*
X188085000Y-117291000D01*
X190309000Y-117331000D02*
X188191000Y-117331000D01*
X190190000Y-117371000D02*
X188310000Y-117371000D01*
X190052000Y-117411000D02*
X188448000Y-117411000D01*
X189883000Y-117451000D02*
X188617000Y-117451000D01*
X189652000Y-117491000D02*
X188848000Y-117491000D01*
X191089000Y-110749759D02*
X191089000Y-111379759D01*
X191404000Y-111064759D02*
X190774000Y-111064759D01*
X116639000Y-84837000D02*
X116639000Y-83663000D01*
X118361000Y-84837000D02*
X118361000Y-83663000D01*
X169330000Y-92380000D02*
X169330000Y-88540000D01*
X171170000Y-92380000D02*
X171170000Y-88540000D01*
X174170000Y-80870000D02*
X174170000Y-84710000D01*
X172330000Y-80870000D02*
X172330000Y-84710000D01*
X171170000Y-80870000D02*
X171170000Y-84710000D01*
X169330000Y-80870000D02*
X169330000Y-84710000D01*
D15*
X150984000Y-92859000D02*
X150984000Y-93621000D01*
X150984000Y-93621000D02*
X166986000Y-93621000D01*
X166986000Y-93621000D02*
X166986000Y-92859000D01*
D14*
X144663000Y-74639000D02*
X145837000Y-74639000D01*
X144663000Y-76361000D02*
X145837000Y-76361000D01*
D10*
X147825000Y-79175000D02*
X147775000Y-79175000D01*
X147825000Y-83325000D02*
X147680000Y-83325000D01*
X142675000Y-83325000D02*
X142820000Y-83325000D01*
X142675000Y-79175000D02*
X142820000Y-79175000D01*
X147825000Y-79175000D02*
X147825000Y-83325000D01*
X142675000Y-79175000D02*
X142675000Y-83325000D01*
X147775000Y-79175000D02*
X147775000Y-77775000D01*
D14*
X180120000Y-105000000D02*
G75*
G03X180120000Y-105000000I-2120000J0D01*
G01*
X177160000Y-105000000D02*
X175920000Y-105000000D01*
X180080000Y-105000000D02*
X178840000Y-105000000D01*
X177160000Y-105040000D02*
X175920000Y-105040000D01*
X180080000Y-105040000D02*
X178840000Y-105040000D01*
X177160000Y-105080000D02*
X175921000Y-105080000D01*
X180079000Y-105080000D02*
X178840000Y-105080000D01*
X180077000Y-105120000D02*
X178840000Y-105120000D01*
X177160000Y-105120000D02*
X175923000Y-105120000D01*
X180074000Y-105160000D02*
X178840000Y-105160000D01*
X177160000Y-105160000D02*
X175926000Y-105160000D01*
X180071000Y-105200000D02*
X178840000Y-105200000D01*
X177160000Y-105200000D02*
X175929000Y-105200000D01*
X180067000Y-105240000D02*
X178840000Y-105240000D01*
X177160000Y-105240000D02*
X175933000Y-105240000D01*
X180062000Y-105280000D02*
X178840000Y-105280000D01*
X177160000Y-105280000D02*
X175938000Y-105280000D01*
X180056000Y-105320000D02*
X178840000Y-105320000D01*
X177160000Y-105320000D02*
X175944000Y-105320000D01*
X180050000Y-105360000D02*
X178840000Y-105360000D01*
X177160000Y-105360000D02*
X175950000Y-105360000D01*
X180042000Y-105400000D02*
X178840000Y-105400000D01*
X177160000Y-105400000D02*
X175958000Y-105400000D01*
X180034000Y-105440000D02*
X178840000Y-105440000D01*
X177160000Y-105440000D02*
X175966000Y-105440000D01*
X180025000Y-105480000D02*
X178840000Y-105480000D01*
X177160000Y-105480000D02*
X175975000Y-105480000D01*
X180016000Y-105520000D02*
X178840000Y-105520000D01*
X177160000Y-105520000D02*
X175984000Y-105520000D01*
X180005000Y-105560000D02*
X178840000Y-105560000D01*
X177160000Y-105560000D02*
X175995000Y-105560000D01*
X179994000Y-105600000D02*
X178840000Y-105600000D01*
X177160000Y-105600000D02*
X176006000Y-105600000D01*
X179982000Y-105640000D02*
X178840000Y-105640000D01*
X177160000Y-105640000D02*
X176018000Y-105640000D01*
X179968000Y-105680000D02*
X178840000Y-105680000D01*
X177160000Y-105680000D02*
X176032000Y-105680000D01*
X179954000Y-105721000D02*
X178840000Y-105721000D01*
X177160000Y-105721000D02*
X176046000Y-105721000D01*
X179940000Y-105761000D02*
X178840000Y-105761000D01*
X177160000Y-105761000D02*
X176060000Y-105761000D01*
X179924000Y-105801000D02*
X178840000Y-105801000D01*
X177160000Y-105801000D02*
X176076000Y-105801000D01*
X179907000Y-105841000D02*
X178840000Y-105841000D01*
X177160000Y-105841000D02*
X176093000Y-105841000D01*
X179889000Y-105881000D02*
X178840000Y-105881000D01*
X177160000Y-105881000D02*
X176111000Y-105881000D01*
X179870000Y-105921000D02*
X178840000Y-105921000D01*
X177160000Y-105921000D02*
X176130000Y-105921000D01*
X179851000Y-105961000D02*
X178840000Y-105961000D01*
X177160000Y-105961000D02*
X176149000Y-105961000D01*
X179830000Y-106001000D02*
X178840000Y-106001000D01*
X177160000Y-106001000D02*
X176170000Y-106001000D01*
X179808000Y-106041000D02*
X178840000Y-106041000D01*
X177160000Y-106041000D02*
X176192000Y-106041000D01*
X179785000Y-106081000D02*
X178840000Y-106081000D01*
X177160000Y-106081000D02*
X176215000Y-106081000D01*
X179760000Y-106121000D02*
X178840000Y-106121000D01*
X177160000Y-106121000D02*
X176240000Y-106121000D01*
X179735000Y-106161000D02*
X178840000Y-106161000D01*
X177160000Y-106161000D02*
X176265000Y-106161000D01*
X179708000Y-106201000D02*
X178840000Y-106201000D01*
X177160000Y-106201000D02*
X176292000Y-106201000D01*
X179680000Y-106241000D02*
X178840000Y-106241000D01*
X177160000Y-106241000D02*
X176320000Y-106241000D01*
X179650000Y-106281000D02*
X178840000Y-106281000D01*
X177160000Y-106281000D02*
X176350000Y-106281000D01*
X179619000Y-106321000D02*
X178840000Y-106321000D01*
X177160000Y-106321000D02*
X176381000Y-106321000D01*
X179587000Y-106361000D02*
X178840000Y-106361000D01*
X177160000Y-106361000D02*
X176413000Y-106361000D01*
X179552000Y-106401000D02*
X178840000Y-106401000D01*
X177160000Y-106401000D02*
X176448000Y-106401000D01*
X179516000Y-106441000D02*
X178840000Y-106441000D01*
X177160000Y-106441000D02*
X176484000Y-106441000D01*
X179478000Y-106481000D02*
X178840000Y-106481000D01*
X177160000Y-106481000D02*
X176522000Y-106481000D01*
X179438000Y-106521000D02*
X178840000Y-106521000D01*
X177160000Y-106521000D02*
X176562000Y-106521000D01*
X179396000Y-106561000D02*
X178840000Y-106561000D01*
X177160000Y-106561000D02*
X176604000Y-106561000D01*
X179351000Y-106601000D02*
X176649000Y-106601000D01*
X179304000Y-106641000D02*
X176696000Y-106641000D01*
X179254000Y-106681000D02*
X176746000Y-106681000D01*
X179200000Y-106721000D02*
X176800000Y-106721000D01*
X179142000Y-106761000D02*
X176858000Y-106761000D01*
X179080000Y-106801000D02*
X176920000Y-106801000D01*
X179013000Y-106841000D02*
X176987000Y-106841000D01*
X178940000Y-106881000D02*
X177060000Y-106881000D01*
X178859000Y-106921000D02*
X177141000Y-106921000D01*
X178768000Y-106961000D02*
X177232000Y-106961000D01*
X178664000Y-107001000D02*
X177336000Y-107001000D01*
X178537000Y-107041000D02*
X177463000Y-107041000D01*
X178370000Y-107081000D02*
X177630000Y-107081000D01*
X179195000Y-102730199D02*
X179195000Y-103130199D01*
X179395000Y-102930199D02*
X178995000Y-102930199D01*
X173139000Y-105337000D02*
X173139000Y-104163000D01*
X174861000Y-105337000D02*
X174861000Y-104163000D01*
X170630000Y-103670000D02*
X166790000Y-103670000D01*
X170630000Y-101830000D02*
X166790000Y-101830000D01*
D10*
X166925000Y-95425000D02*
X166925000Y-95475000D01*
X171075000Y-95425000D02*
X171075000Y-95570000D01*
X171075000Y-100575000D02*
X171075000Y-100430000D01*
X166925000Y-100575000D02*
X166925000Y-100430000D01*
X166925000Y-95425000D02*
X171075000Y-95425000D01*
X166925000Y-100575000D02*
X171075000Y-100575000D01*
X166925000Y-95475000D02*
X165525000Y-95475000D01*
D14*
X98611000Y-109413000D02*
X98611000Y-110587000D01*
X96889000Y-109413000D02*
X96889000Y-110587000D01*
X95670000Y-106870000D02*
X95670000Y-110710000D01*
X93830000Y-106870000D02*
X93830000Y-110710000D01*
X99020000Y-100250000D02*
G75*
G03X99020000Y-100250000I-3270000J0D01*
G01*
X95750000Y-97020000D02*
X95750000Y-103480000D01*
X95790000Y-97020000D02*
X95790000Y-103480000D01*
X95830000Y-97020000D02*
X95830000Y-103480000D01*
X95870000Y-97022000D02*
X95870000Y-103478000D01*
X95910000Y-97023000D02*
X95910000Y-103477000D01*
X95950000Y-97026000D02*
X95950000Y-103474000D01*
X95990000Y-97028000D02*
X95990000Y-99210000D01*
X95990000Y-101290000D02*
X95990000Y-103472000D01*
X96030000Y-97032000D02*
X96030000Y-99210000D01*
X96030000Y-101290000D02*
X96030000Y-103468000D01*
X96070000Y-97035000D02*
X96070000Y-99210000D01*
X96070000Y-101290000D02*
X96070000Y-103465000D01*
X96110000Y-97039000D02*
X96110000Y-99210000D01*
X96110000Y-101290000D02*
X96110000Y-103461000D01*
X96150000Y-97044000D02*
X96150000Y-99210000D01*
X96150000Y-101290000D02*
X96150000Y-103456000D01*
X96190000Y-97049000D02*
X96190000Y-99210000D01*
X96190000Y-101290000D02*
X96190000Y-103451000D01*
X96230000Y-97055000D02*
X96230000Y-99210000D01*
X96230000Y-101290000D02*
X96230000Y-103445000D01*
X96270000Y-97061000D02*
X96270000Y-99210000D01*
X96270000Y-101290000D02*
X96270000Y-103439000D01*
X96310000Y-97068000D02*
X96310000Y-99210000D01*
X96310000Y-101290000D02*
X96310000Y-103432000D01*
X96350000Y-97075000D02*
X96350000Y-99210000D01*
X96350000Y-101290000D02*
X96350000Y-103425000D01*
X96390000Y-97083000D02*
X96390000Y-99210000D01*
X96390000Y-101290000D02*
X96390000Y-103417000D01*
X96430000Y-97091000D02*
X96430000Y-99210000D01*
X96430000Y-101290000D02*
X96430000Y-103409000D01*
X96471000Y-97100000D02*
X96471000Y-99210000D01*
X96471000Y-101290000D02*
X96471000Y-103400000D01*
X96511000Y-97109000D02*
X96511000Y-99210000D01*
X96511000Y-101290000D02*
X96511000Y-103391000D01*
X96551000Y-97119000D02*
X96551000Y-99210000D01*
X96551000Y-101290000D02*
X96551000Y-103381000D01*
X96591000Y-97129000D02*
X96591000Y-99210000D01*
X96591000Y-101290000D02*
X96591000Y-103371000D01*
X96631000Y-97140000D02*
X96631000Y-99210000D01*
X96631000Y-101290000D02*
X96631000Y-103360000D01*
X96671000Y-97152000D02*
X96671000Y-99210000D01*
X96671000Y-101290000D02*
X96671000Y-103348000D01*
X96711000Y-97164000D02*
X96711000Y-99210000D01*
X96711000Y-101290000D02*
X96711000Y-103336000D01*
X96751000Y-97176000D02*
X96751000Y-99210000D01*
X96751000Y-101290000D02*
X96751000Y-103324000D01*
X96791000Y-97189000D02*
X96791000Y-99210000D01*
X96791000Y-101290000D02*
X96791000Y-103311000D01*
X96831000Y-97203000D02*
X96831000Y-99210000D01*
X96831000Y-101290000D02*
X96831000Y-103297000D01*
X96871000Y-97217000D02*
X96871000Y-99210000D01*
X96871000Y-101290000D02*
X96871000Y-103283000D01*
X96911000Y-97232000D02*
X96911000Y-99210000D01*
X96911000Y-101290000D02*
X96911000Y-103268000D01*
X96951000Y-97248000D02*
X96951000Y-99210000D01*
X96951000Y-101290000D02*
X96951000Y-103252000D01*
X96991000Y-97264000D02*
X96991000Y-99210000D01*
X96991000Y-101290000D02*
X96991000Y-103236000D01*
X97031000Y-97280000D02*
X97031000Y-99210000D01*
X97031000Y-101290000D02*
X97031000Y-103220000D01*
X97071000Y-97298000D02*
X97071000Y-99210000D01*
X97071000Y-101290000D02*
X97071000Y-103202000D01*
X97111000Y-97316000D02*
X97111000Y-99210000D01*
X97111000Y-101290000D02*
X97111000Y-103184000D01*
X97151000Y-97334000D02*
X97151000Y-99210000D01*
X97151000Y-101290000D02*
X97151000Y-103166000D01*
X97191000Y-97354000D02*
X97191000Y-99210000D01*
X97191000Y-101290000D02*
X97191000Y-103146000D01*
X97231000Y-97374000D02*
X97231000Y-99210000D01*
X97231000Y-101290000D02*
X97231000Y-103126000D01*
X97271000Y-97394000D02*
X97271000Y-99210000D01*
X97271000Y-101290000D02*
X97271000Y-103106000D01*
X97311000Y-97416000D02*
X97311000Y-99210000D01*
X97311000Y-101290000D02*
X97311000Y-103084000D01*
X97351000Y-97438000D02*
X97351000Y-99210000D01*
X97351000Y-101290000D02*
X97351000Y-103062000D01*
X97391000Y-97460000D02*
X97391000Y-99210000D01*
X97391000Y-101290000D02*
X97391000Y-103040000D01*
X97431000Y-97484000D02*
X97431000Y-99210000D01*
X97431000Y-101290000D02*
X97431000Y-103016000D01*
X97471000Y-97508000D02*
X97471000Y-99210000D01*
X97471000Y-101290000D02*
X97471000Y-102992000D01*
X97511000Y-97534000D02*
X97511000Y-99210000D01*
X97511000Y-101290000D02*
X97511000Y-102966000D01*
X97551000Y-97560000D02*
X97551000Y-99210000D01*
X97551000Y-101290000D02*
X97551000Y-102940000D01*
X97591000Y-97586000D02*
X97591000Y-99210000D01*
X97591000Y-101290000D02*
X97591000Y-102914000D01*
X97631000Y-97614000D02*
X97631000Y-99210000D01*
X97631000Y-101290000D02*
X97631000Y-102886000D01*
X97671000Y-97643000D02*
X97671000Y-99210000D01*
X97671000Y-101290000D02*
X97671000Y-102857000D01*
X97711000Y-97672000D02*
X97711000Y-99210000D01*
X97711000Y-101290000D02*
X97711000Y-102828000D01*
X97751000Y-97702000D02*
X97751000Y-99210000D01*
X97751000Y-101290000D02*
X97751000Y-102798000D01*
X97791000Y-97734000D02*
X97791000Y-99210000D01*
X97791000Y-101290000D02*
X97791000Y-102766000D01*
X97831000Y-97766000D02*
X97831000Y-99210000D01*
X97831000Y-101290000D02*
X97831000Y-102734000D01*
X97871000Y-97800000D02*
X97871000Y-99210000D01*
X97871000Y-101290000D02*
X97871000Y-102700000D01*
X97911000Y-97834000D02*
X97911000Y-99210000D01*
X97911000Y-101290000D02*
X97911000Y-102666000D01*
X97951000Y-97870000D02*
X97951000Y-99210000D01*
X97951000Y-101290000D02*
X97951000Y-102630000D01*
X97991000Y-97907000D02*
X97991000Y-99210000D01*
X97991000Y-101290000D02*
X97991000Y-102593000D01*
X98031000Y-97945000D02*
X98031000Y-99210000D01*
X98031000Y-101290000D02*
X98031000Y-102555000D01*
X98071000Y-97985000D02*
X98071000Y-102515000D01*
X98111000Y-98026000D02*
X98111000Y-102474000D01*
X98151000Y-98068000D02*
X98151000Y-102432000D01*
X98191000Y-98113000D02*
X98191000Y-102387000D01*
X98231000Y-98158000D02*
X98231000Y-102342000D01*
X98271000Y-98206000D02*
X98271000Y-102294000D01*
X98311000Y-98255000D02*
X98311000Y-102245000D01*
X98351000Y-98306000D02*
X98351000Y-102194000D01*
X98391000Y-98360000D02*
X98391000Y-102140000D01*
X98431000Y-98416000D02*
X98431000Y-102084000D01*
X98471000Y-98474000D02*
X98471000Y-102026000D01*
X98511000Y-98536000D02*
X98511000Y-101964000D01*
X98551000Y-98600000D02*
X98551000Y-101900000D01*
X98591000Y-98669000D02*
X98591000Y-101831000D01*
X98631000Y-98741000D02*
X98631000Y-101759000D01*
X98671000Y-98818000D02*
X98671000Y-101682000D01*
X98711000Y-98900000D02*
X98711000Y-101600000D01*
X98751000Y-98988000D02*
X98751000Y-101512000D01*
X98791000Y-99085000D02*
X98791000Y-101415000D01*
X98831000Y-99191000D02*
X98831000Y-101309000D01*
X98871000Y-99310000D02*
X98871000Y-101190000D01*
X98911000Y-99448000D02*
X98911000Y-101052000D01*
X98951000Y-99617000D02*
X98951000Y-100883000D01*
X98991000Y-99848000D02*
X98991000Y-100652000D01*
X92249759Y-98411000D02*
X92879759Y-98411000D01*
X92564759Y-98096000D02*
X92564759Y-98726000D01*
X98663000Y-104889000D02*
X99837000Y-104889000D01*
X98663000Y-106611000D02*
X99837000Y-106611000D01*
X98611000Y-114663000D02*
X98611000Y-115837000D01*
X96889000Y-114663000D02*
X96889000Y-115837000D01*
X102130000Y-120420000D02*
X98290000Y-120420000D01*
X102130000Y-118580000D02*
X98290000Y-118580000D01*
X114087000Y-118361000D02*
X112913000Y-118361000D01*
X114087000Y-116639000D02*
X112913000Y-116639000D01*
X118630000Y-115420000D02*
X114790000Y-115420000D01*
X118630000Y-113580000D02*
X114790000Y-113580000D01*
X114913000Y-110889000D02*
X116087000Y-110889000D01*
X114913000Y-112611000D02*
X116087000Y-112611000D01*
X115120000Y-107250000D02*
G75*
G03X115120000Y-107250000I-2120000J0D01*
G01*
X113840000Y-107250000D02*
X115080000Y-107250000D01*
X110920000Y-107250000D02*
X112160000Y-107250000D01*
X113840000Y-107210000D02*
X115080000Y-107210000D01*
X110920000Y-107210000D02*
X112160000Y-107210000D01*
X113840000Y-107170000D02*
X115079000Y-107170000D01*
X110921000Y-107170000D02*
X112160000Y-107170000D01*
X110923000Y-107130000D02*
X112160000Y-107130000D01*
X113840000Y-107130000D02*
X115077000Y-107130000D01*
X110926000Y-107090000D02*
X112160000Y-107090000D01*
X113840000Y-107090000D02*
X115074000Y-107090000D01*
X110929000Y-107050000D02*
X112160000Y-107050000D01*
X113840000Y-107050000D02*
X115071000Y-107050000D01*
X110933000Y-107010000D02*
X112160000Y-107010000D01*
X113840000Y-107010000D02*
X115067000Y-107010000D01*
X110938000Y-106970000D02*
X112160000Y-106970000D01*
X113840000Y-106970000D02*
X115062000Y-106970000D01*
X110944000Y-106930000D02*
X112160000Y-106930000D01*
X113840000Y-106930000D02*
X115056000Y-106930000D01*
X110950000Y-106890000D02*
X112160000Y-106890000D01*
X113840000Y-106890000D02*
X115050000Y-106890000D01*
X110958000Y-106850000D02*
X112160000Y-106850000D01*
X113840000Y-106850000D02*
X115042000Y-106850000D01*
X110966000Y-106810000D02*
X112160000Y-106810000D01*
X113840000Y-106810000D02*
X115034000Y-106810000D01*
X110975000Y-106770000D02*
X112160000Y-106770000D01*
X113840000Y-106770000D02*
X115025000Y-106770000D01*
X110984000Y-106730000D02*
X112160000Y-106730000D01*
X113840000Y-106730000D02*
X115016000Y-106730000D01*
X110995000Y-106690000D02*
X112160000Y-106690000D01*
X113840000Y-106690000D02*
X115005000Y-106690000D01*
X111006000Y-106650000D02*
X112160000Y-106650000D01*
X113840000Y-106650000D02*
X114994000Y-106650000D01*
X111018000Y-106610000D02*
X112160000Y-106610000D01*
X113840000Y-106610000D02*
X114982000Y-106610000D01*
X111032000Y-106570000D02*
X112160000Y-106570000D01*
X113840000Y-106570000D02*
X114968000Y-106570000D01*
X111046000Y-106529000D02*
X112160000Y-106529000D01*
X113840000Y-106529000D02*
X114954000Y-106529000D01*
X111060000Y-106489000D02*
X112160000Y-106489000D01*
X113840000Y-106489000D02*
X114940000Y-106489000D01*
X111076000Y-106449000D02*
X112160000Y-106449000D01*
X113840000Y-106449000D02*
X114924000Y-106449000D01*
X111093000Y-106409000D02*
X112160000Y-106409000D01*
X113840000Y-106409000D02*
X114907000Y-106409000D01*
X111111000Y-106369000D02*
X112160000Y-106369000D01*
X113840000Y-106369000D02*
X114889000Y-106369000D01*
X111130000Y-106329000D02*
X112160000Y-106329000D01*
X113840000Y-106329000D02*
X114870000Y-106329000D01*
X111149000Y-106289000D02*
X112160000Y-106289000D01*
X113840000Y-106289000D02*
X114851000Y-106289000D01*
X111170000Y-106249000D02*
X112160000Y-106249000D01*
X113840000Y-106249000D02*
X114830000Y-106249000D01*
X111192000Y-106209000D02*
X112160000Y-106209000D01*
X113840000Y-106209000D02*
X114808000Y-106209000D01*
X111215000Y-106169000D02*
X112160000Y-106169000D01*
X113840000Y-106169000D02*
X114785000Y-106169000D01*
X111240000Y-106129000D02*
X112160000Y-106129000D01*
X113840000Y-106129000D02*
X114760000Y-106129000D01*
X111265000Y-106089000D02*
X112160000Y-106089000D01*
X113840000Y-106089000D02*
X114735000Y-106089000D01*
X111292000Y-106049000D02*
X112160000Y-106049000D01*
X113840000Y-106049000D02*
X114708000Y-106049000D01*
X111320000Y-106009000D02*
X112160000Y-106009000D01*
X113840000Y-106009000D02*
X114680000Y-106009000D01*
X111350000Y-105969000D02*
X112160000Y-105969000D01*
X113840000Y-105969000D02*
X114650000Y-105969000D01*
X111381000Y-105929000D02*
X112160000Y-105929000D01*
X113840000Y-105929000D02*
X114619000Y-105929000D01*
X111413000Y-105889000D02*
X112160000Y-105889000D01*
X113840000Y-105889000D02*
X114587000Y-105889000D01*
X111448000Y-105849000D02*
X112160000Y-105849000D01*
X113840000Y-105849000D02*
X114552000Y-105849000D01*
X111484000Y-105809000D02*
X112160000Y-105809000D01*
X113840000Y-105809000D02*
X114516000Y-105809000D01*
X111522000Y-105769000D02*
X112160000Y-105769000D01*
X113840000Y-105769000D02*
X114478000Y-105769000D01*
X111562000Y-105729000D02*
X112160000Y-105729000D01*
X113840000Y-105729000D02*
X114438000Y-105729000D01*
X111604000Y-105689000D02*
X112160000Y-105689000D01*
X113840000Y-105689000D02*
X114396000Y-105689000D01*
X111649000Y-105649000D02*
X114351000Y-105649000D01*
X111696000Y-105609000D02*
X114304000Y-105609000D01*
X111746000Y-105569000D02*
X114254000Y-105569000D01*
X111800000Y-105529000D02*
X114200000Y-105529000D01*
X111858000Y-105489000D02*
X114142000Y-105489000D01*
X111920000Y-105449000D02*
X114080000Y-105449000D01*
X111987000Y-105409000D02*
X114013000Y-105409000D01*
X112060000Y-105369000D02*
X113940000Y-105369000D01*
X112141000Y-105329000D02*
X113859000Y-105329000D01*
X112232000Y-105289000D02*
X113768000Y-105289000D01*
X112336000Y-105249000D02*
X113664000Y-105249000D01*
X112463000Y-105209000D02*
X113537000Y-105209000D01*
X112630000Y-105169000D02*
X113370000Y-105169000D01*
X111805000Y-109519801D02*
X111805000Y-109119801D01*
X111605000Y-109319801D02*
X112005000Y-109319801D01*
X106060000Y-107420000D02*
G75*
G02X104060000Y-107420000I-1000000J0D01*
G01*
X104060000Y-107420000D02*
X102410000Y-107420000D01*
X102410000Y-107420000D02*
X102410000Y-117700000D01*
X102410000Y-117700000D02*
X107710000Y-117700000D01*
X107710000Y-117700000D02*
X107710000Y-107420000D01*
X107710000Y-107420000D02*
X106060000Y-107420000D01*
D10*
X142400000Y-112000000D02*
X157600000Y-112000000D01*
X142400000Y-120000000D02*
X157600000Y-120000000D01*
X142400000Y-112000000D02*
X142400000Y-120000000D01*
X157600000Y-112000000D02*
X157600000Y-120000000D01*
D14*
X174670000Y-96950000D02*
X177330000Y-96950000D01*
X174670000Y-89270000D02*
X174670000Y-96950000D01*
X177330000Y-89270000D02*
X177330000Y-96950000D01*
X174670000Y-89270000D02*
X177330000Y-89270000D01*
X174670000Y-88000000D02*
X174670000Y-86670000D01*
X174670000Y-86670000D02*
X176000000Y-86670000D01*
X98560000Y-75100000D02*
X98560000Y-77900000D01*
X98560000Y-77900000D02*
X111600000Y-77900000D01*
X111600000Y-77900000D02*
X111600000Y-75100000D01*
X111600000Y-75100000D02*
X98560000Y-75100000D01*
X101270000Y-75100000D02*
X101270000Y-77900000D01*
X180560000Y-75600000D02*
X180560000Y-78400000D01*
X180560000Y-78400000D02*
X193600000Y-78400000D01*
X193600000Y-78400000D02*
X193600000Y-75600000D01*
X193600000Y-75600000D02*
X180560000Y-75600000D01*
X183270000Y-75600000D02*
X183270000Y-78400000D01*
X103000000Y-86500000D02*
X107500000Y-86500000D01*
X101750000Y-82500000D02*
X101750000Y-84000000D01*
X107500000Y-80000000D02*
X103000000Y-80000000D01*
X108750000Y-84000000D02*
X108750000Y-82500000D01*
X111000000Y-94500000D02*
X115500000Y-94500000D01*
X109750000Y-90500000D02*
X109750000Y-92000000D01*
X115500000Y-88000000D02*
X111000000Y-88000000D01*
X116750000Y-92000000D02*
X116750000Y-90500000D01*
X95000000Y-94500000D02*
X99500000Y-94500000D01*
X93750000Y-90500000D02*
X93750000Y-92000000D01*
X99500000Y-88000000D02*
X95000000Y-88000000D01*
X100750000Y-92000000D02*
X100750000Y-90500000D01*
X103000000Y-102500000D02*
X107500000Y-102500000D01*
X101750000Y-98500000D02*
X101750000Y-100000000D01*
X107500000Y-96000000D02*
X103000000Y-96000000D01*
X108750000Y-100000000D02*
X108750000Y-98500000D01*
X192000000Y-102500000D02*
X196500000Y-102500000D01*
X190750000Y-98500000D02*
X190750000Y-100000000D01*
X196500000Y-96000000D02*
X192000000Y-96000000D01*
X197750000Y-100000000D02*
X197750000Y-98500000D01*
X200000000Y-94500000D02*
X204500000Y-94500000D01*
X198750000Y-90500000D02*
X198750000Y-92000000D01*
X204500000Y-88000000D02*
X200000000Y-88000000D01*
X205750000Y-92000000D02*
X205750000Y-90500000D01*
X192000000Y-86500000D02*
X196500000Y-86500000D01*
X190750000Y-82500000D02*
X190750000Y-84000000D01*
X196500000Y-80000000D02*
X192000000Y-80000000D01*
X197750000Y-84000000D02*
X197750000Y-82500000D01*
X184000000Y-94500000D02*
X188500000Y-94500000D01*
X182750000Y-90500000D02*
X182750000Y-92000000D01*
X188500000Y-88000000D02*
X184000000Y-88000000D01*
X189750000Y-92000000D02*
X189750000Y-90500000D01*
X137750000Y-117750000D02*
X137750000Y-113250000D01*
X133750000Y-119000000D02*
X135250000Y-119000000D01*
X131250000Y-113250000D02*
X131250000Y-117750000D01*
X135250000Y-112000000D02*
X133750000Y-112000000D01*
X183837000Y-119361000D02*
X182663000Y-119361000D01*
X183837000Y-117639000D02*
X182663000Y-117639000D01*
X180330000Y-115810000D02*
G75*
G02X180330000Y-113810000I0J1000000D01*
G01*
X180330000Y-113810000D02*
X180330000Y-112160000D01*
X180330000Y-112160000D02*
X159890000Y-112160000D01*
X159890000Y-112160000D02*
X159890000Y-117460000D01*
X159890000Y-117460000D02*
X180330000Y-117460000D01*
X180330000Y-117460000D02*
X180330000Y-115810000D01*
X117170000Y-97370000D02*
X117170000Y-101210000D01*
X115330000Y-97370000D02*
X115330000Y-101210000D01*
X130630000Y-90420000D02*
X126790000Y-90420000D01*
X130630000Y-88580000D02*
X126790000Y-88580000D01*
X128087000Y-93111000D02*
X126913000Y-93111000D01*
X128087000Y-91389000D02*
X126913000Y-91389000D01*
X115870000Y-84250000D02*
G75*
G03X115870000Y-84250000I-2120000J0D01*
G01*
X112910000Y-84250000D02*
X111670000Y-84250000D01*
X115830000Y-84250000D02*
X114590000Y-84250000D01*
X112910000Y-84290000D02*
X111670000Y-84290000D01*
X115830000Y-84290000D02*
X114590000Y-84290000D01*
X112910000Y-84330000D02*
X111671000Y-84330000D01*
X115829000Y-84330000D02*
X114590000Y-84330000D01*
X115827000Y-84370000D02*
X114590000Y-84370000D01*
X112910000Y-84370000D02*
X111673000Y-84370000D01*
X115824000Y-84410000D02*
X114590000Y-84410000D01*
X112910000Y-84410000D02*
X111676000Y-84410000D01*
X115821000Y-84450000D02*
X114590000Y-84450000D01*
X112910000Y-84450000D02*
X111679000Y-84450000D01*
X115817000Y-84490000D02*
X114590000Y-84490000D01*
X112910000Y-84490000D02*
X111683000Y-84490000D01*
X115812000Y-84530000D02*
X114590000Y-84530000D01*
X112910000Y-84530000D02*
X111688000Y-84530000D01*
X115806000Y-84570000D02*
X114590000Y-84570000D01*
X112910000Y-84570000D02*
X111694000Y-84570000D01*
X115800000Y-84610000D02*
X114590000Y-84610000D01*
X112910000Y-84610000D02*
X111700000Y-84610000D01*
X115792000Y-84650000D02*
X114590000Y-84650000D01*
X112910000Y-84650000D02*
X111708000Y-84650000D01*
X115784000Y-84690000D02*
X114590000Y-84690000D01*
X112910000Y-84690000D02*
X111716000Y-84690000D01*
X115775000Y-84730000D02*
X114590000Y-84730000D01*
X112910000Y-84730000D02*
X111725000Y-84730000D01*
X115766000Y-84770000D02*
X114590000Y-84770000D01*
X112910000Y-84770000D02*
X111734000Y-84770000D01*
X115755000Y-84810000D02*
X114590000Y-84810000D01*
X112910000Y-84810000D02*
X111745000Y-84810000D01*
X115744000Y-84850000D02*
X114590000Y-84850000D01*
X112910000Y-84850000D02*
X111756000Y-84850000D01*
X115732000Y-84890000D02*
X114590000Y-84890000D01*
X112910000Y-84890000D02*
X111768000Y-84890000D01*
X115718000Y-84930000D02*
X114590000Y-84930000D01*
X112910000Y-84930000D02*
X111782000Y-84930000D01*
X115704000Y-84971000D02*
X114590000Y-84971000D01*
X112910000Y-84971000D02*
X111796000Y-84971000D01*
X115690000Y-85011000D02*
X114590000Y-85011000D01*
X112910000Y-85011000D02*
X111810000Y-85011000D01*
X115674000Y-85051000D02*
X114590000Y-85051000D01*
X112910000Y-85051000D02*
X111826000Y-85051000D01*
X115657000Y-85091000D02*
X114590000Y-85091000D01*
X112910000Y-85091000D02*
X111843000Y-85091000D01*
X115639000Y-85131000D02*
X114590000Y-85131000D01*
X112910000Y-85131000D02*
X111861000Y-85131000D01*
X115620000Y-85171000D02*
X114590000Y-85171000D01*
X112910000Y-85171000D02*
X111880000Y-85171000D01*
X115601000Y-85211000D02*
X114590000Y-85211000D01*
X112910000Y-85211000D02*
X111899000Y-85211000D01*
X115580000Y-85251000D02*
X114590000Y-85251000D01*
X112910000Y-85251000D02*
X111920000Y-85251000D01*
X115558000Y-85291000D02*
X114590000Y-85291000D01*
X112910000Y-85291000D02*
X111942000Y-85291000D01*
X115535000Y-85331000D02*
X114590000Y-85331000D01*
X112910000Y-85331000D02*
X111965000Y-85331000D01*
X115510000Y-85371000D02*
X114590000Y-85371000D01*
X112910000Y-85371000D02*
X111990000Y-85371000D01*
X115485000Y-85411000D02*
X114590000Y-85411000D01*
X112910000Y-85411000D02*
X112015000Y-85411000D01*
X115458000Y-85451000D02*
X114590000Y-85451000D01*
X112910000Y-85451000D02*
X112042000Y-85451000D01*
X115430000Y-85491000D02*
X114590000Y-85491000D01*
X112910000Y-85491000D02*
X112070000Y-85491000D01*
X115400000Y-85531000D02*
X114590000Y-85531000D01*
X112910000Y-85531000D02*
X112100000Y-85531000D01*
X115369000Y-85571000D02*
X114590000Y-85571000D01*
X112910000Y-85571000D02*
X112131000Y-85571000D01*
X115337000Y-85611000D02*
X114590000Y-85611000D01*
X112910000Y-85611000D02*
X112163000Y-85611000D01*
X115302000Y-85651000D02*
X114590000Y-85651000D01*
X112910000Y-85651000D02*
X112198000Y-85651000D01*
X115266000Y-85691000D02*
X114590000Y-85691000D01*
X112910000Y-85691000D02*
X112234000Y-85691000D01*
X115228000Y-85731000D02*
X114590000Y-85731000D01*
X112910000Y-85731000D02*
X112272000Y-85731000D01*
X115188000Y-85771000D02*
X114590000Y-85771000D01*
X112910000Y-85771000D02*
X112312000Y-85771000D01*
X115146000Y-85811000D02*
X114590000Y-85811000D01*
X112910000Y-85811000D02*
X112354000Y-85811000D01*
X115101000Y-85851000D02*
X112399000Y-85851000D01*
X115054000Y-85891000D02*
X112446000Y-85891000D01*
X115004000Y-85931000D02*
X112496000Y-85931000D01*
X114950000Y-85971000D02*
X112550000Y-85971000D01*
X114892000Y-86011000D02*
X112608000Y-86011000D01*
X114830000Y-86051000D02*
X112670000Y-86051000D01*
X114763000Y-86091000D02*
X112737000Y-86091000D01*
X114690000Y-86131000D02*
X112810000Y-86131000D01*
X114609000Y-86171000D02*
X112891000Y-86171000D01*
X114518000Y-86211000D02*
X112982000Y-86211000D01*
X114414000Y-86251000D02*
X113086000Y-86251000D01*
X114287000Y-86291000D02*
X113213000Y-86291000D01*
X114120000Y-86331000D02*
X113380000Y-86331000D01*
X114945000Y-81980199D02*
X114945000Y-82380199D01*
X115145000Y-82180199D02*
X114745000Y-82180199D01*
X121670000Y-102110000D02*
X124330000Y-102110000D01*
X121670000Y-84270000D02*
X121670000Y-102110000D01*
X124330000Y-84270000D02*
X124330000Y-102110000D01*
X121670000Y-84270000D02*
X124330000Y-84270000D01*
X121670000Y-83000000D02*
X121670000Y-81670000D01*
X121670000Y-81670000D02*
X123000000Y-81670000D01*
D16*
G36*
X127045365Y-116184649D02*
X127381894Y-116266984D01*
X127384545Y-116267886D01*
X127744425Y-116418541D01*
X128060651Y-116606639D01*
X128291503Y-116798682D01*
X128396059Y-116951475D01*
X128433540Y-117118116D01*
X128407868Y-117279201D01*
X128322965Y-117415328D01*
X128182753Y-117507095D01*
X128145878Y-117519127D01*
X128024267Y-117539193D01*
X127909622Y-117521418D01*
X127780392Y-117458413D01*
X127615029Y-117342790D01*
X127601445Y-117332460D01*
X127392154Y-117190594D01*
X127185922Y-117095334D01*
X126944152Y-117029958D01*
X126870421Y-117015739D01*
X126539511Y-116997145D01*
X126210343Y-117055452D01*
X125895639Y-117183608D01*
X125608121Y-117374562D01*
X125360509Y-117621263D01*
X125165525Y-117916660D01*
X125135666Y-117977305D01*
X125082811Y-118100075D01*
X125049226Y-118211853D01*
X125030663Y-118338289D01*
X125022870Y-118505036D01*
X125021540Y-118666074D01*
X125023171Y-118871870D01*
X125031788Y-119019172D01*
X125052364Y-119134132D01*
X125089870Y-119242897D01*
X125149281Y-119371619D01*
X125159771Y-119393009D01*
X125338002Y-119674757D01*
X125571085Y-119921636D01*
X125838789Y-120114454D01*
X126005558Y-120195395D01*
X126162005Y-120248171D01*
X126321422Y-120277931D01*
X126516621Y-120289669D01*
X126629833Y-120290381D01*
X126916994Y-120273690D01*
X127155865Y-120219346D01*
X127376807Y-120116593D01*
X127610182Y-119954673D01*
X127636967Y-119933543D01*
X127807765Y-119810280D01*
X127943976Y-119746308D01*
X128064960Y-119735667D01*
X128177508Y-119767039D01*
X128325891Y-119863517D01*
X128407721Y-120006805D01*
X128429000Y-120173338D01*
X128422985Y-120270880D01*
X128395739Y-120348961D01*
X128333457Y-120430631D01*
X128222338Y-120538939D01*
X128195063Y-120563976D01*
X127863536Y-120811420D01*
X127486577Y-120996053D01*
X127079507Y-121114039D01*
X126657644Y-121161541D01*
X126236309Y-121134720D01*
X126058333Y-121099192D01*
X125629600Y-120954074D01*
X125240531Y-120741220D01*
X124898881Y-120468247D01*
X124612402Y-120142774D01*
X124388851Y-119772419D01*
X124235981Y-119364802D01*
X124217069Y-119290184D01*
X124174270Y-119024002D01*
X124156879Y-118719762D01*
X124164886Y-118412649D01*
X124198277Y-118137851D01*
X124217470Y-118049811D01*
X124370001Y-117615286D01*
X124592924Y-117223606D01*
X124880410Y-116880747D01*
X125226634Y-116592688D01*
X125625767Y-116365404D01*
X125994833Y-116226668D01*
X126319750Y-116163540D01*
X126680622Y-116149851D01*
X127045365Y-116184649D01*
X127045365Y-116184649D01*
G37*
X127045365Y-116184649D02*
X127381894Y-116266984D01*
X127384545Y-116267886D01*
X127744425Y-116418541D01*
X128060651Y-116606639D01*
X128291503Y-116798682D01*
X128396059Y-116951475D01*
X128433540Y-117118116D01*
X128407868Y-117279201D01*
X128322965Y-117415328D01*
X128182753Y-117507095D01*
X128145878Y-117519127D01*
X128024267Y-117539193D01*
X127909622Y-117521418D01*
X127780392Y-117458413D01*
X127615029Y-117342790D01*
X127601445Y-117332460D01*
X127392154Y-117190594D01*
X127185922Y-117095334D01*
X126944152Y-117029958D01*
X126870421Y-117015739D01*
X126539511Y-116997145D01*
X126210343Y-117055452D01*
X125895639Y-117183608D01*
X125608121Y-117374562D01*
X125360509Y-117621263D01*
X125165525Y-117916660D01*
X125135666Y-117977305D01*
X125082811Y-118100075D01*
X125049226Y-118211853D01*
X125030663Y-118338289D01*
X125022870Y-118505036D01*
X125021540Y-118666074D01*
X125023171Y-118871870D01*
X125031788Y-119019172D01*
X125052364Y-119134132D01*
X125089870Y-119242897D01*
X125149281Y-119371619D01*
X125159771Y-119393009D01*
X125338002Y-119674757D01*
X125571085Y-119921636D01*
X125838789Y-120114454D01*
X126005558Y-120195395D01*
X126162005Y-120248171D01*
X126321422Y-120277931D01*
X126516621Y-120289669D01*
X126629833Y-120290381D01*
X126916994Y-120273690D01*
X127155865Y-120219346D01*
X127376807Y-120116593D01*
X127610182Y-119954673D01*
X127636967Y-119933543D01*
X127807765Y-119810280D01*
X127943976Y-119746308D01*
X128064960Y-119735667D01*
X128177508Y-119767039D01*
X128325891Y-119863517D01*
X128407721Y-120006805D01*
X128429000Y-120173338D01*
X128422985Y-120270880D01*
X128395739Y-120348961D01*
X128333457Y-120430631D01*
X128222338Y-120538939D01*
X128195063Y-120563976D01*
X127863536Y-120811420D01*
X127486577Y-120996053D01*
X127079507Y-121114039D01*
X126657644Y-121161541D01*
X126236309Y-121134720D01*
X126058333Y-121099192D01*
X125629600Y-120954074D01*
X125240531Y-120741220D01*
X124898881Y-120468247D01*
X124612402Y-120142774D01*
X124388851Y-119772419D01*
X124235981Y-119364802D01*
X124217069Y-119290184D01*
X124174270Y-119024002D01*
X124156879Y-118719762D01*
X124164886Y-118412649D01*
X124198277Y-118137851D01*
X124217470Y-118049811D01*
X124370001Y-117615286D01*
X124592924Y-117223606D01*
X124880410Y-116880747D01*
X125226634Y-116592688D01*
X125625767Y-116365404D01*
X125994833Y-116226668D01*
X126319750Y-116163540D01*
X126680622Y-116149851D01*
X127045365Y-116184649D01*
G36*
X121503439Y-116114736D02*
X121742931Y-116257819D01*
X121955789Y-116388247D01*
X122131821Y-116499506D01*
X122260836Y-116585081D01*
X122332641Y-116638459D01*
X122344063Y-116652031D01*
X122308777Y-116679712D01*
X122212069Y-116741469D01*
X122066433Y-116830088D01*
X121884366Y-116938360D01*
X121678362Y-117059072D01*
X121460917Y-117185012D01*
X121244526Y-117308970D01*
X121041685Y-117423733D01*
X120864890Y-117522090D01*
X120726634Y-117596830D01*
X120639415Y-117640740D01*
X120616060Y-117649333D01*
X120607034Y-117610587D01*
X120597392Y-117508617D01*
X120589116Y-117364828D01*
X120588604Y-117352915D01*
X120576167Y-117056496D01*
X120322167Y-117177742D01*
X120013611Y-117368325D01*
X119763860Y-117610719D01*
X119575031Y-117893845D01*
X119449238Y-118206627D01*
X119388599Y-118537986D01*
X119395230Y-118876846D01*
X119471246Y-119212129D01*
X119618764Y-119532757D01*
X119820074Y-119805962D01*
X120089257Y-120048553D01*
X120387085Y-120218825D01*
X120703545Y-120319782D01*
X121028626Y-120354430D01*
X121352316Y-120325775D01*
X121664602Y-120236824D01*
X121955471Y-120090582D01*
X122214912Y-119890055D01*
X122432912Y-119638248D01*
X122599459Y-119338169D01*
X122704541Y-118992822D01*
X122714430Y-118937012D01*
X122731486Y-118660740D01*
X122703790Y-118369812D01*
X122635723Y-118109292D01*
X122633365Y-118103099D01*
X122614289Y-118044606D01*
X122619828Y-118001166D01*
X122663164Y-117960259D01*
X122757474Y-117909364D01*
X122913311Y-117837157D01*
X123067681Y-117771365D01*
X123195201Y-117725385D01*
X123274766Y-117706535D01*
X123287095Y-117707587D01*
X123323249Y-117755040D01*
X123370415Y-117860946D01*
X123415946Y-117994695D01*
X123479847Y-118311992D01*
X123500403Y-118667780D01*
X123478144Y-119028142D01*
X123413599Y-119359156D01*
X123393604Y-119425205D01*
X123218343Y-119830376D01*
X122974277Y-120197067D01*
X122671207Y-120516005D01*
X122318935Y-120777916D01*
X121927263Y-120973528D01*
X121668231Y-121057628D01*
X121446473Y-121095979D01*
X121175981Y-121114080D01*
X120890204Y-121112034D01*
X120622592Y-121089943D01*
X120428000Y-121053825D01*
X120027793Y-120906092D01*
X119657769Y-120686684D01*
X119328206Y-120406140D01*
X119049378Y-120075000D01*
X118831560Y-119703800D01*
X118685028Y-119303081D01*
X118672751Y-119253635D01*
X118609724Y-118810967D01*
X118626457Y-118375802D01*
X118718055Y-117956923D01*
X118879622Y-117563111D01*
X119106263Y-117203147D01*
X119393080Y-116885813D01*
X119735179Y-116619891D01*
X120127663Y-116414161D01*
X120289754Y-116353339D01*
X120430867Y-116303080D01*
X120538692Y-116259544D01*
X120588535Y-116233049D01*
X120606381Y-116178582D01*
X120624628Y-116064076D01*
X120639391Y-115914051D01*
X120639667Y-115910265D01*
X120660833Y-115617305D01*
X121503439Y-116114736D01*
X121503439Y-116114736D01*
G37*
X121503439Y-116114736D02*
X121742931Y-116257819D01*
X121955789Y-116388247D01*
X122131821Y-116499506D01*
X122260836Y-116585081D01*
X122332641Y-116638459D01*
X122344063Y-116652031D01*
X122308777Y-116679712D01*
X122212069Y-116741469D01*
X122066433Y-116830088D01*
X121884366Y-116938360D01*
X121678362Y-117059072D01*
X121460917Y-117185012D01*
X121244526Y-117308970D01*
X121041685Y-117423733D01*
X120864890Y-117522090D01*
X120726634Y-117596830D01*
X120639415Y-117640740D01*
X120616060Y-117649333D01*
X120607034Y-117610587D01*
X120597392Y-117508617D01*
X120589116Y-117364828D01*
X120588604Y-117352915D01*
X120576167Y-117056496D01*
X120322167Y-117177742D01*
X120013611Y-117368325D01*
X119763860Y-117610719D01*
X119575031Y-117893845D01*
X119449238Y-118206627D01*
X119388599Y-118537986D01*
X119395230Y-118876846D01*
X119471246Y-119212129D01*
X119618764Y-119532757D01*
X119820074Y-119805962D01*
X120089257Y-120048553D01*
X120387085Y-120218825D01*
X120703545Y-120319782D01*
X121028626Y-120354430D01*
X121352316Y-120325775D01*
X121664602Y-120236824D01*
X121955471Y-120090582D01*
X122214912Y-119890055D01*
X122432912Y-119638248D01*
X122599459Y-119338169D01*
X122704541Y-118992822D01*
X122714430Y-118937012D01*
X122731486Y-118660740D01*
X122703790Y-118369812D01*
X122635723Y-118109292D01*
X122633365Y-118103099D01*
X122614289Y-118044606D01*
X122619828Y-118001166D01*
X122663164Y-117960259D01*
X122757474Y-117909364D01*
X122913311Y-117837157D01*
X123067681Y-117771365D01*
X123195201Y-117725385D01*
X123274766Y-117706535D01*
X123287095Y-117707587D01*
X123323249Y-117755040D01*
X123370415Y-117860946D01*
X123415946Y-117994695D01*
X123479847Y-118311992D01*
X123500403Y-118667780D01*
X123478144Y-119028142D01*
X123413599Y-119359156D01*
X123393604Y-119425205D01*
X123218343Y-119830376D01*
X122974277Y-120197067D01*
X122671207Y-120516005D01*
X122318935Y-120777916D01*
X121927263Y-120973528D01*
X121668231Y-121057628D01*
X121446473Y-121095979D01*
X121175981Y-121114080D01*
X120890204Y-121112034D01*
X120622592Y-121089943D01*
X120428000Y-121053825D01*
X120027793Y-120906092D01*
X119657769Y-120686684D01*
X119328206Y-120406140D01*
X119049378Y-120075000D01*
X118831560Y-119703800D01*
X118685028Y-119303081D01*
X118672751Y-119253635D01*
X118609724Y-118810967D01*
X118626457Y-118375802D01*
X118718055Y-117956923D01*
X118879622Y-117563111D01*
X119106263Y-117203147D01*
X119393080Y-116885813D01*
X119735179Y-116619891D01*
X120127663Y-116414161D01*
X120289754Y-116353339D01*
X120430867Y-116303080D01*
X120538692Y-116259544D01*
X120588535Y-116233049D01*
X120606381Y-116178582D01*
X120624628Y-116064076D01*
X120639391Y-115914051D01*
X120639667Y-115910265D01*
X120660833Y-115617305D01*
X121503439Y-116114736D01*
G36*
X126169365Y-112610028D02*
X126173937Y-112725562D01*
X126177936Y-112906107D01*
X126181216Y-113141835D01*
X126183630Y-113422919D01*
X126185032Y-113739532D01*
X126185333Y-113977274D01*
X126185333Y-115385216D01*
X125020966Y-115966941D01*
X124731603Y-116111181D01*
X124467111Y-116242394D01*
X124236841Y-116355991D01*
X124050148Y-116447381D01*
X123916385Y-116511974D01*
X123844904Y-116545181D01*
X123835633Y-116548667D01*
X123830634Y-116507971D01*
X123826063Y-116392438D01*
X123822064Y-116211893D01*
X123818784Y-115976164D01*
X123816370Y-115695080D01*
X123814968Y-115378468D01*
X123814667Y-115140725D01*
X123814667Y-113732784D01*
X124979034Y-113151059D01*
X125268396Y-113006819D01*
X125532889Y-112875606D01*
X125763158Y-112762009D01*
X125949851Y-112670619D01*
X126083615Y-112606025D01*
X126155096Y-112572819D01*
X126164367Y-112569333D01*
X126169365Y-112610028D01*
X126169365Y-112610028D01*
G37*
X126169365Y-112610028D02*
X126173937Y-112725562D01*
X126177936Y-112906107D01*
X126181216Y-113141835D01*
X126183630Y-113422919D01*
X126185032Y-113739532D01*
X126185333Y-113977274D01*
X126185333Y-115385216D01*
X125020966Y-115966941D01*
X124731603Y-116111181D01*
X124467111Y-116242394D01*
X124236841Y-116355991D01*
X124050148Y-116447381D01*
X123916385Y-116511974D01*
X123844904Y-116545181D01*
X123835633Y-116548667D01*
X123830634Y-116507971D01*
X123826063Y-116392438D01*
X123822064Y-116211893D01*
X123818784Y-115976164D01*
X123816370Y-115695080D01*
X123814968Y-115378468D01*
X123814667Y-115140725D01*
X123814667Y-113732784D01*
X124979034Y-113151059D01*
X125268396Y-113006819D01*
X125532889Y-112875606D01*
X125763158Y-112762009D01*
X125949851Y-112670619D01*
X126083615Y-112606025D01*
X126155096Y-112572819D01*
X126164367Y-112569333D01*
X126169365Y-112610028D01*
G36*
X121533840Y-112672271D02*
X121647098Y-112723853D01*
X121815756Y-112803895D01*
X122029724Y-112907547D01*
X122278913Y-113029960D01*
X122553233Y-113166284D01*
X122587325Y-113183329D01*
X123645333Y-113712659D01*
X123645333Y-115088329D01*
X123644395Y-115419851D01*
X123641732Y-115722517D01*
X123637575Y-115986403D01*
X123632152Y-116201589D01*
X123625694Y-116358151D01*
X123618428Y-116446167D01*
X123613583Y-116461960D01*
X123569001Y-116442964D01*
X123458936Y-116390346D01*
X123293298Y-116309012D01*
X123081996Y-116203869D01*
X122834939Y-116079823D01*
X122562037Y-115941780D01*
X122523500Y-115922210D01*
X121465167Y-115384500D01*
X121453997Y-114019250D01*
X121451761Y-113582299D01*
X121452885Y-113229154D01*
X121457365Y-112959983D01*
X121465198Y-112774957D01*
X121476378Y-112674244D01*
X121486072Y-112654000D01*
X121533840Y-112672271D01*
X121533840Y-112672271D01*
G37*
X121533840Y-112672271D02*
X121647098Y-112723853D01*
X121815756Y-112803895D01*
X122029724Y-112907547D01*
X122278913Y-113029960D01*
X122553233Y-113166284D01*
X122587325Y-113183329D01*
X123645333Y-113712659D01*
X123645333Y-115088329D01*
X123644395Y-115419851D01*
X123641732Y-115722517D01*
X123637575Y-115986403D01*
X123632152Y-116201589D01*
X123625694Y-116358151D01*
X123618428Y-116446167D01*
X123613583Y-116461960D01*
X123569001Y-116442964D01*
X123458936Y-116390346D01*
X123293298Y-116309012D01*
X123081996Y-116203869D01*
X122834939Y-116079823D01*
X122562037Y-115941780D01*
X122523500Y-115922210D01*
X121465167Y-115384500D01*
X121453997Y-114019250D01*
X121451761Y-113582299D01*
X121452885Y-113229154D01*
X121457365Y-112959983D01*
X121465198Y-112774957D01*
X121476378Y-112674244D01*
X121486072Y-112654000D01*
X121533840Y-112672271D01*
G36*
X123820695Y-111336790D02*
X123884049Y-111365097D01*
X124012546Y-111425414D01*
X124195286Y-111512522D01*
X124421373Y-111621198D01*
X124679906Y-111746223D01*
X124959987Y-111882376D01*
X124978833Y-111891562D01*
X126037167Y-112407509D01*
X124915333Y-112972974D01*
X124629399Y-113116056D01*
X124366079Y-113245829D01*
X124135338Y-113357540D01*
X123947143Y-113446435D01*
X123811459Y-113507758D01*
X123738252Y-113536756D01*
X123730000Y-113538442D01*
X123676990Y-113520028D01*
X123558757Y-113468020D01*
X123385512Y-113387267D01*
X123167467Y-113282619D01*
X122914833Y-113158925D01*
X122637823Y-113021036D01*
X122590349Y-112997190D01*
X121514197Y-112455935D01*
X121913015Y-112242887D01*
X122338172Y-112016505D01*
X122695308Y-111828172D01*
X122990509Y-111674995D01*
X123229866Y-111554084D01*
X123419465Y-111462546D01*
X123565396Y-111397490D01*
X123673747Y-111356023D01*
X123750605Y-111335255D01*
X123802060Y-111332293D01*
X123820695Y-111336790D01*
X123820695Y-111336790D01*
G37*
X123820695Y-111336790D02*
X123884049Y-111365097D01*
X124012546Y-111425414D01*
X124195286Y-111512522D01*
X124421373Y-111621198D01*
X124679906Y-111746223D01*
X124959987Y-111882376D01*
X124978833Y-111891562D01*
X126037167Y-112407509D01*
X124915333Y-112972974D01*
X124629399Y-113116056D01*
X124366079Y-113245829D01*
X124135338Y-113357540D01*
X123947143Y-113446435D01*
X123811459Y-113507758D01*
X123738252Y-113536756D01*
X123730000Y-113538442D01*
X123676990Y-113520028D01*
X123558757Y-113468020D01*
X123385512Y-113387267D01*
X123167467Y-113282619D01*
X122914833Y-113158925D01*
X122637823Y-113021036D01*
X122590349Y-112997190D01*
X121514197Y-112455935D01*
X121913015Y-112242887D01*
X122338172Y-112016505D01*
X122695308Y-111828172D01*
X122990509Y-111674995D01*
X123229866Y-111554084D01*
X123419465Y-111462546D01*
X123565396Y-111397490D01*
X123673747Y-111356023D01*
X123750605Y-111335255D01*
X123802060Y-111332293D01*
X123820695Y-111336790D01*
D10*
X144833334Y-102357143D02*
X144785715Y-102404762D01*
X144642858Y-102452381D01*
X144547620Y-102452381D01*
X144404762Y-102404762D01*
X144309524Y-102309524D01*
X144261905Y-102214286D01*
X144214286Y-102023810D01*
X144214286Y-101880952D01*
X144261905Y-101690476D01*
X144309524Y-101595238D01*
X144404762Y-101500000D01*
X144547620Y-101452381D01*
X144642858Y-101452381D01*
X144785715Y-101500000D01*
X144833334Y-101547619D01*
X145738096Y-101452381D02*
X145261905Y-101452381D01*
X145214286Y-101928571D01*
X145261905Y-101880952D01*
X145357143Y-101833333D01*
X145595239Y-101833333D01*
X145690477Y-101880952D01*
X145738096Y-101928571D01*
X145785715Y-102023810D01*
X145785715Y-102261905D01*
X145738096Y-102357143D01*
X145690477Y-102404762D01*
X145595239Y-102452381D01*
X145357143Y-102452381D01*
X145261905Y-102404762D01*
X145214286Y-102357143D01*
X110857143Y-110357143D02*
X110809524Y-110404762D01*
X110666667Y-110452381D01*
X110571429Y-110452381D01*
X110428571Y-110404762D01*
X110333333Y-110309524D01*
X110285714Y-110214286D01*
X110238095Y-110023810D01*
X110238095Y-109880952D01*
X110285714Y-109690476D01*
X110333333Y-109595238D01*
X110428571Y-109500000D01*
X110571429Y-109452381D01*
X110666667Y-109452381D01*
X110809524Y-109500000D01*
X110857143Y-109547619D01*
X111190476Y-109452381D02*
X111809524Y-109452381D01*
X111476190Y-109833333D01*
X111619048Y-109833333D01*
X111714286Y-109880952D01*
X111761905Y-109928571D01*
X111809524Y-110023810D01*
X111809524Y-110261905D01*
X111761905Y-110357143D01*
X111714286Y-110404762D01*
X111619048Y-110452381D01*
X111333333Y-110452381D01*
X111238095Y-110404762D01*
X111190476Y-110357143D01*
X112428571Y-109452381D02*
X112523810Y-109452381D01*
X112619048Y-109500000D01*
X112666667Y-109547619D01*
X112714286Y-109642857D01*
X112761905Y-109833333D01*
X112761905Y-110071429D01*
X112714286Y-110261905D01*
X112666667Y-110357143D01*
X112619048Y-110404762D01*
X112523810Y-110452381D01*
X112428571Y-110452381D01*
X112333333Y-110404762D01*
X112285714Y-110357143D01*
X112238095Y-110261905D01*
X112190476Y-110071429D01*
X112190476Y-109833333D01*
X112238095Y-109642857D01*
X112285714Y-109547619D01*
X112333333Y-109500000D01*
X112428571Y-109452381D01*
X178892858Y-83928571D02*
X179035715Y-83976190D01*
X179083334Y-84023810D01*
X179130953Y-84119048D01*
X179130953Y-84261905D01*
X179083334Y-84357143D01*
X179035715Y-84404762D01*
X178940477Y-84452381D01*
X178559524Y-84452381D01*
X178559524Y-83452381D01*
X178892858Y-83452381D01*
X178988096Y-83500000D01*
X179035715Y-83547619D01*
X179083334Y-83642857D01*
X179083334Y-83738095D01*
X179035715Y-83833333D01*
X178988096Y-83880952D01*
X178892858Y-83928571D01*
X178559524Y-83928571D01*
X179511905Y-84166667D02*
X179988096Y-84166667D01*
X179416667Y-84452381D02*
X179750000Y-83452381D01*
X180083334Y-84452381D01*
X180273810Y-83452381D02*
X180845239Y-83452381D01*
X180559524Y-84452381D02*
X180559524Y-83452381D01*
X181178572Y-84071429D02*
X181940477Y-84071429D01*
X181559525Y-84452381D02*
X181559525Y-83690476D01*
X175392858Y-101928571D02*
X175535715Y-101976190D01*
X175583334Y-102023810D01*
X175630953Y-102119048D01*
X175630953Y-102261905D01*
X175583334Y-102357143D01*
X175535715Y-102404762D01*
X175440477Y-102452381D01*
X175059524Y-102452381D01*
X175059524Y-101452381D01*
X175392858Y-101452381D01*
X175488096Y-101500000D01*
X175535715Y-101547619D01*
X175583334Y-101642857D01*
X175583334Y-101738095D01*
X175535715Y-101833333D01*
X175488096Y-101880952D01*
X175392858Y-101928571D01*
X175059524Y-101928571D01*
X176011905Y-102166667D02*
X176488096Y-102166667D01*
X175916667Y-102452381D02*
X176250000Y-101452381D01*
X176583334Y-102452381D01*
X176773810Y-101452381D02*
X177345239Y-101452381D01*
X177059524Y-102452381D02*
X177059524Y-101452381D01*
X177678572Y-102071429D02*
X178440477Y-102071429D01*
X151833334Y-102357143D02*
X151785715Y-102404762D01*
X151642858Y-102452381D01*
X151547620Y-102452381D01*
X151404762Y-102404762D01*
X151309524Y-102309524D01*
X151261905Y-102214286D01*
X151214286Y-102023810D01*
X151214286Y-101880952D01*
X151261905Y-101690476D01*
X151309524Y-101595238D01*
X151404762Y-101500000D01*
X151547620Y-101452381D01*
X151642858Y-101452381D01*
X151785715Y-101500000D01*
X151833334Y-101547619D01*
X152785715Y-102452381D02*
X152214286Y-102452381D01*
X152500000Y-102452381D02*
X152500000Y-101452381D01*
X152404762Y-101595238D01*
X152309524Y-101690476D01*
X152214286Y-101738095D01*
X196583334Y-104857143D02*
X196535715Y-104904762D01*
X196392858Y-104952381D01*
X196297620Y-104952381D01*
X196154762Y-104904762D01*
X196059524Y-104809524D01*
X196011905Y-104714286D01*
X195964286Y-104523810D01*
X195964286Y-104380952D01*
X196011905Y-104190476D01*
X196059524Y-104095238D01*
X196154762Y-104000000D01*
X196297620Y-103952381D01*
X196392858Y-103952381D01*
X196535715Y-104000000D01*
X196583334Y-104047619D01*
X196964286Y-104047619D02*
X197011905Y-104000000D01*
X197107143Y-103952381D01*
X197345239Y-103952381D01*
X197440477Y-104000000D01*
X197488096Y-104047619D01*
X197535715Y-104142857D01*
X197535715Y-104238095D01*
X197488096Y-104380952D01*
X196916667Y-104952381D01*
X197535715Y-104952381D01*
X143607143Y-92166666D02*
X143654762Y-92214285D01*
X143702381Y-92357142D01*
X143702381Y-92452380D01*
X143654762Y-92595238D01*
X143559524Y-92690476D01*
X143464286Y-92738095D01*
X143273810Y-92785714D01*
X143130952Y-92785714D01*
X142940476Y-92738095D01*
X142845238Y-92690476D01*
X142750000Y-92595238D01*
X142702381Y-92452380D01*
X142702381Y-92357142D01*
X142750000Y-92214285D01*
X142797619Y-92166666D01*
X142702381Y-91833333D02*
X142702381Y-91214285D01*
X143083333Y-91547619D01*
X143083333Y-91404761D01*
X143130952Y-91309523D01*
X143178571Y-91261904D01*
X143273810Y-91214285D01*
X143511905Y-91214285D01*
X143607143Y-91261904D01*
X143654762Y-91309523D01*
X143702381Y-91404761D01*
X143702381Y-91690476D01*
X143654762Y-91785714D01*
X143607143Y-91833333D01*
X195238095Y-117202381D02*
X195238095Y-118011905D01*
X195285714Y-118107143D01*
X195333333Y-118154762D01*
X195428571Y-118202381D01*
X195619048Y-118202381D01*
X195714286Y-118154762D01*
X195761905Y-118107143D01*
X195809524Y-118011905D01*
X195809524Y-117202381D01*
X196190476Y-117202381D02*
X196809524Y-117202381D01*
X196476190Y-117583333D01*
X196619048Y-117583333D01*
X196714286Y-117630952D01*
X196761905Y-117678571D01*
X196809524Y-117773810D01*
X196809524Y-118011905D01*
X196761905Y-118107143D01*
X196714286Y-118154762D01*
X196619048Y-118202381D01*
X196333333Y-118202381D01*
X196238095Y-118154762D01*
X196190476Y-118107143D01*
X206357143Y-98166666D02*
X206404762Y-98214285D01*
X206452381Y-98357142D01*
X206452381Y-98452380D01*
X206404762Y-98595238D01*
X206309524Y-98690476D01*
X206214286Y-98738095D01*
X206023810Y-98785714D01*
X205880952Y-98785714D01*
X205690476Y-98738095D01*
X205595238Y-98690476D01*
X205500000Y-98595238D01*
X205452381Y-98452380D01*
X205452381Y-98357142D01*
X205500000Y-98214285D01*
X205547619Y-98166666D01*
X205785714Y-97309523D02*
X206452381Y-97309523D01*
X205404762Y-97547619D02*
X206119048Y-97785714D01*
X206119048Y-97166666D01*
X206702381Y-109666666D02*
X206702381Y-110142857D01*
X205702381Y-110142857D01*
X206702381Y-108809523D02*
X206702381Y-109380952D01*
X206702381Y-109095238D02*
X205702381Y-109095238D01*
X205845238Y-109190476D01*
X205940476Y-109285714D01*
X205988095Y-109380952D01*
D13*
X203630952Y-76452381D02*
X203821429Y-76452381D01*
X203916667Y-76500000D01*
X204011905Y-76595238D01*
X204059524Y-76785714D01*
X204059524Y-77119048D01*
X204011905Y-77309524D01*
X203916667Y-77404762D01*
X203821429Y-77452381D01*
X203630952Y-77452381D01*
X203535714Y-77404762D01*
X203440476Y-77309524D01*
X203392857Y-77119048D01*
X203392857Y-76785714D01*
X203440476Y-76595238D01*
X203535714Y-76500000D01*
X203630952Y-76452381D01*
X204488095Y-77452381D02*
X204488095Y-76452381D01*
X205059524Y-77452381D01*
X205059524Y-76452381D01*
D10*
X188952381Y-74166666D02*
X188476190Y-74500000D01*
X188952381Y-74738095D02*
X187952381Y-74738095D01*
X187952381Y-74357142D01*
X188000000Y-74261904D01*
X188047619Y-74214285D01*
X188142857Y-74166666D01*
X188285714Y-74166666D01*
X188380952Y-74214285D01*
X188428571Y-74261904D01*
X188476190Y-74357142D01*
X188476190Y-74738095D01*
X187952381Y-73261904D02*
X187952381Y-73738095D01*
X188428571Y-73785714D01*
X188380952Y-73738095D01*
X188333333Y-73642857D01*
X188333333Y-73404761D01*
X188380952Y-73309523D01*
X188428571Y-73261904D01*
X188523810Y-73214285D01*
X188761905Y-73214285D01*
X188857143Y-73261904D01*
X188904762Y-73309523D01*
X188952381Y-73404761D01*
X188952381Y-73642857D01*
X188904762Y-73738095D01*
X188857143Y-73785714D01*
X176833334Y-76357143D02*
X176785715Y-76404762D01*
X176642858Y-76452381D01*
X176547620Y-76452381D01*
X176404762Y-76404762D01*
X176309524Y-76309524D01*
X176261905Y-76214286D01*
X176214286Y-76023810D01*
X176214286Y-75880952D01*
X176261905Y-75690476D01*
X176309524Y-75595238D01*
X176404762Y-75500000D01*
X176547620Y-75452381D01*
X176642858Y-75452381D01*
X176785715Y-75500000D01*
X176833334Y-75547619D01*
X177690477Y-75452381D02*
X177500000Y-75452381D01*
X177404762Y-75500000D01*
X177357143Y-75547619D01*
X177261905Y-75690476D01*
X177214286Y-75880952D01*
X177214286Y-76261905D01*
X177261905Y-76357143D01*
X177309524Y-76404762D01*
X177404762Y-76452381D01*
X177595239Y-76452381D01*
X177690477Y-76404762D01*
X177738096Y-76357143D01*
X177785715Y-76261905D01*
X177785715Y-76023810D01*
X177738096Y-75928571D01*
X177690477Y-75880952D01*
X177595239Y-75833333D01*
X177404762Y-75833333D01*
X177309524Y-75880952D01*
X177261905Y-75928571D01*
X177214286Y-76023810D01*
X173373334Y-76032381D02*
X173040000Y-75556190D01*
X172801905Y-76032381D02*
X172801905Y-75032381D01*
X173182858Y-75032381D01*
X173278096Y-75080000D01*
X173325715Y-75127619D01*
X173373334Y-75222857D01*
X173373334Y-75365714D01*
X173325715Y-75460952D01*
X173278096Y-75508571D01*
X173182858Y-75556190D01*
X172801905Y-75556190D01*
X173706667Y-75032381D02*
X174373334Y-75032381D01*
X173944762Y-76032381D01*
X178333334Y-78952381D02*
X178000000Y-78476190D01*
X177761905Y-78952381D02*
X177761905Y-77952381D01*
X178142858Y-77952381D01*
X178238096Y-78000000D01*
X178285715Y-78047619D01*
X178333334Y-78142857D01*
X178333334Y-78285714D01*
X178285715Y-78380952D01*
X178238096Y-78428571D01*
X178142858Y-78476190D01*
X177761905Y-78476190D01*
X178904762Y-78380952D02*
X178809524Y-78333333D01*
X178761905Y-78285714D01*
X178714286Y-78190476D01*
X178714286Y-78142857D01*
X178761905Y-78047619D01*
X178809524Y-78000000D01*
X178904762Y-77952381D01*
X179095239Y-77952381D01*
X179190477Y-78000000D01*
X179238096Y-78047619D01*
X179285715Y-78142857D01*
X179285715Y-78190476D01*
X179238096Y-78285714D01*
X179190477Y-78333333D01*
X179095239Y-78380952D01*
X178904762Y-78380952D01*
X178809524Y-78428571D01*
X178761905Y-78476190D01*
X178714286Y-78571429D01*
X178714286Y-78761905D01*
X178761905Y-78857143D01*
X178809524Y-78904762D01*
X178904762Y-78952381D01*
X179095239Y-78952381D01*
X179190477Y-78904762D01*
X179238096Y-78857143D01*
X179285715Y-78761905D01*
X179285715Y-78571429D01*
X179238096Y-78476190D01*
X179190477Y-78428571D01*
X179095239Y-78380952D01*
X144373334Y-71032381D02*
X144040000Y-70556190D01*
X143801905Y-71032381D02*
X143801905Y-70032381D01*
X144182858Y-70032381D01*
X144278096Y-70080000D01*
X144325715Y-70127619D01*
X144373334Y-70222857D01*
X144373334Y-70365714D01*
X144325715Y-70460952D01*
X144278096Y-70508571D01*
X144182858Y-70556190D01*
X143801905Y-70556190D01*
X144849524Y-71032381D02*
X145040000Y-71032381D01*
X145135239Y-70984762D01*
X145182858Y-70937143D01*
X145278096Y-70794286D01*
X145325715Y-70603810D01*
X145325715Y-70222857D01*
X145278096Y-70127619D01*
X145230477Y-70080000D01*
X145135239Y-70032381D01*
X144944762Y-70032381D01*
X144849524Y-70080000D01*
X144801905Y-70127619D01*
X144754286Y-70222857D01*
X144754286Y-70460952D01*
X144801905Y-70556190D01*
X144849524Y-70603810D01*
X144944762Y-70651429D01*
X145135239Y-70651429D01*
X145230477Y-70603810D01*
X145278096Y-70556190D01*
X145325715Y-70460952D01*
X188607143Y-119107143D02*
X188559524Y-119154762D01*
X188416667Y-119202381D01*
X188321429Y-119202381D01*
X188178571Y-119154762D01*
X188083333Y-119059524D01*
X188035714Y-118964286D01*
X187988095Y-118773810D01*
X187988095Y-118630952D01*
X188035714Y-118440476D01*
X188083333Y-118345238D01*
X188178571Y-118250000D01*
X188321429Y-118202381D01*
X188416667Y-118202381D01*
X188559524Y-118250000D01*
X188607143Y-118297619D01*
X189559524Y-119202381D02*
X188988095Y-119202381D01*
X189273809Y-119202381D02*
X189273809Y-118202381D01*
X189178571Y-118345238D01*
X189083333Y-118440476D01*
X188988095Y-118488095D01*
X190178571Y-118202381D02*
X190273810Y-118202381D01*
X190369048Y-118250000D01*
X190416667Y-118297619D01*
X190464286Y-118392857D01*
X190511905Y-118583333D01*
X190511905Y-118821429D01*
X190464286Y-119011905D01*
X190416667Y-119107143D01*
X190369048Y-119154762D01*
X190273810Y-119202381D01*
X190178571Y-119202381D01*
X190083333Y-119154762D01*
X190035714Y-119107143D01*
X189988095Y-119011905D01*
X189940476Y-118821429D01*
X189940476Y-118583333D01*
X189988095Y-118392857D01*
X190035714Y-118297619D01*
X190083333Y-118250000D01*
X190178571Y-118202381D01*
X119857143Y-84892857D02*
X119904762Y-84940476D01*
X119952381Y-85083333D01*
X119952381Y-85178571D01*
X119904762Y-85321429D01*
X119809524Y-85416667D01*
X119714286Y-85464286D01*
X119523810Y-85511905D01*
X119380952Y-85511905D01*
X119190476Y-85464286D01*
X119095238Y-85416667D01*
X119000000Y-85321429D01*
X118952381Y-85178571D01*
X118952381Y-85083333D01*
X119000000Y-84940476D01*
X119047619Y-84892857D01*
X119952381Y-83940476D02*
X119952381Y-84511905D01*
X119952381Y-84226191D02*
X118952381Y-84226191D01*
X119095238Y-84321429D01*
X119190476Y-84416667D01*
X119238095Y-84511905D01*
X119952381Y-82988095D02*
X119952381Y-83559524D01*
X119952381Y-83273810D02*
X118952381Y-83273810D01*
X119095238Y-83369048D01*
X119190476Y-83464286D01*
X119238095Y-83559524D01*
X172702381Y-89142857D02*
X172226190Y-89476191D01*
X172702381Y-89714286D02*
X171702381Y-89714286D01*
X171702381Y-89333333D01*
X171750000Y-89238095D01*
X171797619Y-89190476D01*
X171892857Y-89142857D01*
X172035714Y-89142857D01*
X172130952Y-89190476D01*
X172178571Y-89238095D01*
X172226190Y-89333333D01*
X172226190Y-89714286D01*
X172702381Y-88190476D02*
X172702381Y-88761905D01*
X172702381Y-88476191D02*
X171702381Y-88476191D01*
X171845238Y-88571429D01*
X171940476Y-88666667D01*
X171988095Y-88761905D01*
X171797619Y-87809524D02*
X171750000Y-87761905D01*
X171702381Y-87666667D01*
X171702381Y-87428571D01*
X171750000Y-87333333D01*
X171797619Y-87285714D01*
X171892857Y-87238095D01*
X171988095Y-87238095D01*
X172130952Y-87285714D01*
X172702381Y-87857143D01*
X172702381Y-87238095D01*
X175452381Y-83892857D02*
X174976190Y-84226191D01*
X175452381Y-84464286D02*
X174452381Y-84464286D01*
X174452381Y-84083333D01*
X174500000Y-83988095D01*
X174547619Y-83940476D01*
X174642857Y-83892857D01*
X174785714Y-83892857D01*
X174880952Y-83940476D01*
X174928571Y-83988095D01*
X174976190Y-84083333D01*
X174976190Y-84464286D01*
X175452381Y-82940476D02*
X175452381Y-83511905D01*
X175452381Y-83226191D02*
X174452381Y-83226191D01*
X174595238Y-83321429D01*
X174690476Y-83416667D01*
X174738095Y-83511905D01*
X174452381Y-82607143D02*
X174452381Y-81988095D01*
X174833333Y-82321429D01*
X174833333Y-82178571D01*
X174880952Y-82083333D01*
X174928571Y-82035714D01*
X175023810Y-81988095D01*
X175261905Y-81988095D01*
X175357143Y-82035714D01*
X175404762Y-82083333D01*
X175452381Y-82178571D01*
X175452381Y-82464286D01*
X175404762Y-82559524D01*
X175357143Y-82607143D01*
X170702381Y-83392857D02*
X170226190Y-83726191D01*
X170702381Y-83964286D02*
X169702381Y-83964286D01*
X169702381Y-83583333D01*
X169750000Y-83488095D01*
X169797619Y-83440476D01*
X169892857Y-83392857D01*
X170035714Y-83392857D01*
X170130952Y-83440476D01*
X170178571Y-83488095D01*
X170226190Y-83583333D01*
X170226190Y-83964286D01*
X170702381Y-82440476D02*
X170702381Y-83011905D01*
X170702381Y-82726191D02*
X169702381Y-82726191D01*
X169845238Y-82821429D01*
X169940476Y-82916667D01*
X169988095Y-83011905D01*
X170035714Y-81583333D02*
X170702381Y-81583333D01*
X169654762Y-81821429D02*
X170369048Y-82059524D01*
X170369048Y-81440476D01*
X156309524Y-79678571D02*
X156642858Y-79678571D01*
X156785715Y-80202381D02*
X156309524Y-80202381D01*
X156309524Y-79202381D01*
X156785715Y-79202381D01*
X157166667Y-80154762D02*
X157309524Y-80202381D01*
X157547620Y-80202381D01*
X157642858Y-80154762D01*
X157690477Y-80107143D01*
X157738096Y-80011905D01*
X157738096Y-79916667D01*
X157690477Y-79821429D01*
X157642858Y-79773810D01*
X157547620Y-79726190D01*
X157357143Y-79678571D01*
X157261905Y-79630952D01*
X157214286Y-79583333D01*
X157166667Y-79488095D01*
X157166667Y-79392857D01*
X157214286Y-79297619D01*
X157261905Y-79250000D01*
X157357143Y-79202381D01*
X157595239Y-79202381D01*
X157738096Y-79250000D01*
X158166667Y-80202381D02*
X158166667Y-79202381D01*
X158547620Y-79202381D01*
X158642858Y-79250000D01*
X158690477Y-79297619D01*
X158738096Y-79392857D01*
X158738096Y-79535714D01*
X158690477Y-79630952D01*
X158642858Y-79678571D01*
X158547620Y-79726190D01*
X158166667Y-79726190D01*
X159166667Y-79821429D02*
X159928572Y-79821429D01*
X160928572Y-80202381D02*
X160357143Y-80202381D01*
X160642857Y-80202381D02*
X160642857Y-79202381D01*
X160547619Y-79345238D01*
X160452381Y-79440476D01*
X160357143Y-79488095D01*
X161309524Y-79297619D02*
X161357143Y-79250000D01*
X161452381Y-79202381D01*
X161690477Y-79202381D01*
X161785715Y-79250000D01*
X161833334Y-79297619D01*
X161880953Y-79392857D01*
X161880953Y-79488095D01*
X161833334Y-79630952D01*
X161261905Y-80202381D01*
X161880953Y-80202381D01*
X162642858Y-79678571D02*
X162309524Y-79678571D01*
X162309524Y-80202381D02*
X162309524Y-79202381D01*
X162785715Y-79202381D01*
X142607143Y-76142857D02*
X142654762Y-76190476D01*
X142702381Y-76333333D01*
X142702381Y-76428571D01*
X142654762Y-76571429D01*
X142559524Y-76666667D01*
X142464286Y-76714286D01*
X142273810Y-76761905D01*
X142130952Y-76761905D01*
X141940476Y-76714286D01*
X141845238Y-76666667D01*
X141750000Y-76571429D01*
X141702381Y-76428571D01*
X141702381Y-76333333D01*
X141750000Y-76190476D01*
X141797619Y-76142857D01*
X142702381Y-75190476D02*
X142702381Y-75761905D01*
X142702381Y-75476191D02*
X141702381Y-75476191D01*
X141845238Y-75571429D01*
X141940476Y-75666667D01*
X141988095Y-75761905D01*
X141702381Y-74285714D02*
X141702381Y-74761905D01*
X142178571Y-74809524D01*
X142130952Y-74761905D01*
X142083333Y-74666667D01*
X142083333Y-74428571D01*
X142130952Y-74333333D01*
X142178571Y-74285714D01*
X142273810Y-74238095D01*
X142511905Y-74238095D01*
X142607143Y-74285714D01*
X142654762Y-74333333D01*
X142702381Y-74428571D01*
X142702381Y-74666667D01*
X142654762Y-74761905D01*
X142607143Y-74809524D01*
X142202381Y-81940476D02*
X141726190Y-82273810D01*
X142202381Y-82511905D02*
X141202381Y-82511905D01*
X141202381Y-82130952D01*
X141250000Y-82035714D01*
X141297619Y-81988095D01*
X141392857Y-81940476D01*
X141535714Y-81940476D01*
X141630952Y-81988095D01*
X141678571Y-82035714D01*
X141726190Y-82130952D01*
X141726190Y-82511905D01*
X141916667Y-81559524D02*
X141916667Y-81083333D01*
X142202381Y-81654762D02*
X141202381Y-81321429D01*
X142202381Y-80988095D01*
X142202381Y-80654762D02*
X141202381Y-80654762D01*
X141916667Y-80321428D01*
X141202381Y-79988095D01*
X142202381Y-79988095D01*
X181357143Y-105642857D02*
X181404762Y-105690476D01*
X181452381Y-105833333D01*
X181452381Y-105928571D01*
X181404762Y-106071429D01*
X181309524Y-106166667D01*
X181214286Y-106214286D01*
X181023810Y-106261905D01*
X180880952Y-106261905D01*
X180690476Y-106214286D01*
X180595238Y-106166667D01*
X180500000Y-106071429D01*
X180452381Y-105928571D01*
X180452381Y-105833333D01*
X180500000Y-105690476D01*
X180547619Y-105642857D01*
X181452381Y-104690476D02*
X181452381Y-105261905D01*
X181452381Y-104976191D02*
X180452381Y-104976191D01*
X180595238Y-105071429D01*
X180690476Y-105166667D01*
X180738095Y-105261905D01*
X180452381Y-103833333D02*
X180452381Y-104023810D01*
X180500000Y-104119048D01*
X180547619Y-104166667D01*
X180690476Y-104261905D01*
X180880952Y-104309524D01*
X181261905Y-104309524D01*
X181357143Y-104261905D01*
X181404762Y-104214286D01*
X181452381Y-104119048D01*
X181452381Y-103928571D01*
X181404762Y-103833333D01*
X181357143Y-103785714D01*
X181261905Y-103738095D01*
X181023810Y-103738095D01*
X180928571Y-103785714D01*
X180880952Y-103833333D01*
X180833333Y-103928571D01*
X180833333Y-104119048D01*
X180880952Y-104214286D01*
X180928571Y-104261905D01*
X181023810Y-104309524D01*
X172357143Y-105892857D02*
X172404762Y-105940476D01*
X172452381Y-106083333D01*
X172452381Y-106178571D01*
X172404762Y-106321429D01*
X172309524Y-106416667D01*
X172214286Y-106464286D01*
X172023810Y-106511905D01*
X171880952Y-106511905D01*
X171690476Y-106464286D01*
X171595238Y-106416667D01*
X171500000Y-106321429D01*
X171452381Y-106178571D01*
X171452381Y-106083333D01*
X171500000Y-105940476D01*
X171547619Y-105892857D01*
X172452381Y-104940476D02*
X172452381Y-105511905D01*
X172452381Y-105226191D02*
X171452381Y-105226191D01*
X171595238Y-105321429D01*
X171690476Y-105416667D01*
X171738095Y-105511905D01*
X171452381Y-104607143D02*
X171452381Y-103940476D01*
X172452381Y-104369048D01*
X168067143Y-105122381D02*
X167733809Y-104646190D01*
X167495714Y-105122381D02*
X167495714Y-104122381D01*
X167876667Y-104122381D01*
X167971905Y-104170000D01*
X168019524Y-104217619D01*
X168067143Y-104312857D01*
X168067143Y-104455714D01*
X168019524Y-104550952D01*
X167971905Y-104598571D01*
X167876667Y-104646190D01*
X167495714Y-104646190D01*
X169019524Y-105122381D02*
X168448095Y-105122381D01*
X168733809Y-105122381D02*
X168733809Y-104122381D01*
X168638571Y-104265238D01*
X168543333Y-104360476D01*
X168448095Y-104408095D01*
X169590952Y-104550952D02*
X169495714Y-104503333D01*
X169448095Y-104455714D01*
X169400476Y-104360476D01*
X169400476Y-104312857D01*
X169448095Y-104217619D01*
X169495714Y-104170000D01*
X169590952Y-104122381D01*
X169781429Y-104122381D01*
X169876667Y-104170000D01*
X169924286Y-104217619D01*
X169971905Y-104312857D01*
X169971905Y-104360476D01*
X169924286Y-104455714D01*
X169876667Y-104503333D01*
X169781429Y-104550952D01*
X169590952Y-104550952D01*
X169495714Y-104598571D01*
X169448095Y-104646190D01*
X169400476Y-104741429D01*
X169400476Y-104931905D01*
X169448095Y-105027143D01*
X169495714Y-105074762D01*
X169590952Y-105122381D01*
X169781429Y-105122381D01*
X169876667Y-105074762D01*
X169924286Y-105027143D01*
X169971905Y-104931905D01*
X169971905Y-104741429D01*
X169924286Y-104646190D01*
X169876667Y-104598571D01*
X169781429Y-104550952D01*
X168309524Y-94952381D02*
X168309524Y-93952381D01*
X168547619Y-93952381D01*
X168690477Y-94000000D01*
X168785715Y-94095238D01*
X168833334Y-94190476D01*
X168880953Y-94380952D01*
X168880953Y-94523810D01*
X168833334Y-94714286D01*
X168785715Y-94809524D01*
X168690477Y-94904762D01*
X168547619Y-94952381D01*
X168309524Y-94952381D01*
X169261905Y-94666667D02*
X169738096Y-94666667D01*
X169166667Y-94952381D02*
X169500000Y-93952381D01*
X169833334Y-94952381D01*
X170738096Y-94857143D02*
X170690477Y-94904762D01*
X170547620Y-94952381D01*
X170452382Y-94952381D01*
X170309524Y-94904762D01*
X170214286Y-94809524D01*
X170166667Y-94714286D01*
X170119048Y-94523810D01*
X170119048Y-94380952D01*
X170166667Y-94190476D01*
X170214286Y-94095238D01*
X170309524Y-94000000D01*
X170452382Y-93952381D01*
X170547620Y-93952381D01*
X170690477Y-94000000D01*
X170738096Y-94047619D01*
X99857143Y-110642857D02*
X99904762Y-110690476D01*
X99952381Y-110833333D01*
X99952381Y-110928571D01*
X99904762Y-111071429D01*
X99809524Y-111166667D01*
X99714286Y-111214286D01*
X99523810Y-111261905D01*
X99380952Y-111261905D01*
X99190476Y-111214286D01*
X99095238Y-111166667D01*
X99000000Y-111071429D01*
X98952381Y-110928571D01*
X98952381Y-110833333D01*
X99000000Y-110690476D01*
X99047619Y-110642857D01*
X99952381Y-109690476D02*
X99952381Y-110261905D01*
X99952381Y-109976191D02*
X98952381Y-109976191D01*
X99095238Y-110071429D01*
X99190476Y-110166667D01*
X99238095Y-110261905D01*
X99952381Y-109214286D02*
X99952381Y-109023810D01*
X99904762Y-108928571D01*
X99857143Y-108880952D01*
X99714286Y-108785714D01*
X99523810Y-108738095D01*
X99142857Y-108738095D01*
X99047619Y-108785714D01*
X99000000Y-108833333D01*
X98952381Y-108928571D01*
X98952381Y-109119048D01*
X99000000Y-109214286D01*
X99047619Y-109261905D01*
X99142857Y-109309524D01*
X99380952Y-109309524D01*
X99476190Y-109261905D01*
X99523810Y-109214286D01*
X99571429Y-109119048D01*
X99571429Y-108928571D01*
X99523810Y-108833333D01*
X99476190Y-108785714D01*
X99380952Y-108738095D01*
X93202381Y-109392857D02*
X92726190Y-109726191D01*
X93202381Y-109964286D02*
X92202381Y-109964286D01*
X92202381Y-109583333D01*
X92250000Y-109488095D01*
X92297619Y-109440476D01*
X92392857Y-109392857D01*
X92535714Y-109392857D01*
X92630952Y-109440476D01*
X92678571Y-109488095D01*
X92726190Y-109583333D01*
X92726190Y-109964286D01*
X92297619Y-109011905D02*
X92250000Y-108964286D01*
X92202381Y-108869048D01*
X92202381Y-108630952D01*
X92250000Y-108535714D01*
X92297619Y-108488095D01*
X92392857Y-108440476D01*
X92488095Y-108440476D01*
X92630952Y-108488095D01*
X93202381Y-109059524D01*
X93202381Y-108440476D01*
X92202381Y-107821429D02*
X92202381Y-107726190D01*
X92250000Y-107630952D01*
X92297619Y-107583333D01*
X92392857Y-107535714D01*
X92583333Y-107488095D01*
X92821429Y-107488095D01*
X93011905Y-107535714D01*
X93107143Y-107583333D01*
X93154762Y-107630952D01*
X93202381Y-107726190D01*
X93202381Y-107821429D01*
X93154762Y-107916667D01*
X93107143Y-107964286D01*
X93011905Y-108011905D01*
X92821429Y-108059524D01*
X92583333Y-108059524D01*
X92392857Y-108011905D01*
X92297619Y-107964286D01*
X92250000Y-107916667D01*
X92202381Y-107821429D01*
X94607143Y-104857143D02*
X94559524Y-104904762D01*
X94416667Y-104952381D01*
X94321429Y-104952381D01*
X94178571Y-104904762D01*
X94083333Y-104809524D01*
X94035714Y-104714286D01*
X93988095Y-104523810D01*
X93988095Y-104380952D01*
X94035714Y-104190476D01*
X94083333Y-104095238D01*
X94178571Y-104000000D01*
X94321429Y-103952381D01*
X94416667Y-103952381D01*
X94559524Y-104000000D01*
X94607143Y-104047619D01*
X94988095Y-104047619D02*
X95035714Y-104000000D01*
X95130952Y-103952381D01*
X95369048Y-103952381D01*
X95464286Y-104000000D01*
X95511905Y-104047619D01*
X95559524Y-104142857D01*
X95559524Y-104238095D01*
X95511905Y-104380952D01*
X94940476Y-104952381D01*
X95559524Y-104952381D01*
X96511905Y-104952381D02*
X95940476Y-104952381D01*
X96226190Y-104952381D02*
X96226190Y-103952381D01*
X96130952Y-104095238D01*
X96035714Y-104190476D01*
X95940476Y-104238095D01*
X98607143Y-104357143D02*
X98559524Y-104404762D01*
X98416667Y-104452381D01*
X98321429Y-104452381D01*
X98178571Y-104404762D01*
X98083333Y-104309524D01*
X98035714Y-104214286D01*
X97988095Y-104023810D01*
X97988095Y-103880952D01*
X98035714Y-103690476D01*
X98083333Y-103595238D01*
X98178571Y-103500000D01*
X98321429Y-103452381D01*
X98416667Y-103452381D01*
X98559524Y-103500000D01*
X98607143Y-103547619D01*
X98988095Y-103547619D02*
X99035714Y-103500000D01*
X99130952Y-103452381D01*
X99369048Y-103452381D01*
X99464286Y-103500000D01*
X99511905Y-103547619D01*
X99559524Y-103642857D01*
X99559524Y-103738095D01*
X99511905Y-103880952D01*
X98940476Y-104452381D01*
X99559524Y-104452381D01*
X99940476Y-103547619D02*
X99988095Y-103500000D01*
X100083333Y-103452381D01*
X100321429Y-103452381D01*
X100416667Y-103500000D01*
X100464286Y-103547619D01*
X100511905Y-103642857D01*
X100511905Y-103738095D01*
X100464286Y-103880952D01*
X99892857Y-104452381D01*
X100511905Y-104452381D01*
X96107143Y-115892857D02*
X96154762Y-115940476D01*
X96202381Y-116083333D01*
X96202381Y-116178571D01*
X96154762Y-116321429D01*
X96059524Y-116416667D01*
X95964286Y-116464286D01*
X95773810Y-116511905D01*
X95630952Y-116511905D01*
X95440476Y-116464286D01*
X95345238Y-116416667D01*
X95250000Y-116321429D01*
X95202381Y-116178571D01*
X95202381Y-116083333D01*
X95250000Y-115940476D01*
X95297619Y-115892857D01*
X95297619Y-115511905D02*
X95250000Y-115464286D01*
X95202381Y-115369048D01*
X95202381Y-115130952D01*
X95250000Y-115035714D01*
X95297619Y-114988095D01*
X95392857Y-114940476D01*
X95488095Y-114940476D01*
X95630952Y-114988095D01*
X96202381Y-115559524D01*
X96202381Y-114940476D01*
X95202381Y-114607143D02*
X95202381Y-113988095D01*
X95583333Y-114321429D01*
X95583333Y-114178571D01*
X95630952Y-114083333D01*
X95678571Y-114035714D01*
X95773810Y-113988095D01*
X96011905Y-113988095D01*
X96107143Y-114035714D01*
X96154762Y-114083333D01*
X96202381Y-114178571D01*
X96202381Y-114464286D01*
X96154762Y-114559524D01*
X96107143Y-114607143D01*
X99567143Y-121872381D02*
X99233809Y-121396190D01*
X98995714Y-121872381D02*
X98995714Y-120872381D01*
X99376667Y-120872381D01*
X99471905Y-120920000D01*
X99519524Y-120967619D01*
X99567143Y-121062857D01*
X99567143Y-121205714D01*
X99519524Y-121300952D01*
X99471905Y-121348571D01*
X99376667Y-121396190D01*
X98995714Y-121396190D01*
X99948095Y-120967619D02*
X99995714Y-120920000D01*
X100090952Y-120872381D01*
X100329048Y-120872381D01*
X100424286Y-120920000D01*
X100471905Y-120967619D01*
X100519524Y-121062857D01*
X100519524Y-121158095D01*
X100471905Y-121300952D01*
X99900476Y-121872381D01*
X100519524Y-121872381D01*
X101376667Y-121205714D02*
X101376667Y-121872381D01*
X101138571Y-120824762D02*
X100900476Y-121539048D01*
X101519524Y-121539048D01*
X112857143Y-119967143D02*
X112809524Y-120014762D01*
X112666667Y-120062381D01*
X112571429Y-120062381D01*
X112428571Y-120014762D01*
X112333333Y-119919524D01*
X112285714Y-119824286D01*
X112238095Y-119633810D01*
X112238095Y-119490952D01*
X112285714Y-119300476D01*
X112333333Y-119205238D01*
X112428571Y-119110000D01*
X112571429Y-119062381D01*
X112666667Y-119062381D01*
X112809524Y-119110000D01*
X112857143Y-119157619D01*
X113238095Y-119157619D02*
X113285714Y-119110000D01*
X113380952Y-119062381D01*
X113619048Y-119062381D01*
X113714286Y-119110000D01*
X113761905Y-119157619D01*
X113809524Y-119252857D01*
X113809524Y-119348095D01*
X113761905Y-119490952D01*
X113190476Y-120062381D01*
X113809524Y-120062381D01*
X114714286Y-119062381D02*
X114238095Y-119062381D01*
X114190476Y-119538571D01*
X114238095Y-119490952D01*
X114333333Y-119443333D01*
X114571429Y-119443333D01*
X114666667Y-119490952D01*
X114714286Y-119538571D01*
X114761905Y-119633810D01*
X114761905Y-119871905D01*
X114714286Y-119967143D01*
X114666667Y-120014762D01*
X114571429Y-120062381D01*
X114333333Y-120062381D01*
X114238095Y-120014762D01*
X114190476Y-119967143D01*
X116857143Y-116952381D02*
X116523809Y-116476190D01*
X116285714Y-116952381D02*
X116285714Y-115952381D01*
X116666667Y-115952381D01*
X116761905Y-116000000D01*
X116809524Y-116047619D01*
X116857143Y-116142857D01*
X116857143Y-116285714D01*
X116809524Y-116380952D01*
X116761905Y-116428571D01*
X116666667Y-116476190D01*
X116285714Y-116476190D01*
X117238095Y-116047619D02*
X117285714Y-116000000D01*
X117380952Y-115952381D01*
X117619048Y-115952381D01*
X117714286Y-116000000D01*
X117761905Y-116047619D01*
X117809524Y-116142857D01*
X117809524Y-116238095D01*
X117761905Y-116380952D01*
X117190476Y-116952381D01*
X117809524Y-116952381D01*
X118666667Y-115952381D02*
X118476190Y-115952381D01*
X118380952Y-116000000D01*
X118333333Y-116047619D01*
X118238095Y-116190476D01*
X118190476Y-116380952D01*
X118190476Y-116761905D01*
X118238095Y-116857143D01*
X118285714Y-116904762D01*
X118380952Y-116952381D01*
X118571429Y-116952381D01*
X118666667Y-116904762D01*
X118714286Y-116857143D01*
X118761905Y-116761905D01*
X118761905Y-116523810D01*
X118714286Y-116428571D01*
X118666667Y-116380952D01*
X118571429Y-116333333D01*
X118380952Y-116333333D01*
X118285714Y-116380952D01*
X118238095Y-116428571D01*
X118190476Y-116523810D01*
X119107143Y-112392857D02*
X119154762Y-112440476D01*
X119202381Y-112583333D01*
X119202381Y-112678571D01*
X119154762Y-112821429D01*
X119059524Y-112916667D01*
X118964286Y-112964286D01*
X118773810Y-113011905D01*
X118630952Y-113011905D01*
X118440476Y-112964286D01*
X118345238Y-112916667D01*
X118250000Y-112821429D01*
X118202381Y-112678571D01*
X118202381Y-112583333D01*
X118250000Y-112440476D01*
X118297619Y-112392857D01*
X118297619Y-112011905D02*
X118250000Y-111964286D01*
X118202381Y-111869048D01*
X118202381Y-111630952D01*
X118250000Y-111535714D01*
X118297619Y-111488095D01*
X118392857Y-111440476D01*
X118488095Y-111440476D01*
X118630952Y-111488095D01*
X119202381Y-112059524D01*
X119202381Y-111440476D01*
X118202381Y-111107143D02*
X118202381Y-110440476D01*
X119202381Y-110869048D01*
X112357143Y-104607143D02*
X112309524Y-104654762D01*
X112166667Y-104702381D01*
X112071429Y-104702381D01*
X111928571Y-104654762D01*
X111833333Y-104559524D01*
X111785714Y-104464286D01*
X111738095Y-104273810D01*
X111738095Y-104130952D01*
X111785714Y-103940476D01*
X111833333Y-103845238D01*
X111928571Y-103750000D01*
X112071429Y-103702381D01*
X112166667Y-103702381D01*
X112309524Y-103750000D01*
X112357143Y-103797619D01*
X112738095Y-103797619D02*
X112785714Y-103750000D01*
X112880952Y-103702381D01*
X113119048Y-103702381D01*
X113214286Y-103750000D01*
X113261905Y-103797619D01*
X113309524Y-103892857D01*
X113309524Y-103988095D01*
X113261905Y-104130952D01*
X112690476Y-104702381D01*
X113309524Y-104702381D01*
X113880952Y-104130952D02*
X113785714Y-104083333D01*
X113738095Y-104035714D01*
X113690476Y-103940476D01*
X113690476Y-103892857D01*
X113738095Y-103797619D01*
X113785714Y-103750000D01*
X113880952Y-103702381D01*
X114071429Y-103702381D01*
X114166667Y-103750000D01*
X114214286Y-103797619D01*
X114261905Y-103892857D01*
X114261905Y-103940476D01*
X114214286Y-104035714D01*
X114166667Y-104083333D01*
X114071429Y-104130952D01*
X113880952Y-104130952D01*
X113785714Y-104178571D01*
X113738095Y-104226190D01*
X113690476Y-104321429D01*
X113690476Y-104511905D01*
X113738095Y-104607143D01*
X113785714Y-104654762D01*
X113880952Y-104702381D01*
X114071429Y-104702381D01*
X114166667Y-104654762D01*
X114214286Y-104607143D01*
X114261905Y-104511905D01*
X114261905Y-104321429D01*
X114214286Y-104226190D01*
X114166667Y-104178571D01*
X114071429Y-104130952D01*
X103690476Y-106666667D02*
X104166667Y-106666667D01*
X103595238Y-106952381D02*
X103928571Y-105952381D01*
X104261905Y-106952381D01*
X104595238Y-106952381D02*
X104595238Y-105952381D01*
X104928572Y-106666667D01*
X105261905Y-105952381D01*
X105261905Y-106952381D01*
X105738095Y-106952381D02*
X105738095Y-105952381D01*
X106119048Y-105952381D01*
X106214286Y-106000000D01*
X106261905Y-106047619D01*
X106309524Y-106142857D01*
X106309524Y-106285714D01*
X106261905Y-106380952D01*
X106214286Y-106428571D01*
X106119048Y-106476190D01*
X105738095Y-106476190D01*
X146880952Y-111404762D02*
X147023809Y-111452381D01*
X147261905Y-111452381D01*
X147357143Y-111404762D01*
X147404762Y-111357143D01*
X147452381Y-111261905D01*
X147452381Y-111166667D01*
X147404762Y-111071429D01*
X147357143Y-111023810D01*
X147261905Y-110976190D01*
X147071428Y-110928571D01*
X146976190Y-110880952D01*
X146928571Y-110833333D01*
X146880952Y-110738095D01*
X146880952Y-110642857D01*
X146928571Y-110547619D01*
X146976190Y-110500000D01*
X147071428Y-110452381D01*
X147309524Y-110452381D01*
X147452381Y-110500000D01*
X147880952Y-111452381D02*
X147880952Y-110452381D01*
X148261905Y-110452381D01*
X148357143Y-110500000D01*
X148404762Y-110547619D01*
X148452381Y-110642857D01*
X148452381Y-110785714D01*
X148404762Y-110880952D01*
X148357143Y-110928571D01*
X148261905Y-110976190D01*
X147880952Y-110976190D01*
X148880952Y-110928571D02*
X149214286Y-110928571D01*
X149357143Y-111452381D02*
X148880952Y-111452381D01*
X148880952Y-110452381D01*
X149357143Y-110452381D01*
X149738095Y-111166667D02*
X150214286Y-111166667D01*
X149642857Y-111452381D02*
X149976190Y-110452381D01*
X150309524Y-111452381D01*
X150642857Y-111452381D02*
X150642857Y-110452381D01*
X151214286Y-111452381D02*
X150785714Y-110880952D01*
X151214286Y-110452381D02*
X150642857Y-111023810D01*
X151642857Y-110928571D02*
X151976191Y-110928571D01*
X152119048Y-111452381D02*
X151642857Y-111452381D01*
X151642857Y-110452381D01*
X152119048Y-110452381D01*
X153119048Y-111452381D02*
X152785714Y-110976190D01*
X152547619Y-111452381D02*
X152547619Y-110452381D01*
X152928572Y-110452381D01*
X153023810Y-110500000D01*
X153071429Y-110547619D01*
X153119048Y-110642857D01*
X153119048Y-110785714D01*
X153071429Y-110880952D01*
X153023810Y-110928571D01*
X152928572Y-110976190D01*
X152547619Y-110976190D01*
X173904762Y-95130953D02*
X173952381Y-94988096D01*
X173952381Y-94750000D01*
X173904762Y-94654762D01*
X173857143Y-94607143D01*
X173761905Y-94559524D01*
X173666667Y-94559524D01*
X173571429Y-94607143D01*
X173523810Y-94654762D01*
X173476190Y-94750000D01*
X173428571Y-94940477D01*
X173380952Y-95035715D01*
X173333333Y-95083334D01*
X173238095Y-95130953D01*
X173142857Y-95130953D01*
X173047619Y-95083334D01*
X173000000Y-95035715D01*
X172952381Y-94940477D01*
X172952381Y-94702381D01*
X173000000Y-94559524D01*
X173952381Y-94130953D02*
X172952381Y-94130953D01*
X172952381Y-93892858D01*
X173000000Y-93750000D01*
X173095238Y-93654762D01*
X173190476Y-93607143D01*
X173380952Y-93559524D01*
X173523810Y-93559524D01*
X173714286Y-93607143D01*
X173809524Y-93654762D01*
X173904762Y-93750000D01*
X173952381Y-93892858D01*
X173952381Y-94130953D01*
X173857143Y-91797619D02*
X173904762Y-91845238D01*
X173952381Y-91988095D01*
X173952381Y-92083333D01*
X173904762Y-92226191D01*
X173809524Y-92321429D01*
X173714286Y-92369048D01*
X173523810Y-92416667D01*
X173380952Y-92416667D01*
X173190476Y-92369048D01*
X173095238Y-92321429D01*
X173000000Y-92226191D01*
X172952381Y-92083333D01*
X172952381Y-91988095D01*
X173000000Y-91845238D01*
X173047619Y-91797619D01*
X173952381Y-90940476D02*
X173428571Y-90940476D01*
X173333333Y-90988095D01*
X173285714Y-91083333D01*
X173285714Y-91273810D01*
X173333333Y-91369048D01*
X173904762Y-90940476D02*
X173952381Y-91035714D01*
X173952381Y-91273810D01*
X173904762Y-91369048D01*
X173809524Y-91416667D01*
X173714286Y-91416667D01*
X173619048Y-91369048D01*
X173571429Y-91273810D01*
X173571429Y-91035714D01*
X173523810Y-90940476D01*
X173952381Y-90464286D02*
X173285714Y-90464286D01*
X173476190Y-90464286D02*
X173380952Y-90416667D01*
X173333333Y-90369048D01*
X173285714Y-90273810D01*
X173285714Y-90178571D01*
X173952381Y-89416666D02*
X172952381Y-89416666D01*
X173904762Y-89416666D02*
X173952381Y-89511904D01*
X173952381Y-89702381D01*
X173904762Y-89797619D01*
X173857143Y-89845238D01*
X173761905Y-89892857D01*
X173476190Y-89892857D01*
X173380952Y-89845238D01*
X173333333Y-89797619D01*
X173285714Y-89702381D01*
X173285714Y-89511904D01*
X173333333Y-89416666D01*
X102404762Y-74452381D02*
X102071428Y-73976190D01*
X101833333Y-74452381D02*
X101833333Y-73452381D01*
X102214286Y-73452381D01*
X102309524Y-73500000D01*
X102357143Y-73547619D01*
X102404762Y-73642857D01*
X102404762Y-73785714D01*
X102357143Y-73880952D01*
X102309524Y-73928571D01*
X102214286Y-73976190D01*
X101833333Y-73976190D01*
X102785714Y-74166667D02*
X103261905Y-74166667D01*
X102690476Y-74452381D02*
X103023809Y-73452381D01*
X103357143Y-74452381D01*
X104214286Y-74452381D02*
X103642857Y-74452381D01*
X103928571Y-74452381D02*
X103928571Y-73452381D01*
X103833333Y-73595238D01*
X103738095Y-73690476D01*
X103642857Y-73738095D01*
X190654762Y-75202381D02*
X190321428Y-74726190D01*
X190083333Y-75202381D02*
X190083333Y-74202381D01*
X190464286Y-74202381D01*
X190559524Y-74250000D01*
X190607143Y-74297619D01*
X190654762Y-74392857D01*
X190654762Y-74535714D01*
X190607143Y-74630952D01*
X190559524Y-74678571D01*
X190464286Y-74726190D01*
X190083333Y-74726190D01*
X191035714Y-74916667D02*
X191511905Y-74916667D01*
X190940476Y-75202381D02*
X191273809Y-74202381D01*
X191607143Y-75202381D01*
X191892857Y-74297619D02*
X191940476Y-74250000D01*
X192035714Y-74202381D01*
X192273810Y-74202381D01*
X192369048Y-74250000D01*
X192416667Y-74297619D01*
X192464286Y-74392857D01*
X192464286Y-74488095D01*
X192416667Y-74630952D01*
X191845238Y-75202381D01*
X192464286Y-75202381D01*
X104845239Y-87928571D02*
X104988096Y-87976190D01*
X105035715Y-88023810D01*
X105083334Y-88119048D01*
X105083334Y-88261905D01*
X105035715Y-88357143D01*
X104988096Y-88404762D01*
X104892858Y-88452381D01*
X104511905Y-88452381D01*
X104511905Y-87452381D01*
X104845239Y-87452381D01*
X104940477Y-87500000D01*
X104988096Y-87547619D01*
X105035715Y-87642857D01*
X105035715Y-87738095D01*
X104988096Y-87833333D01*
X104940477Y-87880952D01*
X104845239Y-87928571D01*
X104511905Y-87928571D01*
X105702381Y-87452381D02*
X105797620Y-87452381D01*
X105892858Y-87500000D01*
X105940477Y-87547619D01*
X105988096Y-87642857D01*
X106035715Y-87833333D01*
X106035715Y-88071429D01*
X105988096Y-88261905D01*
X105940477Y-88357143D01*
X105892858Y-88404762D01*
X105797620Y-88452381D01*
X105702381Y-88452381D01*
X105607143Y-88404762D01*
X105559524Y-88357143D01*
X105511905Y-88261905D01*
X105464286Y-88071429D01*
X105464286Y-87833333D01*
X105511905Y-87642857D01*
X105559524Y-87547619D01*
X105607143Y-87500000D01*
X105702381Y-87452381D01*
X112845239Y-86928571D02*
X112988096Y-86976190D01*
X113035715Y-87023810D01*
X113083334Y-87119048D01*
X113083334Y-87261905D01*
X113035715Y-87357143D01*
X112988096Y-87404762D01*
X112892858Y-87452381D01*
X112511905Y-87452381D01*
X112511905Y-86452381D01*
X112845239Y-86452381D01*
X112940477Y-86500000D01*
X112988096Y-86547619D01*
X113035715Y-86642857D01*
X113035715Y-86738095D01*
X112988096Y-86833333D01*
X112940477Y-86880952D01*
X112845239Y-86928571D01*
X112511905Y-86928571D01*
X114035715Y-87452381D02*
X113464286Y-87452381D01*
X113750000Y-87452381D02*
X113750000Y-86452381D01*
X113654762Y-86595238D01*
X113559524Y-86690476D01*
X113464286Y-86738095D01*
X96845239Y-86928571D02*
X96988096Y-86976190D01*
X97035715Y-87023810D01*
X97083334Y-87119048D01*
X97083334Y-87261905D01*
X97035715Y-87357143D01*
X96988096Y-87404762D01*
X96892858Y-87452381D01*
X96511905Y-87452381D01*
X96511905Y-86452381D01*
X96845239Y-86452381D01*
X96940477Y-86500000D01*
X96988096Y-86547619D01*
X97035715Y-86642857D01*
X97035715Y-86738095D01*
X96988096Y-86833333D01*
X96940477Y-86880952D01*
X96845239Y-86928571D01*
X96511905Y-86928571D01*
X97464286Y-86547619D02*
X97511905Y-86500000D01*
X97607143Y-86452381D01*
X97845239Y-86452381D01*
X97940477Y-86500000D01*
X97988096Y-86547619D01*
X98035715Y-86642857D01*
X98035715Y-86738095D01*
X97988096Y-86880952D01*
X97416667Y-87452381D01*
X98035715Y-87452381D01*
X104845239Y-94928571D02*
X104988096Y-94976190D01*
X105035715Y-95023810D01*
X105083334Y-95119048D01*
X105083334Y-95261905D01*
X105035715Y-95357143D01*
X104988096Y-95404762D01*
X104892858Y-95452381D01*
X104511905Y-95452381D01*
X104511905Y-94452381D01*
X104845239Y-94452381D01*
X104940477Y-94500000D01*
X104988096Y-94547619D01*
X105035715Y-94642857D01*
X105035715Y-94738095D01*
X104988096Y-94833333D01*
X104940477Y-94880952D01*
X104845239Y-94928571D01*
X104511905Y-94928571D01*
X105416667Y-94452381D02*
X106035715Y-94452381D01*
X105702381Y-94833333D01*
X105845239Y-94833333D01*
X105940477Y-94880952D01*
X105988096Y-94928571D01*
X106035715Y-95023810D01*
X106035715Y-95261905D01*
X105988096Y-95357143D01*
X105940477Y-95404762D01*
X105845239Y-95452381D01*
X105559524Y-95452381D01*
X105464286Y-95404762D01*
X105416667Y-95357143D01*
X193845239Y-94928571D02*
X193988096Y-94976190D01*
X194035715Y-95023810D01*
X194083334Y-95119048D01*
X194083334Y-95261905D01*
X194035715Y-95357143D01*
X193988096Y-95404762D01*
X193892858Y-95452381D01*
X193511905Y-95452381D01*
X193511905Y-94452381D01*
X193845239Y-94452381D01*
X193940477Y-94500000D01*
X193988096Y-94547619D01*
X194035715Y-94642857D01*
X194035715Y-94738095D01*
X193988096Y-94833333D01*
X193940477Y-94880952D01*
X193845239Y-94928571D01*
X193511905Y-94928571D01*
X194940477Y-94785714D02*
X194940477Y-95452381D01*
X194702381Y-94404762D02*
X194464286Y-95119048D01*
X195083334Y-95119048D01*
X201845239Y-86928571D02*
X201988096Y-86976190D01*
X202035715Y-87023810D01*
X202083334Y-87119048D01*
X202083334Y-87261905D01*
X202035715Y-87357143D01*
X201988096Y-87404762D01*
X201892858Y-87452381D01*
X201511905Y-87452381D01*
X201511905Y-86452381D01*
X201845239Y-86452381D01*
X201940477Y-86500000D01*
X201988096Y-86547619D01*
X202035715Y-86642857D01*
X202035715Y-86738095D01*
X201988096Y-86833333D01*
X201940477Y-86880952D01*
X201845239Y-86928571D01*
X201511905Y-86928571D01*
X202988096Y-86452381D02*
X202511905Y-86452381D01*
X202464286Y-86928571D01*
X202511905Y-86880952D01*
X202607143Y-86833333D01*
X202845239Y-86833333D01*
X202940477Y-86880952D01*
X202988096Y-86928571D01*
X203035715Y-87023810D01*
X203035715Y-87261905D01*
X202988096Y-87357143D01*
X202940477Y-87404762D01*
X202845239Y-87452381D01*
X202607143Y-87452381D01*
X202511905Y-87404762D01*
X202464286Y-87357143D01*
X193845239Y-87928571D02*
X193988096Y-87976190D01*
X194035715Y-88023810D01*
X194083334Y-88119048D01*
X194083334Y-88261905D01*
X194035715Y-88357143D01*
X193988096Y-88404762D01*
X193892858Y-88452381D01*
X193511905Y-88452381D01*
X193511905Y-87452381D01*
X193845239Y-87452381D01*
X193940477Y-87500000D01*
X193988096Y-87547619D01*
X194035715Y-87642857D01*
X194035715Y-87738095D01*
X193988096Y-87833333D01*
X193940477Y-87880952D01*
X193845239Y-87928571D01*
X193511905Y-87928571D01*
X194940477Y-87452381D02*
X194750000Y-87452381D01*
X194654762Y-87500000D01*
X194607143Y-87547619D01*
X194511905Y-87690476D01*
X194464286Y-87880952D01*
X194464286Y-88261905D01*
X194511905Y-88357143D01*
X194559524Y-88404762D01*
X194654762Y-88452381D01*
X194845239Y-88452381D01*
X194940477Y-88404762D01*
X194988096Y-88357143D01*
X195035715Y-88261905D01*
X195035715Y-88023810D01*
X194988096Y-87928571D01*
X194940477Y-87880952D01*
X194845239Y-87833333D01*
X194654762Y-87833333D01*
X194559524Y-87880952D01*
X194511905Y-87928571D01*
X194464286Y-88023810D01*
X185845239Y-86928571D02*
X185988096Y-86976190D01*
X186035715Y-87023810D01*
X186083334Y-87119048D01*
X186083334Y-87261905D01*
X186035715Y-87357143D01*
X185988096Y-87404762D01*
X185892858Y-87452381D01*
X185511905Y-87452381D01*
X185511905Y-86452381D01*
X185845239Y-86452381D01*
X185940477Y-86500000D01*
X185988096Y-86547619D01*
X186035715Y-86642857D01*
X186035715Y-86738095D01*
X185988096Y-86833333D01*
X185940477Y-86880952D01*
X185845239Y-86928571D01*
X185511905Y-86928571D01*
X186416667Y-86452381D02*
X187083334Y-86452381D01*
X186654762Y-87452381D01*
X130178571Y-115904761D02*
X130226190Y-115761904D01*
X130273810Y-115714285D01*
X130369048Y-115666666D01*
X130511905Y-115666666D01*
X130607143Y-115714285D01*
X130654762Y-115761904D01*
X130702381Y-115857142D01*
X130702381Y-116238095D01*
X129702381Y-116238095D01*
X129702381Y-115904761D01*
X129750000Y-115809523D01*
X129797619Y-115761904D01*
X129892857Y-115714285D01*
X129988095Y-115714285D01*
X130083333Y-115761904D01*
X130130952Y-115809523D01*
X130178571Y-115904761D01*
X130178571Y-116238095D01*
X130130952Y-115095238D02*
X130083333Y-115190476D01*
X130035714Y-115238095D01*
X129940476Y-115285714D01*
X129892857Y-115285714D01*
X129797619Y-115238095D01*
X129750000Y-115190476D01*
X129702381Y-115095238D01*
X129702381Y-114904761D01*
X129750000Y-114809523D01*
X129797619Y-114761904D01*
X129892857Y-114714285D01*
X129940476Y-114714285D01*
X130035714Y-114761904D01*
X130083333Y-114809523D01*
X130130952Y-114904761D01*
X130130952Y-115095238D01*
X130178571Y-115190476D01*
X130226190Y-115238095D01*
X130321429Y-115285714D01*
X130511905Y-115285714D01*
X130607143Y-115238095D01*
X130654762Y-115190476D01*
X130702381Y-115095238D01*
X130702381Y-114904761D01*
X130654762Y-114809523D01*
X130607143Y-114761904D01*
X130511905Y-114714285D01*
X130321429Y-114714285D01*
X130226190Y-114761904D01*
X130178571Y-114809523D01*
X130130952Y-114904761D01*
X182607143Y-120857143D02*
X182559524Y-120904762D01*
X182416667Y-120952381D01*
X182321429Y-120952381D01*
X182178571Y-120904762D01*
X182083333Y-120809524D01*
X182035714Y-120714286D01*
X181988095Y-120523810D01*
X181988095Y-120380952D01*
X182035714Y-120190476D01*
X182083333Y-120095238D01*
X182178571Y-120000000D01*
X182321429Y-119952381D01*
X182416667Y-119952381D01*
X182559524Y-120000000D01*
X182607143Y-120047619D01*
X182988095Y-120047619D02*
X183035714Y-120000000D01*
X183130952Y-119952381D01*
X183369048Y-119952381D01*
X183464286Y-120000000D01*
X183511905Y-120047619D01*
X183559524Y-120142857D01*
X183559524Y-120238095D01*
X183511905Y-120380952D01*
X182940476Y-120952381D01*
X183559524Y-120952381D01*
X184035714Y-120952381D02*
X184226190Y-120952381D01*
X184321429Y-120904762D01*
X184369048Y-120857143D01*
X184464286Y-120714286D01*
X184511905Y-120523810D01*
X184511905Y-120142857D01*
X184464286Y-120047619D01*
X184416667Y-120000000D01*
X184321429Y-119952381D01*
X184130952Y-119952381D01*
X184035714Y-120000000D01*
X183988095Y-120047619D01*
X183940476Y-120142857D01*
X183940476Y-120380952D01*
X183988095Y-120476190D01*
X184035714Y-120523810D01*
X184130952Y-120571429D01*
X184321429Y-120571429D01*
X184416667Y-120523810D01*
X184464286Y-120476190D01*
X184511905Y-120380952D01*
X169738095Y-108452381D02*
X169738095Y-109261905D01*
X169785714Y-109357143D01*
X169833333Y-109404762D01*
X169928571Y-109452381D01*
X170119048Y-109452381D01*
X170214286Y-109404762D01*
X170261905Y-109357143D01*
X170309524Y-109261905D01*
X170309524Y-108452381D01*
X170738095Y-108547619D02*
X170785714Y-108500000D01*
X170880952Y-108452381D01*
X171119048Y-108452381D01*
X171214286Y-108500000D01*
X171261905Y-108547619D01*
X171309524Y-108642857D01*
X171309524Y-108738095D01*
X171261905Y-108880952D01*
X170690476Y-109452381D01*
X171309524Y-109452381D01*
X114702381Y-99892857D02*
X114226190Y-100226191D01*
X114702381Y-100464286D02*
X113702381Y-100464286D01*
X113702381Y-100083333D01*
X113750000Y-99988095D01*
X113797619Y-99940476D01*
X113892857Y-99892857D01*
X114035714Y-99892857D01*
X114130952Y-99940476D01*
X114178571Y-99988095D01*
X114226190Y-100083333D01*
X114226190Y-100464286D01*
X113702381Y-99559524D02*
X113702381Y-98940476D01*
X114083333Y-99273810D01*
X114083333Y-99130952D01*
X114130952Y-99035714D01*
X114178571Y-98988095D01*
X114273810Y-98940476D01*
X114511905Y-98940476D01*
X114607143Y-98988095D01*
X114654762Y-99035714D01*
X114702381Y-99130952D01*
X114702381Y-99416667D01*
X114654762Y-99511905D01*
X114607143Y-99559524D01*
X113702381Y-98321429D02*
X113702381Y-98226190D01*
X113750000Y-98130952D01*
X113797619Y-98083333D01*
X113892857Y-98035714D01*
X114083333Y-97988095D01*
X114321429Y-97988095D01*
X114511905Y-98035714D01*
X114607143Y-98083333D01*
X114654762Y-98130952D01*
X114702381Y-98226190D01*
X114702381Y-98321429D01*
X114654762Y-98416667D01*
X114607143Y-98464286D01*
X114511905Y-98511905D01*
X114321429Y-98559524D01*
X114083333Y-98559524D01*
X113892857Y-98511905D01*
X113797619Y-98464286D01*
X113750000Y-98416667D01*
X113702381Y-98321429D01*
X127857143Y-87952381D02*
X127523809Y-87476190D01*
X127285714Y-87952381D02*
X127285714Y-86952381D01*
X127666667Y-86952381D01*
X127761905Y-87000000D01*
X127809524Y-87047619D01*
X127857143Y-87142857D01*
X127857143Y-87285714D01*
X127809524Y-87380952D01*
X127761905Y-87428571D01*
X127666667Y-87476190D01*
X127285714Y-87476190D01*
X128190476Y-86952381D02*
X128809524Y-86952381D01*
X128476190Y-87333333D01*
X128619048Y-87333333D01*
X128714286Y-87380952D01*
X128761905Y-87428571D01*
X128809524Y-87523810D01*
X128809524Y-87761905D01*
X128761905Y-87857143D01*
X128714286Y-87904762D01*
X128619048Y-87952381D01*
X128333333Y-87952381D01*
X128238095Y-87904762D01*
X128190476Y-87857143D01*
X129761905Y-87952381D02*
X129190476Y-87952381D01*
X129476190Y-87952381D02*
X129476190Y-86952381D01*
X129380952Y-87095238D01*
X129285714Y-87190476D01*
X129190476Y-87238095D01*
X125607143Y-94607143D02*
X125559524Y-94654762D01*
X125416667Y-94702381D01*
X125321429Y-94702381D01*
X125178571Y-94654762D01*
X125083333Y-94559524D01*
X125035714Y-94464286D01*
X124988095Y-94273810D01*
X124988095Y-94130952D01*
X125035714Y-93940476D01*
X125083333Y-93845238D01*
X125178571Y-93750000D01*
X125321429Y-93702381D01*
X125416667Y-93702381D01*
X125559524Y-93750000D01*
X125607143Y-93797619D01*
X125940476Y-93702381D02*
X126559524Y-93702381D01*
X126226190Y-94083333D01*
X126369048Y-94083333D01*
X126464286Y-94130952D01*
X126511905Y-94178571D01*
X126559524Y-94273810D01*
X126559524Y-94511905D01*
X126511905Y-94607143D01*
X126464286Y-94654762D01*
X126369048Y-94702381D01*
X126083333Y-94702381D01*
X125988095Y-94654762D01*
X125940476Y-94607143D01*
X126940476Y-93797619D02*
X126988095Y-93750000D01*
X127083333Y-93702381D01*
X127321429Y-93702381D01*
X127416667Y-93750000D01*
X127464286Y-93797619D01*
X127511905Y-93892857D01*
X127511905Y-93988095D01*
X127464286Y-94130952D01*
X126892857Y-94702381D01*
X127511905Y-94702381D01*
X112857143Y-81607143D02*
X112809524Y-81654762D01*
X112666667Y-81702381D01*
X112571429Y-81702381D01*
X112428571Y-81654762D01*
X112333333Y-81559524D01*
X112285714Y-81464286D01*
X112238095Y-81273810D01*
X112238095Y-81130952D01*
X112285714Y-80940476D01*
X112333333Y-80845238D01*
X112428571Y-80750000D01*
X112571429Y-80702381D01*
X112666667Y-80702381D01*
X112809524Y-80750000D01*
X112857143Y-80797619D01*
X113190476Y-80702381D02*
X113809524Y-80702381D01*
X113476190Y-81083333D01*
X113619048Y-81083333D01*
X113714286Y-81130952D01*
X113761905Y-81178571D01*
X113809524Y-81273810D01*
X113809524Y-81511905D01*
X113761905Y-81607143D01*
X113714286Y-81654762D01*
X113619048Y-81702381D01*
X113333333Y-81702381D01*
X113238095Y-81654762D01*
X113190476Y-81607143D01*
X114142857Y-80702381D02*
X114761905Y-80702381D01*
X114428571Y-81083333D01*
X114571429Y-81083333D01*
X114666667Y-81130952D01*
X114714286Y-81178571D01*
X114761905Y-81273810D01*
X114761905Y-81511905D01*
X114714286Y-81607143D01*
X114666667Y-81654762D01*
X114571429Y-81702381D01*
X114285714Y-81702381D01*
X114190476Y-81654762D01*
X114142857Y-81607143D01*
X120939429Y-92802286D02*
X120939429Y-93528000D01*
X119415429Y-93528000D01*
X120794286Y-91423429D02*
X120866857Y-91496000D01*
X120939429Y-91713714D01*
X120939429Y-91858857D01*
X120866857Y-92076572D01*
X120721714Y-92221714D01*
X120576571Y-92294286D01*
X120286286Y-92366857D01*
X120068571Y-92366857D01*
X119778286Y-92294286D01*
X119633143Y-92221714D01*
X119488000Y-92076572D01*
X119415429Y-91858857D01*
X119415429Y-91713714D01*
X119488000Y-91496000D01*
X119560571Y-91423429D01*
X120939429Y-90770286D02*
X119415429Y-90770286D01*
X119415429Y-90407429D01*
X119488000Y-90189714D01*
X119633143Y-90044572D01*
X119778286Y-89972000D01*
X120068571Y-89899429D01*
X120286286Y-89899429D01*
X120576571Y-89972000D01*
X120721714Y-90044572D01*
X120866857Y-90189714D01*
X120939429Y-90407429D01*
X120939429Y-90770286D01*
X93238095Y-76652381D02*
X93238095Y-75652381D01*
X93238095Y-76128571D02*
X93809524Y-76128571D01*
X93809524Y-76652381D02*
X93809524Y-75652381D01*
X94809524Y-76652381D02*
X94238095Y-76652381D01*
X94523809Y-76652381D02*
X94523809Y-75652381D01*
X94428571Y-75795238D01*
X94333333Y-75890476D01*
X94238095Y-75938095D01*
X91988095Y-116702381D02*
X91988095Y-115702381D01*
X91988095Y-116178571D02*
X92559524Y-116178571D01*
X92559524Y-116702381D02*
X92559524Y-115702381D01*
X92988095Y-115797619D02*
X93035714Y-115750000D01*
X93130952Y-115702381D01*
X93369048Y-115702381D01*
X93464286Y-115750000D01*
X93511905Y-115797619D01*
X93559524Y-115892857D01*
X93559524Y-115988095D01*
X93511905Y-116130952D01*
X92940476Y-116702381D01*
X93559524Y-116702381D01*
X202738095Y-71702381D02*
X202738095Y-70702381D01*
X202738095Y-71178571D02*
X203309524Y-71178571D01*
X203309524Y-71702381D02*
X203309524Y-70702381D01*
X203690476Y-70702381D02*
X204309524Y-70702381D01*
X203976190Y-71083333D01*
X204119048Y-71083333D01*
X204214286Y-71130952D01*
X204261905Y-71178571D01*
X204309524Y-71273810D01*
X204309524Y-71511905D01*
X204261905Y-71607143D01*
X204214286Y-71654762D01*
X204119048Y-71702381D01*
X203833333Y-71702381D01*
X203738095Y-71654762D01*
X203690476Y-71607143D01*
X202488095Y-120702381D02*
X202488095Y-119702381D01*
X202488095Y-120178571D02*
X203059524Y-120178571D01*
X203059524Y-120702381D02*
X203059524Y-119702381D01*
X203964286Y-120035714D02*
X203964286Y-120702381D01*
X203726190Y-119654762D02*
X203488095Y-120369048D01*
X204107143Y-120369048D01*
M02*
