G04 #@! TF.FileFunction,Legend,Bot*
%FSLAX46Y46*%
G04 Gerber Fmt 4.6, Leading zero omitted, Abs format (unit mm)*
G04 Created by KiCad (PCBNEW 4.0.4-snap1-stable) date Wed Jun 19 19:26:08 2019*
%MOMM*%
%LPD*%
G01*
G04 APERTURE LIST*
%ADD10C,0.150000*%
%ADD11C,0.200000*%
%ADD12C,0.500000*%
%ADD13C,0.010000*%
G04 APERTURE END LIST*
D10*
D11*
X171250000Y-71773810D02*
X171202381Y-71678572D01*
X171202381Y-71535715D01*
X171250000Y-71392857D01*
X171345238Y-71297619D01*
X171440476Y-71250000D01*
X171630952Y-71202381D01*
X171773810Y-71202381D01*
X171964286Y-71250000D01*
X172059524Y-71297619D01*
X172154762Y-71392857D01*
X172202381Y-71535715D01*
X172202381Y-71630953D01*
X172154762Y-71773810D01*
X172107143Y-71821429D01*
X171773810Y-71821429D01*
X171773810Y-71630953D01*
X172202381Y-72250000D02*
X171202381Y-72250000D01*
X171202381Y-72630953D01*
X171250000Y-72726191D01*
X171297619Y-72773810D01*
X171392857Y-72821429D01*
X171535714Y-72821429D01*
X171630952Y-72773810D01*
X171678571Y-72726191D01*
X171726190Y-72630953D01*
X171726190Y-72250000D01*
X172202381Y-73250000D02*
X171202381Y-73250000D01*
X171202381Y-73916666D02*
X171202381Y-74107143D01*
X171250000Y-74202381D01*
X171345238Y-74297619D01*
X171535714Y-74345238D01*
X171869048Y-74345238D01*
X172059524Y-74297619D01*
X172154762Y-74202381D01*
X172202381Y-74107143D01*
X172202381Y-73916666D01*
X172154762Y-73821428D01*
X172059524Y-73726190D01*
X171869048Y-73678571D01*
X171535714Y-73678571D01*
X171345238Y-73726190D01*
X171250000Y-73821428D01*
X171202381Y-73916666D01*
X171202381Y-74964285D02*
X171202381Y-75059524D01*
X171250000Y-75154762D01*
X171297619Y-75202381D01*
X171392857Y-75250000D01*
X171583333Y-75297619D01*
X171821429Y-75297619D01*
X172011905Y-75250000D01*
X172107143Y-75202381D01*
X172154762Y-75154762D01*
X172202381Y-75059524D01*
X172202381Y-74964285D01*
X172154762Y-74869047D01*
X172107143Y-74821428D01*
X172011905Y-74773809D01*
X171821429Y-74726190D01*
X171583333Y-74726190D01*
X171392857Y-74773809D01*
X171297619Y-74821428D01*
X171250000Y-74869047D01*
X171202381Y-74964285D01*
X175202381Y-72797619D02*
X174726190Y-72464285D01*
X175202381Y-72226190D02*
X174202381Y-72226190D01*
X174202381Y-72607143D01*
X174250000Y-72702381D01*
X174297619Y-72750000D01*
X174392857Y-72797619D01*
X174535714Y-72797619D01*
X174630952Y-72750000D01*
X174678571Y-72702381D01*
X174726190Y-72607143D01*
X174726190Y-72226190D01*
X174678571Y-73226190D02*
X174678571Y-73559524D01*
X175202381Y-73702381D02*
X175202381Y-73226190D01*
X174202381Y-73226190D01*
X174202381Y-73702381D01*
X175154762Y-74083333D02*
X175202381Y-74226190D01*
X175202381Y-74464286D01*
X175154762Y-74559524D01*
X175107143Y-74607143D01*
X175011905Y-74654762D01*
X174916667Y-74654762D01*
X174821429Y-74607143D01*
X174773810Y-74559524D01*
X174726190Y-74464286D01*
X174678571Y-74273809D01*
X174630952Y-74178571D01*
X174583333Y-74130952D01*
X174488095Y-74083333D01*
X174392857Y-74083333D01*
X174297619Y-74130952D01*
X174250000Y-74178571D01*
X174202381Y-74273809D01*
X174202381Y-74511905D01*
X174250000Y-74654762D01*
X174678571Y-75083333D02*
X174678571Y-75416667D01*
X175202381Y-75559524D02*
X175202381Y-75083333D01*
X174202381Y-75083333D01*
X174202381Y-75559524D01*
X174202381Y-75845238D02*
X174202381Y-76416667D01*
X175202381Y-76130952D02*
X174202381Y-76130952D01*
X176952381Y-71738095D02*
X176952381Y-72309524D01*
X177952381Y-72023809D02*
X176952381Y-72023809D01*
X176952381Y-72547619D02*
X177952381Y-73214286D01*
X176952381Y-73214286D02*
X177952381Y-72547619D01*
X180452381Y-72583334D02*
X179976190Y-72250000D01*
X180452381Y-72011905D02*
X179452381Y-72011905D01*
X179452381Y-72392858D01*
X179500000Y-72488096D01*
X179547619Y-72535715D01*
X179642857Y-72583334D01*
X179785714Y-72583334D01*
X179880952Y-72535715D01*
X179928571Y-72488096D01*
X179976190Y-72392858D01*
X179976190Y-72011905D01*
X179452381Y-72916667D02*
X180452381Y-73583334D01*
X179452381Y-73583334D02*
X180452381Y-72916667D01*
X182500000Y-72738096D02*
X182452381Y-72642858D01*
X182452381Y-72500001D01*
X182500000Y-72357143D01*
X182595238Y-72261905D01*
X182690476Y-72214286D01*
X182880952Y-72166667D01*
X183023810Y-72166667D01*
X183214286Y-72214286D01*
X183309524Y-72261905D01*
X183404762Y-72357143D01*
X183452381Y-72500001D01*
X183452381Y-72595239D01*
X183404762Y-72738096D01*
X183357143Y-72785715D01*
X183023810Y-72785715D01*
X183023810Y-72595239D01*
X183452381Y-73214286D02*
X182452381Y-73214286D01*
X183452381Y-73785715D01*
X182452381Y-73785715D01*
X183452381Y-74261905D02*
X182452381Y-74261905D01*
X182452381Y-74500000D01*
X182500000Y-74642858D01*
X182595238Y-74738096D01*
X182690476Y-74785715D01*
X182880952Y-74833334D01*
X183023810Y-74833334D01*
X183214286Y-74785715D01*
X183309524Y-74738096D01*
X183404762Y-74642858D01*
X183452381Y-74500000D01*
X183452381Y-74261905D01*
X185071429Y-71750000D02*
X185071429Y-72511905D01*
X185452381Y-72130953D02*
X184690476Y-72130953D01*
X184452381Y-72892857D02*
X184452381Y-73511905D01*
X184833333Y-73178571D01*
X184833333Y-73321429D01*
X184880952Y-73416667D01*
X184928571Y-73464286D01*
X185023810Y-73511905D01*
X185261905Y-73511905D01*
X185357143Y-73464286D01*
X185404762Y-73416667D01*
X185452381Y-73321429D01*
X185452381Y-73035714D01*
X185404762Y-72940476D01*
X185357143Y-72892857D01*
X185357143Y-73940476D02*
X185404762Y-73988095D01*
X185452381Y-73940476D01*
X185404762Y-73892857D01*
X185357143Y-73940476D01*
X185452381Y-73940476D01*
X184452381Y-74321428D02*
X184452381Y-74940476D01*
X184833333Y-74607142D01*
X184833333Y-74750000D01*
X184880952Y-74845238D01*
X184928571Y-74892857D01*
X185023810Y-74940476D01*
X185261905Y-74940476D01*
X185357143Y-74892857D01*
X185404762Y-74845238D01*
X185452381Y-74750000D01*
X185452381Y-74464285D01*
X185404762Y-74369047D01*
X185357143Y-74321428D01*
X184452381Y-75226190D02*
X185452381Y-75559523D01*
X184452381Y-75892857D01*
D12*
X138154762Y-71964286D02*
X137678572Y-73630952D01*
X137202381Y-72440476D01*
X136726191Y-73630952D01*
X136250000Y-71964286D01*
X135535714Y-71964286D02*
X135059524Y-73630952D01*
X134583333Y-72440476D01*
X134107143Y-73630952D01*
X133630952Y-71964286D01*
X132916666Y-71964286D02*
X132440476Y-73630952D01*
X131964285Y-72440476D01*
X131488095Y-73630952D01*
X131011904Y-71964286D01*
X130059523Y-73392857D02*
X129940475Y-73511905D01*
X130059523Y-73630952D01*
X130178571Y-73511905D01*
X130059523Y-73392857D01*
X130059523Y-73630952D01*
X128511904Y-73630952D02*
X128749999Y-73511905D01*
X128869047Y-73273810D01*
X128869047Y-71130952D01*
X127559523Y-73630952D02*
X127559523Y-71964286D01*
X127559523Y-71130952D02*
X127678571Y-71250000D01*
X127559523Y-71369048D01*
X127440475Y-71250000D01*
X127559523Y-71130952D01*
X127559523Y-71369048D01*
X125297618Y-71964286D02*
X125297618Y-73988095D01*
X125416666Y-74226190D01*
X125535714Y-74345238D01*
X125773809Y-74464286D01*
X126130952Y-74464286D01*
X126369047Y-74345238D01*
X125297618Y-73511905D02*
X125535714Y-73630952D01*
X126011904Y-73630952D01*
X126249999Y-73511905D01*
X126369047Y-73392857D01*
X126488095Y-73154762D01*
X126488095Y-72440476D01*
X126369047Y-72202381D01*
X126249999Y-72083333D01*
X126011904Y-71964286D01*
X125535714Y-71964286D01*
X125297618Y-72083333D01*
X124107142Y-73630952D02*
X124107142Y-71130952D01*
X123035713Y-73630952D02*
X123035713Y-72321429D01*
X123154761Y-72083333D01*
X123392856Y-71964286D01*
X123749999Y-71964286D01*
X123988094Y-72083333D01*
X124107142Y-72202381D01*
X122202380Y-71964286D02*
X121249999Y-71964286D01*
X121845237Y-71130952D02*
X121845237Y-73273810D01*
X121726189Y-73511905D01*
X121488094Y-73630952D01*
X121249999Y-73630952D01*
X120416666Y-73630952D02*
X120416666Y-71964286D01*
X120416666Y-71130952D02*
X120535714Y-71250000D01*
X120416666Y-71369048D01*
X120297618Y-71250000D01*
X120416666Y-71130952D01*
X120416666Y-71369048D01*
X119464285Y-71964286D02*
X118869047Y-73630952D01*
X118273809Y-71964286D01*
X117559523Y-71964286D02*
X116964285Y-73630952D01*
X116369047Y-71964286D02*
X116964285Y-73630952D01*
X117202380Y-74226190D01*
X117321428Y-74345238D01*
X117559523Y-74464286D01*
X115416666Y-73392857D02*
X115297618Y-73511905D01*
X115416666Y-73630952D01*
X115535714Y-73511905D01*
X115416666Y-73392857D01*
X115416666Y-73630952D01*
X114226190Y-71964286D02*
X114226190Y-73630952D01*
X114226190Y-72202381D02*
X114107142Y-72083333D01*
X113869047Y-71964286D01*
X113511904Y-71964286D01*
X113273809Y-72083333D01*
X113154761Y-72321429D01*
X113154761Y-73630952D01*
X111011904Y-73511905D02*
X111249999Y-73630952D01*
X111726190Y-73630952D01*
X111964285Y-73511905D01*
X112083333Y-73273810D01*
X112083333Y-72321429D01*
X111964285Y-72083333D01*
X111726190Y-71964286D01*
X111249999Y-71964286D01*
X111011904Y-72083333D01*
X110892856Y-72321429D01*
X110892856Y-72559524D01*
X112083333Y-72797619D01*
X110178571Y-71964286D02*
X109226190Y-71964286D01*
X109821428Y-71130952D02*
X109821428Y-73273810D01*
X109702380Y-73511905D01*
X109464285Y-73630952D01*
X109226190Y-73630952D01*
D13*
G36*
X192704635Y-116184649D02*
X192368106Y-116266984D01*
X192365455Y-116267886D01*
X192005575Y-116418541D01*
X191689349Y-116606639D01*
X191458497Y-116798682D01*
X191353941Y-116951475D01*
X191316460Y-117118116D01*
X191342132Y-117279201D01*
X191427035Y-117415328D01*
X191567247Y-117507095D01*
X191604122Y-117519127D01*
X191725733Y-117539193D01*
X191840378Y-117521418D01*
X191969608Y-117458413D01*
X192134971Y-117342790D01*
X192148555Y-117332460D01*
X192357846Y-117190594D01*
X192564078Y-117095334D01*
X192805848Y-117029958D01*
X192879579Y-117015739D01*
X193210489Y-116997145D01*
X193539657Y-117055452D01*
X193854361Y-117183608D01*
X194141879Y-117374562D01*
X194389491Y-117621263D01*
X194584475Y-117916660D01*
X194614334Y-117977305D01*
X194667189Y-118100075D01*
X194700774Y-118211853D01*
X194719337Y-118338289D01*
X194727130Y-118505036D01*
X194728460Y-118666074D01*
X194726829Y-118871870D01*
X194718212Y-119019172D01*
X194697636Y-119134132D01*
X194660130Y-119242897D01*
X194600719Y-119371619D01*
X194590229Y-119393009D01*
X194411998Y-119674757D01*
X194178915Y-119921636D01*
X193911211Y-120114454D01*
X193744442Y-120195395D01*
X193587995Y-120248171D01*
X193428578Y-120277931D01*
X193233379Y-120289669D01*
X193120167Y-120290381D01*
X192833006Y-120273690D01*
X192594135Y-120219346D01*
X192373193Y-120116593D01*
X192139818Y-119954673D01*
X192113033Y-119933543D01*
X191942235Y-119810280D01*
X191806024Y-119746308D01*
X191685040Y-119735667D01*
X191572492Y-119767039D01*
X191424109Y-119863517D01*
X191342279Y-120006805D01*
X191321000Y-120173338D01*
X191327015Y-120270880D01*
X191354261Y-120348961D01*
X191416543Y-120430631D01*
X191527662Y-120538939D01*
X191554937Y-120563976D01*
X191886464Y-120811420D01*
X192263423Y-120996053D01*
X192670493Y-121114039D01*
X193092356Y-121161541D01*
X193513691Y-121134720D01*
X193691667Y-121099192D01*
X194120400Y-120954074D01*
X194509469Y-120741220D01*
X194851119Y-120468247D01*
X195137598Y-120142774D01*
X195361149Y-119772419D01*
X195514019Y-119364802D01*
X195532931Y-119290184D01*
X195575730Y-119024002D01*
X195593121Y-118719762D01*
X195585114Y-118412649D01*
X195551723Y-118137851D01*
X195532530Y-118049811D01*
X195379999Y-117615286D01*
X195157076Y-117223606D01*
X194869590Y-116880747D01*
X194523366Y-116592688D01*
X194124233Y-116365404D01*
X193755167Y-116226668D01*
X193430250Y-116163540D01*
X193069378Y-116149851D01*
X192704635Y-116184649D01*
X192704635Y-116184649D01*
G37*
X192704635Y-116184649D02*
X192368106Y-116266984D01*
X192365455Y-116267886D01*
X192005575Y-116418541D01*
X191689349Y-116606639D01*
X191458497Y-116798682D01*
X191353941Y-116951475D01*
X191316460Y-117118116D01*
X191342132Y-117279201D01*
X191427035Y-117415328D01*
X191567247Y-117507095D01*
X191604122Y-117519127D01*
X191725733Y-117539193D01*
X191840378Y-117521418D01*
X191969608Y-117458413D01*
X192134971Y-117342790D01*
X192148555Y-117332460D01*
X192357846Y-117190594D01*
X192564078Y-117095334D01*
X192805848Y-117029958D01*
X192879579Y-117015739D01*
X193210489Y-116997145D01*
X193539657Y-117055452D01*
X193854361Y-117183608D01*
X194141879Y-117374562D01*
X194389491Y-117621263D01*
X194584475Y-117916660D01*
X194614334Y-117977305D01*
X194667189Y-118100075D01*
X194700774Y-118211853D01*
X194719337Y-118338289D01*
X194727130Y-118505036D01*
X194728460Y-118666074D01*
X194726829Y-118871870D01*
X194718212Y-119019172D01*
X194697636Y-119134132D01*
X194660130Y-119242897D01*
X194600719Y-119371619D01*
X194590229Y-119393009D01*
X194411998Y-119674757D01*
X194178915Y-119921636D01*
X193911211Y-120114454D01*
X193744442Y-120195395D01*
X193587995Y-120248171D01*
X193428578Y-120277931D01*
X193233379Y-120289669D01*
X193120167Y-120290381D01*
X192833006Y-120273690D01*
X192594135Y-120219346D01*
X192373193Y-120116593D01*
X192139818Y-119954673D01*
X192113033Y-119933543D01*
X191942235Y-119810280D01*
X191806024Y-119746308D01*
X191685040Y-119735667D01*
X191572492Y-119767039D01*
X191424109Y-119863517D01*
X191342279Y-120006805D01*
X191321000Y-120173338D01*
X191327015Y-120270880D01*
X191354261Y-120348961D01*
X191416543Y-120430631D01*
X191527662Y-120538939D01*
X191554937Y-120563976D01*
X191886464Y-120811420D01*
X192263423Y-120996053D01*
X192670493Y-121114039D01*
X193092356Y-121161541D01*
X193513691Y-121134720D01*
X193691667Y-121099192D01*
X194120400Y-120954074D01*
X194509469Y-120741220D01*
X194851119Y-120468247D01*
X195137598Y-120142774D01*
X195361149Y-119772419D01*
X195514019Y-119364802D01*
X195532931Y-119290184D01*
X195575730Y-119024002D01*
X195593121Y-118719762D01*
X195585114Y-118412649D01*
X195551723Y-118137851D01*
X195532530Y-118049811D01*
X195379999Y-117615286D01*
X195157076Y-117223606D01*
X194869590Y-116880747D01*
X194523366Y-116592688D01*
X194124233Y-116365404D01*
X193755167Y-116226668D01*
X193430250Y-116163540D01*
X193069378Y-116149851D01*
X192704635Y-116184649D01*
G36*
X198246561Y-116114736D02*
X198007069Y-116257819D01*
X197794211Y-116388247D01*
X197618179Y-116499506D01*
X197489164Y-116585081D01*
X197417359Y-116638459D01*
X197405937Y-116652031D01*
X197441223Y-116679712D01*
X197537931Y-116741469D01*
X197683567Y-116830088D01*
X197865634Y-116938360D01*
X198071638Y-117059072D01*
X198289083Y-117185012D01*
X198505474Y-117308970D01*
X198708315Y-117423733D01*
X198885110Y-117522090D01*
X199023366Y-117596830D01*
X199110585Y-117640740D01*
X199133940Y-117649333D01*
X199142966Y-117610587D01*
X199152608Y-117508617D01*
X199160884Y-117364828D01*
X199161396Y-117352915D01*
X199173833Y-117056496D01*
X199427833Y-117177742D01*
X199736389Y-117368325D01*
X199986140Y-117610719D01*
X200174969Y-117893845D01*
X200300762Y-118206627D01*
X200361401Y-118537986D01*
X200354770Y-118876846D01*
X200278754Y-119212129D01*
X200131236Y-119532757D01*
X199929926Y-119805962D01*
X199660743Y-120048553D01*
X199362915Y-120218825D01*
X199046455Y-120319782D01*
X198721374Y-120354430D01*
X198397684Y-120325775D01*
X198085398Y-120236824D01*
X197794529Y-120090582D01*
X197535088Y-119890055D01*
X197317088Y-119638248D01*
X197150541Y-119338169D01*
X197045459Y-118992822D01*
X197035570Y-118937012D01*
X197018514Y-118660740D01*
X197046210Y-118369812D01*
X197114277Y-118109292D01*
X197116635Y-118103099D01*
X197135711Y-118044606D01*
X197130172Y-118001166D01*
X197086836Y-117960259D01*
X196992526Y-117909364D01*
X196836689Y-117837157D01*
X196682319Y-117771365D01*
X196554799Y-117725385D01*
X196475234Y-117706535D01*
X196462905Y-117707587D01*
X196426751Y-117755040D01*
X196379585Y-117860946D01*
X196334054Y-117994695D01*
X196270153Y-118311992D01*
X196249597Y-118667780D01*
X196271856Y-119028142D01*
X196336401Y-119359156D01*
X196356396Y-119425205D01*
X196531657Y-119830376D01*
X196775723Y-120197067D01*
X197078793Y-120516005D01*
X197431065Y-120777916D01*
X197822737Y-120973528D01*
X198081769Y-121057628D01*
X198303527Y-121095979D01*
X198574019Y-121114080D01*
X198859796Y-121112034D01*
X199127408Y-121089943D01*
X199322000Y-121053825D01*
X199722207Y-120906092D01*
X200092231Y-120686684D01*
X200421794Y-120406140D01*
X200700622Y-120075000D01*
X200918440Y-119703800D01*
X201064972Y-119303081D01*
X201077249Y-119253635D01*
X201140276Y-118810967D01*
X201123543Y-118375802D01*
X201031945Y-117956923D01*
X200870378Y-117563111D01*
X200643737Y-117203147D01*
X200356920Y-116885813D01*
X200014821Y-116619891D01*
X199622337Y-116414161D01*
X199460246Y-116353339D01*
X199319133Y-116303080D01*
X199211308Y-116259544D01*
X199161465Y-116233049D01*
X199143619Y-116178582D01*
X199125372Y-116064076D01*
X199110609Y-115914051D01*
X199110333Y-115910265D01*
X199089167Y-115617305D01*
X198246561Y-116114736D01*
X198246561Y-116114736D01*
G37*
X198246561Y-116114736D02*
X198007069Y-116257819D01*
X197794211Y-116388247D01*
X197618179Y-116499506D01*
X197489164Y-116585081D01*
X197417359Y-116638459D01*
X197405937Y-116652031D01*
X197441223Y-116679712D01*
X197537931Y-116741469D01*
X197683567Y-116830088D01*
X197865634Y-116938360D01*
X198071638Y-117059072D01*
X198289083Y-117185012D01*
X198505474Y-117308970D01*
X198708315Y-117423733D01*
X198885110Y-117522090D01*
X199023366Y-117596830D01*
X199110585Y-117640740D01*
X199133940Y-117649333D01*
X199142966Y-117610587D01*
X199152608Y-117508617D01*
X199160884Y-117364828D01*
X199161396Y-117352915D01*
X199173833Y-117056496D01*
X199427833Y-117177742D01*
X199736389Y-117368325D01*
X199986140Y-117610719D01*
X200174969Y-117893845D01*
X200300762Y-118206627D01*
X200361401Y-118537986D01*
X200354770Y-118876846D01*
X200278754Y-119212129D01*
X200131236Y-119532757D01*
X199929926Y-119805962D01*
X199660743Y-120048553D01*
X199362915Y-120218825D01*
X199046455Y-120319782D01*
X198721374Y-120354430D01*
X198397684Y-120325775D01*
X198085398Y-120236824D01*
X197794529Y-120090582D01*
X197535088Y-119890055D01*
X197317088Y-119638248D01*
X197150541Y-119338169D01*
X197045459Y-118992822D01*
X197035570Y-118937012D01*
X197018514Y-118660740D01*
X197046210Y-118369812D01*
X197114277Y-118109292D01*
X197116635Y-118103099D01*
X197135711Y-118044606D01*
X197130172Y-118001166D01*
X197086836Y-117960259D01*
X196992526Y-117909364D01*
X196836689Y-117837157D01*
X196682319Y-117771365D01*
X196554799Y-117725385D01*
X196475234Y-117706535D01*
X196462905Y-117707587D01*
X196426751Y-117755040D01*
X196379585Y-117860946D01*
X196334054Y-117994695D01*
X196270153Y-118311992D01*
X196249597Y-118667780D01*
X196271856Y-119028142D01*
X196336401Y-119359156D01*
X196356396Y-119425205D01*
X196531657Y-119830376D01*
X196775723Y-120197067D01*
X197078793Y-120516005D01*
X197431065Y-120777916D01*
X197822737Y-120973528D01*
X198081769Y-121057628D01*
X198303527Y-121095979D01*
X198574019Y-121114080D01*
X198859796Y-121112034D01*
X199127408Y-121089943D01*
X199322000Y-121053825D01*
X199722207Y-120906092D01*
X200092231Y-120686684D01*
X200421794Y-120406140D01*
X200700622Y-120075000D01*
X200918440Y-119703800D01*
X201064972Y-119303081D01*
X201077249Y-119253635D01*
X201140276Y-118810967D01*
X201123543Y-118375802D01*
X201031945Y-117956923D01*
X200870378Y-117563111D01*
X200643737Y-117203147D01*
X200356920Y-116885813D01*
X200014821Y-116619891D01*
X199622337Y-116414161D01*
X199460246Y-116353339D01*
X199319133Y-116303080D01*
X199211308Y-116259544D01*
X199161465Y-116233049D01*
X199143619Y-116178582D01*
X199125372Y-116064076D01*
X199110609Y-115914051D01*
X199110333Y-115910265D01*
X199089167Y-115617305D01*
X198246561Y-116114736D01*
G36*
X193580635Y-112610028D02*
X193576063Y-112725562D01*
X193572064Y-112906107D01*
X193568784Y-113141835D01*
X193566370Y-113422919D01*
X193564968Y-113739532D01*
X193564667Y-113977274D01*
X193564667Y-115385216D01*
X194729034Y-115966941D01*
X195018397Y-116111181D01*
X195282889Y-116242394D01*
X195513159Y-116355991D01*
X195699852Y-116447381D01*
X195833615Y-116511974D01*
X195905096Y-116545181D01*
X195914367Y-116548667D01*
X195919366Y-116507971D01*
X195923937Y-116392438D01*
X195927936Y-116211893D01*
X195931216Y-115976164D01*
X195933630Y-115695080D01*
X195935032Y-115378468D01*
X195935333Y-115140725D01*
X195935333Y-113732784D01*
X194770966Y-113151059D01*
X194481604Y-113006819D01*
X194217111Y-112875606D01*
X193986842Y-112762009D01*
X193800149Y-112670619D01*
X193666385Y-112606025D01*
X193594904Y-112572819D01*
X193585633Y-112569333D01*
X193580635Y-112610028D01*
X193580635Y-112610028D01*
G37*
X193580635Y-112610028D02*
X193576063Y-112725562D01*
X193572064Y-112906107D01*
X193568784Y-113141835D01*
X193566370Y-113422919D01*
X193564968Y-113739532D01*
X193564667Y-113977274D01*
X193564667Y-115385216D01*
X194729034Y-115966941D01*
X195018397Y-116111181D01*
X195282889Y-116242394D01*
X195513159Y-116355991D01*
X195699852Y-116447381D01*
X195833615Y-116511974D01*
X195905096Y-116545181D01*
X195914367Y-116548667D01*
X195919366Y-116507971D01*
X195923937Y-116392438D01*
X195927936Y-116211893D01*
X195931216Y-115976164D01*
X195933630Y-115695080D01*
X195935032Y-115378468D01*
X195935333Y-115140725D01*
X195935333Y-113732784D01*
X194770966Y-113151059D01*
X194481604Y-113006819D01*
X194217111Y-112875606D01*
X193986842Y-112762009D01*
X193800149Y-112670619D01*
X193666385Y-112606025D01*
X193594904Y-112572819D01*
X193585633Y-112569333D01*
X193580635Y-112610028D01*
G36*
X198216160Y-112672271D02*
X198102902Y-112723853D01*
X197934244Y-112803895D01*
X197720276Y-112907547D01*
X197471087Y-113029960D01*
X197196767Y-113166284D01*
X197162675Y-113183329D01*
X196104667Y-113712659D01*
X196104667Y-115088329D01*
X196105605Y-115419851D01*
X196108268Y-115722517D01*
X196112425Y-115986403D01*
X196117848Y-116201589D01*
X196124306Y-116358151D01*
X196131572Y-116446167D01*
X196136417Y-116461960D01*
X196180999Y-116442964D01*
X196291064Y-116390346D01*
X196456702Y-116309012D01*
X196668004Y-116203869D01*
X196915061Y-116079823D01*
X197187963Y-115941780D01*
X197226500Y-115922210D01*
X198284833Y-115384500D01*
X198296003Y-114019250D01*
X198298239Y-113582299D01*
X198297115Y-113229154D01*
X198292635Y-112959983D01*
X198284802Y-112774957D01*
X198273622Y-112674244D01*
X198263928Y-112654000D01*
X198216160Y-112672271D01*
X198216160Y-112672271D01*
G37*
X198216160Y-112672271D02*
X198102902Y-112723853D01*
X197934244Y-112803895D01*
X197720276Y-112907547D01*
X197471087Y-113029960D01*
X197196767Y-113166284D01*
X197162675Y-113183329D01*
X196104667Y-113712659D01*
X196104667Y-115088329D01*
X196105605Y-115419851D01*
X196108268Y-115722517D01*
X196112425Y-115986403D01*
X196117848Y-116201589D01*
X196124306Y-116358151D01*
X196131572Y-116446167D01*
X196136417Y-116461960D01*
X196180999Y-116442964D01*
X196291064Y-116390346D01*
X196456702Y-116309012D01*
X196668004Y-116203869D01*
X196915061Y-116079823D01*
X197187963Y-115941780D01*
X197226500Y-115922210D01*
X198284833Y-115384500D01*
X198296003Y-114019250D01*
X198298239Y-113582299D01*
X198297115Y-113229154D01*
X198292635Y-112959983D01*
X198284802Y-112774957D01*
X198273622Y-112674244D01*
X198263928Y-112654000D01*
X198216160Y-112672271D01*
G36*
X195929305Y-111336790D02*
X195865951Y-111365097D01*
X195737454Y-111425414D01*
X195554714Y-111512522D01*
X195328627Y-111621198D01*
X195070094Y-111746223D01*
X194790013Y-111882376D01*
X194771167Y-111891562D01*
X193712833Y-112407509D01*
X194834667Y-112972974D01*
X195120601Y-113116056D01*
X195383921Y-113245829D01*
X195614662Y-113357540D01*
X195802857Y-113446435D01*
X195938541Y-113507758D01*
X196011748Y-113536756D01*
X196020000Y-113538442D01*
X196073010Y-113520028D01*
X196191243Y-113468020D01*
X196364488Y-113387267D01*
X196582533Y-113282619D01*
X196835167Y-113158925D01*
X197112177Y-113021036D01*
X197159651Y-112997190D01*
X198235803Y-112455935D01*
X197836985Y-112242887D01*
X197411828Y-112016505D01*
X197054692Y-111828172D01*
X196759491Y-111674995D01*
X196520134Y-111554084D01*
X196330535Y-111462546D01*
X196184604Y-111397490D01*
X196076253Y-111356023D01*
X195999395Y-111335255D01*
X195947940Y-111332293D01*
X195929305Y-111336790D01*
X195929305Y-111336790D01*
G37*
X195929305Y-111336790D02*
X195865951Y-111365097D01*
X195737454Y-111425414D01*
X195554714Y-111512522D01*
X195328627Y-111621198D01*
X195070094Y-111746223D01*
X194790013Y-111882376D01*
X194771167Y-111891562D01*
X193712833Y-112407509D01*
X194834667Y-112972974D01*
X195120601Y-113116056D01*
X195383921Y-113245829D01*
X195614662Y-113357540D01*
X195802857Y-113446435D01*
X195938541Y-113507758D01*
X196011748Y-113536756D01*
X196020000Y-113538442D01*
X196073010Y-113520028D01*
X196191243Y-113468020D01*
X196364488Y-113387267D01*
X196582533Y-113282619D01*
X196835167Y-113158925D01*
X197112177Y-113021036D01*
X197159651Y-112997190D01*
X198235803Y-112455935D01*
X197836985Y-112242887D01*
X197411828Y-112016505D01*
X197054692Y-111828172D01*
X196759491Y-111674995D01*
X196520134Y-111554084D01*
X196330535Y-111462546D01*
X196184604Y-111397490D01*
X196076253Y-111356023D01*
X195999395Y-111335255D01*
X195947940Y-111332293D01*
X195929305Y-111336790D01*
G36*
X95267223Y-78598388D02*
X95296807Y-78645612D01*
X95337150Y-78686404D01*
X95385595Y-78718711D01*
X95439485Y-78740479D01*
X95456445Y-78744675D01*
X95465534Y-78745772D01*
X95482192Y-78746763D01*
X95506859Y-78747650D01*
X95539973Y-78748435D01*
X95581976Y-78749120D01*
X95633308Y-78749707D01*
X95694408Y-78750198D01*
X95765716Y-78750596D01*
X95847674Y-78750902D01*
X95940719Y-78751119D01*
X96045293Y-78751248D01*
X96161836Y-78751292D01*
X96290788Y-78751253D01*
X96432588Y-78751132D01*
X96587677Y-78750933D01*
X96733500Y-78750697D01*
X97971750Y-78748528D01*
X98012540Y-78729415D01*
X98048254Y-78708289D01*
X98084763Y-78679272D01*
X98118019Y-78646151D01*
X98143974Y-78612716D01*
X98152067Y-78598825D01*
X98169306Y-78565084D01*
X98170637Y-78004167D01*
X98170852Y-77899020D01*
X98170954Y-77807095D01*
X98170931Y-77727502D01*
X98170771Y-77659350D01*
X98170459Y-77601751D01*
X98169985Y-77553815D01*
X98169333Y-77514653D01*
X98168493Y-77483374D01*
X98167450Y-77459090D01*
X98166191Y-77440910D01*
X98164705Y-77427946D01*
X98162978Y-77419308D01*
X98162123Y-77416606D01*
X98137894Y-77369892D01*
X98102271Y-77326981D01*
X98057922Y-77290491D01*
X98007513Y-77263041D01*
X98004288Y-77261712D01*
X97964695Y-77245695D01*
X96737028Y-77243601D01*
X96569087Y-77243342D01*
X96414846Y-77243165D01*
X96273898Y-77243070D01*
X96145833Y-77243060D01*
X96030240Y-77243137D01*
X95926711Y-77243303D01*
X95834835Y-77243559D01*
X95754205Y-77243907D01*
X95684409Y-77244350D01*
X95682223Y-77244369D01*
X95682223Y-77743111D01*
X97735389Y-77743111D01*
X97735389Y-78251111D01*
X95682223Y-78251111D01*
X95682223Y-77743111D01*
X95682223Y-77244369D01*
X95625039Y-77244889D01*
X95575685Y-77245527D01*
X95535938Y-77246264D01*
X95505388Y-77247104D01*
X95483625Y-77248048D01*
X95470241Y-77249098D01*
X95467028Y-77249569D01*
X95435717Y-77257581D01*
X95402918Y-77269051D01*
X95387543Y-77275792D01*
X95353046Y-77297817D01*
X95318282Y-77328746D01*
X95287579Y-77364144D01*
X95265265Y-77399574D01*
X95263787Y-77402675D01*
X95248306Y-77436195D01*
X95248306Y-78558028D01*
X95267223Y-78598388D01*
X95267223Y-78598388D01*
G37*
X95267223Y-78598388D02*
X95296807Y-78645612D01*
X95337150Y-78686404D01*
X95385595Y-78718711D01*
X95439485Y-78740479D01*
X95456445Y-78744675D01*
X95465534Y-78745772D01*
X95482192Y-78746763D01*
X95506859Y-78747650D01*
X95539973Y-78748435D01*
X95581976Y-78749120D01*
X95633308Y-78749707D01*
X95694408Y-78750198D01*
X95765716Y-78750596D01*
X95847674Y-78750902D01*
X95940719Y-78751119D01*
X96045293Y-78751248D01*
X96161836Y-78751292D01*
X96290788Y-78751253D01*
X96432588Y-78751132D01*
X96587677Y-78750933D01*
X96733500Y-78750697D01*
X97971750Y-78748528D01*
X98012540Y-78729415D01*
X98048254Y-78708289D01*
X98084763Y-78679272D01*
X98118019Y-78646151D01*
X98143974Y-78612716D01*
X98152067Y-78598825D01*
X98169306Y-78565084D01*
X98170637Y-78004167D01*
X98170852Y-77899020D01*
X98170954Y-77807095D01*
X98170931Y-77727502D01*
X98170771Y-77659350D01*
X98170459Y-77601751D01*
X98169985Y-77553815D01*
X98169333Y-77514653D01*
X98168493Y-77483374D01*
X98167450Y-77459090D01*
X98166191Y-77440910D01*
X98164705Y-77427946D01*
X98162978Y-77419308D01*
X98162123Y-77416606D01*
X98137894Y-77369892D01*
X98102271Y-77326981D01*
X98057922Y-77290491D01*
X98007513Y-77263041D01*
X98004288Y-77261712D01*
X97964695Y-77245695D01*
X96737028Y-77243601D01*
X96569087Y-77243342D01*
X96414846Y-77243165D01*
X96273898Y-77243070D01*
X96145833Y-77243060D01*
X96030240Y-77243137D01*
X95926711Y-77243303D01*
X95834835Y-77243559D01*
X95754205Y-77243907D01*
X95684409Y-77244350D01*
X95682223Y-77244369D01*
X95682223Y-77743111D01*
X97735389Y-77743111D01*
X97735389Y-78251111D01*
X95682223Y-78251111D01*
X95682223Y-77743111D01*
X95682223Y-77244369D01*
X95625039Y-77244889D01*
X95575685Y-77245527D01*
X95535938Y-77246264D01*
X95505388Y-77247104D01*
X95483625Y-77248048D01*
X95470241Y-77249098D01*
X95467028Y-77249569D01*
X95435717Y-77257581D01*
X95402918Y-77269051D01*
X95387543Y-77275792D01*
X95353046Y-77297817D01*
X95318282Y-77328746D01*
X95287579Y-77364144D01*
X95265265Y-77399574D01*
X95263787Y-77402675D01*
X95248306Y-77436195D01*
X95248306Y-78558028D01*
X95267223Y-78598388D01*
G36*
X95268021Y-80369119D02*
X95297536Y-80414427D01*
X95337800Y-80454646D01*
X95385708Y-80487381D01*
X95438158Y-80510238D01*
X95457917Y-80515671D01*
X95470512Y-80516938D01*
X95495893Y-80518079D01*
X95532734Y-80519096D01*
X95579711Y-80519988D01*
X95635498Y-80520756D01*
X95698770Y-80521398D01*
X95768202Y-80521916D01*
X95842470Y-80522309D01*
X95920247Y-80522577D01*
X96000209Y-80522720D01*
X96081031Y-80522739D01*
X96161388Y-80522633D01*
X96239955Y-80522402D01*
X96315406Y-80522046D01*
X96386416Y-80521565D01*
X96451661Y-80520960D01*
X96509816Y-80520230D01*
X96559555Y-80519375D01*
X96599553Y-80518395D01*
X96628485Y-80517291D01*
X96645027Y-80516061D01*
X96647362Y-80515671D01*
X96705447Y-80495356D01*
X96757032Y-80463393D01*
X96800261Y-80421242D01*
X96833272Y-80370362D01*
X96833826Y-80369244D01*
X96856973Y-80322241D01*
X96861145Y-79514465D01*
X97416821Y-79512496D01*
X97972498Y-79510528D01*
X98026344Y-79483912D01*
X98080801Y-79449831D01*
X98124548Y-79406865D01*
X98153655Y-79362361D01*
X98162959Y-79335437D01*
X98169003Y-79299863D01*
X98171510Y-79260782D01*
X98170204Y-79223336D01*
X98164809Y-79192669D01*
X98163056Y-79187369D01*
X98138016Y-79139254D01*
X98101429Y-79095802D01*
X98055667Y-79059330D01*
X98005279Y-79033027D01*
X97964695Y-79016639D01*
X96737028Y-79014536D01*
X96569103Y-79014276D01*
X96414879Y-79014097D01*
X96273945Y-79014001D01*
X96145894Y-79013990D01*
X96030313Y-79014066D01*
X95926795Y-79014230D01*
X95834928Y-79014485D01*
X95754303Y-79014833D01*
X95684510Y-79015275D01*
X95682223Y-79015295D01*
X95682223Y-79514056D01*
X96416000Y-79514056D01*
X96416000Y-80022056D01*
X95682223Y-80022056D01*
X95682223Y-79514056D01*
X95682223Y-79015295D01*
X95625139Y-79015814D01*
X95575781Y-79016451D01*
X95536025Y-79017188D01*
X95505462Y-79018027D01*
X95483682Y-79018970D01*
X95470275Y-79020020D01*
X95467028Y-79020495D01*
X95404385Y-79038616D01*
X95350895Y-79067277D01*
X95306844Y-79106279D01*
X95272520Y-79155423D01*
X95272505Y-79155450D01*
X95248306Y-79200084D01*
X95248306Y-80328973D01*
X95268021Y-80369119D01*
X95268021Y-80369119D01*
G37*
X95268021Y-80369119D02*
X95297536Y-80414427D01*
X95337800Y-80454646D01*
X95385708Y-80487381D01*
X95438158Y-80510238D01*
X95457917Y-80515671D01*
X95470512Y-80516938D01*
X95495893Y-80518079D01*
X95532734Y-80519096D01*
X95579711Y-80519988D01*
X95635498Y-80520756D01*
X95698770Y-80521398D01*
X95768202Y-80521916D01*
X95842470Y-80522309D01*
X95920247Y-80522577D01*
X96000209Y-80522720D01*
X96081031Y-80522739D01*
X96161388Y-80522633D01*
X96239955Y-80522402D01*
X96315406Y-80522046D01*
X96386416Y-80521565D01*
X96451661Y-80520960D01*
X96509816Y-80520230D01*
X96559555Y-80519375D01*
X96599553Y-80518395D01*
X96628485Y-80517291D01*
X96645027Y-80516061D01*
X96647362Y-80515671D01*
X96705447Y-80495356D01*
X96757032Y-80463393D01*
X96800261Y-80421242D01*
X96833272Y-80370362D01*
X96833826Y-80369244D01*
X96856973Y-80322241D01*
X96861145Y-79514465D01*
X97416821Y-79512496D01*
X97972498Y-79510528D01*
X98026344Y-79483912D01*
X98080801Y-79449831D01*
X98124548Y-79406865D01*
X98153655Y-79362361D01*
X98162959Y-79335437D01*
X98169003Y-79299863D01*
X98171510Y-79260782D01*
X98170204Y-79223336D01*
X98164809Y-79192669D01*
X98163056Y-79187369D01*
X98138016Y-79139254D01*
X98101429Y-79095802D01*
X98055667Y-79059330D01*
X98005279Y-79033027D01*
X97964695Y-79016639D01*
X96737028Y-79014536D01*
X96569103Y-79014276D01*
X96414879Y-79014097D01*
X96273945Y-79014001D01*
X96145894Y-79013990D01*
X96030313Y-79014066D01*
X95926795Y-79014230D01*
X95834928Y-79014485D01*
X95754303Y-79014833D01*
X95684510Y-79015275D01*
X95682223Y-79015295D01*
X95682223Y-79514056D01*
X96416000Y-79514056D01*
X96416000Y-80022056D01*
X95682223Y-80022056D01*
X95682223Y-79514056D01*
X95682223Y-79015295D01*
X95625139Y-79015814D01*
X95575781Y-79016451D01*
X95536025Y-79017188D01*
X95505462Y-79018027D01*
X95483682Y-79018970D01*
X95470275Y-79020020D01*
X95467028Y-79020495D01*
X95404385Y-79038616D01*
X95350895Y-79067277D01*
X95306844Y-79106279D01*
X95272520Y-79155423D01*
X95272505Y-79155450D01*
X95248306Y-79200084D01*
X95248306Y-80328973D01*
X95268021Y-80369119D01*
G36*
X95982103Y-81582046D02*
X95982177Y-81664944D01*
X95982332Y-81735823D01*
X95982593Y-81795728D01*
X95982985Y-81845707D01*
X95983533Y-81886805D01*
X95984264Y-81920069D01*
X95985201Y-81946543D01*
X95986371Y-81967275D01*
X95987798Y-81983310D01*
X95989509Y-81995695D01*
X95991528Y-82005475D01*
X95993881Y-82013697D01*
X95994928Y-82016804D01*
X96013083Y-82053084D01*
X96041155Y-82090077D01*
X96075751Y-82123804D01*
X96103774Y-82144458D01*
X96118091Y-82153443D01*
X96131432Y-82161118D01*
X96144986Y-82167580D01*
X96159941Y-82172926D01*
X96177486Y-82177253D01*
X96198808Y-82180659D01*
X96225096Y-82183241D01*
X96257537Y-82185097D01*
X96297321Y-82186323D01*
X96345635Y-82187018D01*
X96403668Y-82187278D01*
X96472607Y-82187200D01*
X96553640Y-82186883D01*
X96617897Y-82186572D01*
X97019250Y-82184584D01*
X97065132Y-82162840D01*
X97112319Y-82134226D01*
X97154149Y-82096828D01*
X97187085Y-82054087D01*
X97198593Y-82032906D01*
X97216806Y-81994084D01*
X97218818Y-81639455D01*
X97220830Y-81284827D01*
X97479874Y-81286677D01*
X97738917Y-81288528D01*
X97740782Y-81505184D01*
X97742648Y-81721840D01*
X97726671Y-81730071D01*
X97676023Y-81763154D01*
X97636393Y-81804285D01*
X97614262Y-81840194D01*
X97601641Y-81867777D01*
X97594621Y-81890276D01*
X97591698Y-81914359D01*
X97591316Y-81941794D01*
X97596092Y-81991323D01*
X97610478Y-82034618D01*
X97635905Y-82074717D01*
X97671914Y-82112919D01*
X97704305Y-82140300D01*
X97735407Y-82159960D01*
X97768576Y-82173030D01*
X97807169Y-82180642D01*
X97854539Y-82183927D01*
X97883556Y-82184302D01*
X97923089Y-82183938D01*
X97952197Y-82182539D01*
X97974557Y-82179641D01*
X97993843Y-82174780D01*
X98012296Y-82168070D01*
X98056691Y-82143884D01*
X98098382Y-82109373D01*
X98133376Y-82068261D01*
X98151305Y-82038441D01*
X98172834Y-81995358D01*
X98172834Y-80976810D01*
X98151479Y-80934074D01*
X98119109Y-80884947D01*
X98075133Y-80843604D01*
X98019955Y-80810423D01*
X98018879Y-80809911D01*
X97971750Y-80787584D01*
X96416000Y-80787584D01*
X96416000Y-81285000D01*
X96789945Y-81285000D01*
X96789945Y-81687167D01*
X96416000Y-81687167D01*
X96416000Y-81285000D01*
X96416000Y-80787584D01*
X96186695Y-80787584D01*
X96148166Y-80803942D01*
X96093388Y-80833631D01*
X96048020Y-80871643D01*
X96013495Y-80916550D01*
X95994493Y-80956917D01*
X95992079Y-80964642D01*
X95989997Y-80973792D01*
X95988224Y-80985407D01*
X95986735Y-81000528D01*
X95985506Y-81020194D01*
X95984511Y-81045445D01*
X95983727Y-81077321D01*
X95983130Y-81116863D01*
X95982695Y-81165110D01*
X95982397Y-81223102D01*
X95982212Y-81291879D01*
X95982116Y-81372481D01*
X95982084Y-81465948D01*
X95982084Y-81486084D01*
X95982103Y-81582046D01*
X95982103Y-81582046D01*
G37*
X95982103Y-81582046D02*
X95982177Y-81664944D01*
X95982332Y-81735823D01*
X95982593Y-81795728D01*
X95982985Y-81845707D01*
X95983533Y-81886805D01*
X95984264Y-81920069D01*
X95985201Y-81946543D01*
X95986371Y-81967275D01*
X95987798Y-81983310D01*
X95989509Y-81995695D01*
X95991528Y-82005475D01*
X95993881Y-82013697D01*
X95994928Y-82016804D01*
X96013083Y-82053084D01*
X96041155Y-82090077D01*
X96075751Y-82123804D01*
X96103774Y-82144458D01*
X96118091Y-82153443D01*
X96131432Y-82161118D01*
X96144986Y-82167580D01*
X96159941Y-82172926D01*
X96177486Y-82177253D01*
X96198808Y-82180659D01*
X96225096Y-82183241D01*
X96257537Y-82185097D01*
X96297321Y-82186323D01*
X96345635Y-82187018D01*
X96403668Y-82187278D01*
X96472607Y-82187200D01*
X96553640Y-82186883D01*
X96617897Y-82186572D01*
X97019250Y-82184584D01*
X97065132Y-82162840D01*
X97112319Y-82134226D01*
X97154149Y-82096828D01*
X97187085Y-82054087D01*
X97198593Y-82032906D01*
X97216806Y-81994084D01*
X97218818Y-81639455D01*
X97220830Y-81284827D01*
X97479874Y-81286677D01*
X97738917Y-81288528D01*
X97740782Y-81505184D01*
X97742648Y-81721840D01*
X97726671Y-81730071D01*
X97676023Y-81763154D01*
X97636393Y-81804285D01*
X97614262Y-81840194D01*
X97601641Y-81867777D01*
X97594621Y-81890276D01*
X97591698Y-81914359D01*
X97591316Y-81941794D01*
X97596092Y-81991323D01*
X97610478Y-82034618D01*
X97635905Y-82074717D01*
X97671914Y-82112919D01*
X97704305Y-82140300D01*
X97735407Y-82159960D01*
X97768576Y-82173030D01*
X97807169Y-82180642D01*
X97854539Y-82183927D01*
X97883556Y-82184302D01*
X97923089Y-82183938D01*
X97952197Y-82182539D01*
X97974557Y-82179641D01*
X97993843Y-82174780D01*
X98012296Y-82168070D01*
X98056691Y-82143884D01*
X98098382Y-82109373D01*
X98133376Y-82068261D01*
X98151305Y-82038441D01*
X98172834Y-81995358D01*
X98172834Y-80976810D01*
X98151479Y-80934074D01*
X98119109Y-80884947D01*
X98075133Y-80843604D01*
X98019955Y-80810423D01*
X98018879Y-80809911D01*
X97971750Y-80787584D01*
X96416000Y-80787584D01*
X96416000Y-81285000D01*
X96789945Y-81285000D01*
X96789945Y-81687167D01*
X96416000Y-81687167D01*
X96416000Y-81285000D01*
X96416000Y-80787584D01*
X96186695Y-80787584D01*
X96148166Y-80803942D01*
X96093388Y-80833631D01*
X96048020Y-80871643D01*
X96013495Y-80916550D01*
X95994493Y-80956917D01*
X95992079Y-80964642D01*
X95989997Y-80973792D01*
X95988224Y-80985407D01*
X95986735Y-81000528D01*
X95985506Y-81020194D01*
X95984511Y-81045445D01*
X95983727Y-81077321D01*
X95983130Y-81116863D01*
X95982695Y-81165110D01*
X95982397Y-81223102D01*
X95982212Y-81291879D01*
X95982116Y-81372481D01*
X95982084Y-81465948D01*
X95982084Y-81486084D01*
X95982103Y-81582046D01*
G36*
X95982159Y-83415914D02*
X95982539Y-83480723D01*
X95983298Y-83535527D01*
X95984556Y-83581352D01*
X95986434Y-83619226D01*
X95989053Y-83650175D01*
X95992533Y-83675225D01*
X95996995Y-83695403D01*
X96002559Y-83711735D01*
X96009347Y-83725248D01*
X96017478Y-83736969D01*
X96027074Y-83747923D01*
X96038255Y-83759137D01*
X96051142Y-83771639D01*
X96055514Y-83775947D01*
X96090731Y-83807629D01*
X96123440Y-83829507D01*
X96144362Y-83839447D01*
X96186695Y-83856750D01*
X97051000Y-83858864D01*
X97192404Y-83859167D01*
X97320165Y-83859349D01*
X97434754Y-83859406D01*
X97536640Y-83859336D01*
X97626290Y-83859135D01*
X97704176Y-83858800D01*
X97770765Y-83858329D01*
X97826526Y-83857717D01*
X97871929Y-83856963D01*
X97907443Y-83856063D01*
X97933536Y-83855013D01*
X97950678Y-83853811D01*
X97957404Y-83852917D01*
X98016456Y-83834943D01*
X98069312Y-83805494D01*
X98114017Y-83765953D01*
X98148619Y-83717702D01*
X98148634Y-83717674D01*
X98158258Y-83699124D01*
X98164331Y-83682792D01*
X98167660Y-83664475D01*
X98169048Y-83639970D01*
X98169306Y-83609806D01*
X98168961Y-83576335D01*
X98167387Y-83552767D01*
X98163781Y-83534897D01*
X98157336Y-83518523D01*
X98148634Y-83501938D01*
X98114312Y-83454134D01*
X98069762Y-83414543D01*
X98017241Y-83384798D01*
X97962584Y-83367267D01*
X97950587Y-83365853D01*
X97928389Y-83364589D01*
X97895607Y-83363472D01*
X97851861Y-83362497D01*
X97796770Y-83361660D01*
X97729953Y-83360958D01*
X97651029Y-83360388D01*
X97559616Y-83359944D01*
X97455334Y-83359623D01*
X97337801Y-83359423D01*
X97206637Y-83359337D01*
X97170598Y-83359334D01*
X96416000Y-83359334D01*
X96416000Y-82950410D01*
X97978806Y-82946584D01*
X98019150Y-82927674D01*
X98065809Y-82899579D01*
X98107537Y-82862570D01*
X98140651Y-82820208D01*
X98152693Y-82798417D01*
X98164206Y-82771134D01*
X98170377Y-82746382D01*
X98172666Y-82717253D01*
X98172823Y-82703167D01*
X98171654Y-82670445D01*
X98167176Y-82644804D01*
X98157927Y-82619334D01*
X98152693Y-82607917D01*
X98122311Y-82559875D01*
X98081126Y-82518673D01*
X98031469Y-82485997D01*
X97975671Y-82463528D01*
X97942264Y-82455975D01*
X97929130Y-82454989D01*
X97902572Y-82454065D01*
X97863277Y-82453207D01*
X97811932Y-82452420D01*
X97749223Y-82451711D01*
X97675838Y-82451083D01*
X97592464Y-82450543D01*
X97499787Y-82450095D01*
X97398494Y-82449745D01*
X97289272Y-82449498D01*
X97172809Y-82449360D01*
X97072167Y-82449330D01*
X96942107Y-82449343D01*
X96825373Y-82449377D01*
X96721183Y-82449464D01*
X96628752Y-82449637D01*
X96547296Y-82449927D01*
X96476032Y-82450368D01*
X96414175Y-82450991D01*
X96360941Y-82451828D01*
X96315547Y-82452913D01*
X96277208Y-82454278D01*
X96245140Y-82455954D01*
X96218560Y-82457974D01*
X96196684Y-82460370D01*
X96178727Y-82463175D01*
X96163905Y-82466422D01*
X96151435Y-82470141D01*
X96140533Y-82474367D01*
X96130415Y-82479130D01*
X96120296Y-82484464D01*
X96112126Y-82488918D01*
X96068707Y-82519800D01*
X96030701Y-82561039D01*
X96001407Y-82609037D01*
X96000854Y-82610209D01*
X95982084Y-82650250D01*
X95982084Y-83151195D01*
X95982052Y-83252177D01*
X95982037Y-83340074D01*
X95982159Y-83415914D01*
X95982159Y-83415914D01*
G37*
X95982159Y-83415914D02*
X95982539Y-83480723D01*
X95983298Y-83535527D01*
X95984556Y-83581352D01*
X95986434Y-83619226D01*
X95989053Y-83650175D01*
X95992533Y-83675225D01*
X95996995Y-83695403D01*
X96002559Y-83711735D01*
X96009347Y-83725248D01*
X96017478Y-83736969D01*
X96027074Y-83747923D01*
X96038255Y-83759137D01*
X96051142Y-83771639D01*
X96055514Y-83775947D01*
X96090731Y-83807629D01*
X96123440Y-83829507D01*
X96144362Y-83839447D01*
X96186695Y-83856750D01*
X97051000Y-83858864D01*
X97192404Y-83859167D01*
X97320165Y-83859349D01*
X97434754Y-83859406D01*
X97536640Y-83859336D01*
X97626290Y-83859135D01*
X97704176Y-83858800D01*
X97770765Y-83858329D01*
X97826526Y-83857717D01*
X97871929Y-83856963D01*
X97907443Y-83856063D01*
X97933536Y-83855013D01*
X97950678Y-83853811D01*
X97957404Y-83852917D01*
X98016456Y-83834943D01*
X98069312Y-83805494D01*
X98114017Y-83765953D01*
X98148619Y-83717702D01*
X98148634Y-83717674D01*
X98158258Y-83699124D01*
X98164331Y-83682792D01*
X98167660Y-83664475D01*
X98169048Y-83639970D01*
X98169306Y-83609806D01*
X98168961Y-83576335D01*
X98167387Y-83552767D01*
X98163781Y-83534897D01*
X98157336Y-83518523D01*
X98148634Y-83501938D01*
X98114312Y-83454134D01*
X98069762Y-83414543D01*
X98017241Y-83384798D01*
X97962584Y-83367267D01*
X97950587Y-83365853D01*
X97928389Y-83364589D01*
X97895607Y-83363472D01*
X97851861Y-83362497D01*
X97796770Y-83361660D01*
X97729953Y-83360958D01*
X97651029Y-83360388D01*
X97559616Y-83359944D01*
X97455334Y-83359623D01*
X97337801Y-83359423D01*
X97206637Y-83359337D01*
X97170598Y-83359334D01*
X96416000Y-83359334D01*
X96416000Y-82950410D01*
X97978806Y-82946584D01*
X98019150Y-82927674D01*
X98065809Y-82899579D01*
X98107537Y-82862570D01*
X98140651Y-82820208D01*
X98152693Y-82798417D01*
X98164206Y-82771134D01*
X98170377Y-82746382D01*
X98172666Y-82717253D01*
X98172823Y-82703167D01*
X98171654Y-82670445D01*
X98167176Y-82644804D01*
X98157927Y-82619334D01*
X98152693Y-82607917D01*
X98122311Y-82559875D01*
X98081126Y-82518673D01*
X98031469Y-82485997D01*
X97975671Y-82463528D01*
X97942264Y-82455975D01*
X97929130Y-82454989D01*
X97902572Y-82454065D01*
X97863277Y-82453207D01*
X97811932Y-82452420D01*
X97749223Y-82451711D01*
X97675838Y-82451083D01*
X97592464Y-82450543D01*
X97499787Y-82450095D01*
X97398494Y-82449745D01*
X97289272Y-82449498D01*
X97172809Y-82449360D01*
X97072167Y-82449330D01*
X96942107Y-82449343D01*
X96825373Y-82449377D01*
X96721183Y-82449464D01*
X96628752Y-82449637D01*
X96547296Y-82449927D01*
X96476032Y-82450368D01*
X96414175Y-82450991D01*
X96360941Y-82451828D01*
X96315547Y-82452913D01*
X96277208Y-82454278D01*
X96245140Y-82455954D01*
X96218560Y-82457974D01*
X96196684Y-82460370D01*
X96178727Y-82463175D01*
X96163905Y-82466422D01*
X96151435Y-82470141D01*
X96140533Y-82474367D01*
X96130415Y-82479130D01*
X96120296Y-82484464D01*
X96112126Y-82488918D01*
X96068707Y-82519800D01*
X96030701Y-82561039D01*
X96001407Y-82609037D01*
X96000854Y-82610209D01*
X95982084Y-82650250D01*
X95982084Y-83151195D01*
X95982052Y-83252177D01*
X95982037Y-83340074D01*
X95982159Y-83415914D01*
G36*
X95245676Y-86075108D02*
X95245934Y-86163816D01*
X95246292Y-86265445D01*
X95246373Y-86288014D01*
X95248306Y-86834195D01*
X95266826Y-86873000D01*
X95298054Y-86922500D01*
X95339940Y-86964239D01*
X95390408Y-86996542D01*
X95445580Y-87017272D01*
X95463851Y-87020096D01*
X95494280Y-87022544D01*
X95534980Y-87024611D01*
X95584066Y-87026295D01*
X95639651Y-87027591D01*
X95699851Y-87028495D01*
X95762778Y-87029004D01*
X95826547Y-87029114D01*
X95889273Y-87028822D01*
X95949068Y-87028124D01*
X96004048Y-87027016D01*
X96052327Y-87025494D01*
X96092018Y-87023555D01*
X96121235Y-87021194D01*
X96137306Y-87018632D01*
X96194478Y-86997051D01*
X96245563Y-86965289D01*
X96288204Y-86925187D01*
X96320045Y-86878589D01*
X96322428Y-86873879D01*
X96332568Y-86851031D01*
X96338477Y-86830212D01*
X96341213Y-86805998D01*
X96341832Y-86774223D01*
X96341012Y-86741066D01*
X96338071Y-86717112D01*
X96332117Y-86697504D01*
X96325018Y-86682500D01*
X96291452Y-86630197D01*
X96251383Y-86589668D01*
X96202963Y-86559362D01*
X96156265Y-86541220D01*
X96142166Y-86537212D01*
X96127551Y-86534047D01*
X96110599Y-86531628D01*
X96089488Y-86529857D01*
X96062397Y-86528635D01*
X96027505Y-86527866D01*
X95982989Y-86527451D01*
X95927029Y-86527292D01*
X95896674Y-86527278D01*
X95682223Y-86527278D01*
X95682223Y-86019278D01*
X97735389Y-86019278D01*
X97735389Y-86526393D01*
X97507848Y-86528599D01*
X97280306Y-86530806D01*
X97234009Y-86552744D01*
X97190272Y-86578925D01*
X97149846Y-86613207D01*
X97116658Y-86651873D01*
X97099530Y-86680168D01*
X97090904Y-86700320D01*
X97085784Y-86720677D01*
X97083356Y-86745984D01*
X97082801Y-86777750D01*
X97083467Y-86811248D01*
X97085936Y-86835214D01*
X97091012Y-86854195D01*
X97099499Y-86872734D01*
X97099640Y-86873000D01*
X97134967Y-86925525D01*
X97179736Y-86968458D01*
X97232355Y-87000459D01*
X97267500Y-87014002D01*
X97279331Y-87017437D01*
X97291455Y-87020271D01*
X97305302Y-87022559D01*
X97322302Y-87024358D01*
X97343886Y-87025725D01*
X97371483Y-87026717D01*
X97406523Y-87027390D01*
X97450437Y-87027801D01*
X97504654Y-87028008D01*
X97570604Y-87028066D01*
X97621480Y-87028050D01*
X97692080Y-87027850D01*
X97757455Y-87027351D01*
X97816199Y-87026582D01*
X97866905Y-87025574D01*
X97908166Y-87024356D01*
X97938576Y-87022958D01*
X97956728Y-87021410D01*
X97959695Y-87020893D01*
X98015203Y-87001350D01*
X98066544Y-86970343D01*
X98110836Y-86930120D01*
X98145195Y-86882929D01*
X98151305Y-86871497D01*
X98172834Y-86828413D01*
X98172524Y-86273915D01*
X98172424Y-86168464D01*
X98172241Y-86076260D01*
X98171960Y-85996436D01*
X98171566Y-85928128D01*
X98171044Y-85870470D01*
X98170380Y-85822598D01*
X98169559Y-85783647D01*
X98168566Y-85752751D01*
X98167387Y-85729045D01*
X98166006Y-85711665D01*
X98164410Y-85699744D01*
X98162646Y-85692592D01*
X98137323Y-85642346D01*
X98099736Y-85598339D01*
X98050628Y-85561334D01*
X98017946Y-85543752D01*
X97971750Y-85521861D01*
X96726445Y-85519975D01*
X96570962Y-85519742D01*
X96428954Y-85519539D01*
X96299785Y-85519372D01*
X96182818Y-85519248D01*
X96077417Y-85519171D01*
X95982946Y-85519148D01*
X95898768Y-85519186D01*
X95824247Y-85519289D01*
X95758747Y-85519464D01*
X95701632Y-85519717D01*
X95652265Y-85520054D01*
X95610010Y-85520480D01*
X95574231Y-85521002D01*
X95544291Y-85521626D01*
X95519555Y-85522357D01*
X95499385Y-85523202D01*
X95483146Y-85524167D01*
X95470201Y-85525257D01*
X95459915Y-85526478D01*
X95451650Y-85527837D01*
X95444771Y-85529340D01*
X95438641Y-85530991D01*
X95435016Y-85532069D01*
X95387936Y-85551499D01*
X95343717Y-85579250D01*
X95306566Y-85612352D01*
X95287612Y-85636209D01*
X95279900Y-85647831D01*
X95273163Y-85658534D01*
X95267340Y-85669307D01*
X95262368Y-85681139D01*
X95258184Y-85695016D01*
X95254726Y-85711929D01*
X95251930Y-85732866D01*
X95249736Y-85758814D01*
X95248079Y-85790763D01*
X95246897Y-85829700D01*
X95246129Y-85876615D01*
X95245711Y-85932496D01*
X95245581Y-85998330D01*
X95245676Y-86075108D01*
X95245676Y-86075108D01*
G37*
X95245676Y-86075108D02*
X95245934Y-86163816D01*
X95246292Y-86265445D01*
X95246373Y-86288014D01*
X95248306Y-86834195D01*
X95266826Y-86873000D01*
X95298054Y-86922500D01*
X95339940Y-86964239D01*
X95390408Y-86996542D01*
X95445580Y-87017272D01*
X95463851Y-87020096D01*
X95494280Y-87022544D01*
X95534980Y-87024611D01*
X95584066Y-87026295D01*
X95639651Y-87027591D01*
X95699851Y-87028495D01*
X95762778Y-87029004D01*
X95826547Y-87029114D01*
X95889273Y-87028822D01*
X95949068Y-87028124D01*
X96004048Y-87027016D01*
X96052327Y-87025494D01*
X96092018Y-87023555D01*
X96121235Y-87021194D01*
X96137306Y-87018632D01*
X96194478Y-86997051D01*
X96245563Y-86965289D01*
X96288204Y-86925187D01*
X96320045Y-86878589D01*
X96322428Y-86873879D01*
X96332568Y-86851031D01*
X96338477Y-86830212D01*
X96341213Y-86805998D01*
X96341832Y-86774223D01*
X96341012Y-86741066D01*
X96338071Y-86717112D01*
X96332117Y-86697504D01*
X96325018Y-86682500D01*
X96291452Y-86630197D01*
X96251383Y-86589668D01*
X96202963Y-86559362D01*
X96156265Y-86541220D01*
X96142166Y-86537212D01*
X96127551Y-86534047D01*
X96110599Y-86531628D01*
X96089488Y-86529857D01*
X96062397Y-86528635D01*
X96027505Y-86527866D01*
X95982989Y-86527451D01*
X95927029Y-86527292D01*
X95896674Y-86527278D01*
X95682223Y-86527278D01*
X95682223Y-86019278D01*
X97735389Y-86019278D01*
X97735389Y-86526393D01*
X97507848Y-86528599D01*
X97280306Y-86530806D01*
X97234009Y-86552744D01*
X97190272Y-86578925D01*
X97149846Y-86613207D01*
X97116658Y-86651873D01*
X97099530Y-86680168D01*
X97090904Y-86700320D01*
X97085784Y-86720677D01*
X97083356Y-86745984D01*
X97082801Y-86777750D01*
X97083467Y-86811248D01*
X97085936Y-86835214D01*
X97091012Y-86854195D01*
X97099499Y-86872734D01*
X97099640Y-86873000D01*
X97134967Y-86925525D01*
X97179736Y-86968458D01*
X97232355Y-87000459D01*
X97267500Y-87014002D01*
X97279331Y-87017437D01*
X97291455Y-87020271D01*
X97305302Y-87022559D01*
X97322302Y-87024358D01*
X97343886Y-87025725D01*
X97371483Y-87026717D01*
X97406523Y-87027390D01*
X97450437Y-87027801D01*
X97504654Y-87028008D01*
X97570604Y-87028066D01*
X97621480Y-87028050D01*
X97692080Y-87027850D01*
X97757455Y-87027351D01*
X97816199Y-87026582D01*
X97866905Y-87025574D01*
X97908166Y-87024356D01*
X97938576Y-87022958D01*
X97956728Y-87021410D01*
X97959695Y-87020893D01*
X98015203Y-87001350D01*
X98066544Y-86970343D01*
X98110836Y-86930120D01*
X98145195Y-86882929D01*
X98151305Y-86871497D01*
X98172834Y-86828413D01*
X98172524Y-86273915D01*
X98172424Y-86168464D01*
X98172241Y-86076260D01*
X98171960Y-85996436D01*
X98171566Y-85928128D01*
X98171044Y-85870470D01*
X98170380Y-85822598D01*
X98169559Y-85783647D01*
X98168566Y-85752751D01*
X98167387Y-85729045D01*
X98166006Y-85711665D01*
X98164410Y-85699744D01*
X98162646Y-85692592D01*
X98137323Y-85642346D01*
X98099736Y-85598339D01*
X98050628Y-85561334D01*
X98017946Y-85543752D01*
X97971750Y-85521861D01*
X96726445Y-85519975D01*
X96570962Y-85519742D01*
X96428954Y-85519539D01*
X96299785Y-85519372D01*
X96182818Y-85519248D01*
X96077417Y-85519171D01*
X95982946Y-85519148D01*
X95898768Y-85519186D01*
X95824247Y-85519289D01*
X95758747Y-85519464D01*
X95701632Y-85519717D01*
X95652265Y-85520054D01*
X95610010Y-85520480D01*
X95574231Y-85521002D01*
X95544291Y-85521626D01*
X95519555Y-85522357D01*
X95499385Y-85523202D01*
X95483146Y-85524167D01*
X95470201Y-85525257D01*
X95459915Y-85526478D01*
X95451650Y-85527837D01*
X95444771Y-85529340D01*
X95438641Y-85530991D01*
X95435016Y-85532069D01*
X95387936Y-85551499D01*
X95343717Y-85579250D01*
X95306566Y-85612352D01*
X95287612Y-85636209D01*
X95279900Y-85647831D01*
X95273163Y-85658534D01*
X95267340Y-85669307D01*
X95262368Y-85681139D01*
X95258184Y-85695016D01*
X95254726Y-85711929D01*
X95251930Y-85732866D01*
X95249736Y-85758814D01*
X95248079Y-85790763D01*
X95246897Y-85829700D01*
X95246129Y-85876615D01*
X95245711Y-85932496D01*
X95245581Y-85998330D01*
X95245676Y-86075108D01*
G36*
X95267795Y-88644823D02*
X95297962Y-88691117D01*
X95338921Y-88731508D01*
X95387872Y-88763885D01*
X95442014Y-88786139D01*
X95462084Y-88791234D01*
X95474046Y-88792273D01*
X95499223Y-88793243D01*
X95536719Y-88794146D01*
X95585639Y-88794980D01*
X95645087Y-88795746D01*
X95714166Y-88796444D01*
X95791982Y-88797075D01*
X95877637Y-88797637D01*
X95970237Y-88798130D01*
X96068886Y-88798556D01*
X96172687Y-88798914D01*
X96280745Y-88799203D01*
X96392164Y-88799425D01*
X96506049Y-88799578D01*
X96621502Y-88799663D01*
X96737630Y-88799681D01*
X96853535Y-88799630D01*
X96968322Y-88799511D01*
X97081095Y-88799323D01*
X97190958Y-88799068D01*
X97297016Y-88798745D01*
X97398373Y-88798353D01*
X97494132Y-88797894D01*
X97583398Y-88797366D01*
X97665276Y-88796770D01*
X97738869Y-88796107D01*
X97803281Y-88795375D01*
X97857617Y-88794575D01*
X97900981Y-88793706D01*
X97932477Y-88792770D01*
X97951209Y-88791766D01*
X97955528Y-88791234D01*
X98012722Y-88772360D01*
X98065036Y-88741972D01*
X98109937Y-88702000D01*
X98144888Y-88654376D01*
X98151539Y-88641972D01*
X98172834Y-88599358D01*
X98172227Y-88044859D01*
X98172065Y-87957256D01*
X98171779Y-87873469D01*
X98171382Y-87794610D01*
X98170886Y-87721789D01*
X98170302Y-87656119D01*
X98169641Y-87598710D01*
X98168916Y-87550673D01*
X98168138Y-87513121D01*
X98167318Y-87487164D01*
X98166469Y-87473914D01*
X98166241Y-87472677D01*
X98144547Y-87424425D01*
X98111236Y-87380454D01*
X98068649Y-87342950D01*
X98019122Y-87314102D01*
X97981961Y-87300339D01*
X97976067Y-87298926D01*
X97968254Y-87297639D01*
X97957900Y-87296474D01*
X97944382Y-87295425D01*
X97927080Y-87294488D01*
X97905371Y-87293659D01*
X97878633Y-87292933D01*
X97846245Y-87292305D01*
X97807583Y-87291771D01*
X97762026Y-87291327D01*
X97735389Y-87291147D01*
X97735389Y-87790223D01*
X97735389Y-88298270D01*
X96710570Y-88296482D01*
X95685750Y-88294695D01*
X95682044Y-87790223D01*
X97735389Y-87790223D01*
X97735389Y-87291147D01*
X97708953Y-87290968D01*
X97647740Y-87290689D01*
X97577767Y-87290486D01*
X97498411Y-87290354D01*
X97409050Y-87290289D01*
X97309063Y-87290286D01*
X97197826Y-87290341D01*
X97074719Y-87290448D01*
X96939119Y-87290605D01*
X96790405Y-87290806D01*
X96694322Y-87290946D01*
X95445862Y-87292806D01*
X95398584Y-87315203D01*
X95346038Y-87347361D01*
X95301665Y-87389396D01*
X95268140Y-87438591D01*
X95248306Y-87476250D01*
X95248306Y-88605139D01*
X95267795Y-88644823D01*
X95267795Y-88644823D01*
G37*
X95267795Y-88644823D02*
X95297962Y-88691117D01*
X95338921Y-88731508D01*
X95387872Y-88763885D01*
X95442014Y-88786139D01*
X95462084Y-88791234D01*
X95474046Y-88792273D01*
X95499223Y-88793243D01*
X95536719Y-88794146D01*
X95585639Y-88794980D01*
X95645087Y-88795746D01*
X95714166Y-88796444D01*
X95791982Y-88797075D01*
X95877637Y-88797637D01*
X95970237Y-88798130D01*
X96068886Y-88798556D01*
X96172687Y-88798914D01*
X96280745Y-88799203D01*
X96392164Y-88799425D01*
X96506049Y-88799578D01*
X96621502Y-88799663D01*
X96737630Y-88799681D01*
X96853535Y-88799630D01*
X96968322Y-88799511D01*
X97081095Y-88799323D01*
X97190958Y-88799068D01*
X97297016Y-88798745D01*
X97398373Y-88798353D01*
X97494132Y-88797894D01*
X97583398Y-88797366D01*
X97665276Y-88796770D01*
X97738869Y-88796107D01*
X97803281Y-88795375D01*
X97857617Y-88794575D01*
X97900981Y-88793706D01*
X97932477Y-88792770D01*
X97951209Y-88791766D01*
X97955528Y-88791234D01*
X98012722Y-88772360D01*
X98065036Y-88741972D01*
X98109937Y-88702000D01*
X98144888Y-88654376D01*
X98151539Y-88641972D01*
X98172834Y-88599358D01*
X98172227Y-88044859D01*
X98172065Y-87957256D01*
X98171779Y-87873469D01*
X98171382Y-87794610D01*
X98170886Y-87721789D01*
X98170302Y-87656119D01*
X98169641Y-87598710D01*
X98168916Y-87550673D01*
X98168138Y-87513121D01*
X98167318Y-87487164D01*
X98166469Y-87473914D01*
X98166241Y-87472677D01*
X98144547Y-87424425D01*
X98111236Y-87380454D01*
X98068649Y-87342950D01*
X98019122Y-87314102D01*
X97981961Y-87300339D01*
X97976067Y-87298926D01*
X97968254Y-87297639D01*
X97957900Y-87296474D01*
X97944382Y-87295425D01*
X97927080Y-87294488D01*
X97905371Y-87293659D01*
X97878633Y-87292933D01*
X97846245Y-87292305D01*
X97807583Y-87291771D01*
X97762026Y-87291327D01*
X97735389Y-87291147D01*
X97735389Y-87790223D01*
X97735389Y-88298270D01*
X96710570Y-88296482D01*
X95685750Y-88294695D01*
X95682044Y-87790223D01*
X97735389Y-87790223D01*
X97735389Y-87291147D01*
X97708953Y-87290968D01*
X97647740Y-87290689D01*
X97577767Y-87290486D01*
X97498411Y-87290354D01*
X97409050Y-87290289D01*
X97309063Y-87290286D01*
X97197826Y-87290341D01*
X97074719Y-87290448D01*
X96939119Y-87290605D01*
X96790405Y-87290806D01*
X96694322Y-87290946D01*
X95445862Y-87292806D01*
X95398584Y-87315203D01*
X95346038Y-87347361D01*
X95301665Y-87389396D01*
X95268140Y-87438591D01*
X95248306Y-87476250D01*
X95248306Y-88605139D01*
X95267795Y-88644823D01*
G36*
X95248353Y-89338068D02*
X95255104Y-89381258D01*
X95265038Y-89411074D01*
X95287746Y-89448038D01*
X95319932Y-89482732D01*
X95357150Y-89510622D01*
X95369313Y-89517328D01*
X95379451Y-89521365D01*
X95402071Y-89529658D01*
X95436300Y-89541904D01*
X95481267Y-89557799D01*
X95536099Y-89577040D01*
X95599924Y-89599324D01*
X95671870Y-89624345D01*
X95751064Y-89651802D01*
X95836635Y-89681389D01*
X95927711Y-89712804D01*
X96023419Y-89745743D01*
X96122887Y-89779903D01*
X96166215Y-89794760D01*
X96935958Y-90058584D01*
X96205021Y-90062518D01*
X96077816Y-90063248D01*
X95964143Y-90064000D01*
X95863423Y-90064784D01*
X95775076Y-90065610D01*
X95698524Y-90066486D01*
X95633187Y-90067422D01*
X95578486Y-90068429D01*
X95533842Y-90069514D01*
X95498675Y-90070689D01*
X95472407Y-90071962D01*
X95454458Y-90073342D01*
X95444249Y-90074841D01*
X95443471Y-90075042D01*
X95388524Y-90096949D01*
X95339097Y-90129355D01*
X95297866Y-90170105D01*
X95267795Y-90216455D01*
X95257637Y-90239367D01*
X95251712Y-90260297D01*
X95248956Y-90284680D01*
X95248306Y-90316111D01*
X95249030Y-90348844D01*
X95251911Y-90372944D01*
X95258011Y-90393845D01*
X95267795Y-90415768D01*
X95298295Y-90462526D01*
X95339653Y-90502853D01*
X95389399Y-90534952D01*
X95445062Y-90557026D01*
X95470271Y-90563002D01*
X95482093Y-90563904D01*
X95507128Y-90564748D01*
X95544477Y-90565532D01*
X95593244Y-90566256D01*
X95652529Y-90566922D01*
X95721435Y-90567528D01*
X95799063Y-90568074D01*
X95884517Y-90568562D01*
X95976896Y-90568990D01*
X96075304Y-90569358D01*
X96178843Y-90569667D01*
X96286613Y-90569917D01*
X96397718Y-90570108D01*
X96511260Y-90570239D01*
X96626339Y-90570311D01*
X96742059Y-90570324D01*
X96857520Y-90570277D01*
X96971826Y-90570171D01*
X97084077Y-90570006D01*
X97193376Y-90569781D01*
X97298826Y-90569497D01*
X97399526Y-90569154D01*
X97494581Y-90568751D01*
X97583091Y-90568289D01*
X97664159Y-90567767D01*
X97736886Y-90567187D01*
X97800375Y-90566547D01*
X97853727Y-90565847D01*
X97896044Y-90565089D01*
X97926429Y-90564271D01*
X97943983Y-90563393D01*
X97947341Y-90563002D01*
X98002873Y-90546113D01*
X98054926Y-90518219D01*
X98100703Y-90481429D01*
X98137406Y-90437850D01*
X98155333Y-90406322D01*
X98169974Y-90359569D01*
X98173999Y-90308102D01*
X98167469Y-90256436D01*
X98152763Y-90213806D01*
X98122729Y-90166579D01*
X98081479Y-90127828D01*
X98029220Y-90097750D01*
X98028935Y-90097623D01*
X98016600Y-90092819D01*
X97991819Y-90083774D01*
X97955503Y-90070805D01*
X97908559Y-90054229D01*
X97851898Y-90034361D01*
X97786428Y-90011519D01*
X97713059Y-89986018D01*
X97632701Y-89958176D01*
X97546263Y-89928308D01*
X97454653Y-89896732D01*
X97358782Y-89863764D01*
X97259559Y-89829720D01*
X97235860Y-89821600D01*
X96485858Y-89564695D01*
X97218221Y-89560976D01*
X97337328Y-89560377D01*
X97443180Y-89559833D01*
X97536633Y-89559302D01*
X97618544Y-89558745D01*
X97689769Y-89558121D01*
X97751163Y-89557388D01*
X97803582Y-89556508D01*
X97847883Y-89555439D01*
X97884922Y-89554140D01*
X97915555Y-89552571D01*
X97940638Y-89550692D01*
X97961027Y-89548461D01*
X97977578Y-89545839D01*
X97991146Y-89542784D01*
X98002589Y-89539257D01*
X98012763Y-89535216D01*
X98022522Y-89530621D01*
X98032724Y-89525432D01*
X98039318Y-89522064D01*
X98068039Y-89503170D01*
X98098159Y-89476229D01*
X98126196Y-89445079D01*
X98148664Y-89413559D01*
X98161418Y-89387546D01*
X98167495Y-89362036D01*
X98171619Y-89329894D01*
X98172834Y-89303509D01*
X98171621Y-89271871D01*
X98166877Y-89246961D01*
X98156941Y-89221519D01*
X98151539Y-89210362D01*
X98118503Y-89159515D01*
X98075412Y-89117945D01*
X98023550Y-89086528D01*
X97964201Y-89066145D01*
X97932155Y-89060369D01*
X97918435Y-89059513D01*
X97891521Y-89058714D01*
X97852328Y-89057973D01*
X97801773Y-89057289D01*
X97740773Y-89056663D01*
X97670244Y-89056094D01*
X97591103Y-89055582D01*
X97504265Y-89055129D01*
X97410647Y-89054732D01*
X97311166Y-89054393D01*
X97206739Y-89054112D01*
X97098280Y-89053888D01*
X96986708Y-89053721D01*
X96872937Y-89053612D01*
X96757885Y-89053560D01*
X96642469Y-89053566D01*
X96527603Y-89053630D01*
X96414206Y-89053750D01*
X96303193Y-89053929D01*
X96195480Y-89054165D01*
X96091985Y-89054458D01*
X95993623Y-89054809D01*
X95901311Y-89055217D01*
X95815965Y-89055683D01*
X95738502Y-89056206D01*
X95669837Y-89056787D01*
X95610889Y-89057425D01*
X95562572Y-89058121D01*
X95525803Y-89058874D01*
X95501499Y-89059685D01*
X95491723Y-89060365D01*
X95428739Y-89074712D01*
X95372132Y-89100271D01*
X95323451Y-89135992D01*
X95284243Y-89180829D01*
X95264602Y-89214299D01*
X95253090Y-89249551D01*
X95247678Y-89292486D01*
X95248353Y-89338068D01*
X95248353Y-89338068D01*
G37*
X95248353Y-89338068D02*
X95255104Y-89381258D01*
X95265038Y-89411074D01*
X95287746Y-89448038D01*
X95319932Y-89482732D01*
X95357150Y-89510622D01*
X95369313Y-89517328D01*
X95379451Y-89521365D01*
X95402071Y-89529658D01*
X95436300Y-89541904D01*
X95481267Y-89557799D01*
X95536099Y-89577040D01*
X95599924Y-89599324D01*
X95671870Y-89624345D01*
X95751064Y-89651802D01*
X95836635Y-89681389D01*
X95927711Y-89712804D01*
X96023419Y-89745743D01*
X96122887Y-89779903D01*
X96166215Y-89794760D01*
X96935958Y-90058584D01*
X96205021Y-90062518D01*
X96077816Y-90063248D01*
X95964143Y-90064000D01*
X95863423Y-90064784D01*
X95775076Y-90065610D01*
X95698524Y-90066486D01*
X95633187Y-90067422D01*
X95578486Y-90068429D01*
X95533842Y-90069514D01*
X95498675Y-90070689D01*
X95472407Y-90071962D01*
X95454458Y-90073342D01*
X95444249Y-90074841D01*
X95443471Y-90075042D01*
X95388524Y-90096949D01*
X95339097Y-90129355D01*
X95297866Y-90170105D01*
X95267795Y-90216455D01*
X95257637Y-90239367D01*
X95251712Y-90260297D01*
X95248956Y-90284680D01*
X95248306Y-90316111D01*
X95249030Y-90348844D01*
X95251911Y-90372944D01*
X95258011Y-90393845D01*
X95267795Y-90415768D01*
X95298295Y-90462526D01*
X95339653Y-90502853D01*
X95389399Y-90534952D01*
X95445062Y-90557026D01*
X95470271Y-90563002D01*
X95482093Y-90563904D01*
X95507128Y-90564748D01*
X95544477Y-90565532D01*
X95593244Y-90566256D01*
X95652529Y-90566922D01*
X95721435Y-90567528D01*
X95799063Y-90568074D01*
X95884517Y-90568562D01*
X95976896Y-90568990D01*
X96075304Y-90569358D01*
X96178843Y-90569667D01*
X96286613Y-90569917D01*
X96397718Y-90570108D01*
X96511260Y-90570239D01*
X96626339Y-90570311D01*
X96742059Y-90570324D01*
X96857520Y-90570277D01*
X96971826Y-90570171D01*
X97084077Y-90570006D01*
X97193376Y-90569781D01*
X97298826Y-90569497D01*
X97399526Y-90569154D01*
X97494581Y-90568751D01*
X97583091Y-90568289D01*
X97664159Y-90567767D01*
X97736886Y-90567187D01*
X97800375Y-90566547D01*
X97853727Y-90565847D01*
X97896044Y-90565089D01*
X97926429Y-90564271D01*
X97943983Y-90563393D01*
X97947341Y-90563002D01*
X98002873Y-90546113D01*
X98054926Y-90518219D01*
X98100703Y-90481429D01*
X98137406Y-90437850D01*
X98155333Y-90406322D01*
X98169974Y-90359569D01*
X98173999Y-90308102D01*
X98167469Y-90256436D01*
X98152763Y-90213806D01*
X98122729Y-90166579D01*
X98081479Y-90127828D01*
X98029220Y-90097750D01*
X98028935Y-90097623D01*
X98016600Y-90092819D01*
X97991819Y-90083774D01*
X97955503Y-90070805D01*
X97908559Y-90054229D01*
X97851898Y-90034361D01*
X97786428Y-90011519D01*
X97713059Y-89986018D01*
X97632701Y-89958176D01*
X97546263Y-89928308D01*
X97454653Y-89896732D01*
X97358782Y-89863764D01*
X97259559Y-89829720D01*
X97235860Y-89821600D01*
X96485858Y-89564695D01*
X97218221Y-89560976D01*
X97337328Y-89560377D01*
X97443180Y-89559833D01*
X97536633Y-89559302D01*
X97618544Y-89558745D01*
X97689769Y-89558121D01*
X97751163Y-89557388D01*
X97803582Y-89556508D01*
X97847883Y-89555439D01*
X97884922Y-89554140D01*
X97915555Y-89552571D01*
X97940638Y-89550692D01*
X97961027Y-89548461D01*
X97977578Y-89545839D01*
X97991146Y-89542784D01*
X98002589Y-89539257D01*
X98012763Y-89535216D01*
X98022522Y-89530621D01*
X98032724Y-89525432D01*
X98039318Y-89522064D01*
X98068039Y-89503170D01*
X98098159Y-89476229D01*
X98126196Y-89445079D01*
X98148664Y-89413559D01*
X98161418Y-89387546D01*
X98167495Y-89362036D01*
X98171619Y-89329894D01*
X98172834Y-89303509D01*
X98171621Y-89271871D01*
X98166877Y-89246961D01*
X98156941Y-89221519D01*
X98151539Y-89210362D01*
X98118503Y-89159515D01*
X98075412Y-89117945D01*
X98023550Y-89086528D01*
X97964201Y-89066145D01*
X97932155Y-89060369D01*
X97918435Y-89059513D01*
X97891521Y-89058714D01*
X97852328Y-89057973D01*
X97801773Y-89057289D01*
X97740773Y-89056663D01*
X97670244Y-89056094D01*
X97591103Y-89055582D01*
X97504265Y-89055129D01*
X97410647Y-89054732D01*
X97311166Y-89054393D01*
X97206739Y-89054112D01*
X97098280Y-89053888D01*
X96986708Y-89053721D01*
X96872937Y-89053612D01*
X96757885Y-89053560D01*
X96642469Y-89053566D01*
X96527603Y-89053630D01*
X96414206Y-89053750D01*
X96303193Y-89053929D01*
X96195480Y-89054165D01*
X96091985Y-89054458D01*
X95993623Y-89054809D01*
X95901311Y-89055217D01*
X95815965Y-89055683D01*
X95738502Y-89056206D01*
X95669837Y-89056787D01*
X95610889Y-89057425D01*
X95562572Y-89058121D01*
X95525803Y-89058874D01*
X95501499Y-89059685D01*
X95491723Y-89060365D01*
X95428739Y-89074712D01*
X95372132Y-89100271D01*
X95323451Y-89135992D01*
X95284243Y-89180829D01*
X95264602Y-89214299D01*
X95253090Y-89249551D01*
X95247678Y-89292486D01*
X95248353Y-89338068D01*
G36*
X95982158Y-91790694D02*
X95982538Y-91855502D01*
X95983296Y-91910308D01*
X95984553Y-91956139D01*
X95986430Y-91994023D01*
X95989047Y-92024987D01*
X95992525Y-92050058D01*
X95996985Y-92070263D01*
X96002548Y-92086630D01*
X96009333Y-92100185D01*
X96017462Y-92111957D01*
X96027055Y-92122971D01*
X96038234Y-92134256D01*
X96051117Y-92146839D01*
X96055514Y-92151201D01*
X96087521Y-92180816D01*
X96117592Y-92202340D01*
X96148995Y-92216967D01*
X96185000Y-92225893D01*
X96228876Y-92230314D01*
X96274889Y-92231423D01*
X96318332Y-92230955D01*
X96351246Y-92229008D01*
X96377169Y-92225220D01*
X96399640Y-92219230D01*
X96401889Y-92218477D01*
X96459441Y-92195003D01*
X96512047Y-92166043D01*
X96557511Y-92133214D01*
X96593635Y-92098136D01*
X96618223Y-92062428D01*
X96620749Y-92057187D01*
X96631103Y-92022379D01*
X96634568Y-91984372D01*
X96628190Y-91935825D01*
X96608621Y-91891550D01*
X96575762Y-91851426D01*
X96529512Y-91815332D01*
X96469771Y-91783148D01*
X96467318Y-91782038D01*
X96416016Y-91758973D01*
X96416000Y-91332111D01*
X96852828Y-91332111D01*
X96854900Y-91683289D01*
X96856973Y-92034467D01*
X96880162Y-92081557D01*
X96912834Y-92132885D01*
X96955346Y-92174124D01*
X97007742Y-92205311D01*
X97062851Y-92224673D01*
X97079314Y-92227060D01*
X97108268Y-92229173D01*
X97148125Y-92231012D01*
X97197296Y-92232574D01*
X97254195Y-92233859D01*
X97317234Y-92234865D01*
X97384825Y-92235592D01*
X97455380Y-92236037D01*
X97527313Y-92236199D01*
X97599034Y-92236078D01*
X97668957Y-92235673D01*
X97735494Y-92234981D01*
X97797057Y-92234002D01*
X97852058Y-92232734D01*
X97898911Y-92231176D01*
X97936027Y-92229328D01*
X97961819Y-92227187D01*
X97972807Y-92225381D01*
X98031558Y-92202984D01*
X98083291Y-92169584D01*
X98126124Y-92126638D01*
X98152930Y-92085993D01*
X98169306Y-92055306D01*
X98171161Y-91540250D01*
X98173015Y-91025195D01*
X98152790Y-90982861D01*
X98122158Y-90934073D01*
X98082340Y-90894195D01*
X98035210Y-90863370D01*
X97982639Y-90841743D01*
X97926500Y-90829458D01*
X97868666Y-90826658D01*
X97811009Y-90833488D01*
X97755401Y-90850091D01*
X97703715Y-90876612D01*
X97657824Y-90913193D01*
X97631695Y-90942819D01*
X97605525Y-90988016D01*
X97591307Y-91037308D01*
X97588535Y-91088347D01*
X97596704Y-91138786D01*
X97615308Y-91186279D01*
X97643842Y-91228477D01*
X97681800Y-91263032D01*
X97703515Y-91276372D01*
X97735389Y-91293282D01*
X97735389Y-91734278D01*
X97298782Y-91734278D01*
X97296506Y-91383264D01*
X97295979Y-91303869D01*
X97295478Y-91237293D01*
X97294940Y-91182245D01*
X97294305Y-91137435D01*
X97293509Y-91101571D01*
X97292492Y-91073361D01*
X97291193Y-91051515D01*
X97289549Y-91034742D01*
X97287499Y-91021750D01*
X97284982Y-91011248D01*
X97281935Y-91001945D01*
X97278298Y-90992549D01*
X97277818Y-90991351D01*
X97251325Y-90943630D01*
X97213600Y-90902052D01*
X97166766Y-90868208D01*
X97112948Y-90843689D01*
X97064504Y-90831561D01*
X97046932Y-90829913D01*
X97016921Y-90828473D01*
X96976142Y-90827241D01*
X96926265Y-90826218D01*
X96868962Y-90825402D01*
X96805903Y-90824793D01*
X96738760Y-90824393D01*
X96669201Y-90824200D01*
X96598900Y-90824215D01*
X96529525Y-90824437D01*
X96462748Y-90824866D01*
X96400241Y-90825503D01*
X96343672Y-90826348D01*
X96294714Y-90827399D01*
X96255036Y-90828658D01*
X96226311Y-90830124D01*
X96211389Y-90831591D01*
X96149118Y-90847927D01*
X96094988Y-90875338D01*
X96049733Y-90913305D01*
X96014084Y-90961309D01*
X96005274Y-90977789D01*
X95982084Y-91024891D01*
X95982084Y-91525987D01*
X95982052Y-91626964D01*
X95982036Y-91714857D01*
X95982158Y-91790694D01*
X95982158Y-91790694D01*
G37*
X95982158Y-91790694D02*
X95982538Y-91855502D01*
X95983296Y-91910308D01*
X95984553Y-91956139D01*
X95986430Y-91994023D01*
X95989047Y-92024987D01*
X95992525Y-92050058D01*
X95996985Y-92070263D01*
X96002548Y-92086630D01*
X96009333Y-92100185D01*
X96017462Y-92111957D01*
X96027055Y-92122971D01*
X96038234Y-92134256D01*
X96051117Y-92146839D01*
X96055514Y-92151201D01*
X96087521Y-92180816D01*
X96117592Y-92202340D01*
X96148995Y-92216967D01*
X96185000Y-92225893D01*
X96228876Y-92230314D01*
X96274889Y-92231423D01*
X96318332Y-92230955D01*
X96351246Y-92229008D01*
X96377169Y-92225220D01*
X96399640Y-92219230D01*
X96401889Y-92218477D01*
X96459441Y-92195003D01*
X96512047Y-92166043D01*
X96557511Y-92133214D01*
X96593635Y-92098136D01*
X96618223Y-92062428D01*
X96620749Y-92057187D01*
X96631103Y-92022379D01*
X96634568Y-91984372D01*
X96628190Y-91935825D01*
X96608621Y-91891550D01*
X96575762Y-91851426D01*
X96529512Y-91815332D01*
X96469771Y-91783148D01*
X96467318Y-91782038D01*
X96416016Y-91758973D01*
X96416000Y-91332111D01*
X96852828Y-91332111D01*
X96854900Y-91683289D01*
X96856973Y-92034467D01*
X96880162Y-92081557D01*
X96912834Y-92132885D01*
X96955346Y-92174124D01*
X97007742Y-92205311D01*
X97062851Y-92224673D01*
X97079314Y-92227060D01*
X97108268Y-92229173D01*
X97148125Y-92231012D01*
X97197296Y-92232574D01*
X97254195Y-92233859D01*
X97317234Y-92234865D01*
X97384825Y-92235592D01*
X97455380Y-92236037D01*
X97527313Y-92236199D01*
X97599034Y-92236078D01*
X97668957Y-92235673D01*
X97735494Y-92234981D01*
X97797057Y-92234002D01*
X97852058Y-92232734D01*
X97898911Y-92231176D01*
X97936027Y-92229328D01*
X97961819Y-92227187D01*
X97972807Y-92225381D01*
X98031558Y-92202984D01*
X98083291Y-92169584D01*
X98126124Y-92126638D01*
X98152930Y-92085993D01*
X98169306Y-92055306D01*
X98171161Y-91540250D01*
X98173015Y-91025195D01*
X98152790Y-90982861D01*
X98122158Y-90934073D01*
X98082340Y-90894195D01*
X98035210Y-90863370D01*
X97982639Y-90841743D01*
X97926500Y-90829458D01*
X97868666Y-90826658D01*
X97811009Y-90833488D01*
X97755401Y-90850091D01*
X97703715Y-90876612D01*
X97657824Y-90913193D01*
X97631695Y-90942819D01*
X97605525Y-90988016D01*
X97591307Y-91037308D01*
X97588535Y-91088347D01*
X97596704Y-91138786D01*
X97615308Y-91186279D01*
X97643842Y-91228477D01*
X97681800Y-91263032D01*
X97703515Y-91276372D01*
X97735389Y-91293282D01*
X97735389Y-91734278D01*
X97298782Y-91734278D01*
X97296506Y-91383264D01*
X97295979Y-91303869D01*
X97295478Y-91237293D01*
X97294940Y-91182245D01*
X97294305Y-91137435D01*
X97293509Y-91101571D01*
X97292492Y-91073361D01*
X97291193Y-91051515D01*
X97289549Y-91034742D01*
X97287499Y-91021750D01*
X97284982Y-91011248D01*
X97281935Y-91001945D01*
X97278298Y-90992549D01*
X97277818Y-90991351D01*
X97251325Y-90943630D01*
X97213600Y-90902052D01*
X97166766Y-90868208D01*
X97112948Y-90843689D01*
X97064504Y-90831561D01*
X97046932Y-90829913D01*
X97016921Y-90828473D01*
X96976142Y-90827241D01*
X96926265Y-90826218D01*
X96868962Y-90825402D01*
X96805903Y-90824793D01*
X96738760Y-90824393D01*
X96669201Y-90824200D01*
X96598900Y-90824215D01*
X96529525Y-90824437D01*
X96462748Y-90824866D01*
X96400241Y-90825503D01*
X96343672Y-90826348D01*
X96294714Y-90827399D01*
X96255036Y-90828658D01*
X96226311Y-90830124D01*
X96211389Y-90831591D01*
X96149118Y-90847927D01*
X96094988Y-90875338D01*
X96049733Y-90913305D01*
X96014084Y-90961309D01*
X96005274Y-90977789D01*
X95982084Y-91024891D01*
X95982084Y-91525987D01*
X95982052Y-91626964D01*
X95982036Y-91714857D01*
X95982158Y-91790694D01*
G36*
X96000854Y-93746347D02*
X96029906Y-93794461D01*
X96067746Y-93835898D01*
X96111076Y-93867063D01*
X96112126Y-93867638D01*
X96122743Y-93873414D01*
X96132764Y-93878598D01*
X96142970Y-93883222D01*
X96154144Y-93887318D01*
X96167067Y-93890917D01*
X96182520Y-93894054D01*
X96201287Y-93896758D01*
X96224149Y-93899063D01*
X96251887Y-93901001D01*
X96285284Y-93902604D01*
X96325122Y-93903904D01*
X96372182Y-93904933D01*
X96427247Y-93905723D01*
X96491098Y-93906307D01*
X96564517Y-93906716D01*
X96648286Y-93906983D01*
X96743188Y-93907140D01*
X96850003Y-93907219D01*
X96969514Y-93907251D01*
X97076163Y-93907267D01*
X97221221Y-93907231D01*
X97352406Y-93907079D01*
X97469956Y-93906808D01*
X97574110Y-93906415D01*
X97665105Y-93905900D01*
X97743179Y-93905259D01*
X97808571Y-93904491D01*
X97861518Y-93903593D01*
X97902259Y-93902565D01*
X97931031Y-93901402D01*
X97948072Y-93900105D01*
X97951052Y-93899667D01*
X98006910Y-93883179D01*
X98058699Y-93856046D01*
X98103699Y-93820229D01*
X98139191Y-93777687D01*
X98152590Y-93754368D01*
X98169306Y-93720417D01*
X98170643Y-93208889D01*
X98170866Y-93108880D01*
X98170967Y-93022038D01*
X98170931Y-92947419D01*
X98170741Y-92884078D01*
X98170384Y-92831071D01*
X98169844Y-92787456D01*
X98169105Y-92752286D01*
X98168153Y-92724619D01*
X98166973Y-92703511D01*
X98165548Y-92688017D01*
X98163865Y-92677193D01*
X98161986Y-92670306D01*
X98138864Y-92625998D01*
X98104380Y-92584294D01*
X98061285Y-92547818D01*
X98012328Y-92519194D01*
X97996445Y-92512347D01*
X97991070Y-92510476D01*
X97984416Y-92508796D01*
X97975723Y-92507294D01*
X97964229Y-92505959D01*
X97949175Y-92504778D01*
X97929799Y-92503739D01*
X97905341Y-92502830D01*
X97875041Y-92502037D01*
X97838137Y-92501350D01*
X97793869Y-92500755D01*
X97741478Y-92500241D01*
X97680201Y-92499796D01*
X97609279Y-92499406D01*
X97527950Y-92499060D01*
X97435455Y-92498745D01*
X97331033Y-92498449D01*
X97213922Y-92498161D01*
X97100958Y-92497905D01*
X96960003Y-92497655D01*
X96829965Y-92497546D01*
X96711153Y-92497578D01*
X96603877Y-92497748D01*
X96508446Y-92498054D01*
X96425170Y-92498495D01*
X96416000Y-92498569D01*
X96416000Y-92997223D01*
X97735389Y-92997223D01*
X97735389Y-93406445D01*
X96416000Y-93406445D01*
X96416000Y-92997223D01*
X96416000Y-92498569D01*
X96354359Y-92499070D01*
X96296321Y-92499775D01*
X96251367Y-92500611D01*
X96219807Y-92501574D01*
X96201949Y-92502662D01*
X96199196Y-92503034D01*
X96142724Y-92520242D01*
X96091121Y-92549154D01*
X96046796Y-92587921D01*
X96012158Y-92634697D01*
X96002008Y-92654249D01*
X95982084Y-92697361D01*
X95982084Y-93706306D01*
X96000854Y-93746347D01*
X96000854Y-93746347D01*
G37*
X96000854Y-93746347D02*
X96029906Y-93794461D01*
X96067746Y-93835898D01*
X96111076Y-93867063D01*
X96112126Y-93867638D01*
X96122743Y-93873414D01*
X96132764Y-93878598D01*
X96142970Y-93883222D01*
X96154144Y-93887318D01*
X96167067Y-93890917D01*
X96182520Y-93894054D01*
X96201287Y-93896758D01*
X96224149Y-93899063D01*
X96251887Y-93901001D01*
X96285284Y-93902604D01*
X96325122Y-93903904D01*
X96372182Y-93904933D01*
X96427247Y-93905723D01*
X96491098Y-93906307D01*
X96564517Y-93906716D01*
X96648286Y-93906983D01*
X96743188Y-93907140D01*
X96850003Y-93907219D01*
X96969514Y-93907251D01*
X97076163Y-93907267D01*
X97221221Y-93907231D01*
X97352406Y-93907079D01*
X97469956Y-93906808D01*
X97574110Y-93906415D01*
X97665105Y-93905900D01*
X97743179Y-93905259D01*
X97808571Y-93904491D01*
X97861518Y-93903593D01*
X97902259Y-93902565D01*
X97931031Y-93901402D01*
X97948072Y-93900105D01*
X97951052Y-93899667D01*
X98006910Y-93883179D01*
X98058699Y-93856046D01*
X98103699Y-93820229D01*
X98139191Y-93777687D01*
X98152590Y-93754368D01*
X98169306Y-93720417D01*
X98170643Y-93208889D01*
X98170866Y-93108880D01*
X98170967Y-93022038D01*
X98170931Y-92947419D01*
X98170741Y-92884078D01*
X98170384Y-92831071D01*
X98169844Y-92787456D01*
X98169105Y-92752286D01*
X98168153Y-92724619D01*
X98166973Y-92703511D01*
X98165548Y-92688017D01*
X98163865Y-92677193D01*
X98161986Y-92670306D01*
X98138864Y-92625998D01*
X98104380Y-92584294D01*
X98061285Y-92547818D01*
X98012328Y-92519194D01*
X97996445Y-92512347D01*
X97991070Y-92510476D01*
X97984416Y-92508796D01*
X97975723Y-92507294D01*
X97964229Y-92505959D01*
X97949175Y-92504778D01*
X97929799Y-92503739D01*
X97905341Y-92502830D01*
X97875041Y-92502037D01*
X97838137Y-92501350D01*
X97793869Y-92500755D01*
X97741478Y-92500241D01*
X97680201Y-92499796D01*
X97609279Y-92499406D01*
X97527950Y-92499060D01*
X97435455Y-92498745D01*
X97331033Y-92498449D01*
X97213922Y-92498161D01*
X97100958Y-92497905D01*
X96960003Y-92497655D01*
X96829965Y-92497546D01*
X96711153Y-92497578D01*
X96603877Y-92497748D01*
X96508446Y-92498054D01*
X96425170Y-92498495D01*
X96416000Y-92498569D01*
X96416000Y-92997223D01*
X97735389Y-92997223D01*
X97735389Y-93406445D01*
X96416000Y-93406445D01*
X96416000Y-92997223D01*
X96416000Y-92498569D01*
X96354359Y-92499070D01*
X96296321Y-92499775D01*
X96251367Y-92500611D01*
X96219807Y-92501574D01*
X96201949Y-92502662D01*
X96199196Y-92503034D01*
X96142724Y-92520242D01*
X96091121Y-92549154D01*
X96046796Y-92587921D01*
X96012158Y-92634697D01*
X96002008Y-92654249D01*
X95982084Y-92697361D01*
X95982084Y-93706306D01*
X96000854Y-93746347D01*
G36*
X95251075Y-94622378D02*
X95266336Y-94637639D01*
X96594349Y-94639497D01*
X96775016Y-94639718D01*
X96941817Y-94639855D01*
X97094998Y-94639909D01*
X97234802Y-94639876D01*
X97361475Y-94639757D01*
X97475262Y-94639551D01*
X97576407Y-94639256D01*
X97665156Y-94638871D01*
X97741754Y-94638395D01*
X97806445Y-94637828D01*
X97859474Y-94637168D01*
X97901086Y-94636415D01*
X97931527Y-94635566D01*
X97951041Y-94634622D01*
X97959188Y-94633750D01*
X98016646Y-94615370D01*
X98068814Y-94585912D01*
X98113255Y-94547163D01*
X98147532Y-94500913D01*
X98152430Y-94491938D01*
X98162605Y-94462978D01*
X98169132Y-94425611D01*
X98171694Y-94385145D01*
X98169973Y-94346886D01*
X98163651Y-94316140D01*
X98163056Y-94314481D01*
X98137022Y-94264406D01*
X98098790Y-94220093D01*
X98049501Y-94182694D01*
X98013591Y-94163345D01*
X97971750Y-94143750D01*
X97029834Y-94143750D01*
X96895061Y-94143758D01*
X96773649Y-94143787D01*
X96664847Y-94143848D01*
X96567906Y-94143950D01*
X96482074Y-94144103D01*
X96406601Y-94144318D01*
X96340737Y-94144602D01*
X96283731Y-94144968D01*
X96234834Y-94145424D01*
X96193294Y-94145979D01*
X96158362Y-94146645D01*
X96129286Y-94147431D01*
X96105318Y-94148346D01*
X96085705Y-94149400D01*
X96069698Y-94150603D01*
X96056547Y-94151966D01*
X96045501Y-94153497D01*
X96035809Y-94155207D01*
X96027945Y-94156836D01*
X95954347Y-94175701D01*
X95873527Y-94201289D01*
X95789656Y-94231996D01*
X95706903Y-94266216D01*
X95629438Y-94302345D01*
X95574105Y-94331527D01*
X95513150Y-94367562D01*
X95454240Y-94405740D01*
X95399136Y-94444691D01*
X95349603Y-94483046D01*
X95307402Y-94519439D01*
X95274297Y-94552501D01*
X95252050Y-94580862D01*
X95251270Y-94582107D01*
X95235814Y-94607116D01*
X95251075Y-94622378D01*
X95251075Y-94622378D01*
G37*
X95251075Y-94622378D02*
X95266336Y-94637639D01*
X96594349Y-94639497D01*
X96775016Y-94639718D01*
X96941817Y-94639855D01*
X97094998Y-94639909D01*
X97234802Y-94639876D01*
X97361475Y-94639757D01*
X97475262Y-94639551D01*
X97576407Y-94639256D01*
X97665156Y-94638871D01*
X97741754Y-94638395D01*
X97806445Y-94637828D01*
X97859474Y-94637168D01*
X97901086Y-94636415D01*
X97931527Y-94635566D01*
X97951041Y-94634622D01*
X97959188Y-94633750D01*
X98016646Y-94615370D01*
X98068814Y-94585912D01*
X98113255Y-94547163D01*
X98147532Y-94500913D01*
X98152430Y-94491938D01*
X98162605Y-94462978D01*
X98169132Y-94425611D01*
X98171694Y-94385145D01*
X98169973Y-94346886D01*
X98163651Y-94316140D01*
X98163056Y-94314481D01*
X98137022Y-94264406D01*
X98098790Y-94220093D01*
X98049501Y-94182694D01*
X98013591Y-94163345D01*
X97971750Y-94143750D01*
X97029834Y-94143750D01*
X96895061Y-94143758D01*
X96773649Y-94143787D01*
X96664847Y-94143848D01*
X96567906Y-94143950D01*
X96482074Y-94144103D01*
X96406601Y-94144318D01*
X96340737Y-94144602D01*
X96283731Y-94144968D01*
X96234834Y-94145424D01*
X96193294Y-94145979D01*
X96158362Y-94146645D01*
X96129286Y-94147431D01*
X96105318Y-94148346D01*
X96085705Y-94149400D01*
X96069698Y-94150603D01*
X96056547Y-94151966D01*
X96045501Y-94153497D01*
X96035809Y-94155207D01*
X96027945Y-94156836D01*
X95954347Y-94175701D01*
X95873527Y-94201289D01*
X95789656Y-94231996D01*
X95706903Y-94266216D01*
X95629438Y-94302345D01*
X95574105Y-94331527D01*
X95513150Y-94367562D01*
X95454240Y-94405740D01*
X95399136Y-94444691D01*
X95349603Y-94483046D01*
X95307402Y-94519439D01*
X95274297Y-94552501D01*
X95252050Y-94580862D01*
X95251270Y-94582107D01*
X95235814Y-94607116D01*
X95251075Y-94622378D01*
G36*
X95979877Y-95889087D02*
X95980348Y-95960238D01*
X95981084Y-96019128D01*
X95982080Y-96065323D01*
X95983332Y-96098385D01*
X95984836Y-96117881D01*
X95985241Y-96120531D01*
X96002398Y-96176612D01*
X96031766Y-96225703D01*
X96073196Y-96267621D01*
X96126539Y-96302185D01*
X96139258Y-96308501D01*
X96186695Y-96330973D01*
X97019250Y-96330973D01*
X97062287Y-96311082D01*
X97100555Y-96288315D01*
X97138317Y-96256997D01*
X97171574Y-96221042D01*
X97196321Y-96184367D01*
X97200616Y-96175750D01*
X97204260Y-96167583D01*
X97207320Y-96159481D01*
X97209853Y-96150181D01*
X97211919Y-96138418D01*
X97213577Y-96122927D01*
X97214886Y-96102444D01*
X97215905Y-96075704D01*
X97216693Y-96041443D01*
X97217309Y-95998396D01*
X97217812Y-95945298D01*
X97218261Y-95880885D01*
X97218716Y-95803893D01*
X97218818Y-95785931D01*
X97220830Y-95431389D01*
X97742445Y-95431389D01*
X97742445Y-95868471D01*
X97719514Y-95880281D01*
X97670549Y-95912431D01*
X97633095Y-95952667D01*
X97606831Y-96001389D01*
X97597062Y-96031851D01*
X97590172Y-96085482D01*
X97596446Y-96137722D01*
X97614937Y-96187049D01*
X97644700Y-96231942D01*
X97684789Y-96270882D01*
X97734256Y-96302347D01*
X97776321Y-96319917D01*
X97818523Y-96329681D01*
X97868069Y-96334254D01*
X97919144Y-96333544D01*
X97965934Y-96327453D01*
X97982817Y-96323294D01*
X98038294Y-96300167D01*
X98087539Y-96265920D01*
X98128206Y-96222541D01*
X98155812Y-96176735D01*
X98172696Y-96140473D01*
X98172696Y-95124473D01*
X98155812Y-95088210D01*
X98124792Y-95037802D01*
X98083259Y-94995225D01*
X98033496Y-94962368D01*
X97977873Y-94941139D01*
X97970261Y-94939501D01*
X97960416Y-94938039D01*
X97947584Y-94936746D01*
X97931015Y-94935613D01*
X97909957Y-94934633D01*
X97883659Y-94933799D01*
X97851369Y-94933104D01*
X97812335Y-94932540D01*
X97765806Y-94932099D01*
X97711031Y-94931775D01*
X97647257Y-94931559D01*
X97573735Y-94931445D01*
X97489711Y-94931425D01*
X97394435Y-94931491D01*
X97287155Y-94931636D01*
X97167119Y-94931852D01*
X97060885Y-94932074D01*
X96931289Y-94932364D01*
X96815048Y-94932651D01*
X96711407Y-94932946D01*
X96619610Y-94933261D01*
X96538901Y-94933608D01*
X96468525Y-94934000D01*
X96416000Y-94934387D01*
X96416000Y-95431389D01*
X96789945Y-95431389D01*
X96789945Y-95833556D01*
X96416000Y-95833556D01*
X96416000Y-95431389D01*
X96416000Y-94934387D01*
X96407725Y-94934448D01*
X96355747Y-94934965D01*
X96311834Y-94935562D01*
X96275231Y-94936251D01*
X96245182Y-94937045D01*
X96220931Y-94937956D01*
X96201723Y-94938995D01*
X96186801Y-94940175D01*
X96175411Y-94941508D01*
X96166797Y-94943005D01*
X96160202Y-94944680D01*
X96154945Y-94946513D01*
X96099527Y-94975237D01*
X96052372Y-95013694D01*
X96015256Y-95060176D01*
X95994297Y-95101199D01*
X95991891Y-95108237D01*
X95989810Y-95117119D01*
X95988025Y-95128894D01*
X95986506Y-95144607D01*
X95985225Y-95165307D01*
X95984150Y-95192040D01*
X95983254Y-95225855D01*
X95982506Y-95267797D01*
X95981878Y-95318915D01*
X95981339Y-95380256D01*
X95980861Y-95452867D01*
X95980413Y-95537795D01*
X95980097Y-95606428D01*
X95979747Y-95711747D01*
X95979675Y-95806112D01*
X95979877Y-95889087D01*
X95979877Y-95889087D01*
G37*
X95979877Y-95889087D02*
X95980348Y-95960238D01*
X95981084Y-96019128D01*
X95982080Y-96065323D01*
X95983332Y-96098385D01*
X95984836Y-96117881D01*
X95985241Y-96120531D01*
X96002398Y-96176612D01*
X96031766Y-96225703D01*
X96073196Y-96267621D01*
X96126539Y-96302185D01*
X96139258Y-96308501D01*
X96186695Y-96330973D01*
X97019250Y-96330973D01*
X97062287Y-96311082D01*
X97100555Y-96288315D01*
X97138317Y-96256997D01*
X97171574Y-96221042D01*
X97196321Y-96184367D01*
X97200616Y-96175750D01*
X97204260Y-96167583D01*
X97207320Y-96159481D01*
X97209853Y-96150181D01*
X97211919Y-96138418D01*
X97213577Y-96122927D01*
X97214886Y-96102444D01*
X97215905Y-96075704D01*
X97216693Y-96041443D01*
X97217309Y-95998396D01*
X97217812Y-95945298D01*
X97218261Y-95880885D01*
X97218716Y-95803893D01*
X97218818Y-95785931D01*
X97220830Y-95431389D01*
X97742445Y-95431389D01*
X97742445Y-95868471D01*
X97719514Y-95880281D01*
X97670549Y-95912431D01*
X97633095Y-95952667D01*
X97606831Y-96001389D01*
X97597062Y-96031851D01*
X97590172Y-96085482D01*
X97596446Y-96137722D01*
X97614937Y-96187049D01*
X97644700Y-96231942D01*
X97684789Y-96270882D01*
X97734256Y-96302347D01*
X97776321Y-96319917D01*
X97818523Y-96329681D01*
X97868069Y-96334254D01*
X97919144Y-96333544D01*
X97965934Y-96327453D01*
X97982817Y-96323294D01*
X98038294Y-96300167D01*
X98087539Y-96265920D01*
X98128206Y-96222541D01*
X98155812Y-96176735D01*
X98172696Y-96140473D01*
X98172696Y-95124473D01*
X98155812Y-95088210D01*
X98124792Y-95037802D01*
X98083259Y-94995225D01*
X98033496Y-94962368D01*
X97977873Y-94941139D01*
X97970261Y-94939501D01*
X97960416Y-94938039D01*
X97947584Y-94936746D01*
X97931015Y-94935613D01*
X97909957Y-94934633D01*
X97883659Y-94933799D01*
X97851369Y-94933104D01*
X97812335Y-94932540D01*
X97765806Y-94932099D01*
X97711031Y-94931775D01*
X97647257Y-94931559D01*
X97573735Y-94931445D01*
X97489711Y-94931425D01*
X97394435Y-94931491D01*
X97287155Y-94931636D01*
X97167119Y-94931852D01*
X97060885Y-94932074D01*
X96931289Y-94932364D01*
X96815048Y-94932651D01*
X96711407Y-94932946D01*
X96619610Y-94933261D01*
X96538901Y-94933608D01*
X96468525Y-94934000D01*
X96416000Y-94934387D01*
X96416000Y-95431389D01*
X96789945Y-95431389D01*
X96789945Y-95833556D01*
X96416000Y-95833556D01*
X96416000Y-95431389D01*
X96416000Y-94934387D01*
X96407725Y-94934448D01*
X96355747Y-94934965D01*
X96311834Y-94935562D01*
X96275231Y-94936251D01*
X96245182Y-94937045D01*
X96220931Y-94937956D01*
X96201723Y-94938995D01*
X96186801Y-94940175D01*
X96175411Y-94941508D01*
X96166797Y-94943005D01*
X96160202Y-94944680D01*
X96154945Y-94946513D01*
X96099527Y-94975237D01*
X96052372Y-95013694D01*
X96015256Y-95060176D01*
X95994297Y-95101199D01*
X95991891Y-95108237D01*
X95989810Y-95117119D01*
X95988025Y-95128894D01*
X95986506Y-95144607D01*
X95985225Y-95165307D01*
X95984150Y-95192040D01*
X95983254Y-95225855D01*
X95982506Y-95267797D01*
X95981878Y-95318915D01*
X95981339Y-95380256D01*
X95980861Y-95452867D01*
X95980413Y-95537795D01*
X95980097Y-95606428D01*
X95979747Y-95711747D01*
X95979675Y-95806112D01*
X95979877Y-95889087D01*
M02*
