M48
;DRILL file {KiCad 4.0.4-snap1-stable} date Wed Jun 19 19:26:11 2019
;FORMAT={-:-/ absolute / metric / decimal}
FMAT,2
METRIC,TZ
T1C0.400
T2C0.600
T3C0.700
T4C0.800
T5C1.000
T6C1.100
T7C1.300
T8C2.200
%
G90
G05
M71
T1
X103.5Y-95.25
X120.5Y-103.75
X128.5Y-94.75
X134.25Y-94.
X136.5Y-101.5
X144.5Y-88.5
X144.75Y-80.75
X148.75Y-80.
X149.Y-84.
X149.25Y-86.
X153.Y-88.
X153.25Y-84.75
X154.75Y-105.25
X155.Y-81.
X155.25Y-83.75
X156.Y-105.25
X156.25Y-90.5
X156.75Y-109.25
X157.Y-88.5
X158.25Y-98.
X159.5Y-102.5
X159.5Y-110.25
X160.Y-89.75
X160.75Y-107.
X161.Y-83.
X161.014Y-87.
X163.5Y-83.
X164.5Y-78.
X164.75Y-81.
X165.Y-100.
X165.25Y-107.
X167.Y-93.
X167.25Y-94.5
X168.75Y-78.5
X168.75Y-82.5
X172.Y-90.5
X172.Y-91.75
X172.5Y-72.75
X177.75Y-109.
X187.5Y-105.
X188.25Y-106.75
T2
X113.Y-106.5
X113.Y-108.
X113.75Y-83.5
X113.75Y-85.
X178.Y-104.25
X178.Y-105.75
X196.Y-107.75
X197.5Y-107.75
X202.Y-98.
X203.5Y-98.
T3
X94.75Y-106.25
X94.75Y-111.33
X97.67Y-119.5
X102.75Y-119.5
X114.17Y-114.5
X116.25Y-96.75
X116.25Y-101.83
X119.25Y-114.5
X126.17Y-89.5
X131.25Y-89.5
X142.Y-72.5
X147.08Y-72.5
X166.17Y-102.75
X170.25Y-80.25
X170.25Y-85.33
X170.25Y-87.92
X170.25Y-93.
X171.Y-77.5
X171.25Y-102.75
X173.25Y-80.25
X173.25Y-85.33
X176.Y-80.5
X176.08Y-77.5
X181.08Y-80.5
X181.67Y-74.
X186.75Y-74.
T4
X94.5Y-100.25
X97.Y-100.25
X97.75Y-108.75
X97.75Y-111.25
X97.75Y-114.
X97.75Y-116.5
X98.Y-105.75
X100.Y-76.5
X100.5Y-105.75
X101.25Y-108.75
X101.25Y-111.29
X101.25Y-113.83
X101.25Y-116.37
X102.54Y-76.5
X105.08Y-76.5
X107.62Y-76.5
X108.87Y-108.75
X108.87Y-111.29
X108.87Y-113.83
X108.87Y-116.37
X110.16Y-76.5
X111.5Y-111.75
X111.5Y-114.25
X112.25Y-117.5
X114.25Y-111.75
X114.75Y-117.5
X116.75Y-111.75
X117.5Y-83.
X117.5Y-85.5
X126.25Y-92.25
X128.75Y-92.25
X144.Y-75.5
X145.Y-96.5
X145.Y-99.
X145.25Y-92.
X146.5Y-75.5
X147.75Y-92.
X152.Y-96.5
X152.Y-99.
X161.22Y-111.
X161.22Y-118.62
X163.76Y-111.
X163.76Y-118.62
X166.3Y-111.
X166.3Y-118.62
X168.84Y-111.
X168.84Y-118.62
X171.38Y-111.
X171.38Y-118.62
X173.92Y-111.
X173.92Y-118.62
X174.Y-103.5
X174.Y-106.
X175.75Y-74.25
X176.46Y-111.
X176.46Y-118.62
X178.25Y-74.25
X179.Y-111.
X179.Y-118.62
X182.Y-77.
X182.Y-118.5
X184.5Y-118.5
X184.54Y-77.
X187.08Y-77.
X189.25Y-113.
X189.25Y-115.5
X189.62Y-77.
X192.16Y-77.
X208.Y-79.
X208.Y-81.
X208.Y-83.
T5
X123.Y-83.
X123.Y-85.54
X123.Y-88.08
X123.Y-90.62
X123.Y-93.16
X123.Y-95.7
X123.Y-98.24
X123.Y-100.78
X173.3Y-71.
X175.84Y-71.
X176.Y-88.
X176.Y-90.54
X176.Y-93.08
X176.Y-95.62
X177.Y-84.
X177.Y-100.
X178.38Y-71.
X180.92Y-71.
X183.46Y-71.
X186.Y-71.
X203.Y-103.3
X203.Y-116.
T6
X94.Y-89.
X94.Y-93.5
X100.5Y-89.
X100.5Y-93.5
X102.Y-81.
X102.Y-85.5
X102.Y-97.
X102.Y-101.5
X108.5Y-81.
X108.5Y-85.5
X108.5Y-97.
X108.5Y-101.5
X110.Y-89.
X110.Y-93.5
X116.5Y-89.
X116.5Y-93.5
X132.25Y-112.25
X132.25Y-118.75
X136.75Y-112.25
X136.75Y-118.75
X183.Y-89.
X183.Y-93.5
X189.5Y-89.
X189.5Y-93.5
X191.Y-81.
X191.Y-85.5
X191.Y-97.
X191.Y-101.5
X197.5Y-81.
X197.5Y-85.5
X197.5Y-97.
X197.5Y-101.5
X199.Y-89.
X199.Y-93.5
X205.5Y-89.
X205.5Y-93.5
T7
X208.Y-76.7
X208.Y-85.3
T8
X94.Y-73.
X94.Y-119.
X206.Y-73.
X206.Y-119.
T0
M30
