G04 #@! TF.FileFunction,Soldermask,Top*
%FSLAX46Y46*%
G04 Gerber Fmt 4.6, Leading zero omitted, Abs format (unit mm)*
G04 Created by KiCad (PCBNEW 4.0.4-snap1-stable) date Wed Jun 19 19:26:08 2019*
%MOMM*%
%LPD*%
G01*
G04 APERTURE LIST*
%ADD10C,0.150000*%
%ADD11R,1.650000X1.650000*%
%ADD12C,1.650000*%
%ADD13R,1.750000X1.750000*%
%ADD14O,1.750000X1.750000*%
%ADD15R,1.250000X1.250000*%
%ADD16C,1.250000*%
%ADD17R,1.050000X1.950000*%
%ADD18R,1.050000X2.250000*%
%ADD19R,2.250000X1.890000*%
%ADD20C,2.050000*%
%ADD21O,2.050000X2.050000*%
%ADD22O,3.050000X1.850000*%
%ADD23C,1.450000*%
%ADD24O,1.450000X1.450000*%
%ADD25R,2.550000X1.150000*%
%ADD26O,2.550000X1.150000*%
%ADD27R,0.650000X1.800000*%
%ADD28R,1.800000X0.650000*%
%ADD29O,1.650000X1.650000*%
%ADD30R,1.650000X3.650000*%
%ADD31C,3.550000*%
G04 APERTURE END LIST*
D10*
D11*
X145000000Y-96500000D03*
D12*
X145000000Y-99000000D03*
X111500000Y-111750000D03*
X111500000Y-114250000D03*
D13*
X177000000Y-84000000D03*
X177000000Y-100000000D03*
X186000000Y-71000000D03*
D14*
X183460000Y-71000000D03*
X180920000Y-71000000D03*
X178380000Y-71000000D03*
X175840000Y-71000000D03*
X173300000Y-71000000D03*
D11*
X152000000Y-96500000D03*
D12*
X152000000Y-99000000D03*
D15*
X197500000Y-107750000D03*
D16*
X196000000Y-107750000D03*
D12*
X145250000Y-92000000D03*
X147750000Y-92000000D03*
D10*
G36*
X194875000Y-111783000D02*
X195475000Y-110883000D01*
X196525000Y-110883000D01*
X197125000Y-111783000D01*
X194875000Y-111783000D01*
X194875000Y-111783000D01*
G37*
D17*
X194500000Y-115680000D03*
D18*
X196000000Y-115533500D03*
D17*
X197500000Y-115680000D03*
D19*
X196000000Y-112666500D03*
D10*
G36*
X197125000Y-113551200D02*
X196425000Y-114601200D01*
X195575000Y-114601200D01*
X194875000Y-113551200D01*
X197125000Y-113551200D01*
X197125000Y-113551200D01*
G37*
D15*
X202000000Y-98000000D03*
D16*
X203500000Y-98000000D03*
D20*
X203000000Y-116000000D03*
D21*
X203000000Y-103300000D03*
D22*
X208000000Y-85300000D03*
X208000000Y-76700000D03*
D12*
X208000000Y-83000000D03*
X208000000Y-79000000D03*
X208000000Y-81000000D03*
D23*
X186750000Y-74000000D03*
D24*
X181670000Y-74000000D03*
D12*
X178250000Y-74250000D03*
X175750000Y-74250000D03*
D23*
X171000000Y-77500000D03*
D24*
X176080000Y-77500000D03*
D23*
X176000000Y-80500000D03*
D24*
X181080000Y-80500000D03*
D23*
X142000000Y-72500000D03*
D24*
X147080000Y-72500000D03*
D11*
X189250000Y-113000000D03*
D12*
X189250000Y-115500000D03*
X117500000Y-85500000D03*
X117500000Y-83000000D03*
D23*
X170250000Y-93000000D03*
D24*
X170250000Y-87920000D03*
D23*
X173250000Y-80250000D03*
D24*
X173250000Y-85330000D03*
D23*
X170250000Y-80250000D03*
D24*
X170250000Y-85330000D03*
D25*
X151300000Y-78000000D03*
D26*
X151300000Y-80000000D03*
X151300000Y-82000000D03*
X151300000Y-84000000D03*
X151300000Y-86000000D03*
X151300000Y-88000000D03*
X151300000Y-90000000D03*
X151300000Y-92000000D03*
X166700000Y-92000000D03*
X166600000Y-90000000D03*
X166700000Y-88000000D03*
X166700000Y-86000000D03*
X166700000Y-84000000D03*
X166700000Y-82000000D03*
X166700000Y-80000000D03*
X166700000Y-78000000D03*
D12*
X144000000Y-75500000D03*
X146500000Y-75500000D03*
D27*
X147155000Y-78450000D03*
X145885000Y-78450000D03*
X144615000Y-78450000D03*
X143345000Y-78450000D03*
X143345000Y-84050000D03*
X144615000Y-84050000D03*
X145885000Y-84050000D03*
X147155000Y-84050000D03*
D15*
X178000000Y-104250000D03*
D16*
X178000000Y-105750000D03*
D12*
X174000000Y-106000000D03*
X174000000Y-103500000D03*
D23*
X171250000Y-102750000D03*
D24*
X166170000Y-102750000D03*
D28*
X166200000Y-96095000D03*
X166200000Y-97365000D03*
X166200000Y-98635000D03*
X166200000Y-99905000D03*
X171800000Y-99905000D03*
X171800000Y-98635000D03*
X171800000Y-97365000D03*
X171800000Y-96095000D03*
D12*
X97750000Y-108750000D03*
X97750000Y-111250000D03*
D23*
X94750000Y-106250000D03*
D24*
X94750000Y-111330000D03*
D11*
X94500000Y-100250000D03*
D12*
X97000000Y-100250000D03*
X98000000Y-105750000D03*
X100500000Y-105750000D03*
X97750000Y-114000000D03*
X97750000Y-116500000D03*
D23*
X102750000Y-119500000D03*
D24*
X97670000Y-119500000D03*
D12*
X114750000Y-117500000D03*
X112250000Y-117500000D03*
D23*
X119250000Y-114500000D03*
D24*
X114170000Y-114500000D03*
D12*
X114250000Y-111750000D03*
X116750000Y-111750000D03*
D15*
X113000000Y-108000000D03*
D16*
X113000000Y-106500000D03*
D11*
X101250000Y-108750000D03*
D29*
X108870000Y-116370000D03*
X101250000Y-111290000D03*
X108870000Y-113830000D03*
X101250000Y-113830000D03*
X108870000Y-111290000D03*
X101250000Y-116370000D03*
X108870000Y-108750000D03*
D30*
X156800000Y-112000000D03*
X143200000Y-112000000D03*
D13*
X176000000Y-88000000D03*
D14*
X176000000Y-90540000D03*
X176000000Y-93080000D03*
X176000000Y-95620000D03*
D11*
X100000000Y-76500000D03*
D29*
X102540000Y-76500000D03*
X105080000Y-76500000D03*
X107620000Y-76500000D03*
X110160000Y-76500000D03*
D11*
X182000000Y-77000000D03*
D29*
X184540000Y-77000000D03*
X187080000Y-77000000D03*
X189620000Y-77000000D03*
X192160000Y-77000000D03*
D20*
X102000000Y-85500000D03*
X102000000Y-81000000D03*
X108500000Y-85500000D03*
X108500000Y-81000000D03*
X110000000Y-93500000D03*
X110000000Y-89000000D03*
X116500000Y-93500000D03*
X116500000Y-89000000D03*
X94000000Y-93500000D03*
X94000000Y-89000000D03*
X100500000Y-93500000D03*
X100500000Y-89000000D03*
X102000000Y-101500000D03*
X102000000Y-97000000D03*
X108500000Y-101500000D03*
X108500000Y-97000000D03*
X191000000Y-101500000D03*
X191000000Y-97000000D03*
X197500000Y-101500000D03*
X197500000Y-97000000D03*
X199000000Y-93500000D03*
X199000000Y-89000000D03*
X205500000Y-93500000D03*
X205500000Y-89000000D03*
X191000000Y-85500000D03*
X191000000Y-81000000D03*
X197500000Y-85500000D03*
X197500000Y-81000000D03*
X183000000Y-93500000D03*
X183000000Y-89000000D03*
X189500000Y-93500000D03*
X189500000Y-89000000D03*
X136750000Y-118750000D03*
X132250000Y-118750000D03*
X136750000Y-112250000D03*
X132250000Y-112250000D03*
D12*
X184500000Y-118500000D03*
X182000000Y-118500000D03*
D11*
X179000000Y-111000000D03*
D29*
X161220000Y-118620000D03*
X176460000Y-111000000D03*
X163760000Y-118620000D03*
X173920000Y-111000000D03*
X166300000Y-118620000D03*
X171380000Y-111000000D03*
X168840000Y-118620000D03*
X168840000Y-111000000D03*
X171380000Y-118620000D03*
X166300000Y-111000000D03*
X173920000Y-118620000D03*
X163760000Y-111000000D03*
X176460000Y-118620000D03*
X161220000Y-111000000D03*
X179000000Y-118620000D03*
D23*
X116250000Y-96750000D03*
D24*
X116250000Y-101830000D03*
D23*
X131250000Y-89500000D03*
D24*
X126170000Y-89500000D03*
D12*
X128750000Y-92250000D03*
X126250000Y-92250000D03*
D15*
X113750000Y-83500000D03*
D16*
X113750000Y-85000000D03*
D13*
X123000000Y-83000000D03*
D14*
X123000000Y-85540000D03*
X123000000Y-88080000D03*
X123000000Y-90620000D03*
X123000000Y-93160000D03*
X123000000Y-95700000D03*
X123000000Y-98240000D03*
X123000000Y-100780000D03*
D31*
X94000000Y-73000000D03*
X94000000Y-119000000D03*
X206000000Y-73000000D03*
X206000000Y-119000000D03*
M02*
