G04 #@! TF.FileFunction,Paste,Top*
%FSLAX46Y46*%
G04 Gerber Fmt 4.6, Leading zero omitted, Abs format (unit mm)*
G04 Created by KiCad (PCBNEW 4.0.4-snap1-stable) date Wed Jun 19 19:26:08 2019*
%MOMM*%
%LPD*%
G01*
G04 APERTURE LIST*
%ADD10C,0.150000*%
%ADD11R,1.000000X1.900000*%
%ADD12R,1.000000X2.200000*%
%ADD13R,2.200000X1.840000*%
%ADD14R,2.500000X1.100000*%
%ADD15O,2.500000X1.100000*%
%ADD16R,0.600000X1.750000*%
%ADD17R,1.750000X0.600000*%
G04 APERTURE END LIST*
D10*
G36*
X194900000Y-111758000D02*
X195500000Y-110908000D01*
X196500000Y-110908000D01*
X197100000Y-111758000D01*
X194900000Y-111758000D01*
X194900000Y-111758000D01*
G37*
D11*
X194500000Y-115680000D03*
D12*
X196000000Y-115533500D03*
D11*
X197500000Y-115680000D03*
D13*
X196000000Y-112666500D03*
D10*
G36*
X197100000Y-113576200D02*
X196400000Y-114576200D01*
X195600000Y-114576200D01*
X194900000Y-113576200D01*
X197100000Y-113576200D01*
X197100000Y-113576200D01*
G37*
D14*
X151300000Y-78000000D03*
D15*
X151300000Y-80000000D03*
X151300000Y-82000000D03*
X151300000Y-84000000D03*
X151300000Y-86000000D03*
X151300000Y-88000000D03*
X151300000Y-90000000D03*
X151300000Y-92000000D03*
X166700000Y-92000000D03*
X166600000Y-90000000D03*
X166700000Y-88000000D03*
X166700000Y-86000000D03*
X166700000Y-84000000D03*
X166700000Y-82000000D03*
X166700000Y-80000000D03*
X166700000Y-78000000D03*
D16*
X147155000Y-78450000D03*
X145885000Y-78450000D03*
X144615000Y-78450000D03*
X143345000Y-78450000D03*
X143345000Y-84050000D03*
X144615000Y-84050000D03*
X145885000Y-84050000D03*
X147155000Y-84050000D03*
D17*
X166200000Y-96095000D03*
X166200000Y-97365000D03*
X166200000Y-98635000D03*
X166200000Y-99905000D03*
X171800000Y-99905000D03*
X171800000Y-98635000D03*
X171800000Y-97365000D03*
X171800000Y-96095000D03*
M02*
