G04 #@! TF.FileFunction,Soldermask,Top*
%FSLAX46Y46*%
G04 Gerber Fmt 4.6, Leading zero omitted, Abs format (unit mm)*
G04 Created by KiCad (PCBNEW 4.0.4-snap1-stable) date Fri May 24 02:00:32 2019*
%MOMM*%
%LPD*%
G01*
G04 APERTURE LIST*
%ADD10C,0.150000*%
%ADD11R,1.750000X1.750000*%
%ADD12O,1.750000X1.750000*%
%ADD13R,2.450000X1.510000*%
%ADD14R,1.510000X2.450000*%
%ADD15R,1.050000X0.720000*%
%ADD16R,0.650000X1.600000*%
%ADD17R,0.700000X1.110000*%
%ADD18R,0.720000X1.050000*%
%ADD19R,0.850000X2.750000*%
%ADD20R,1.650000X1.250000*%
%ADD21R,1.550000X1.020000*%
%ADD22R,2.150000X1.650000*%
%ADD23R,1.950000X1.950000*%
%ADD24R,0.450000X1.400000*%
%ADD25R,1.850000X1.950000*%
%ADD26R,2.850000X1.050000*%
%ADD27R,1.050000X0.750000*%
%ADD28C,0.950000*%
%ADD29R,0.850000X0.550000*%
%ADD30R,0.850000X0.450000*%
%ADD31R,2.550000X1.150000*%
%ADD32O,2.550000X1.150000*%
%ADD33R,1.600000X0.650000*%
%ADD34R,1.650000X3.650000*%
%ADD35C,1.250000*%
%ADD36R,0.750000X1.650000*%
%ADD37R,0.650000X1.650000*%
%ADD38R,1.250000X2.250000*%
%ADD39R,1.650000X1.450000*%
%ADD40R,1.150000X1.450000*%
%ADD41R,0.550000X0.850000*%
%ADD42R,0.450000X0.850000*%
%ADD43R,1.550000X1.450000*%
%ADD44R,1.550000X0.650000*%
%ADD45R,5.050000X0.450000*%
%ADD46C,3.550000*%
%ADD47C,2.000000*%
G04 APERTURE END LIST*
D10*
D11*
X193750000Y-70000000D03*
X197000000Y-70000000D03*
X189500000Y-70000000D03*
D12*
X186960000Y-70000000D03*
X184420000Y-70000000D03*
X181880000Y-70000000D03*
X179340000Y-70000000D03*
X176800000Y-70000000D03*
D13*
X193000000Y-105230000D03*
X193000000Y-102270000D03*
D14*
X198520000Y-94500000D03*
X201480000Y-94500000D03*
D15*
X197750000Y-105625000D03*
X197750000Y-103875000D03*
X195750000Y-105625000D03*
X195750000Y-103875000D03*
D16*
X199655000Y-76550000D03*
X198385000Y-76550000D03*
X197115000Y-76550000D03*
X195845000Y-76550000D03*
X195845000Y-81950000D03*
X197115000Y-81950000D03*
X198385000Y-81950000D03*
X199655000Y-81950000D03*
D15*
X194000000Y-75375000D03*
X194000000Y-73625000D03*
D17*
X199800000Y-101600000D03*
X200750000Y-101600000D03*
X201700000Y-101600000D03*
X201700000Y-99400000D03*
X199800000Y-99400000D03*
D15*
X196250000Y-99125000D03*
X196250000Y-100875000D03*
X198000000Y-99125000D03*
X198000000Y-97375000D03*
D18*
X199875000Y-97500000D03*
X201625000Y-97500000D03*
D15*
X189000000Y-72875000D03*
X189000000Y-74625000D03*
D19*
X201850000Y-104500000D03*
X199650000Y-104500000D03*
D16*
X182095000Y-80950000D03*
X183365000Y-80950000D03*
X184635000Y-80950000D03*
X185905000Y-80950000D03*
X185905000Y-75550000D03*
X184635000Y-75550000D03*
X183365000Y-75550000D03*
X182095000Y-75550000D03*
D20*
X184800000Y-77650000D03*
X183200000Y-77650000D03*
X184800000Y-78850000D03*
X183200000Y-78850000D03*
D21*
X173750000Y-71955000D03*
X173750000Y-70045000D03*
D18*
X183125000Y-83000000D03*
X184875000Y-83000000D03*
X183375000Y-73000000D03*
X185125000Y-73000000D03*
D22*
X186900000Y-110450000D03*
X193100000Y-110450000D03*
D23*
X188800000Y-113000000D03*
X191200000Y-113000000D03*
D24*
X188700000Y-110325000D03*
X189350000Y-110325000D03*
X190000000Y-110325000D03*
X190650000Y-110325000D03*
X191300000Y-110325000D03*
D25*
X186200000Y-113000000D03*
X193800000Y-113000000D03*
D26*
X203700000Y-83100000D03*
D27*
X201800000Y-81500000D03*
X201800000Y-77000000D03*
X201800000Y-78500000D03*
D26*
X203700000Y-75150000D03*
D28*
X203600000Y-80750000D03*
X203650000Y-77750000D03*
D29*
X149850000Y-79050000D03*
D30*
X149850000Y-80650000D03*
X149850000Y-79850000D03*
D29*
X149850000Y-81450000D03*
D30*
X151650000Y-79850000D03*
D29*
X151650000Y-79050000D03*
D30*
X151650000Y-80650000D03*
D29*
X151650000Y-81450000D03*
X175900000Y-85200000D03*
D30*
X175900000Y-83600000D03*
X175900000Y-84400000D03*
D29*
X175900000Y-82800000D03*
D30*
X174100000Y-84400000D03*
D29*
X174100000Y-85200000D03*
D30*
X174100000Y-83600000D03*
D29*
X174100000Y-82800000D03*
D18*
X149875000Y-77000000D03*
X151625000Y-77000000D03*
X187625000Y-84750000D03*
X189375000Y-84750000D03*
D14*
X148520000Y-94250000D03*
X151480000Y-94250000D03*
D18*
X150125000Y-91250000D03*
X151875000Y-91250000D03*
D31*
X154300000Y-77000000D03*
D32*
X154300000Y-79000000D03*
X154300000Y-81000000D03*
X154300000Y-83000000D03*
X154300000Y-85000000D03*
X154300000Y-87000000D03*
X154300000Y-89000000D03*
X154300000Y-91000000D03*
X169700000Y-91000000D03*
X169600000Y-89000000D03*
X169700000Y-87000000D03*
X169700000Y-85000000D03*
X169700000Y-83000000D03*
X169700000Y-81000000D03*
X169700000Y-79000000D03*
X169700000Y-77000000D03*
D15*
X147000000Y-79125000D03*
X147000000Y-80875000D03*
D16*
X145155000Y-75300000D03*
X143885000Y-75300000D03*
X142615000Y-75300000D03*
X141345000Y-75300000D03*
X141345000Y-80700000D03*
X142615000Y-80700000D03*
X143885000Y-80700000D03*
X145155000Y-80700000D03*
D18*
X182875000Y-94000000D03*
X181125000Y-94000000D03*
X182875000Y-96000000D03*
X181125000Y-96000000D03*
X182875000Y-97750000D03*
X181125000Y-97750000D03*
D33*
X173300000Y-92095000D03*
X173300000Y-93365000D03*
X173300000Y-94635000D03*
X173300000Y-95905000D03*
X178700000Y-95905000D03*
X178700000Y-94635000D03*
X178700000Y-93365000D03*
X178700000Y-92095000D03*
D18*
X129625000Y-111500000D03*
X131375000Y-111500000D03*
D15*
X135500000Y-105875000D03*
X135500000Y-104125000D03*
X135500000Y-109375000D03*
X135500000Y-107625000D03*
X137250000Y-107625000D03*
X137250000Y-105875000D03*
X137250000Y-109125000D03*
X137250000Y-110875000D03*
D13*
X127000000Y-104270000D03*
X127000000Y-107230000D03*
D15*
X128000000Y-110875000D03*
X128000000Y-109125000D03*
D16*
X129845000Y-109450000D03*
X131115000Y-109450000D03*
X132385000Y-109450000D03*
X133655000Y-109450000D03*
X133655000Y-104050000D03*
X132385000Y-104050000D03*
X131115000Y-104050000D03*
X129845000Y-104050000D03*
D34*
X122800000Y-103000000D03*
X109200000Y-103000000D03*
D18*
X162125000Y-96000000D03*
X163875000Y-96000000D03*
X162125000Y-98000000D03*
X163875000Y-98000000D03*
D35*
X160070000Y-111000000D03*
X168050000Y-111000000D03*
D36*
X167250000Y-100500000D03*
X166150000Y-100500000D03*
X165050000Y-100500000D03*
X163950000Y-100500000D03*
X162850000Y-100500000D03*
X161750000Y-100500000D03*
X160650000Y-100500000D03*
X159550000Y-100500000D03*
D37*
X158450000Y-100500000D03*
D38*
X172750000Y-110600000D03*
X157250000Y-110600000D03*
D39*
X171850000Y-101000000D03*
D40*
X157250000Y-101000000D03*
D41*
X116200000Y-87100000D03*
D42*
X114600000Y-87100000D03*
X115400000Y-87100000D03*
D41*
X113800000Y-87100000D03*
D42*
X115400000Y-88900000D03*
D41*
X116200000Y-88900000D03*
D42*
X114600000Y-88900000D03*
D41*
X113800000Y-88900000D03*
X192200000Y-87100000D03*
D42*
X190600000Y-87100000D03*
X191400000Y-87100000D03*
D41*
X189800000Y-87100000D03*
D42*
X191400000Y-88900000D03*
D41*
X192200000Y-88900000D03*
D42*
X190600000Y-88900000D03*
D41*
X189800000Y-88900000D03*
D43*
X115000000Y-77500000D03*
X115000000Y-82500000D03*
X123000000Y-85500000D03*
X123000000Y-90500000D03*
X107000000Y-85500000D03*
X107000000Y-90500000D03*
X115000000Y-93500000D03*
X115000000Y-98500000D03*
X191000000Y-93500000D03*
X191000000Y-98500000D03*
X199000000Y-85500000D03*
X199000000Y-90500000D03*
X191000000Y-77500000D03*
X191000000Y-82500000D03*
X183000000Y-85500000D03*
X183000000Y-90500000D03*
X181000000Y-105500000D03*
X181000000Y-110500000D03*
D18*
X148125000Y-98750000D03*
X149875000Y-98750000D03*
D44*
X144300000Y-100555000D03*
X144300000Y-101825000D03*
X144300000Y-103095000D03*
X144300000Y-104365000D03*
X144300000Y-105635000D03*
X144300000Y-106905000D03*
X144300000Y-108175000D03*
X144300000Y-109445000D03*
X149700000Y-109445000D03*
X149700000Y-108175000D03*
X149700000Y-106905000D03*
X149700000Y-105635000D03*
X149700000Y-104365000D03*
X149700000Y-103095000D03*
X149700000Y-101825000D03*
X149700000Y-100555000D03*
D15*
X146250000Y-95625000D03*
X146250000Y-93875000D03*
D18*
X148375000Y-91500000D03*
X146625000Y-91500000D03*
X148375000Y-89750000D03*
X146625000Y-89750000D03*
X148375000Y-87000000D03*
X146625000Y-87000000D03*
D45*
X142300000Y-85800000D03*
X142300000Y-86600000D03*
X142300000Y-87400000D03*
X142300000Y-88200000D03*
X142300000Y-89000000D03*
X142300000Y-89800000D03*
X142300000Y-90600000D03*
X142300000Y-91400000D03*
X142300000Y-92200000D03*
X142300000Y-93000000D03*
X142300000Y-93800000D03*
X142300000Y-94600000D03*
X142300000Y-95400000D03*
X142300000Y-96200000D03*
D46*
X105000000Y-72000000D03*
X105000000Y-110000000D03*
X201000000Y-72000000D03*
X201000000Y-110000000D03*
D11*
X297750000Y-70000000D03*
X301000000Y-70000000D03*
X293500000Y-70000000D03*
D12*
X290960000Y-70000000D03*
X288420000Y-70000000D03*
X285880000Y-70000000D03*
X283340000Y-70000000D03*
X280800000Y-70000000D03*
D13*
X297000000Y-105230000D03*
X297000000Y-102270000D03*
D14*
X302520000Y-94500000D03*
X305480000Y-94500000D03*
D15*
X301750000Y-105625000D03*
X301750000Y-103875000D03*
X299750000Y-105625000D03*
X299750000Y-103875000D03*
D16*
X303655000Y-76550000D03*
X302385000Y-76550000D03*
X301115000Y-76550000D03*
X299845000Y-76550000D03*
X299845000Y-81950000D03*
X301115000Y-81950000D03*
X302385000Y-81950000D03*
X303655000Y-81950000D03*
D15*
X298000000Y-75375000D03*
X298000000Y-73625000D03*
D17*
X303800000Y-101600000D03*
X304750000Y-101600000D03*
X305700000Y-101600000D03*
X305700000Y-99400000D03*
X303800000Y-99400000D03*
D15*
X300250000Y-99125000D03*
X300250000Y-100875000D03*
X302000000Y-99125000D03*
X302000000Y-97375000D03*
D18*
X303875000Y-97500000D03*
X305625000Y-97500000D03*
D15*
X293000000Y-72875000D03*
X293000000Y-74625000D03*
D19*
X305850000Y-104500000D03*
X303650000Y-104500000D03*
D16*
X286095000Y-80950000D03*
X287365000Y-80950000D03*
X288635000Y-80950000D03*
X289905000Y-80950000D03*
X289905000Y-75550000D03*
X288635000Y-75550000D03*
X287365000Y-75550000D03*
X286095000Y-75550000D03*
D20*
X288800000Y-77650000D03*
X287200000Y-77650000D03*
X288800000Y-78850000D03*
X287200000Y-78850000D03*
D21*
X277750000Y-71955000D03*
X277750000Y-70045000D03*
D18*
X287125000Y-83000000D03*
X288875000Y-83000000D03*
X287375000Y-73000000D03*
X289125000Y-73000000D03*
D22*
X290900000Y-110450000D03*
X297100000Y-110450000D03*
D23*
X292800000Y-113000000D03*
X295200000Y-113000000D03*
D24*
X292700000Y-110325000D03*
X293350000Y-110325000D03*
X294000000Y-110325000D03*
X294650000Y-110325000D03*
X295300000Y-110325000D03*
D25*
X290200000Y-113000000D03*
X297800000Y-113000000D03*
D26*
X307700000Y-83100000D03*
D27*
X305800000Y-81500000D03*
X305800000Y-77000000D03*
X305800000Y-78500000D03*
D26*
X307700000Y-75150000D03*
D28*
X307600000Y-80750000D03*
X307650000Y-77750000D03*
D29*
X253850000Y-79050000D03*
D30*
X253850000Y-80650000D03*
X253850000Y-79850000D03*
D29*
X253850000Y-81450000D03*
D30*
X255650000Y-79850000D03*
D29*
X255650000Y-79050000D03*
D30*
X255650000Y-80650000D03*
D29*
X255650000Y-81450000D03*
X279900000Y-85200000D03*
D30*
X279900000Y-83600000D03*
X279900000Y-84400000D03*
D29*
X279900000Y-82800000D03*
D30*
X278100000Y-84400000D03*
D29*
X278100000Y-85200000D03*
D30*
X278100000Y-83600000D03*
D29*
X278100000Y-82800000D03*
D18*
X253875000Y-77000000D03*
X255625000Y-77000000D03*
X291625000Y-84750000D03*
X293375000Y-84750000D03*
D14*
X252520000Y-94250000D03*
X255480000Y-94250000D03*
D18*
X254125000Y-91250000D03*
X255875000Y-91250000D03*
D31*
X258300000Y-77000000D03*
D32*
X258300000Y-79000000D03*
X258300000Y-81000000D03*
X258300000Y-83000000D03*
X258300000Y-85000000D03*
X258300000Y-87000000D03*
X258300000Y-89000000D03*
X258300000Y-91000000D03*
X273700000Y-91000000D03*
X273600000Y-89000000D03*
X273700000Y-87000000D03*
X273700000Y-85000000D03*
X273700000Y-83000000D03*
X273700000Y-81000000D03*
X273700000Y-79000000D03*
X273700000Y-77000000D03*
D15*
X251000000Y-79125000D03*
X251000000Y-80875000D03*
D16*
X249155000Y-75300000D03*
X247885000Y-75300000D03*
X246615000Y-75300000D03*
X245345000Y-75300000D03*
X245345000Y-80700000D03*
X246615000Y-80700000D03*
X247885000Y-80700000D03*
X249155000Y-80700000D03*
D18*
X286875000Y-94000000D03*
X285125000Y-94000000D03*
X286875000Y-96000000D03*
X285125000Y-96000000D03*
X286875000Y-97750000D03*
X285125000Y-97750000D03*
D33*
X277300000Y-92095000D03*
X277300000Y-93365000D03*
X277300000Y-94635000D03*
X277300000Y-95905000D03*
X282700000Y-95905000D03*
X282700000Y-94635000D03*
X282700000Y-93365000D03*
X282700000Y-92095000D03*
D18*
X233625000Y-111500000D03*
X235375000Y-111500000D03*
D15*
X239500000Y-105875000D03*
X239500000Y-104125000D03*
X239500000Y-109375000D03*
X239500000Y-107625000D03*
X241250000Y-107625000D03*
X241250000Y-105875000D03*
X241250000Y-109125000D03*
X241250000Y-110875000D03*
D13*
X231000000Y-104270000D03*
X231000000Y-107230000D03*
D15*
X232000000Y-110875000D03*
X232000000Y-109125000D03*
D16*
X233845000Y-109450000D03*
X235115000Y-109450000D03*
X236385000Y-109450000D03*
X237655000Y-109450000D03*
X237655000Y-104050000D03*
X236385000Y-104050000D03*
X235115000Y-104050000D03*
X233845000Y-104050000D03*
D34*
X226800000Y-103000000D03*
X213200000Y-103000000D03*
D18*
X266125000Y-96000000D03*
X267875000Y-96000000D03*
X266125000Y-98000000D03*
X267875000Y-98000000D03*
D35*
X264070000Y-111000000D03*
X272050000Y-111000000D03*
D36*
X271250000Y-100500000D03*
X270150000Y-100500000D03*
X269050000Y-100500000D03*
X267950000Y-100500000D03*
X266850000Y-100500000D03*
X265750000Y-100500000D03*
X264650000Y-100500000D03*
X263550000Y-100500000D03*
D37*
X262450000Y-100500000D03*
D38*
X276750000Y-110600000D03*
X261250000Y-110600000D03*
D39*
X275850000Y-101000000D03*
D40*
X261250000Y-101000000D03*
D41*
X220200000Y-87100000D03*
D42*
X218600000Y-87100000D03*
X219400000Y-87100000D03*
D41*
X217800000Y-87100000D03*
D42*
X219400000Y-88900000D03*
D41*
X220200000Y-88900000D03*
D42*
X218600000Y-88900000D03*
D41*
X217800000Y-88900000D03*
X296200000Y-87100000D03*
D42*
X294600000Y-87100000D03*
X295400000Y-87100000D03*
D41*
X293800000Y-87100000D03*
D42*
X295400000Y-88900000D03*
D41*
X296200000Y-88900000D03*
D42*
X294600000Y-88900000D03*
D41*
X293800000Y-88900000D03*
D43*
X219000000Y-77500000D03*
X219000000Y-82500000D03*
X227000000Y-85500000D03*
X227000000Y-90500000D03*
X211000000Y-85500000D03*
X211000000Y-90500000D03*
X219000000Y-93500000D03*
X219000000Y-98500000D03*
X295000000Y-93500000D03*
X295000000Y-98500000D03*
X303000000Y-85500000D03*
X303000000Y-90500000D03*
X295000000Y-77500000D03*
X295000000Y-82500000D03*
X287000000Y-85500000D03*
X287000000Y-90500000D03*
X285000000Y-105500000D03*
X285000000Y-110500000D03*
D18*
X252125000Y-98750000D03*
X253875000Y-98750000D03*
D44*
X248300000Y-100555000D03*
X248300000Y-101825000D03*
X248300000Y-103095000D03*
X248300000Y-104365000D03*
X248300000Y-105635000D03*
X248300000Y-106905000D03*
X248300000Y-108175000D03*
X248300000Y-109445000D03*
X253700000Y-109445000D03*
X253700000Y-108175000D03*
X253700000Y-106905000D03*
X253700000Y-105635000D03*
X253700000Y-104365000D03*
X253700000Y-103095000D03*
X253700000Y-101825000D03*
X253700000Y-100555000D03*
D15*
X250250000Y-95625000D03*
X250250000Y-93875000D03*
D18*
X252375000Y-91500000D03*
X250625000Y-91500000D03*
X252375000Y-89750000D03*
X250625000Y-89750000D03*
X252375000Y-87000000D03*
X250625000Y-87000000D03*
D45*
X246300000Y-85800000D03*
X246300000Y-86600000D03*
X246300000Y-87400000D03*
X246300000Y-88200000D03*
X246300000Y-89000000D03*
X246300000Y-89800000D03*
X246300000Y-90600000D03*
X246300000Y-91400000D03*
X246300000Y-92200000D03*
X246300000Y-93000000D03*
X246300000Y-93800000D03*
X246300000Y-94600000D03*
X246300000Y-95400000D03*
X246300000Y-96200000D03*
D46*
X209000000Y-72000000D03*
X209000000Y-110000000D03*
X305000000Y-72000000D03*
X305000000Y-110000000D03*
D11*
X193750000Y-119000000D03*
X197000000Y-119000000D03*
X189500000Y-119000000D03*
D12*
X186960000Y-119000000D03*
X184420000Y-119000000D03*
X181880000Y-119000000D03*
X179340000Y-119000000D03*
X176800000Y-119000000D03*
D13*
X193000000Y-154230000D03*
X193000000Y-151270000D03*
D14*
X198520000Y-143500000D03*
X201480000Y-143500000D03*
D15*
X197750000Y-154625000D03*
X197750000Y-152875000D03*
X195750000Y-154625000D03*
X195750000Y-152875000D03*
D16*
X199655000Y-125550000D03*
X198385000Y-125550000D03*
X197115000Y-125550000D03*
X195845000Y-125550000D03*
X195845000Y-130950000D03*
X197115000Y-130950000D03*
X198385000Y-130950000D03*
X199655000Y-130950000D03*
D15*
X194000000Y-124375000D03*
X194000000Y-122625000D03*
D17*
X199800000Y-150600000D03*
X200750000Y-150600000D03*
X201700000Y-150600000D03*
X201700000Y-148400000D03*
X199800000Y-148400000D03*
D15*
X196250000Y-148125000D03*
X196250000Y-149875000D03*
X198000000Y-148125000D03*
X198000000Y-146375000D03*
D18*
X199875000Y-146500000D03*
X201625000Y-146500000D03*
D15*
X189000000Y-121875000D03*
X189000000Y-123625000D03*
D19*
X201850000Y-153500000D03*
X199650000Y-153500000D03*
D16*
X182095000Y-129950000D03*
X183365000Y-129950000D03*
X184635000Y-129950000D03*
X185905000Y-129950000D03*
X185905000Y-124550000D03*
X184635000Y-124550000D03*
X183365000Y-124550000D03*
X182095000Y-124550000D03*
D20*
X184800000Y-126650000D03*
X183200000Y-126650000D03*
X184800000Y-127850000D03*
X183200000Y-127850000D03*
D21*
X173750000Y-120955000D03*
X173750000Y-119045000D03*
D18*
X183125000Y-132000000D03*
X184875000Y-132000000D03*
X183375000Y-122000000D03*
X185125000Y-122000000D03*
D22*
X186900000Y-159450000D03*
X193100000Y-159450000D03*
D23*
X188800000Y-162000000D03*
X191200000Y-162000000D03*
D24*
X188700000Y-159325000D03*
X189350000Y-159325000D03*
X190000000Y-159325000D03*
X190650000Y-159325000D03*
X191300000Y-159325000D03*
D25*
X186200000Y-162000000D03*
X193800000Y-162000000D03*
D26*
X203700000Y-132100000D03*
D27*
X201800000Y-130500000D03*
X201800000Y-126000000D03*
X201800000Y-127500000D03*
D26*
X203700000Y-124150000D03*
D28*
X203600000Y-129750000D03*
X203650000Y-126750000D03*
D29*
X149850000Y-128050000D03*
D30*
X149850000Y-129650000D03*
X149850000Y-128850000D03*
D29*
X149850000Y-130450000D03*
D30*
X151650000Y-128850000D03*
D29*
X151650000Y-128050000D03*
D30*
X151650000Y-129650000D03*
D29*
X151650000Y-130450000D03*
X175900000Y-134200000D03*
D30*
X175900000Y-132600000D03*
X175900000Y-133400000D03*
D29*
X175900000Y-131800000D03*
D30*
X174100000Y-133400000D03*
D29*
X174100000Y-134200000D03*
D30*
X174100000Y-132600000D03*
D29*
X174100000Y-131800000D03*
D18*
X149875000Y-126000000D03*
X151625000Y-126000000D03*
X187625000Y-133750000D03*
X189375000Y-133750000D03*
D14*
X148520000Y-143250000D03*
X151480000Y-143250000D03*
D18*
X150125000Y-140250000D03*
X151875000Y-140250000D03*
D31*
X154300000Y-126000000D03*
D32*
X154300000Y-128000000D03*
X154300000Y-130000000D03*
X154300000Y-132000000D03*
X154300000Y-134000000D03*
X154300000Y-136000000D03*
X154300000Y-138000000D03*
X154300000Y-140000000D03*
X169700000Y-140000000D03*
X169600000Y-138000000D03*
X169700000Y-136000000D03*
X169700000Y-134000000D03*
X169700000Y-132000000D03*
X169700000Y-130000000D03*
X169700000Y-128000000D03*
X169700000Y-126000000D03*
D15*
X147000000Y-128125000D03*
X147000000Y-129875000D03*
D16*
X145155000Y-124300000D03*
X143885000Y-124300000D03*
X142615000Y-124300000D03*
X141345000Y-124300000D03*
X141345000Y-129700000D03*
X142615000Y-129700000D03*
X143885000Y-129700000D03*
X145155000Y-129700000D03*
D18*
X182875000Y-143000000D03*
X181125000Y-143000000D03*
X182875000Y-145000000D03*
X181125000Y-145000000D03*
X182875000Y-146750000D03*
X181125000Y-146750000D03*
D33*
X173300000Y-141095000D03*
X173300000Y-142365000D03*
X173300000Y-143635000D03*
X173300000Y-144905000D03*
X178700000Y-144905000D03*
X178700000Y-143635000D03*
X178700000Y-142365000D03*
X178700000Y-141095000D03*
D18*
X129625000Y-160500000D03*
X131375000Y-160500000D03*
D15*
X135500000Y-154875000D03*
X135500000Y-153125000D03*
X135500000Y-158375000D03*
X135500000Y-156625000D03*
X137250000Y-156625000D03*
X137250000Y-154875000D03*
X137250000Y-158125000D03*
X137250000Y-159875000D03*
D13*
X127000000Y-153270000D03*
X127000000Y-156230000D03*
D15*
X128000000Y-159875000D03*
X128000000Y-158125000D03*
D16*
X129845000Y-158450000D03*
X131115000Y-158450000D03*
X132385000Y-158450000D03*
X133655000Y-158450000D03*
X133655000Y-153050000D03*
X132385000Y-153050000D03*
X131115000Y-153050000D03*
X129845000Y-153050000D03*
D34*
X122800000Y-152000000D03*
X109200000Y-152000000D03*
D18*
X162125000Y-145000000D03*
X163875000Y-145000000D03*
X162125000Y-147000000D03*
X163875000Y-147000000D03*
D35*
X160070000Y-160000000D03*
X168050000Y-160000000D03*
D36*
X167250000Y-149500000D03*
X166150000Y-149500000D03*
X165050000Y-149500000D03*
X163950000Y-149500000D03*
X162850000Y-149500000D03*
X161750000Y-149500000D03*
X160650000Y-149500000D03*
X159550000Y-149500000D03*
D37*
X158450000Y-149500000D03*
D38*
X172750000Y-159600000D03*
X157250000Y-159600000D03*
D39*
X171850000Y-150000000D03*
D40*
X157250000Y-150000000D03*
D41*
X116200000Y-136100000D03*
D42*
X114600000Y-136100000D03*
X115400000Y-136100000D03*
D41*
X113800000Y-136100000D03*
D42*
X115400000Y-137900000D03*
D41*
X116200000Y-137900000D03*
D42*
X114600000Y-137900000D03*
D41*
X113800000Y-137900000D03*
X192200000Y-136100000D03*
D42*
X190600000Y-136100000D03*
X191400000Y-136100000D03*
D41*
X189800000Y-136100000D03*
D42*
X191400000Y-137900000D03*
D41*
X192200000Y-137900000D03*
D42*
X190600000Y-137900000D03*
D41*
X189800000Y-137900000D03*
D43*
X115000000Y-126500000D03*
X115000000Y-131500000D03*
X123000000Y-134500000D03*
X123000000Y-139500000D03*
X107000000Y-134500000D03*
X107000000Y-139500000D03*
X115000000Y-142500000D03*
X115000000Y-147500000D03*
X191000000Y-142500000D03*
X191000000Y-147500000D03*
X199000000Y-134500000D03*
X199000000Y-139500000D03*
X191000000Y-126500000D03*
X191000000Y-131500000D03*
X183000000Y-134500000D03*
X183000000Y-139500000D03*
X181000000Y-154500000D03*
X181000000Y-159500000D03*
D18*
X148125000Y-147750000D03*
X149875000Y-147750000D03*
D44*
X144300000Y-149555000D03*
X144300000Y-150825000D03*
X144300000Y-152095000D03*
X144300000Y-153365000D03*
X144300000Y-154635000D03*
X144300000Y-155905000D03*
X144300000Y-157175000D03*
X144300000Y-158445000D03*
X149700000Y-158445000D03*
X149700000Y-157175000D03*
X149700000Y-155905000D03*
X149700000Y-154635000D03*
X149700000Y-153365000D03*
X149700000Y-152095000D03*
X149700000Y-150825000D03*
X149700000Y-149555000D03*
D15*
X146250000Y-144625000D03*
X146250000Y-142875000D03*
D18*
X148375000Y-140500000D03*
X146625000Y-140500000D03*
X148375000Y-138750000D03*
X146625000Y-138750000D03*
X148375000Y-136000000D03*
X146625000Y-136000000D03*
D45*
X142300000Y-134800000D03*
X142300000Y-135600000D03*
X142300000Y-136400000D03*
X142300000Y-137200000D03*
X142300000Y-138000000D03*
X142300000Y-138800000D03*
X142300000Y-139600000D03*
X142300000Y-140400000D03*
X142300000Y-141200000D03*
X142300000Y-142000000D03*
X142300000Y-142800000D03*
X142300000Y-143600000D03*
X142300000Y-144400000D03*
X142300000Y-145200000D03*
D46*
X105000000Y-121000000D03*
X105000000Y-159000000D03*
X201000000Y-121000000D03*
X201000000Y-159000000D03*
D11*
X297750000Y-119000000D03*
X301000000Y-119000000D03*
X293500000Y-119000000D03*
D12*
X290960000Y-119000000D03*
X288420000Y-119000000D03*
X285880000Y-119000000D03*
X283340000Y-119000000D03*
X280800000Y-119000000D03*
D13*
X297000000Y-154230000D03*
X297000000Y-151270000D03*
D14*
X302520000Y-143500000D03*
X305480000Y-143500000D03*
D15*
X301750000Y-154625000D03*
X301750000Y-152875000D03*
X299750000Y-154625000D03*
X299750000Y-152875000D03*
D16*
X303655000Y-125550000D03*
X302385000Y-125550000D03*
X301115000Y-125550000D03*
X299845000Y-125550000D03*
X299845000Y-130950000D03*
X301115000Y-130950000D03*
X302385000Y-130950000D03*
X303655000Y-130950000D03*
D15*
X298000000Y-124375000D03*
X298000000Y-122625000D03*
D17*
X303800000Y-150600000D03*
X304750000Y-150600000D03*
X305700000Y-150600000D03*
X305700000Y-148400000D03*
X303800000Y-148400000D03*
D15*
X300250000Y-148125000D03*
X300250000Y-149875000D03*
X302000000Y-148125000D03*
X302000000Y-146375000D03*
D18*
X303875000Y-146500000D03*
X305625000Y-146500000D03*
D15*
X293000000Y-121875000D03*
X293000000Y-123625000D03*
D19*
X305850000Y-153500000D03*
X303650000Y-153500000D03*
D16*
X286095000Y-129950000D03*
X287365000Y-129950000D03*
X288635000Y-129950000D03*
X289905000Y-129950000D03*
X289905000Y-124550000D03*
X288635000Y-124550000D03*
X287365000Y-124550000D03*
X286095000Y-124550000D03*
D20*
X288800000Y-126650000D03*
X287200000Y-126650000D03*
X288800000Y-127850000D03*
X287200000Y-127850000D03*
D21*
X277750000Y-120955000D03*
X277750000Y-119045000D03*
D18*
X287125000Y-132000000D03*
X288875000Y-132000000D03*
X287375000Y-122000000D03*
X289125000Y-122000000D03*
D22*
X290900000Y-159450000D03*
X297100000Y-159450000D03*
D23*
X292800000Y-162000000D03*
X295200000Y-162000000D03*
D24*
X292700000Y-159325000D03*
X293350000Y-159325000D03*
X294000000Y-159325000D03*
X294650000Y-159325000D03*
X295300000Y-159325000D03*
D25*
X290200000Y-162000000D03*
X297800000Y-162000000D03*
D26*
X307700000Y-132100000D03*
D27*
X305800000Y-130500000D03*
X305800000Y-126000000D03*
X305800000Y-127500000D03*
D26*
X307700000Y-124150000D03*
D28*
X307600000Y-129750000D03*
X307650000Y-126750000D03*
D29*
X253850000Y-128050000D03*
D30*
X253850000Y-129650000D03*
X253850000Y-128850000D03*
D29*
X253850000Y-130450000D03*
D30*
X255650000Y-128850000D03*
D29*
X255650000Y-128050000D03*
D30*
X255650000Y-129650000D03*
D29*
X255650000Y-130450000D03*
X279900000Y-134200000D03*
D30*
X279900000Y-132600000D03*
X279900000Y-133400000D03*
D29*
X279900000Y-131800000D03*
D30*
X278100000Y-133400000D03*
D29*
X278100000Y-134200000D03*
D30*
X278100000Y-132600000D03*
D29*
X278100000Y-131800000D03*
D18*
X253875000Y-126000000D03*
X255625000Y-126000000D03*
X291625000Y-133750000D03*
X293375000Y-133750000D03*
D14*
X252520000Y-143250000D03*
X255480000Y-143250000D03*
D18*
X254125000Y-140250000D03*
X255875000Y-140250000D03*
D31*
X258300000Y-126000000D03*
D32*
X258300000Y-128000000D03*
X258300000Y-130000000D03*
X258300000Y-132000000D03*
X258300000Y-134000000D03*
X258300000Y-136000000D03*
X258300000Y-138000000D03*
X258300000Y-140000000D03*
X273700000Y-140000000D03*
X273600000Y-138000000D03*
X273700000Y-136000000D03*
X273700000Y-134000000D03*
X273700000Y-132000000D03*
X273700000Y-130000000D03*
X273700000Y-128000000D03*
X273700000Y-126000000D03*
D15*
X251000000Y-128125000D03*
X251000000Y-129875000D03*
D16*
X249155000Y-124300000D03*
X247885000Y-124300000D03*
X246615000Y-124300000D03*
X245345000Y-124300000D03*
X245345000Y-129700000D03*
X246615000Y-129700000D03*
X247885000Y-129700000D03*
X249155000Y-129700000D03*
D18*
X286875000Y-143000000D03*
X285125000Y-143000000D03*
X286875000Y-145000000D03*
X285125000Y-145000000D03*
X286875000Y-146750000D03*
X285125000Y-146750000D03*
D33*
X277300000Y-141095000D03*
X277300000Y-142365000D03*
X277300000Y-143635000D03*
X277300000Y-144905000D03*
X282700000Y-144905000D03*
X282700000Y-143635000D03*
X282700000Y-142365000D03*
X282700000Y-141095000D03*
D18*
X233625000Y-160500000D03*
X235375000Y-160500000D03*
D15*
X239500000Y-154875000D03*
X239500000Y-153125000D03*
X239500000Y-158375000D03*
X239500000Y-156625000D03*
X241250000Y-156625000D03*
X241250000Y-154875000D03*
X241250000Y-158125000D03*
X241250000Y-159875000D03*
D13*
X231000000Y-153270000D03*
X231000000Y-156230000D03*
D15*
X232000000Y-159875000D03*
X232000000Y-158125000D03*
D16*
X233845000Y-158450000D03*
X235115000Y-158450000D03*
X236385000Y-158450000D03*
X237655000Y-158450000D03*
X237655000Y-153050000D03*
X236385000Y-153050000D03*
X235115000Y-153050000D03*
X233845000Y-153050000D03*
D34*
X226800000Y-152000000D03*
X213200000Y-152000000D03*
D18*
X266125000Y-145000000D03*
X267875000Y-145000000D03*
X266125000Y-147000000D03*
X267875000Y-147000000D03*
D35*
X264070000Y-160000000D03*
X272050000Y-160000000D03*
D36*
X271250000Y-149500000D03*
X270150000Y-149500000D03*
X269050000Y-149500000D03*
X267950000Y-149500000D03*
X266850000Y-149500000D03*
X265750000Y-149500000D03*
X264650000Y-149500000D03*
X263550000Y-149500000D03*
D37*
X262450000Y-149500000D03*
D38*
X276750000Y-159600000D03*
X261250000Y-159600000D03*
D39*
X275850000Y-150000000D03*
D40*
X261250000Y-150000000D03*
D41*
X220200000Y-136100000D03*
D42*
X218600000Y-136100000D03*
X219400000Y-136100000D03*
D41*
X217800000Y-136100000D03*
D42*
X219400000Y-137900000D03*
D41*
X220200000Y-137900000D03*
D42*
X218600000Y-137900000D03*
D41*
X217800000Y-137900000D03*
X296200000Y-136100000D03*
D42*
X294600000Y-136100000D03*
X295400000Y-136100000D03*
D41*
X293800000Y-136100000D03*
D42*
X295400000Y-137900000D03*
D41*
X296200000Y-137900000D03*
D42*
X294600000Y-137900000D03*
D41*
X293800000Y-137900000D03*
D43*
X219000000Y-126500000D03*
X219000000Y-131500000D03*
X227000000Y-134500000D03*
X227000000Y-139500000D03*
X211000000Y-134500000D03*
X211000000Y-139500000D03*
X219000000Y-142500000D03*
X219000000Y-147500000D03*
X295000000Y-142500000D03*
X295000000Y-147500000D03*
X303000000Y-134500000D03*
X303000000Y-139500000D03*
X295000000Y-126500000D03*
X295000000Y-131500000D03*
X287000000Y-134500000D03*
X287000000Y-139500000D03*
X285000000Y-154500000D03*
X285000000Y-159500000D03*
D18*
X252125000Y-147750000D03*
X253875000Y-147750000D03*
D44*
X248300000Y-149555000D03*
X248300000Y-150825000D03*
X248300000Y-152095000D03*
X248300000Y-153365000D03*
X248300000Y-154635000D03*
X248300000Y-155905000D03*
X248300000Y-157175000D03*
X248300000Y-158445000D03*
X253700000Y-158445000D03*
X253700000Y-157175000D03*
X253700000Y-155905000D03*
X253700000Y-154635000D03*
X253700000Y-153365000D03*
X253700000Y-152095000D03*
X253700000Y-150825000D03*
X253700000Y-149555000D03*
D15*
X250250000Y-144625000D03*
X250250000Y-142875000D03*
D18*
X252375000Y-140500000D03*
X250625000Y-140500000D03*
X252375000Y-138750000D03*
X250625000Y-138750000D03*
X252375000Y-136000000D03*
X250625000Y-136000000D03*
D45*
X246300000Y-134800000D03*
X246300000Y-135600000D03*
X246300000Y-136400000D03*
X246300000Y-137200000D03*
X246300000Y-138000000D03*
X246300000Y-138800000D03*
X246300000Y-139600000D03*
X246300000Y-140400000D03*
X246300000Y-141200000D03*
X246300000Y-142000000D03*
X246300000Y-142800000D03*
X246300000Y-143600000D03*
X246300000Y-144400000D03*
X246300000Y-145200000D03*
D46*
X209000000Y-121000000D03*
X209000000Y-159000000D03*
X305000000Y-121000000D03*
X305000000Y-159000000D03*
D11*
X193750000Y-168000000D03*
X197000000Y-168000000D03*
X189500000Y-168000000D03*
D12*
X186960000Y-168000000D03*
X184420000Y-168000000D03*
X181880000Y-168000000D03*
X179340000Y-168000000D03*
X176800000Y-168000000D03*
D13*
X193000000Y-203230000D03*
X193000000Y-200270000D03*
D14*
X198520000Y-192500000D03*
X201480000Y-192500000D03*
D15*
X197750000Y-203625000D03*
X197750000Y-201875000D03*
X195750000Y-203625000D03*
X195750000Y-201875000D03*
D16*
X199655000Y-174550000D03*
X198385000Y-174550000D03*
X197115000Y-174550000D03*
X195845000Y-174550000D03*
X195845000Y-179950000D03*
X197115000Y-179950000D03*
X198385000Y-179950000D03*
X199655000Y-179950000D03*
D15*
X194000000Y-173375000D03*
X194000000Y-171625000D03*
D17*
X199800000Y-199600000D03*
X200750000Y-199600000D03*
X201700000Y-199600000D03*
X201700000Y-197400000D03*
X199800000Y-197400000D03*
D15*
X196250000Y-197125000D03*
X196250000Y-198875000D03*
X198000000Y-197125000D03*
X198000000Y-195375000D03*
D18*
X199875000Y-195500000D03*
X201625000Y-195500000D03*
D15*
X189000000Y-170875000D03*
X189000000Y-172625000D03*
D19*
X201850000Y-202500000D03*
X199650000Y-202500000D03*
D16*
X182095000Y-178950000D03*
X183365000Y-178950000D03*
X184635000Y-178950000D03*
X185905000Y-178950000D03*
X185905000Y-173550000D03*
X184635000Y-173550000D03*
X183365000Y-173550000D03*
X182095000Y-173550000D03*
D20*
X184800000Y-175650000D03*
X183200000Y-175650000D03*
X184800000Y-176850000D03*
X183200000Y-176850000D03*
D21*
X173750000Y-169955000D03*
X173750000Y-168045000D03*
D18*
X183125000Y-181000000D03*
X184875000Y-181000000D03*
X183375000Y-171000000D03*
X185125000Y-171000000D03*
D22*
X186900000Y-208450000D03*
X193100000Y-208450000D03*
D23*
X188800000Y-211000000D03*
X191200000Y-211000000D03*
D24*
X188700000Y-208325000D03*
X189350000Y-208325000D03*
X190000000Y-208325000D03*
X190650000Y-208325000D03*
X191300000Y-208325000D03*
D25*
X186200000Y-211000000D03*
X193800000Y-211000000D03*
D26*
X203700000Y-181100000D03*
D27*
X201800000Y-179500000D03*
X201800000Y-175000000D03*
X201800000Y-176500000D03*
D26*
X203700000Y-173150000D03*
D28*
X203600000Y-178750000D03*
X203650000Y-175750000D03*
D29*
X149850000Y-177050000D03*
D30*
X149850000Y-178650000D03*
X149850000Y-177850000D03*
D29*
X149850000Y-179450000D03*
D30*
X151650000Y-177850000D03*
D29*
X151650000Y-177050000D03*
D30*
X151650000Y-178650000D03*
D29*
X151650000Y-179450000D03*
X175900000Y-183200000D03*
D30*
X175900000Y-181600000D03*
X175900000Y-182400000D03*
D29*
X175900000Y-180800000D03*
D30*
X174100000Y-182400000D03*
D29*
X174100000Y-183200000D03*
D30*
X174100000Y-181600000D03*
D29*
X174100000Y-180800000D03*
D18*
X149875000Y-175000000D03*
X151625000Y-175000000D03*
X187625000Y-182750000D03*
X189375000Y-182750000D03*
D14*
X148520000Y-192250000D03*
X151480000Y-192250000D03*
D18*
X150125000Y-189250000D03*
X151875000Y-189250000D03*
D31*
X154300000Y-175000000D03*
D32*
X154300000Y-177000000D03*
X154300000Y-179000000D03*
X154300000Y-181000000D03*
X154300000Y-183000000D03*
X154300000Y-185000000D03*
X154300000Y-187000000D03*
X154300000Y-189000000D03*
X169700000Y-189000000D03*
X169600000Y-187000000D03*
X169700000Y-185000000D03*
X169700000Y-183000000D03*
X169700000Y-181000000D03*
X169700000Y-179000000D03*
X169700000Y-177000000D03*
X169700000Y-175000000D03*
D15*
X147000000Y-177125000D03*
X147000000Y-178875000D03*
D16*
X145155000Y-173300000D03*
X143885000Y-173300000D03*
X142615000Y-173300000D03*
X141345000Y-173300000D03*
X141345000Y-178700000D03*
X142615000Y-178700000D03*
X143885000Y-178700000D03*
X145155000Y-178700000D03*
D18*
X182875000Y-192000000D03*
X181125000Y-192000000D03*
X182875000Y-194000000D03*
X181125000Y-194000000D03*
X182875000Y-195750000D03*
X181125000Y-195750000D03*
D33*
X173300000Y-190095000D03*
X173300000Y-191365000D03*
X173300000Y-192635000D03*
X173300000Y-193905000D03*
X178700000Y-193905000D03*
X178700000Y-192635000D03*
X178700000Y-191365000D03*
X178700000Y-190095000D03*
D18*
X129625000Y-209500000D03*
X131375000Y-209500000D03*
D15*
X135500000Y-203875000D03*
X135500000Y-202125000D03*
X135500000Y-207375000D03*
X135500000Y-205625000D03*
X137250000Y-205625000D03*
X137250000Y-203875000D03*
X137250000Y-207125000D03*
X137250000Y-208875000D03*
D13*
X127000000Y-202270000D03*
X127000000Y-205230000D03*
D15*
X128000000Y-208875000D03*
X128000000Y-207125000D03*
D16*
X129845000Y-207450000D03*
X131115000Y-207450000D03*
X132385000Y-207450000D03*
X133655000Y-207450000D03*
X133655000Y-202050000D03*
X132385000Y-202050000D03*
X131115000Y-202050000D03*
X129845000Y-202050000D03*
D34*
X122800000Y-201000000D03*
X109200000Y-201000000D03*
D18*
X162125000Y-194000000D03*
X163875000Y-194000000D03*
X162125000Y-196000000D03*
X163875000Y-196000000D03*
D35*
X160070000Y-209000000D03*
X168050000Y-209000000D03*
D36*
X167250000Y-198500000D03*
X166150000Y-198500000D03*
X165050000Y-198500000D03*
X163950000Y-198500000D03*
X162850000Y-198500000D03*
X161750000Y-198500000D03*
X160650000Y-198500000D03*
X159550000Y-198500000D03*
D37*
X158450000Y-198500000D03*
D38*
X172750000Y-208600000D03*
X157250000Y-208600000D03*
D39*
X171850000Y-199000000D03*
D40*
X157250000Y-199000000D03*
D41*
X116200000Y-185100000D03*
D42*
X114600000Y-185100000D03*
X115400000Y-185100000D03*
D41*
X113800000Y-185100000D03*
D42*
X115400000Y-186900000D03*
D41*
X116200000Y-186900000D03*
D42*
X114600000Y-186900000D03*
D41*
X113800000Y-186900000D03*
X192200000Y-185100000D03*
D42*
X190600000Y-185100000D03*
X191400000Y-185100000D03*
D41*
X189800000Y-185100000D03*
D42*
X191400000Y-186900000D03*
D41*
X192200000Y-186900000D03*
D42*
X190600000Y-186900000D03*
D41*
X189800000Y-186900000D03*
D43*
X115000000Y-175500000D03*
X115000000Y-180500000D03*
X123000000Y-183500000D03*
X123000000Y-188500000D03*
X107000000Y-183500000D03*
X107000000Y-188500000D03*
X115000000Y-191500000D03*
X115000000Y-196500000D03*
X191000000Y-191500000D03*
X191000000Y-196500000D03*
X199000000Y-183500000D03*
X199000000Y-188500000D03*
X191000000Y-175500000D03*
X191000000Y-180500000D03*
X183000000Y-183500000D03*
X183000000Y-188500000D03*
X181000000Y-203500000D03*
X181000000Y-208500000D03*
D18*
X148125000Y-196750000D03*
X149875000Y-196750000D03*
D44*
X144300000Y-198555000D03*
X144300000Y-199825000D03*
X144300000Y-201095000D03*
X144300000Y-202365000D03*
X144300000Y-203635000D03*
X144300000Y-204905000D03*
X144300000Y-206175000D03*
X144300000Y-207445000D03*
X149700000Y-207445000D03*
X149700000Y-206175000D03*
X149700000Y-204905000D03*
X149700000Y-203635000D03*
X149700000Y-202365000D03*
X149700000Y-201095000D03*
X149700000Y-199825000D03*
X149700000Y-198555000D03*
D15*
X146250000Y-193625000D03*
X146250000Y-191875000D03*
D18*
X148375000Y-189500000D03*
X146625000Y-189500000D03*
X148375000Y-187750000D03*
X146625000Y-187750000D03*
X148375000Y-185000000D03*
X146625000Y-185000000D03*
D45*
X142300000Y-183800000D03*
X142300000Y-184600000D03*
X142300000Y-185400000D03*
X142300000Y-186200000D03*
X142300000Y-187000000D03*
X142300000Y-187800000D03*
X142300000Y-188600000D03*
X142300000Y-189400000D03*
X142300000Y-190200000D03*
X142300000Y-191000000D03*
X142300000Y-191800000D03*
X142300000Y-192600000D03*
X142300000Y-193400000D03*
X142300000Y-194200000D03*
D46*
X105000000Y-170000000D03*
X105000000Y-208000000D03*
X201000000Y-170000000D03*
X201000000Y-208000000D03*
D11*
X297750000Y-168000000D03*
X301000000Y-168000000D03*
X293500000Y-168000000D03*
D12*
X290960000Y-168000000D03*
X288420000Y-168000000D03*
X285880000Y-168000000D03*
X283340000Y-168000000D03*
X280800000Y-168000000D03*
D13*
X297000000Y-203230000D03*
X297000000Y-200270000D03*
D14*
X302520000Y-192500000D03*
X305480000Y-192500000D03*
D15*
X301750000Y-203625000D03*
X301750000Y-201875000D03*
X299750000Y-203625000D03*
X299750000Y-201875000D03*
D16*
X303655000Y-174550000D03*
X302385000Y-174550000D03*
X301115000Y-174550000D03*
X299845000Y-174550000D03*
X299845000Y-179950000D03*
X301115000Y-179950000D03*
X302385000Y-179950000D03*
X303655000Y-179950000D03*
D15*
X298000000Y-173375000D03*
X298000000Y-171625000D03*
D17*
X303800000Y-199600000D03*
X304750000Y-199600000D03*
X305700000Y-199600000D03*
X305700000Y-197400000D03*
X303800000Y-197400000D03*
D15*
X300250000Y-197125000D03*
X300250000Y-198875000D03*
X302000000Y-197125000D03*
X302000000Y-195375000D03*
D18*
X303875000Y-195500000D03*
X305625000Y-195500000D03*
D15*
X293000000Y-170875000D03*
X293000000Y-172625000D03*
D19*
X305850000Y-202500000D03*
X303650000Y-202500000D03*
D16*
X286095000Y-178950000D03*
X287365000Y-178950000D03*
X288635000Y-178950000D03*
X289905000Y-178950000D03*
X289905000Y-173550000D03*
X288635000Y-173550000D03*
X287365000Y-173550000D03*
X286095000Y-173550000D03*
D20*
X288800000Y-175650000D03*
X287200000Y-175650000D03*
X288800000Y-176850000D03*
X287200000Y-176850000D03*
D21*
X277750000Y-169955000D03*
X277750000Y-168045000D03*
D18*
X287125000Y-181000000D03*
X288875000Y-181000000D03*
X287375000Y-171000000D03*
X289125000Y-171000000D03*
D22*
X290900000Y-208450000D03*
X297100000Y-208450000D03*
D23*
X292800000Y-211000000D03*
X295200000Y-211000000D03*
D24*
X292700000Y-208325000D03*
X293350000Y-208325000D03*
X294000000Y-208325000D03*
X294650000Y-208325000D03*
X295300000Y-208325000D03*
D25*
X290200000Y-211000000D03*
X297800000Y-211000000D03*
D26*
X307700000Y-181100000D03*
D27*
X305800000Y-179500000D03*
X305800000Y-175000000D03*
X305800000Y-176500000D03*
D26*
X307700000Y-173150000D03*
D28*
X307600000Y-178750000D03*
X307650000Y-175750000D03*
D29*
X253850000Y-177050000D03*
D30*
X253850000Y-178650000D03*
X253850000Y-177850000D03*
D29*
X253850000Y-179450000D03*
D30*
X255650000Y-177850000D03*
D29*
X255650000Y-177050000D03*
D30*
X255650000Y-178650000D03*
D29*
X255650000Y-179450000D03*
X279900000Y-183200000D03*
D30*
X279900000Y-181600000D03*
X279900000Y-182400000D03*
D29*
X279900000Y-180800000D03*
D30*
X278100000Y-182400000D03*
D29*
X278100000Y-183200000D03*
D30*
X278100000Y-181600000D03*
D29*
X278100000Y-180800000D03*
D18*
X253875000Y-175000000D03*
X255625000Y-175000000D03*
X291625000Y-182750000D03*
X293375000Y-182750000D03*
D14*
X252520000Y-192250000D03*
X255480000Y-192250000D03*
D18*
X254125000Y-189250000D03*
X255875000Y-189250000D03*
D31*
X258300000Y-175000000D03*
D32*
X258300000Y-177000000D03*
X258300000Y-179000000D03*
X258300000Y-181000000D03*
X258300000Y-183000000D03*
X258300000Y-185000000D03*
X258300000Y-187000000D03*
X258300000Y-189000000D03*
X273700000Y-189000000D03*
X273600000Y-187000000D03*
X273700000Y-185000000D03*
X273700000Y-183000000D03*
X273700000Y-181000000D03*
X273700000Y-179000000D03*
X273700000Y-177000000D03*
X273700000Y-175000000D03*
D15*
X251000000Y-177125000D03*
X251000000Y-178875000D03*
D16*
X249155000Y-173300000D03*
X247885000Y-173300000D03*
X246615000Y-173300000D03*
X245345000Y-173300000D03*
X245345000Y-178700000D03*
X246615000Y-178700000D03*
X247885000Y-178700000D03*
X249155000Y-178700000D03*
D18*
X286875000Y-192000000D03*
X285125000Y-192000000D03*
X286875000Y-194000000D03*
X285125000Y-194000000D03*
X286875000Y-195750000D03*
X285125000Y-195750000D03*
D33*
X277300000Y-190095000D03*
X277300000Y-191365000D03*
X277300000Y-192635000D03*
X277300000Y-193905000D03*
X282700000Y-193905000D03*
X282700000Y-192635000D03*
X282700000Y-191365000D03*
X282700000Y-190095000D03*
D18*
X233625000Y-209500000D03*
X235375000Y-209500000D03*
D15*
X239500000Y-203875000D03*
X239500000Y-202125000D03*
X239500000Y-207375000D03*
X239500000Y-205625000D03*
X241250000Y-205625000D03*
X241250000Y-203875000D03*
X241250000Y-207125000D03*
X241250000Y-208875000D03*
D13*
X231000000Y-202270000D03*
X231000000Y-205230000D03*
D15*
X232000000Y-208875000D03*
X232000000Y-207125000D03*
D16*
X233845000Y-207450000D03*
X235115000Y-207450000D03*
X236385000Y-207450000D03*
X237655000Y-207450000D03*
X237655000Y-202050000D03*
X236385000Y-202050000D03*
X235115000Y-202050000D03*
X233845000Y-202050000D03*
D34*
X226800000Y-201000000D03*
X213200000Y-201000000D03*
D18*
X266125000Y-194000000D03*
X267875000Y-194000000D03*
X266125000Y-196000000D03*
X267875000Y-196000000D03*
D35*
X264070000Y-209000000D03*
X272050000Y-209000000D03*
D36*
X271250000Y-198500000D03*
X270150000Y-198500000D03*
X269050000Y-198500000D03*
X267950000Y-198500000D03*
X266850000Y-198500000D03*
X265750000Y-198500000D03*
X264650000Y-198500000D03*
X263550000Y-198500000D03*
D37*
X262450000Y-198500000D03*
D38*
X276750000Y-208600000D03*
X261250000Y-208600000D03*
D39*
X275850000Y-199000000D03*
D40*
X261250000Y-199000000D03*
D41*
X220200000Y-185100000D03*
D42*
X218600000Y-185100000D03*
X219400000Y-185100000D03*
D41*
X217800000Y-185100000D03*
D42*
X219400000Y-186900000D03*
D41*
X220200000Y-186900000D03*
D42*
X218600000Y-186900000D03*
D41*
X217800000Y-186900000D03*
X296200000Y-185100000D03*
D42*
X294600000Y-185100000D03*
X295400000Y-185100000D03*
D41*
X293800000Y-185100000D03*
D42*
X295400000Y-186900000D03*
D41*
X296200000Y-186900000D03*
D42*
X294600000Y-186900000D03*
D41*
X293800000Y-186900000D03*
D43*
X219000000Y-175500000D03*
X219000000Y-180500000D03*
X227000000Y-183500000D03*
X227000000Y-188500000D03*
X211000000Y-183500000D03*
X211000000Y-188500000D03*
X219000000Y-191500000D03*
X219000000Y-196500000D03*
X295000000Y-191500000D03*
X295000000Y-196500000D03*
X303000000Y-183500000D03*
X303000000Y-188500000D03*
X295000000Y-175500000D03*
X295000000Y-180500000D03*
X287000000Y-183500000D03*
X287000000Y-188500000D03*
X285000000Y-203500000D03*
X285000000Y-208500000D03*
D18*
X252125000Y-196750000D03*
X253875000Y-196750000D03*
D44*
X248300000Y-198555000D03*
X248300000Y-199825000D03*
X248300000Y-201095000D03*
X248300000Y-202365000D03*
X248300000Y-203635000D03*
X248300000Y-204905000D03*
X248300000Y-206175000D03*
X248300000Y-207445000D03*
X253700000Y-207445000D03*
X253700000Y-206175000D03*
X253700000Y-204905000D03*
X253700000Y-203635000D03*
X253700000Y-202365000D03*
X253700000Y-201095000D03*
X253700000Y-199825000D03*
X253700000Y-198555000D03*
D15*
X250250000Y-193625000D03*
X250250000Y-191875000D03*
D18*
X252375000Y-189500000D03*
X250625000Y-189500000D03*
X252375000Y-187750000D03*
X250625000Y-187750000D03*
X252375000Y-185000000D03*
X250625000Y-185000000D03*
D45*
X246300000Y-183800000D03*
X246300000Y-184600000D03*
X246300000Y-185400000D03*
X246300000Y-186200000D03*
X246300000Y-187000000D03*
X246300000Y-187800000D03*
X246300000Y-188600000D03*
X246300000Y-189400000D03*
X246300000Y-190200000D03*
X246300000Y-191000000D03*
X246300000Y-191800000D03*
X246300000Y-192600000D03*
X246300000Y-193400000D03*
X246300000Y-194200000D03*
D46*
X209000000Y-170000000D03*
X209000000Y-208000000D03*
X305000000Y-170000000D03*
X305000000Y-208000000D03*
D47*
X99000000Y-70000000D03*
X311000000Y-70000000D03*
X99000000Y-210000000D03*
M02*
