M48
;DRILL file {KiCad 4.0.4-snap1-stable} date Fri May 24 02:00:38 2019
;FORMAT={-:-/ absolute / metric / decimal}
FMAT,2
METRIC,TZ
T1C0.400
T2C1.000
T3C2.200
T4C0.700
T5C1.000
%
G90
G05
M71
T1
X107.Y-84.
X107.Y-133.
X107.Y-182.
X115.Y-76.
X115.Y-92.25
X115.Y-125.
X115.Y-141.25
X115.Y-174.
X115.Y-190.25
X115.25Y-90.5
X115.25Y-139.5
X115.25Y-188.5
X120.Y-93.25
X120.Y-142.25
X120.Y-191.25
X123.Y-84.
X123.Y-133.
X123.Y-182.
X125.25Y-104.25
X125.25Y-153.25
X125.25Y-202.25
X129.Y-110.5
X129.Y-159.5
X129.Y-208.5
X131.Y-102.75
X131.Y-151.75
X131.Y-200.75
X135.Y-92.
X135.Y-141.
X135.Y-190.
X136.5Y-111.
X136.5Y-160.
X136.5Y-209.
X138.25Y-90.25
X138.25Y-139.25
X138.25Y-188.25
X139.25Y-87.75
X139.25Y-93.
X139.25Y-94.5
X139.25Y-136.75
X139.25Y-142.
X139.25Y-143.5
X139.25Y-185.75
X139.25Y-191.
X139.25Y-192.5
X139.5Y-89.
X139.5Y-138.
X139.5Y-187.
X141.25Y-76.75
X141.25Y-125.75
X141.25Y-174.75
X143.Y-109.5
X143.Y-158.5
X143.Y-207.5
X145.5Y-86.25
X145.5Y-91.25
X145.5Y-135.25
X145.5Y-140.25
X145.5Y-184.25
X145.5Y-189.25
X145.75Y-79.
X145.75Y-128.
X145.75Y-177.
X147.Y-101.75
X147.Y-150.75
X147.Y-199.75
X147.5Y-84.25
X147.5Y-133.25
X147.5Y-182.25
X148.25Y-108.25
X148.25Y-157.25
X148.25Y-206.25
X148.5Y-78.
X148.5Y-101.75
X148.5Y-127.
X148.5Y-150.75
X148.5Y-176.
X148.5Y-199.75
X149.Y-79.75
X149.Y-128.75
X149.Y-177.75
X149.25Y-87.
X149.25Y-136.
X149.25Y-185.
X149.5Y-92.5
X149.5Y-141.5
X149.5Y-190.5
X149.75Y-76.
X149.75Y-90.25
X149.75Y-125.
X149.75Y-139.25
X149.75Y-174.
X149.75Y-188.25
X151.75Y-83.25
X151.75Y-132.25
X151.75Y-181.25
X152.Y-101.
X152.Y-150.
X152.Y-199.
X156.5Y-78.
X156.5Y-85.75
X156.5Y-127.
X156.5Y-134.75
X156.5Y-176.
X156.5Y-183.75
X157.75Y-87.
X157.75Y-136.
X157.75Y-185.
X158.5Y-85.
X158.5Y-134.
X158.5Y-183.
X160.75Y-97.75
X160.75Y-146.75
X160.75Y-195.75
X161.25Y-102.
X161.25Y-151.
X161.25Y-200.
X162.Y-97.
X162.Y-146.
X162.Y-195.
X164.75Y-96.
X164.75Y-145.
X164.75Y-194.
X165.75Y-80.
X165.75Y-84.
X165.75Y-85.75
X165.75Y-129.
X165.75Y-133.
X165.75Y-134.75
X165.75Y-178.
X165.75Y-182.
X165.75Y-183.75
X167.Y-84.
X167.Y-85.75
X167.Y-96.
X167.Y-133.
X167.Y-134.75
X167.Y-145.
X167.Y-182.
X167.Y-183.75
X167.Y-194.
X167.5Y-78.25
X167.5Y-80.5
X167.5Y-127.25
X167.5Y-129.5
X167.5Y-176.25
X167.5Y-178.5
X167.75Y-107.75
X167.75Y-156.75
X167.75Y-205.75
X168.Y-90.75
X168.Y-139.75
X168.Y-188.75
X168.75Y-102.75
X168.75Y-151.75
X168.75Y-200.75
X170.25Y-92.
X170.25Y-141.
X170.25Y-190.
X171.25Y-88.5
X171.25Y-137.5
X171.25Y-186.5
X172.5Y-87.25
X172.5Y-136.25
X172.5Y-185.25
X172.75Y-75.
X172.75Y-79.75
X172.75Y-124.
X172.75Y-128.75
X172.75Y-173.
X172.75Y-177.75
X173.25Y-101.
X173.25Y-150.
X173.25Y-199.
X173.5Y-98.5
X173.5Y-147.5
X173.5Y-196.5
X173.75Y-72.75
X173.75Y-121.75
X173.75Y-170.75
X174.Y-78.25
X174.Y-79.75
X174.Y-127.25
X174.Y-128.75
X174.Y-176.25
X174.Y-177.75
X174.5Y-95.75
X174.5Y-144.75
X174.5Y-193.75
X174.75Y-70.
X174.75Y-119.
X174.75Y-168.
X175.75Y-85.75
X175.75Y-134.75
X175.75Y-183.75
X176.Y-99.75
X176.Y-106.5
X176.Y-148.75
X176.Y-155.5
X176.Y-197.75
X176.Y-204.5
X176.25Y-103.5
X176.25Y-104.75
X176.25Y-152.5
X176.25Y-153.75
X176.25Y-201.5
X176.25Y-202.75
X177.25Y-85.25
X177.25Y-134.25
X177.25Y-183.25
X178.Y-100.75
X178.Y-149.75
X178.Y-198.75
X178.75Y-85.25
X178.75Y-134.25
X178.75Y-183.25
X179.5Y-83.5
X179.5Y-132.5
X179.5Y-181.5
X180.25Y-99.75
X180.25Y-148.75
X180.25Y-197.75
X181.Y-74.
X181.Y-104.25
X181.Y-123.
X181.Y-153.25
X181.Y-172.
X181.Y-202.25
X181.5Y-73.
X181.5Y-122.
X181.5Y-171.
X182.75Y-95.
X182.75Y-144.
X182.75Y-193.
X183.Y-84.25
X183.Y-133.25
X183.Y-182.25
X183.2Y-77.65
X183.2Y-78.85
X183.2Y-126.65
X183.2Y-127.85
X183.2Y-175.65
X183.2Y-176.85
X184.8Y-77.65
X184.8Y-78.85
X184.8Y-126.65
X184.8Y-127.85
X184.8Y-175.65
X184.8Y-176.85
X186.Y-101.25
X186.Y-106.5
X186.Y-150.25
X186.Y-155.5
X186.Y-199.25
X186.Y-204.5
X186.5Y-95.25
X186.5Y-144.25
X186.5Y-193.25
X187.Y-74.
X187.Y-103.
X187.Y-123.
X187.Y-152.
X187.Y-172.
X187.Y-201.
X188.Y-76.
X188.Y-125.
X188.Y-174.
X188.75Y-90.5
X188.75Y-109.
X188.75Y-139.5
X188.75Y-158.
X188.75Y-188.5
X188.75Y-207.
X189.75Y-72.75
X189.75Y-121.75
X189.75Y-170.75
X190.25Y-84.75
X190.25Y-133.75
X190.25Y-182.75
X191.Y-76.5
X191.Y-85.75
X191.Y-92.
X191.Y-125.5
X191.Y-134.75
X191.Y-141.
X191.Y-174.5
X191.Y-183.75
X191.Y-190.
X193.Y-106.5
X193.Y-155.5
X193.Y-204.5
X193.25Y-73.75
X193.25Y-122.75
X193.25Y-171.75
X195.75Y-106.25
X195.75Y-155.25
X195.75Y-204.25
X196.Y-83.
X196.Y-132.
X196.Y-181.
X197.25Y-94.5
X197.25Y-97.25
X197.25Y-143.5
X197.25Y-146.25
X197.25Y-192.5
X197.25Y-195.25
X197.75Y-106.5
X197.75Y-155.5
X197.75Y-204.5
X199.Y-84.25
X199.Y-133.25
X199.Y-182.25
X199.75Y-96.75
X199.75Y-145.75
X199.75Y-194.75
X200.75Y-102.5
X200.75Y-151.5
X200.75Y-200.5
X202.5Y-92.
X202.5Y-141.
X202.5Y-190.
X203.75Y-95.25
X203.75Y-144.25
X203.75Y-193.25
X211.Y-84.
X211.Y-133.
X211.Y-182.
X219.Y-76.
X219.Y-92.25
X219.Y-125.
X219.Y-141.25
X219.Y-174.
X219.Y-190.25
X219.25Y-90.5
X219.25Y-139.5
X219.25Y-188.5
X224.Y-93.25
X224.Y-142.25
X224.Y-191.25
X227.Y-84.
X227.Y-133.
X227.Y-182.
X229.25Y-104.25
X229.25Y-153.25
X229.25Y-202.25
X233.Y-110.5
X233.Y-159.5
X233.Y-208.5
X235.Y-102.75
X235.Y-151.75
X235.Y-200.75
X239.Y-92.
X239.Y-141.
X239.Y-190.
X240.5Y-111.
X240.5Y-160.
X240.5Y-209.
X242.25Y-90.25
X242.25Y-139.25
X242.25Y-188.25
X243.25Y-87.75
X243.25Y-93.
X243.25Y-94.5
X243.25Y-136.75
X243.25Y-142.
X243.25Y-143.5
X243.25Y-185.75
X243.25Y-191.
X243.25Y-192.5
X243.5Y-89.
X243.5Y-138.
X243.5Y-187.
X245.25Y-76.75
X245.25Y-125.75
X245.25Y-174.75
X247.Y-109.5
X247.Y-158.5
X247.Y-207.5
X249.5Y-86.25
X249.5Y-91.25
X249.5Y-135.25
X249.5Y-140.25
X249.5Y-184.25
X249.5Y-189.25
X249.75Y-79.
X249.75Y-128.
X249.75Y-177.
X251.Y-101.75
X251.Y-150.75
X251.Y-199.75
X251.5Y-84.25
X251.5Y-133.25
X251.5Y-182.25
X252.25Y-108.25
X252.25Y-157.25
X252.25Y-206.25
X252.5Y-78.
X252.5Y-101.75
X252.5Y-127.
X252.5Y-150.75
X252.5Y-176.
X252.5Y-199.75
X253.Y-79.75
X253.Y-128.75
X253.Y-177.75
X253.25Y-87.
X253.25Y-136.
X253.25Y-185.
X253.5Y-92.5
X253.5Y-141.5
X253.5Y-190.5
X253.75Y-76.
X253.75Y-90.25
X253.75Y-125.
X253.75Y-139.25
X253.75Y-174.
X253.75Y-188.25
X255.75Y-83.25
X255.75Y-132.25
X255.75Y-181.25
X256.Y-101.
X256.Y-150.
X256.Y-199.
X260.5Y-78.
X260.5Y-85.75
X260.5Y-127.
X260.5Y-134.75
X260.5Y-176.
X260.5Y-183.75
X261.75Y-87.
X261.75Y-136.
X261.75Y-185.
X262.5Y-85.
X262.5Y-134.
X262.5Y-183.
X264.75Y-97.75
X264.75Y-146.75
X264.75Y-195.75
X265.25Y-102.
X265.25Y-151.
X265.25Y-200.
X266.Y-97.
X266.Y-146.
X266.Y-195.
X268.75Y-96.
X268.75Y-145.
X268.75Y-194.
X269.75Y-80.
X269.75Y-84.
X269.75Y-85.75
X269.75Y-129.
X269.75Y-133.
X269.75Y-134.75
X269.75Y-178.
X269.75Y-182.
X269.75Y-183.75
X271.Y-84.
X271.Y-85.75
X271.Y-96.
X271.Y-133.
X271.Y-134.75
X271.Y-145.
X271.Y-182.
X271.Y-183.75
X271.Y-194.
X271.5Y-78.25
X271.5Y-80.5
X271.5Y-127.25
X271.5Y-129.5
X271.5Y-176.25
X271.5Y-178.5
X271.75Y-107.75
X271.75Y-156.75
X271.75Y-205.75
X272.Y-90.75
X272.Y-139.75
X272.Y-188.75
X272.75Y-102.75
X272.75Y-151.75
X272.75Y-200.75
X274.25Y-92.
X274.25Y-141.
X274.25Y-190.
X275.25Y-88.5
X275.25Y-137.5
X275.25Y-186.5
X276.5Y-87.25
X276.5Y-136.25
X276.5Y-185.25
X276.75Y-75.
X276.75Y-79.75
X276.75Y-124.
X276.75Y-128.75
X276.75Y-173.
X276.75Y-177.75
X277.25Y-101.
X277.25Y-150.
X277.25Y-199.
X277.5Y-98.5
X277.5Y-147.5
X277.5Y-196.5
X277.75Y-72.75
X277.75Y-121.75
X277.75Y-170.75
X278.Y-78.25
X278.Y-79.75
X278.Y-127.25
X278.Y-128.75
X278.Y-176.25
X278.Y-177.75
X278.5Y-95.75
X278.5Y-144.75
X278.5Y-193.75
X278.75Y-70.
X278.75Y-119.
X278.75Y-168.
X279.75Y-85.75
X279.75Y-134.75
X279.75Y-183.75
X280.Y-99.75
X280.Y-106.5
X280.Y-148.75
X280.Y-155.5
X280.Y-197.75
X280.Y-204.5
X280.25Y-103.5
X280.25Y-104.75
X280.25Y-152.5
X280.25Y-153.75
X280.25Y-201.5
X280.25Y-202.75
X281.25Y-85.25
X281.25Y-134.25
X281.25Y-183.25
X282.Y-100.75
X282.Y-149.75
X282.Y-198.75
X282.75Y-85.25
X282.75Y-134.25
X282.75Y-183.25
X283.5Y-83.5
X283.5Y-132.5
X283.5Y-181.5
X284.25Y-99.75
X284.25Y-148.75
X284.25Y-197.75
X285.Y-74.
X285.Y-104.25
X285.Y-123.
X285.Y-153.25
X285.Y-172.
X285.Y-202.25
X285.5Y-73.
X285.5Y-122.
X285.5Y-171.
X286.75Y-95.
X286.75Y-144.
X286.75Y-193.
X287.Y-84.25
X287.Y-133.25
X287.Y-182.25
X287.2Y-77.65
X287.2Y-78.85
X287.2Y-126.65
X287.2Y-127.85
X287.2Y-175.65
X287.2Y-176.85
X288.8Y-77.65
X288.8Y-78.85
X288.8Y-126.65
X288.8Y-127.85
X288.8Y-175.65
X288.8Y-176.85
X290.Y-101.25
X290.Y-106.5
X290.Y-150.25
X290.Y-155.5
X290.Y-199.25
X290.Y-204.5
X290.5Y-95.25
X290.5Y-144.25
X290.5Y-193.25
X291.Y-74.
X291.Y-103.
X291.Y-123.
X291.Y-152.
X291.Y-172.
X291.Y-201.
X292.Y-76.
X292.Y-125.
X292.Y-174.
X292.75Y-90.5
X292.75Y-109.
X292.75Y-139.5
X292.75Y-158.
X292.75Y-188.5
X292.75Y-207.
X293.75Y-72.75
X293.75Y-121.75
X293.75Y-170.75
X294.25Y-84.75
X294.25Y-133.75
X294.25Y-182.75
X295.Y-76.5
X295.Y-85.75
X295.Y-92.
X295.Y-125.5
X295.Y-134.75
X295.Y-141.
X295.Y-174.5
X295.Y-183.75
X295.Y-190.
X297.Y-106.5
X297.Y-155.5
X297.Y-204.5
X297.25Y-73.75
X297.25Y-122.75
X297.25Y-171.75
X299.75Y-106.25
X299.75Y-155.25
X299.75Y-204.25
X300.Y-83.
X300.Y-132.
X300.Y-181.
X301.25Y-94.5
X301.25Y-97.25
X301.25Y-143.5
X301.25Y-146.25
X301.25Y-192.5
X301.25Y-195.25
X301.75Y-106.5
X301.75Y-155.5
X301.75Y-204.5
X303.Y-84.25
X303.Y-133.25
X303.Y-182.25
X303.75Y-96.75
X303.75Y-145.75
X303.75Y-194.75
X304.75Y-102.5
X304.75Y-151.5
X304.75Y-200.5
X306.5Y-92.
X306.5Y-141.
X306.5Y-190.
X307.75Y-95.25
X307.75Y-144.25
X307.75Y-193.25
T2
X176.8Y-70.
X176.8Y-119.
X176.8Y-168.
X179.34Y-70.
X179.34Y-119.
X179.34Y-168.
X181.88Y-70.
X181.88Y-119.
X181.88Y-168.
X184.42Y-70.
X184.42Y-119.
X184.42Y-168.
X186.96Y-70.
X186.96Y-119.
X186.96Y-168.
X189.5Y-70.
X189.5Y-119.
X189.5Y-168.
X193.75Y-70.
X193.75Y-119.
X193.75Y-168.
X197.Y-70.
X197.Y-119.
X197.Y-168.
X280.8Y-70.
X280.8Y-119.
X280.8Y-168.
X283.34Y-70.
X283.34Y-119.
X283.34Y-168.
X285.88Y-70.
X285.88Y-119.
X285.88Y-168.
X288.42Y-70.
X288.42Y-119.
X288.42Y-168.
X290.96Y-70.
X290.96Y-119.
X290.96Y-168.
X293.5Y-70.
X293.5Y-119.
X293.5Y-168.
X297.75Y-70.
X297.75Y-119.
X297.75Y-168.
X301.Y-70.
X301.Y-119.
X301.Y-168.
T3
X105.Y-72.
X105.Y-110.
X105.Y-121.
X105.Y-159.
X105.Y-170.
X105.Y-208.
X201.Y-72.
X201.Y-110.
X201.Y-121.
X201.Y-159.
X201.Y-170.
X201.Y-208.
X209.Y-72.
X209.Y-110.
X209.Y-121.
X209.Y-159.
X209.Y-170.
X209.Y-208.
X305.Y-72.
X305.Y-110.
X305.Y-121.
X305.Y-159.
X305.Y-170.
X305.Y-208.
T4
X203.6Y-80.75
X203.6Y-129.75
X203.6Y-178.75
X203.65Y-77.75
X203.65Y-126.75
X203.65Y-175.75
X307.6Y-80.75
X307.6Y-129.75
X307.6Y-178.75
X307.65Y-77.75
X307.65Y-126.75
X307.65Y-175.75
T5
X160.07Y-111.
X160.07Y-160.
X160.07Y-209.
X168.05Y-111.
X168.05Y-160.
X168.05Y-209.
X264.07Y-111.
X264.07Y-160.
X264.07Y-209.
X272.05Y-111.
X272.05Y-160.
X272.05Y-209.
T0
M30
