G04 #@! TF.FileFunction,Paste,Top*
%FSLAX46Y46*%
G04 Gerber Fmt 4.6, Leading zero omitted, Abs format (unit mm)*
G04 Created by KiCad (PCBNEW 4.0.4-snap1-stable) date Fri May 24 02:00:32 2019*
%MOMM*%
%LPD*%
G01*
G04 APERTURE LIST*
%ADD10C,0.150000*%
%ADD11R,2.400000X1.460000*%
%ADD12R,1.460000X2.400000*%
%ADD13R,1.000000X0.670000*%
%ADD14R,0.600000X1.550000*%
%ADD15R,0.650000X1.060000*%
%ADD16R,0.670000X1.000000*%
%ADD17R,0.800000X2.700000*%
%ADD18R,0.960000X0.720000*%
%ADD19R,1.500000X0.970000*%
%ADD20R,2.100000X1.600000*%
%ADD21R,1.900000X1.900000*%
%ADD22R,0.400000X1.350000*%
%ADD23R,1.800000X1.900000*%
%ADD24R,2.800000X1.000000*%
%ADD25R,1.000000X0.700000*%
%ADD26R,0.800000X0.500000*%
%ADD27R,0.800000X0.400000*%
%ADD28R,2.500000X1.100000*%
%ADD29O,2.500000X1.100000*%
%ADD30R,1.550000X0.600000*%
%ADD31R,0.700000X1.600000*%
%ADD32R,0.600000X1.600000*%
%ADD33R,1.200000X2.200000*%
%ADD34R,1.600000X1.400000*%
%ADD35R,1.100000X1.400000*%
%ADD36R,0.500000X0.800000*%
%ADD37R,0.400000X0.800000*%
%ADD38R,1.500000X1.400000*%
%ADD39R,1.500000X0.600000*%
G04 APERTURE END LIST*
D10*
D11*
X193000000Y-105230000D03*
X193000000Y-102270000D03*
D12*
X198520000Y-94500000D03*
X201480000Y-94500000D03*
D13*
X197750000Y-105625000D03*
X197750000Y-103875000D03*
X195750000Y-105625000D03*
X195750000Y-103875000D03*
D14*
X199655000Y-76550000D03*
X198385000Y-76550000D03*
X197115000Y-76550000D03*
X195845000Y-76550000D03*
X195845000Y-81950000D03*
X197115000Y-81950000D03*
X198385000Y-81950000D03*
X199655000Y-81950000D03*
D13*
X194000000Y-75375000D03*
X194000000Y-73625000D03*
D15*
X199800000Y-101600000D03*
X200750000Y-101600000D03*
X201700000Y-101600000D03*
X201700000Y-99400000D03*
X199800000Y-99400000D03*
D13*
X196250000Y-99125000D03*
X196250000Y-100875000D03*
X198000000Y-99125000D03*
X198000000Y-97375000D03*
D16*
X199875000Y-97500000D03*
X201625000Y-97500000D03*
D13*
X189000000Y-72875000D03*
X189000000Y-74625000D03*
D17*
X201850000Y-104500000D03*
X199650000Y-104500000D03*
D14*
X182095000Y-80950000D03*
X183365000Y-80950000D03*
X184635000Y-80950000D03*
X185905000Y-80950000D03*
X185905000Y-75550000D03*
X184635000Y-75550000D03*
X183365000Y-75550000D03*
X182095000Y-75550000D03*
D18*
X184800000Y-77650000D03*
X183200000Y-77650000D03*
X184800000Y-78850000D03*
X183200000Y-78850000D03*
D19*
X173750000Y-71955000D03*
X173750000Y-70045000D03*
D16*
X183125000Y-83000000D03*
X184875000Y-83000000D03*
X183375000Y-73000000D03*
X185125000Y-73000000D03*
D20*
X186900000Y-110450000D03*
X193100000Y-110450000D03*
D21*
X188800000Y-113000000D03*
X191200000Y-113000000D03*
D22*
X188700000Y-110325000D03*
X189350000Y-110325000D03*
X190000000Y-110325000D03*
X190650000Y-110325000D03*
X191300000Y-110325000D03*
D23*
X186200000Y-113000000D03*
X193800000Y-113000000D03*
D24*
X203700000Y-83100000D03*
D25*
X201800000Y-81500000D03*
X201800000Y-77000000D03*
X201800000Y-78500000D03*
D24*
X203700000Y-75150000D03*
D26*
X149850000Y-79050000D03*
D27*
X149850000Y-80650000D03*
X149850000Y-79850000D03*
D26*
X149850000Y-81450000D03*
D27*
X151650000Y-79850000D03*
D26*
X151650000Y-79050000D03*
D27*
X151650000Y-80650000D03*
D26*
X151650000Y-81450000D03*
X175900000Y-85200000D03*
D27*
X175900000Y-83600000D03*
X175900000Y-84400000D03*
D26*
X175900000Y-82800000D03*
D27*
X174100000Y-84400000D03*
D26*
X174100000Y-85200000D03*
D27*
X174100000Y-83600000D03*
D26*
X174100000Y-82800000D03*
D16*
X149875000Y-77000000D03*
X151625000Y-77000000D03*
X187625000Y-84750000D03*
X189375000Y-84750000D03*
D12*
X148520000Y-94250000D03*
X151480000Y-94250000D03*
D16*
X150125000Y-91250000D03*
X151875000Y-91250000D03*
D28*
X154300000Y-77000000D03*
D29*
X154300000Y-79000000D03*
X154300000Y-81000000D03*
X154300000Y-83000000D03*
X154300000Y-85000000D03*
X154300000Y-87000000D03*
X154300000Y-89000000D03*
X154300000Y-91000000D03*
X169700000Y-91000000D03*
X169600000Y-89000000D03*
X169700000Y-87000000D03*
X169700000Y-85000000D03*
X169700000Y-83000000D03*
X169700000Y-81000000D03*
X169700000Y-79000000D03*
X169700000Y-77000000D03*
D13*
X147000000Y-79125000D03*
X147000000Y-80875000D03*
D14*
X145155000Y-75300000D03*
X143885000Y-75300000D03*
X142615000Y-75300000D03*
X141345000Y-75300000D03*
X141345000Y-80700000D03*
X142615000Y-80700000D03*
X143885000Y-80700000D03*
X145155000Y-80700000D03*
D16*
X182875000Y-94000000D03*
X181125000Y-94000000D03*
X182875000Y-96000000D03*
X181125000Y-96000000D03*
X182875000Y-97750000D03*
X181125000Y-97750000D03*
D30*
X173300000Y-92095000D03*
X173300000Y-93365000D03*
X173300000Y-94635000D03*
X173300000Y-95905000D03*
X178700000Y-95905000D03*
X178700000Y-94635000D03*
X178700000Y-93365000D03*
X178700000Y-92095000D03*
D16*
X129625000Y-111500000D03*
X131375000Y-111500000D03*
D13*
X135500000Y-105875000D03*
X135500000Y-104125000D03*
X135500000Y-109375000D03*
X135500000Y-107625000D03*
X137250000Y-107625000D03*
X137250000Y-105875000D03*
X137250000Y-109125000D03*
X137250000Y-110875000D03*
D11*
X127000000Y-104270000D03*
X127000000Y-107230000D03*
D13*
X128000000Y-110875000D03*
X128000000Y-109125000D03*
D14*
X129845000Y-109450000D03*
X131115000Y-109450000D03*
X132385000Y-109450000D03*
X133655000Y-109450000D03*
X133655000Y-104050000D03*
X132385000Y-104050000D03*
X131115000Y-104050000D03*
X129845000Y-104050000D03*
D16*
X162125000Y-96000000D03*
X163875000Y-96000000D03*
X162125000Y-98000000D03*
X163875000Y-98000000D03*
D31*
X167250000Y-100500000D03*
X166150000Y-100500000D03*
X165050000Y-100500000D03*
X163950000Y-100500000D03*
X162850000Y-100500000D03*
X161750000Y-100500000D03*
X160650000Y-100500000D03*
X159550000Y-100500000D03*
D32*
X158450000Y-100500000D03*
D33*
X172750000Y-110600000D03*
X157250000Y-110600000D03*
D34*
X171850000Y-101000000D03*
D35*
X157250000Y-101000000D03*
D36*
X116200000Y-87100000D03*
D37*
X114600000Y-87100000D03*
X115400000Y-87100000D03*
D36*
X113800000Y-87100000D03*
D37*
X115400000Y-88900000D03*
D36*
X116200000Y-88900000D03*
D37*
X114600000Y-88900000D03*
D36*
X113800000Y-88900000D03*
X192200000Y-87100000D03*
D37*
X190600000Y-87100000D03*
X191400000Y-87100000D03*
D36*
X189800000Y-87100000D03*
D37*
X191400000Y-88900000D03*
D36*
X192200000Y-88900000D03*
D37*
X190600000Y-88900000D03*
D36*
X189800000Y-88900000D03*
D38*
X115000000Y-77500000D03*
X115000000Y-82500000D03*
X123000000Y-85500000D03*
X123000000Y-90500000D03*
X107000000Y-85500000D03*
X107000000Y-90500000D03*
X115000000Y-93500000D03*
X115000000Y-98500000D03*
X191000000Y-93500000D03*
X191000000Y-98500000D03*
X199000000Y-85500000D03*
X199000000Y-90500000D03*
X191000000Y-77500000D03*
X191000000Y-82500000D03*
X183000000Y-85500000D03*
X183000000Y-90500000D03*
X181000000Y-105500000D03*
X181000000Y-110500000D03*
D16*
X148125000Y-98750000D03*
X149875000Y-98750000D03*
D39*
X144300000Y-100555000D03*
X144300000Y-101825000D03*
X144300000Y-103095000D03*
X144300000Y-104365000D03*
X144300000Y-105635000D03*
X144300000Y-106905000D03*
X144300000Y-108175000D03*
X144300000Y-109445000D03*
X149700000Y-109445000D03*
X149700000Y-108175000D03*
X149700000Y-106905000D03*
X149700000Y-105635000D03*
X149700000Y-104365000D03*
X149700000Y-103095000D03*
X149700000Y-101825000D03*
X149700000Y-100555000D03*
D13*
X146250000Y-95625000D03*
X146250000Y-93875000D03*
D16*
X148375000Y-91500000D03*
X146625000Y-91500000D03*
X148375000Y-89750000D03*
X146625000Y-89750000D03*
X148375000Y-87000000D03*
X146625000Y-87000000D03*
D11*
X297000000Y-105230000D03*
X297000000Y-102270000D03*
D12*
X302520000Y-94500000D03*
X305480000Y-94500000D03*
D13*
X301750000Y-105625000D03*
X301750000Y-103875000D03*
X299750000Y-105625000D03*
X299750000Y-103875000D03*
D14*
X303655000Y-76550000D03*
X302385000Y-76550000D03*
X301115000Y-76550000D03*
X299845000Y-76550000D03*
X299845000Y-81950000D03*
X301115000Y-81950000D03*
X302385000Y-81950000D03*
X303655000Y-81950000D03*
D13*
X298000000Y-75375000D03*
X298000000Y-73625000D03*
D15*
X303800000Y-101600000D03*
X304750000Y-101600000D03*
X305700000Y-101600000D03*
X305700000Y-99400000D03*
X303800000Y-99400000D03*
D13*
X300250000Y-99125000D03*
X300250000Y-100875000D03*
X302000000Y-99125000D03*
X302000000Y-97375000D03*
D16*
X303875000Y-97500000D03*
X305625000Y-97500000D03*
D13*
X293000000Y-72875000D03*
X293000000Y-74625000D03*
D17*
X305850000Y-104500000D03*
X303650000Y-104500000D03*
D14*
X286095000Y-80950000D03*
X287365000Y-80950000D03*
X288635000Y-80950000D03*
X289905000Y-80950000D03*
X289905000Y-75550000D03*
X288635000Y-75550000D03*
X287365000Y-75550000D03*
X286095000Y-75550000D03*
D18*
X288800000Y-77650000D03*
X287200000Y-77650000D03*
X288800000Y-78850000D03*
X287200000Y-78850000D03*
D19*
X277750000Y-71955000D03*
X277750000Y-70045000D03*
D16*
X287125000Y-83000000D03*
X288875000Y-83000000D03*
X287375000Y-73000000D03*
X289125000Y-73000000D03*
D20*
X290900000Y-110450000D03*
X297100000Y-110450000D03*
D21*
X292800000Y-113000000D03*
X295200000Y-113000000D03*
D22*
X292700000Y-110325000D03*
X293350000Y-110325000D03*
X294000000Y-110325000D03*
X294650000Y-110325000D03*
X295300000Y-110325000D03*
D23*
X290200000Y-113000000D03*
X297800000Y-113000000D03*
D24*
X307700000Y-83100000D03*
D25*
X305800000Y-81500000D03*
X305800000Y-77000000D03*
X305800000Y-78500000D03*
D24*
X307700000Y-75150000D03*
D26*
X253850000Y-79050000D03*
D27*
X253850000Y-80650000D03*
X253850000Y-79850000D03*
D26*
X253850000Y-81450000D03*
D27*
X255650000Y-79850000D03*
D26*
X255650000Y-79050000D03*
D27*
X255650000Y-80650000D03*
D26*
X255650000Y-81450000D03*
X279900000Y-85200000D03*
D27*
X279900000Y-83600000D03*
X279900000Y-84400000D03*
D26*
X279900000Y-82800000D03*
D27*
X278100000Y-84400000D03*
D26*
X278100000Y-85200000D03*
D27*
X278100000Y-83600000D03*
D26*
X278100000Y-82800000D03*
D16*
X253875000Y-77000000D03*
X255625000Y-77000000D03*
X291625000Y-84750000D03*
X293375000Y-84750000D03*
D12*
X252520000Y-94250000D03*
X255480000Y-94250000D03*
D16*
X254125000Y-91250000D03*
X255875000Y-91250000D03*
D28*
X258300000Y-77000000D03*
D29*
X258300000Y-79000000D03*
X258300000Y-81000000D03*
X258300000Y-83000000D03*
X258300000Y-85000000D03*
X258300000Y-87000000D03*
X258300000Y-89000000D03*
X258300000Y-91000000D03*
X273700000Y-91000000D03*
X273600000Y-89000000D03*
X273700000Y-87000000D03*
X273700000Y-85000000D03*
X273700000Y-83000000D03*
X273700000Y-81000000D03*
X273700000Y-79000000D03*
X273700000Y-77000000D03*
D13*
X251000000Y-79125000D03*
X251000000Y-80875000D03*
D14*
X249155000Y-75300000D03*
X247885000Y-75300000D03*
X246615000Y-75300000D03*
X245345000Y-75300000D03*
X245345000Y-80700000D03*
X246615000Y-80700000D03*
X247885000Y-80700000D03*
X249155000Y-80700000D03*
D16*
X286875000Y-94000000D03*
X285125000Y-94000000D03*
X286875000Y-96000000D03*
X285125000Y-96000000D03*
X286875000Y-97750000D03*
X285125000Y-97750000D03*
D30*
X277300000Y-92095000D03*
X277300000Y-93365000D03*
X277300000Y-94635000D03*
X277300000Y-95905000D03*
X282700000Y-95905000D03*
X282700000Y-94635000D03*
X282700000Y-93365000D03*
X282700000Y-92095000D03*
D16*
X233625000Y-111500000D03*
X235375000Y-111500000D03*
D13*
X239500000Y-105875000D03*
X239500000Y-104125000D03*
X239500000Y-109375000D03*
X239500000Y-107625000D03*
X241250000Y-107625000D03*
X241250000Y-105875000D03*
X241250000Y-109125000D03*
X241250000Y-110875000D03*
D11*
X231000000Y-104270000D03*
X231000000Y-107230000D03*
D13*
X232000000Y-110875000D03*
X232000000Y-109125000D03*
D14*
X233845000Y-109450000D03*
X235115000Y-109450000D03*
X236385000Y-109450000D03*
X237655000Y-109450000D03*
X237655000Y-104050000D03*
X236385000Y-104050000D03*
X235115000Y-104050000D03*
X233845000Y-104050000D03*
D16*
X266125000Y-96000000D03*
X267875000Y-96000000D03*
X266125000Y-98000000D03*
X267875000Y-98000000D03*
D31*
X271250000Y-100500000D03*
X270150000Y-100500000D03*
X269050000Y-100500000D03*
X267950000Y-100500000D03*
X266850000Y-100500000D03*
X265750000Y-100500000D03*
X264650000Y-100500000D03*
X263550000Y-100500000D03*
D32*
X262450000Y-100500000D03*
D33*
X276750000Y-110600000D03*
X261250000Y-110600000D03*
D34*
X275850000Y-101000000D03*
D35*
X261250000Y-101000000D03*
D36*
X220200000Y-87100000D03*
D37*
X218600000Y-87100000D03*
X219400000Y-87100000D03*
D36*
X217800000Y-87100000D03*
D37*
X219400000Y-88900000D03*
D36*
X220200000Y-88900000D03*
D37*
X218600000Y-88900000D03*
D36*
X217800000Y-88900000D03*
X296200000Y-87100000D03*
D37*
X294600000Y-87100000D03*
X295400000Y-87100000D03*
D36*
X293800000Y-87100000D03*
D37*
X295400000Y-88900000D03*
D36*
X296200000Y-88900000D03*
D37*
X294600000Y-88900000D03*
D36*
X293800000Y-88900000D03*
D38*
X219000000Y-77500000D03*
X219000000Y-82500000D03*
X227000000Y-85500000D03*
X227000000Y-90500000D03*
X211000000Y-85500000D03*
X211000000Y-90500000D03*
X219000000Y-93500000D03*
X219000000Y-98500000D03*
X295000000Y-93500000D03*
X295000000Y-98500000D03*
X303000000Y-85500000D03*
X303000000Y-90500000D03*
X295000000Y-77500000D03*
X295000000Y-82500000D03*
X287000000Y-85500000D03*
X287000000Y-90500000D03*
X285000000Y-105500000D03*
X285000000Y-110500000D03*
D16*
X252125000Y-98750000D03*
X253875000Y-98750000D03*
D39*
X248300000Y-100555000D03*
X248300000Y-101825000D03*
X248300000Y-103095000D03*
X248300000Y-104365000D03*
X248300000Y-105635000D03*
X248300000Y-106905000D03*
X248300000Y-108175000D03*
X248300000Y-109445000D03*
X253700000Y-109445000D03*
X253700000Y-108175000D03*
X253700000Y-106905000D03*
X253700000Y-105635000D03*
X253700000Y-104365000D03*
X253700000Y-103095000D03*
X253700000Y-101825000D03*
X253700000Y-100555000D03*
D13*
X250250000Y-95625000D03*
X250250000Y-93875000D03*
D16*
X252375000Y-91500000D03*
X250625000Y-91500000D03*
X252375000Y-89750000D03*
X250625000Y-89750000D03*
X252375000Y-87000000D03*
X250625000Y-87000000D03*
D11*
X193000000Y-154230000D03*
X193000000Y-151270000D03*
D12*
X198520000Y-143500000D03*
X201480000Y-143500000D03*
D13*
X197750000Y-154625000D03*
X197750000Y-152875000D03*
X195750000Y-154625000D03*
X195750000Y-152875000D03*
D14*
X199655000Y-125550000D03*
X198385000Y-125550000D03*
X197115000Y-125550000D03*
X195845000Y-125550000D03*
X195845000Y-130950000D03*
X197115000Y-130950000D03*
X198385000Y-130950000D03*
X199655000Y-130950000D03*
D13*
X194000000Y-124375000D03*
X194000000Y-122625000D03*
D15*
X199800000Y-150600000D03*
X200750000Y-150600000D03*
X201700000Y-150600000D03*
X201700000Y-148400000D03*
X199800000Y-148400000D03*
D13*
X196250000Y-148125000D03*
X196250000Y-149875000D03*
X198000000Y-148125000D03*
X198000000Y-146375000D03*
D16*
X199875000Y-146500000D03*
X201625000Y-146500000D03*
D13*
X189000000Y-121875000D03*
X189000000Y-123625000D03*
D17*
X201850000Y-153500000D03*
X199650000Y-153500000D03*
D14*
X182095000Y-129950000D03*
X183365000Y-129950000D03*
X184635000Y-129950000D03*
X185905000Y-129950000D03*
X185905000Y-124550000D03*
X184635000Y-124550000D03*
X183365000Y-124550000D03*
X182095000Y-124550000D03*
D18*
X184800000Y-126650000D03*
X183200000Y-126650000D03*
X184800000Y-127850000D03*
X183200000Y-127850000D03*
D19*
X173750000Y-120955000D03*
X173750000Y-119045000D03*
D16*
X183125000Y-132000000D03*
X184875000Y-132000000D03*
X183375000Y-122000000D03*
X185125000Y-122000000D03*
D20*
X186900000Y-159450000D03*
X193100000Y-159450000D03*
D21*
X188800000Y-162000000D03*
X191200000Y-162000000D03*
D22*
X188700000Y-159325000D03*
X189350000Y-159325000D03*
X190000000Y-159325000D03*
X190650000Y-159325000D03*
X191300000Y-159325000D03*
D23*
X186200000Y-162000000D03*
X193800000Y-162000000D03*
D24*
X203700000Y-132100000D03*
D25*
X201800000Y-130500000D03*
X201800000Y-126000000D03*
X201800000Y-127500000D03*
D24*
X203700000Y-124150000D03*
D26*
X149850000Y-128050000D03*
D27*
X149850000Y-129650000D03*
X149850000Y-128850000D03*
D26*
X149850000Y-130450000D03*
D27*
X151650000Y-128850000D03*
D26*
X151650000Y-128050000D03*
D27*
X151650000Y-129650000D03*
D26*
X151650000Y-130450000D03*
X175900000Y-134200000D03*
D27*
X175900000Y-132600000D03*
X175900000Y-133400000D03*
D26*
X175900000Y-131800000D03*
D27*
X174100000Y-133400000D03*
D26*
X174100000Y-134200000D03*
D27*
X174100000Y-132600000D03*
D26*
X174100000Y-131800000D03*
D16*
X149875000Y-126000000D03*
X151625000Y-126000000D03*
X187625000Y-133750000D03*
X189375000Y-133750000D03*
D12*
X148520000Y-143250000D03*
X151480000Y-143250000D03*
D16*
X150125000Y-140250000D03*
X151875000Y-140250000D03*
D28*
X154300000Y-126000000D03*
D29*
X154300000Y-128000000D03*
X154300000Y-130000000D03*
X154300000Y-132000000D03*
X154300000Y-134000000D03*
X154300000Y-136000000D03*
X154300000Y-138000000D03*
X154300000Y-140000000D03*
X169700000Y-140000000D03*
X169600000Y-138000000D03*
X169700000Y-136000000D03*
X169700000Y-134000000D03*
X169700000Y-132000000D03*
X169700000Y-130000000D03*
X169700000Y-128000000D03*
X169700000Y-126000000D03*
D13*
X147000000Y-128125000D03*
X147000000Y-129875000D03*
D14*
X145155000Y-124300000D03*
X143885000Y-124300000D03*
X142615000Y-124300000D03*
X141345000Y-124300000D03*
X141345000Y-129700000D03*
X142615000Y-129700000D03*
X143885000Y-129700000D03*
X145155000Y-129700000D03*
D16*
X182875000Y-143000000D03*
X181125000Y-143000000D03*
X182875000Y-145000000D03*
X181125000Y-145000000D03*
X182875000Y-146750000D03*
X181125000Y-146750000D03*
D30*
X173300000Y-141095000D03*
X173300000Y-142365000D03*
X173300000Y-143635000D03*
X173300000Y-144905000D03*
X178700000Y-144905000D03*
X178700000Y-143635000D03*
X178700000Y-142365000D03*
X178700000Y-141095000D03*
D16*
X129625000Y-160500000D03*
X131375000Y-160500000D03*
D13*
X135500000Y-154875000D03*
X135500000Y-153125000D03*
X135500000Y-158375000D03*
X135500000Y-156625000D03*
X137250000Y-156625000D03*
X137250000Y-154875000D03*
X137250000Y-158125000D03*
X137250000Y-159875000D03*
D11*
X127000000Y-153270000D03*
X127000000Y-156230000D03*
D13*
X128000000Y-159875000D03*
X128000000Y-158125000D03*
D14*
X129845000Y-158450000D03*
X131115000Y-158450000D03*
X132385000Y-158450000D03*
X133655000Y-158450000D03*
X133655000Y-153050000D03*
X132385000Y-153050000D03*
X131115000Y-153050000D03*
X129845000Y-153050000D03*
D16*
X162125000Y-145000000D03*
X163875000Y-145000000D03*
X162125000Y-147000000D03*
X163875000Y-147000000D03*
D31*
X167250000Y-149500000D03*
X166150000Y-149500000D03*
X165050000Y-149500000D03*
X163950000Y-149500000D03*
X162850000Y-149500000D03*
X161750000Y-149500000D03*
X160650000Y-149500000D03*
X159550000Y-149500000D03*
D32*
X158450000Y-149500000D03*
D33*
X172750000Y-159600000D03*
X157250000Y-159600000D03*
D34*
X171850000Y-150000000D03*
D35*
X157250000Y-150000000D03*
D36*
X116200000Y-136100000D03*
D37*
X114600000Y-136100000D03*
X115400000Y-136100000D03*
D36*
X113800000Y-136100000D03*
D37*
X115400000Y-137900000D03*
D36*
X116200000Y-137900000D03*
D37*
X114600000Y-137900000D03*
D36*
X113800000Y-137900000D03*
X192200000Y-136100000D03*
D37*
X190600000Y-136100000D03*
X191400000Y-136100000D03*
D36*
X189800000Y-136100000D03*
D37*
X191400000Y-137900000D03*
D36*
X192200000Y-137900000D03*
D37*
X190600000Y-137900000D03*
D36*
X189800000Y-137900000D03*
D38*
X115000000Y-126500000D03*
X115000000Y-131500000D03*
X123000000Y-134500000D03*
X123000000Y-139500000D03*
X107000000Y-134500000D03*
X107000000Y-139500000D03*
X115000000Y-142500000D03*
X115000000Y-147500000D03*
X191000000Y-142500000D03*
X191000000Y-147500000D03*
X199000000Y-134500000D03*
X199000000Y-139500000D03*
X191000000Y-126500000D03*
X191000000Y-131500000D03*
X183000000Y-134500000D03*
X183000000Y-139500000D03*
X181000000Y-154500000D03*
X181000000Y-159500000D03*
D16*
X148125000Y-147750000D03*
X149875000Y-147750000D03*
D39*
X144300000Y-149555000D03*
X144300000Y-150825000D03*
X144300000Y-152095000D03*
X144300000Y-153365000D03*
X144300000Y-154635000D03*
X144300000Y-155905000D03*
X144300000Y-157175000D03*
X144300000Y-158445000D03*
X149700000Y-158445000D03*
X149700000Y-157175000D03*
X149700000Y-155905000D03*
X149700000Y-154635000D03*
X149700000Y-153365000D03*
X149700000Y-152095000D03*
X149700000Y-150825000D03*
X149700000Y-149555000D03*
D13*
X146250000Y-144625000D03*
X146250000Y-142875000D03*
D16*
X148375000Y-140500000D03*
X146625000Y-140500000D03*
X148375000Y-138750000D03*
X146625000Y-138750000D03*
X148375000Y-136000000D03*
X146625000Y-136000000D03*
D11*
X297000000Y-154230000D03*
X297000000Y-151270000D03*
D12*
X302520000Y-143500000D03*
X305480000Y-143500000D03*
D13*
X301750000Y-154625000D03*
X301750000Y-152875000D03*
X299750000Y-154625000D03*
X299750000Y-152875000D03*
D14*
X303655000Y-125550000D03*
X302385000Y-125550000D03*
X301115000Y-125550000D03*
X299845000Y-125550000D03*
X299845000Y-130950000D03*
X301115000Y-130950000D03*
X302385000Y-130950000D03*
X303655000Y-130950000D03*
D13*
X298000000Y-124375000D03*
X298000000Y-122625000D03*
D15*
X303800000Y-150600000D03*
X304750000Y-150600000D03*
X305700000Y-150600000D03*
X305700000Y-148400000D03*
X303800000Y-148400000D03*
D13*
X300250000Y-148125000D03*
X300250000Y-149875000D03*
X302000000Y-148125000D03*
X302000000Y-146375000D03*
D16*
X303875000Y-146500000D03*
X305625000Y-146500000D03*
D13*
X293000000Y-121875000D03*
X293000000Y-123625000D03*
D17*
X305850000Y-153500000D03*
X303650000Y-153500000D03*
D14*
X286095000Y-129950000D03*
X287365000Y-129950000D03*
X288635000Y-129950000D03*
X289905000Y-129950000D03*
X289905000Y-124550000D03*
X288635000Y-124550000D03*
X287365000Y-124550000D03*
X286095000Y-124550000D03*
D18*
X288800000Y-126650000D03*
X287200000Y-126650000D03*
X288800000Y-127850000D03*
X287200000Y-127850000D03*
D19*
X277750000Y-120955000D03*
X277750000Y-119045000D03*
D16*
X287125000Y-132000000D03*
X288875000Y-132000000D03*
X287375000Y-122000000D03*
X289125000Y-122000000D03*
D20*
X290900000Y-159450000D03*
X297100000Y-159450000D03*
D21*
X292800000Y-162000000D03*
X295200000Y-162000000D03*
D22*
X292700000Y-159325000D03*
X293350000Y-159325000D03*
X294000000Y-159325000D03*
X294650000Y-159325000D03*
X295300000Y-159325000D03*
D23*
X290200000Y-162000000D03*
X297800000Y-162000000D03*
D24*
X307700000Y-132100000D03*
D25*
X305800000Y-130500000D03*
X305800000Y-126000000D03*
X305800000Y-127500000D03*
D24*
X307700000Y-124150000D03*
D26*
X253850000Y-128050000D03*
D27*
X253850000Y-129650000D03*
X253850000Y-128850000D03*
D26*
X253850000Y-130450000D03*
D27*
X255650000Y-128850000D03*
D26*
X255650000Y-128050000D03*
D27*
X255650000Y-129650000D03*
D26*
X255650000Y-130450000D03*
X279900000Y-134200000D03*
D27*
X279900000Y-132600000D03*
X279900000Y-133400000D03*
D26*
X279900000Y-131800000D03*
D27*
X278100000Y-133400000D03*
D26*
X278100000Y-134200000D03*
D27*
X278100000Y-132600000D03*
D26*
X278100000Y-131800000D03*
D16*
X253875000Y-126000000D03*
X255625000Y-126000000D03*
X291625000Y-133750000D03*
X293375000Y-133750000D03*
D12*
X252520000Y-143250000D03*
X255480000Y-143250000D03*
D16*
X254125000Y-140250000D03*
X255875000Y-140250000D03*
D28*
X258300000Y-126000000D03*
D29*
X258300000Y-128000000D03*
X258300000Y-130000000D03*
X258300000Y-132000000D03*
X258300000Y-134000000D03*
X258300000Y-136000000D03*
X258300000Y-138000000D03*
X258300000Y-140000000D03*
X273700000Y-140000000D03*
X273600000Y-138000000D03*
X273700000Y-136000000D03*
X273700000Y-134000000D03*
X273700000Y-132000000D03*
X273700000Y-130000000D03*
X273700000Y-128000000D03*
X273700000Y-126000000D03*
D13*
X251000000Y-128125000D03*
X251000000Y-129875000D03*
D14*
X249155000Y-124300000D03*
X247885000Y-124300000D03*
X246615000Y-124300000D03*
X245345000Y-124300000D03*
X245345000Y-129700000D03*
X246615000Y-129700000D03*
X247885000Y-129700000D03*
X249155000Y-129700000D03*
D16*
X286875000Y-143000000D03*
X285125000Y-143000000D03*
X286875000Y-145000000D03*
X285125000Y-145000000D03*
X286875000Y-146750000D03*
X285125000Y-146750000D03*
D30*
X277300000Y-141095000D03*
X277300000Y-142365000D03*
X277300000Y-143635000D03*
X277300000Y-144905000D03*
X282700000Y-144905000D03*
X282700000Y-143635000D03*
X282700000Y-142365000D03*
X282700000Y-141095000D03*
D16*
X233625000Y-160500000D03*
X235375000Y-160500000D03*
D13*
X239500000Y-154875000D03*
X239500000Y-153125000D03*
X239500000Y-158375000D03*
X239500000Y-156625000D03*
X241250000Y-156625000D03*
X241250000Y-154875000D03*
X241250000Y-158125000D03*
X241250000Y-159875000D03*
D11*
X231000000Y-153270000D03*
X231000000Y-156230000D03*
D13*
X232000000Y-159875000D03*
X232000000Y-158125000D03*
D14*
X233845000Y-158450000D03*
X235115000Y-158450000D03*
X236385000Y-158450000D03*
X237655000Y-158450000D03*
X237655000Y-153050000D03*
X236385000Y-153050000D03*
X235115000Y-153050000D03*
X233845000Y-153050000D03*
D16*
X266125000Y-145000000D03*
X267875000Y-145000000D03*
X266125000Y-147000000D03*
X267875000Y-147000000D03*
D31*
X271250000Y-149500000D03*
X270150000Y-149500000D03*
X269050000Y-149500000D03*
X267950000Y-149500000D03*
X266850000Y-149500000D03*
X265750000Y-149500000D03*
X264650000Y-149500000D03*
X263550000Y-149500000D03*
D32*
X262450000Y-149500000D03*
D33*
X276750000Y-159600000D03*
X261250000Y-159600000D03*
D34*
X275850000Y-150000000D03*
D35*
X261250000Y-150000000D03*
D36*
X220200000Y-136100000D03*
D37*
X218600000Y-136100000D03*
X219400000Y-136100000D03*
D36*
X217800000Y-136100000D03*
D37*
X219400000Y-137900000D03*
D36*
X220200000Y-137900000D03*
D37*
X218600000Y-137900000D03*
D36*
X217800000Y-137900000D03*
X296200000Y-136100000D03*
D37*
X294600000Y-136100000D03*
X295400000Y-136100000D03*
D36*
X293800000Y-136100000D03*
D37*
X295400000Y-137900000D03*
D36*
X296200000Y-137900000D03*
D37*
X294600000Y-137900000D03*
D36*
X293800000Y-137900000D03*
D38*
X219000000Y-126500000D03*
X219000000Y-131500000D03*
X227000000Y-134500000D03*
X227000000Y-139500000D03*
X211000000Y-134500000D03*
X211000000Y-139500000D03*
X219000000Y-142500000D03*
X219000000Y-147500000D03*
X295000000Y-142500000D03*
X295000000Y-147500000D03*
X303000000Y-134500000D03*
X303000000Y-139500000D03*
X295000000Y-126500000D03*
X295000000Y-131500000D03*
X287000000Y-134500000D03*
X287000000Y-139500000D03*
X285000000Y-154500000D03*
X285000000Y-159500000D03*
D16*
X252125000Y-147750000D03*
X253875000Y-147750000D03*
D39*
X248300000Y-149555000D03*
X248300000Y-150825000D03*
X248300000Y-152095000D03*
X248300000Y-153365000D03*
X248300000Y-154635000D03*
X248300000Y-155905000D03*
X248300000Y-157175000D03*
X248300000Y-158445000D03*
X253700000Y-158445000D03*
X253700000Y-157175000D03*
X253700000Y-155905000D03*
X253700000Y-154635000D03*
X253700000Y-153365000D03*
X253700000Y-152095000D03*
X253700000Y-150825000D03*
X253700000Y-149555000D03*
D13*
X250250000Y-144625000D03*
X250250000Y-142875000D03*
D16*
X252375000Y-140500000D03*
X250625000Y-140500000D03*
X252375000Y-138750000D03*
X250625000Y-138750000D03*
X252375000Y-136000000D03*
X250625000Y-136000000D03*
D11*
X193000000Y-203230000D03*
X193000000Y-200270000D03*
D12*
X198520000Y-192500000D03*
X201480000Y-192500000D03*
D13*
X197750000Y-203625000D03*
X197750000Y-201875000D03*
X195750000Y-203625000D03*
X195750000Y-201875000D03*
D14*
X199655000Y-174550000D03*
X198385000Y-174550000D03*
X197115000Y-174550000D03*
X195845000Y-174550000D03*
X195845000Y-179950000D03*
X197115000Y-179950000D03*
X198385000Y-179950000D03*
X199655000Y-179950000D03*
D13*
X194000000Y-173375000D03*
X194000000Y-171625000D03*
D15*
X199800000Y-199600000D03*
X200750000Y-199600000D03*
X201700000Y-199600000D03*
X201700000Y-197400000D03*
X199800000Y-197400000D03*
D13*
X196250000Y-197125000D03*
X196250000Y-198875000D03*
X198000000Y-197125000D03*
X198000000Y-195375000D03*
D16*
X199875000Y-195500000D03*
X201625000Y-195500000D03*
D13*
X189000000Y-170875000D03*
X189000000Y-172625000D03*
D17*
X201850000Y-202500000D03*
X199650000Y-202500000D03*
D14*
X182095000Y-178950000D03*
X183365000Y-178950000D03*
X184635000Y-178950000D03*
X185905000Y-178950000D03*
X185905000Y-173550000D03*
X184635000Y-173550000D03*
X183365000Y-173550000D03*
X182095000Y-173550000D03*
D18*
X184800000Y-175650000D03*
X183200000Y-175650000D03*
X184800000Y-176850000D03*
X183200000Y-176850000D03*
D19*
X173750000Y-169955000D03*
X173750000Y-168045000D03*
D16*
X183125000Y-181000000D03*
X184875000Y-181000000D03*
X183375000Y-171000000D03*
X185125000Y-171000000D03*
D20*
X186900000Y-208450000D03*
X193100000Y-208450000D03*
D21*
X188800000Y-211000000D03*
X191200000Y-211000000D03*
D22*
X188700000Y-208325000D03*
X189350000Y-208325000D03*
X190000000Y-208325000D03*
X190650000Y-208325000D03*
X191300000Y-208325000D03*
D23*
X186200000Y-211000000D03*
X193800000Y-211000000D03*
D24*
X203700000Y-181100000D03*
D25*
X201800000Y-179500000D03*
X201800000Y-175000000D03*
X201800000Y-176500000D03*
D24*
X203700000Y-173150000D03*
D26*
X149850000Y-177050000D03*
D27*
X149850000Y-178650000D03*
X149850000Y-177850000D03*
D26*
X149850000Y-179450000D03*
D27*
X151650000Y-177850000D03*
D26*
X151650000Y-177050000D03*
D27*
X151650000Y-178650000D03*
D26*
X151650000Y-179450000D03*
X175900000Y-183200000D03*
D27*
X175900000Y-181600000D03*
X175900000Y-182400000D03*
D26*
X175900000Y-180800000D03*
D27*
X174100000Y-182400000D03*
D26*
X174100000Y-183200000D03*
D27*
X174100000Y-181600000D03*
D26*
X174100000Y-180800000D03*
D16*
X149875000Y-175000000D03*
X151625000Y-175000000D03*
X187625000Y-182750000D03*
X189375000Y-182750000D03*
D12*
X148520000Y-192250000D03*
X151480000Y-192250000D03*
D16*
X150125000Y-189250000D03*
X151875000Y-189250000D03*
D28*
X154300000Y-175000000D03*
D29*
X154300000Y-177000000D03*
X154300000Y-179000000D03*
X154300000Y-181000000D03*
X154300000Y-183000000D03*
X154300000Y-185000000D03*
X154300000Y-187000000D03*
X154300000Y-189000000D03*
X169700000Y-189000000D03*
X169600000Y-187000000D03*
X169700000Y-185000000D03*
X169700000Y-183000000D03*
X169700000Y-181000000D03*
X169700000Y-179000000D03*
X169700000Y-177000000D03*
X169700000Y-175000000D03*
D13*
X147000000Y-177125000D03*
X147000000Y-178875000D03*
D14*
X145155000Y-173300000D03*
X143885000Y-173300000D03*
X142615000Y-173300000D03*
X141345000Y-173300000D03*
X141345000Y-178700000D03*
X142615000Y-178700000D03*
X143885000Y-178700000D03*
X145155000Y-178700000D03*
D16*
X182875000Y-192000000D03*
X181125000Y-192000000D03*
X182875000Y-194000000D03*
X181125000Y-194000000D03*
X182875000Y-195750000D03*
X181125000Y-195750000D03*
D30*
X173300000Y-190095000D03*
X173300000Y-191365000D03*
X173300000Y-192635000D03*
X173300000Y-193905000D03*
X178700000Y-193905000D03*
X178700000Y-192635000D03*
X178700000Y-191365000D03*
X178700000Y-190095000D03*
D16*
X129625000Y-209500000D03*
X131375000Y-209500000D03*
D13*
X135500000Y-203875000D03*
X135500000Y-202125000D03*
X135500000Y-207375000D03*
X135500000Y-205625000D03*
X137250000Y-205625000D03*
X137250000Y-203875000D03*
X137250000Y-207125000D03*
X137250000Y-208875000D03*
D11*
X127000000Y-202270000D03*
X127000000Y-205230000D03*
D13*
X128000000Y-208875000D03*
X128000000Y-207125000D03*
D14*
X129845000Y-207450000D03*
X131115000Y-207450000D03*
X132385000Y-207450000D03*
X133655000Y-207450000D03*
X133655000Y-202050000D03*
X132385000Y-202050000D03*
X131115000Y-202050000D03*
X129845000Y-202050000D03*
D16*
X162125000Y-194000000D03*
X163875000Y-194000000D03*
X162125000Y-196000000D03*
X163875000Y-196000000D03*
D31*
X167250000Y-198500000D03*
X166150000Y-198500000D03*
X165050000Y-198500000D03*
X163950000Y-198500000D03*
X162850000Y-198500000D03*
X161750000Y-198500000D03*
X160650000Y-198500000D03*
X159550000Y-198500000D03*
D32*
X158450000Y-198500000D03*
D33*
X172750000Y-208600000D03*
X157250000Y-208600000D03*
D34*
X171850000Y-199000000D03*
D35*
X157250000Y-199000000D03*
D36*
X116200000Y-185100000D03*
D37*
X114600000Y-185100000D03*
X115400000Y-185100000D03*
D36*
X113800000Y-185100000D03*
D37*
X115400000Y-186900000D03*
D36*
X116200000Y-186900000D03*
D37*
X114600000Y-186900000D03*
D36*
X113800000Y-186900000D03*
X192200000Y-185100000D03*
D37*
X190600000Y-185100000D03*
X191400000Y-185100000D03*
D36*
X189800000Y-185100000D03*
D37*
X191400000Y-186900000D03*
D36*
X192200000Y-186900000D03*
D37*
X190600000Y-186900000D03*
D36*
X189800000Y-186900000D03*
D38*
X115000000Y-175500000D03*
X115000000Y-180500000D03*
X123000000Y-183500000D03*
X123000000Y-188500000D03*
X107000000Y-183500000D03*
X107000000Y-188500000D03*
X115000000Y-191500000D03*
X115000000Y-196500000D03*
X191000000Y-191500000D03*
X191000000Y-196500000D03*
X199000000Y-183500000D03*
X199000000Y-188500000D03*
X191000000Y-175500000D03*
X191000000Y-180500000D03*
X183000000Y-183500000D03*
X183000000Y-188500000D03*
X181000000Y-203500000D03*
X181000000Y-208500000D03*
D16*
X148125000Y-196750000D03*
X149875000Y-196750000D03*
D39*
X144300000Y-198555000D03*
X144300000Y-199825000D03*
X144300000Y-201095000D03*
X144300000Y-202365000D03*
X144300000Y-203635000D03*
X144300000Y-204905000D03*
X144300000Y-206175000D03*
X144300000Y-207445000D03*
X149700000Y-207445000D03*
X149700000Y-206175000D03*
X149700000Y-204905000D03*
X149700000Y-203635000D03*
X149700000Y-202365000D03*
X149700000Y-201095000D03*
X149700000Y-199825000D03*
X149700000Y-198555000D03*
D13*
X146250000Y-193625000D03*
X146250000Y-191875000D03*
D16*
X148375000Y-189500000D03*
X146625000Y-189500000D03*
X148375000Y-187750000D03*
X146625000Y-187750000D03*
X148375000Y-185000000D03*
X146625000Y-185000000D03*
D11*
X297000000Y-203230000D03*
X297000000Y-200270000D03*
D12*
X302520000Y-192500000D03*
X305480000Y-192500000D03*
D13*
X301750000Y-203625000D03*
X301750000Y-201875000D03*
X299750000Y-203625000D03*
X299750000Y-201875000D03*
D14*
X303655000Y-174550000D03*
X302385000Y-174550000D03*
X301115000Y-174550000D03*
X299845000Y-174550000D03*
X299845000Y-179950000D03*
X301115000Y-179950000D03*
X302385000Y-179950000D03*
X303655000Y-179950000D03*
D13*
X298000000Y-173375000D03*
X298000000Y-171625000D03*
D15*
X303800000Y-199600000D03*
X304750000Y-199600000D03*
X305700000Y-199600000D03*
X305700000Y-197400000D03*
X303800000Y-197400000D03*
D13*
X300250000Y-197125000D03*
X300250000Y-198875000D03*
X302000000Y-197125000D03*
X302000000Y-195375000D03*
D16*
X303875000Y-195500000D03*
X305625000Y-195500000D03*
D13*
X293000000Y-170875000D03*
X293000000Y-172625000D03*
D17*
X305850000Y-202500000D03*
X303650000Y-202500000D03*
D14*
X286095000Y-178950000D03*
X287365000Y-178950000D03*
X288635000Y-178950000D03*
X289905000Y-178950000D03*
X289905000Y-173550000D03*
X288635000Y-173550000D03*
X287365000Y-173550000D03*
X286095000Y-173550000D03*
D18*
X288800000Y-175650000D03*
X287200000Y-175650000D03*
X288800000Y-176850000D03*
X287200000Y-176850000D03*
D19*
X277750000Y-169955000D03*
X277750000Y-168045000D03*
D16*
X287125000Y-181000000D03*
X288875000Y-181000000D03*
X287375000Y-171000000D03*
X289125000Y-171000000D03*
D20*
X290900000Y-208450000D03*
X297100000Y-208450000D03*
D21*
X292800000Y-211000000D03*
X295200000Y-211000000D03*
D22*
X292700000Y-208325000D03*
X293350000Y-208325000D03*
X294000000Y-208325000D03*
X294650000Y-208325000D03*
X295300000Y-208325000D03*
D23*
X290200000Y-211000000D03*
X297800000Y-211000000D03*
D24*
X307700000Y-181100000D03*
D25*
X305800000Y-179500000D03*
X305800000Y-175000000D03*
X305800000Y-176500000D03*
D24*
X307700000Y-173150000D03*
D26*
X253850000Y-177050000D03*
D27*
X253850000Y-178650000D03*
X253850000Y-177850000D03*
D26*
X253850000Y-179450000D03*
D27*
X255650000Y-177850000D03*
D26*
X255650000Y-177050000D03*
D27*
X255650000Y-178650000D03*
D26*
X255650000Y-179450000D03*
X279900000Y-183200000D03*
D27*
X279900000Y-181600000D03*
X279900000Y-182400000D03*
D26*
X279900000Y-180800000D03*
D27*
X278100000Y-182400000D03*
D26*
X278100000Y-183200000D03*
D27*
X278100000Y-181600000D03*
D26*
X278100000Y-180800000D03*
D16*
X253875000Y-175000000D03*
X255625000Y-175000000D03*
X291625000Y-182750000D03*
X293375000Y-182750000D03*
D12*
X252520000Y-192250000D03*
X255480000Y-192250000D03*
D16*
X254125000Y-189250000D03*
X255875000Y-189250000D03*
D28*
X258300000Y-175000000D03*
D29*
X258300000Y-177000000D03*
X258300000Y-179000000D03*
X258300000Y-181000000D03*
X258300000Y-183000000D03*
X258300000Y-185000000D03*
X258300000Y-187000000D03*
X258300000Y-189000000D03*
X273700000Y-189000000D03*
X273600000Y-187000000D03*
X273700000Y-185000000D03*
X273700000Y-183000000D03*
X273700000Y-181000000D03*
X273700000Y-179000000D03*
X273700000Y-177000000D03*
X273700000Y-175000000D03*
D13*
X251000000Y-177125000D03*
X251000000Y-178875000D03*
D14*
X249155000Y-173300000D03*
X247885000Y-173300000D03*
X246615000Y-173300000D03*
X245345000Y-173300000D03*
X245345000Y-178700000D03*
X246615000Y-178700000D03*
X247885000Y-178700000D03*
X249155000Y-178700000D03*
D16*
X286875000Y-192000000D03*
X285125000Y-192000000D03*
X286875000Y-194000000D03*
X285125000Y-194000000D03*
X286875000Y-195750000D03*
X285125000Y-195750000D03*
D30*
X277300000Y-190095000D03*
X277300000Y-191365000D03*
X277300000Y-192635000D03*
X277300000Y-193905000D03*
X282700000Y-193905000D03*
X282700000Y-192635000D03*
X282700000Y-191365000D03*
X282700000Y-190095000D03*
D16*
X233625000Y-209500000D03*
X235375000Y-209500000D03*
D13*
X239500000Y-203875000D03*
X239500000Y-202125000D03*
X239500000Y-207375000D03*
X239500000Y-205625000D03*
X241250000Y-205625000D03*
X241250000Y-203875000D03*
X241250000Y-207125000D03*
X241250000Y-208875000D03*
D11*
X231000000Y-202270000D03*
X231000000Y-205230000D03*
D13*
X232000000Y-208875000D03*
X232000000Y-207125000D03*
D14*
X233845000Y-207450000D03*
X235115000Y-207450000D03*
X236385000Y-207450000D03*
X237655000Y-207450000D03*
X237655000Y-202050000D03*
X236385000Y-202050000D03*
X235115000Y-202050000D03*
X233845000Y-202050000D03*
D16*
X266125000Y-194000000D03*
X267875000Y-194000000D03*
X266125000Y-196000000D03*
X267875000Y-196000000D03*
D31*
X271250000Y-198500000D03*
X270150000Y-198500000D03*
X269050000Y-198500000D03*
X267950000Y-198500000D03*
X266850000Y-198500000D03*
X265750000Y-198500000D03*
X264650000Y-198500000D03*
X263550000Y-198500000D03*
D32*
X262450000Y-198500000D03*
D33*
X276750000Y-208600000D03*
X261250000Y-208600000D03*
D34*
X275850000Y-199000000D03*
D35*
X261250000Y-199000000D03*
D36*
X220200000Y-185100000D03*
D37*
X218600000Y-185100000D03*
X219400000Y-185100000D03*
D36*
X217800000Y-185100000D03*
D37*
X219400000Y-186900000D03*
D36*
X220200000Y-186900000D03*
D37*
X218600000Y-186900000D03*
D36*
X217800000Y-186900000D03*
X296200000Y-185100000D03*
D37*
X294600000Y-185100000D03*
X295400000Y-185100000D03*
D36*
X293800000Y-185100000D03*
D37*
X295400000Y-186900000D03*
D36*
X296200000Y-186900000D03*
D37*
X294600000Y-186900000D03*
D36*
X293800000Y-186900000D03*
D38*
X219000000Y-175500000D03*
X219000000Y-180500000D03*
X227000000Y-183500000D03*
X227000000Y-188500000D03*
X211000000Y-183500000D03*
X211000000Y-188500000D03*
X219000000Y-191500000D03*
X219000000Y-196500000D03*
X295000000Y-191500000D03*
X295000000Y-196500000D03*
X303000000Y-183500000D03*
X303000000Y-188500000D03*
X295000000Y-175500000D03*
X295000000Y-180500000D03*
X287000000Y-183500000D03*
X287000000Y-188500000D03*
X285000000Y-203500000D03*
X285000000Y-208500000D03*
D16*
X252125000Y-196750000D03*
X253875000Y-196750000D03*
D39*
X248300000Y-198555000D03*
X248300000Y-199825000D03*
X248300000Y-201095000D03*
X248300000Y-202365000D03*
X248300000Y-203635000D03*
X248300000Y-204905000D03*
X248300000Y-206175000D03*
X248300000Y-207445000D03*
X253700000Y-207445000D03*
X253700000Y-206175000D03*
X253700000Y-204905000D03*
X253700000Y-203635000D03*
X253700000Y-202365000D03*
X253700000Y-201095000D03*
X253700000Y-199825000D03*
X253700000Y-198555000D03*
D13*
X250250000Y-193625000D03*
X250250000Y-191875000D03*
D16*
X252375000Y-189500000D03*
X250625000Y-189500000D03*
X252375000Y-187750000D03*
X250625000Y-187750000D03*
X252375000Y-185000000D03*
X250625000Y-185000000D03*
M02*
