G04 #@! TF.FileFunction,Soldermask,Bot*
%FSLAX46Y46*%
G04 Gerber Fmt 4.6, Leading zero omitted, Abs format (unit mm)*
G04 Created by KiCad (PCBNEW 4.0.4-snap1-stable) date Fri May 24 02:00:32 2019*
%MOMM*%
%LPD*%
G01*
G04 APERTURE LIST*
%ADD10C,0.150000*%
%ADD11R,1.750000X1.750000*%
%ADD12O,1.750000X1.750000*%
%ADD13C,0.950000*%
%ADD14C,1.250000*%
%ADD15C,3.550000*%
G04 APERTURE END LIST*
D10*
D11*
X193750000Y-70000000D03*
X197000000Y-70000000D03*
X189500000Y-70000000D03*
D12*
X186960000Y-70000000D03*
X184420000Y-70000000D03*
X181880000Y-70000000D03*
X179340000Y-70000000D03*
X176800000Y-70000000D03*
D13*
X203600000Y-80750000D03*
X203650000Y-77750000D03*
D14*
X160070000Y-111000000D03*
X168050000Y-111000000D03*
D15*
X105000000Y-72000000D03*
X105000000Y-110000000D03*
X201000000Y-72000000D03*
X201000000Y-110000000D03*
D11*
X297750000Y-70000000D03*
X301000000Y-70000000D03*
X293500000Y-70000000D03*
D12*
X290960000Y-70000000D03*
X288420000Y-70000000D03*
X285880000Y-70000000D03*
X283340000Y-70000000D03*
X280800000Y-70000000D03*
D13*
X307600000Y-80750000D03*
X307650000Y-77750000D03*
D14*
X264070000Y-111000000D03*
X272050000Y-111000000D03*
D15*
X209000000Y-72000000D03*
X209000000Y-110000000D03*
X305000000Y-72000000D03*
X305000000Y-110000000D03*
D11*
X193750000Y-119000000D03*
X197000000Y-119000000D03*
X189500000Y-119000000D03*
D12*
X186960000Y-119000000D03*
X184420000Y-119000000D03*
X181880000Y-119000000D03*
X179340000Y-119000000D03*
X176800000Y-119000000D03*
D13*
X203600000Y-129750000D03*
X203650000Y-126750000D03*
D14*
X160070000Y-160000000D03*
X168050000Y-160000000D03*
D15*
X105000000Y-121000000D03*
X105000000Y-159000000D03*
X201000000Y-121000000D03*
X201000000Y-159000000D03*
D11*
X297750000Y-119000000D03*
X301000000Y-119000000D03*
X293500000Y-119000000D03*
D12*
X290960000Y-119000000D03*
X288420000Y-119000000D03*
X285880000Y-119000000D03*
X283340000Y-119000000D03*
X280800000Y-119000000D03*
D13*
X307600000Y-129750000D03*
X307650000Y-126750000D03*
D14*
X264070000Y-160000000D03*
X272050000Y-160000000D03*
D15*
X209000000Y-121000000D03*
X209000000Y-159000000D03*
X305000000Y-121000000D03*
X305000000Y-159000000D03*
D11*
X193750000Y-168000000D03*
X197000000Y-168000000D03*
X189500000Y-168000000D03*
D12*
X186960000Y-168000000D03*
X184420000Y-168000000D03*
X181880000Y-168000000D03*
X179340000Y-168000000D03*
X176800000Y-168000000D03*
D13*
X203600000Y-178750000D03*
X203650000Y-175750000D03*
D14*
X160070000Y-209000000D03*
X168050000Y-209000000D03*
D15*
X105000000Y-170000000D03*
X105000000Y-208000000D03*
X201000000Y-170000000D03*
X201000000Y-208000000D03*
D11*
X297750000Y-168000000D03*
X301000000Y-168000000D03*
X293500000Y-168000000D03*
D12*
X290960000Y-168000000D03*
X288420000Y-168000000D03*
X285880000Y-168000000D03*
X283340000Y-168000000D03*
X280800000Y-168000000D03*
D13*
X307600000Y-178750000D03*
X307650000Y-175750000D03*
D14*
X264070000Y-209000000D03*
X272050000Y-209000000D03*
D15*
X209000000Y-170000000D03*
X209000000Y-208000000D03*
X305000000Y-170000000D03*
X305000000Y-208000000D03*
M02*
