solid OpenSCAD_Model
  facet normal -1 0 0
    outer loop
      vertex 0 2 2.6
      vertex 0 3.3 0
      vertex 0 2 1.2
    endloop
  endfacet
  facet normal -1 0 0
    outer loop
      vertex 0 0 0
      vertex 0 2 1.2
      vertex 0 3.3 0
    endloop
  endfacet
  facet normal -1 -0 0
    outer loop
      vertex 0 0.799999 1.2
      vertex 0 0 0
      vertex 0 0.799999 2.6
    endloop
  endfacet
  facet normal -1 -0 0
    outer loop
      vertex 0 2 1.2
      vertex 0 0 0
      vertex 0 0.799999 1.2
    endloop
  endfacet
  facet normal -1 0 0
    outer loop
      vertex 0 3.3 0
      vertex 0 2 2.6
      vertex 0 3.3 4.1
    endloop
  endfacet
  facet normal -1 0 0
    outer loop
      vertex 0 0 4.1
      vertex 0 2 2.6
      vertex 0 0.799999 2.6
    endloop
  endfacet
  facet normal -1 0 0
    outer loop
      vertex 0 2 2.6
      vertex 0 0 4.1
      vertex 0 3.3 4.1
    endloop
  endfacet
  facet normal -1 0 0
    outer loop
      vertex 0 0 4.1
      vertex 0 0.799999 2.6
      vertex 0 0 0
    endloop
  endfacet
  facet normal -0 0 1
    outer loop
      vertex 0 3.3 4.1
      vertex 2.6 0 4.1
      vertex 2.6 3.3 4.1
    endloop
  endfacet
  facet normal 0 0 1
    outer loop
      vertex 2.6 0 4.1
      vertex 0 3.3 4.1
      vertex 0 0 4.1
    endloop
  endfacet
  facet normal 1 -0 0
    outer loop
      vertex 2.6 0 4.1
      vertex 2.6 3.3 0
      vertex 2.6 3.3 4.1
    endloop
  endfacet
  facet normal 1 0 0
    outer loop
      vertex 2.6 3.3 0
      vertex 2.6 0 4.1
      vertex 2.6 0 0
    endloop
  endfacet
  facet normal 0 1 -0
    outer loop
      vertex 2.6 3.3 0
      vertex 0 3.3 4.1
      vertex 2.6 3.3 4.1
    endloop
  endfacet
  facet normal 0 1 0
    outer loop
      vertex 0 3.3 4.1
      vertex 2.6 3.3 0
      vertex 0 3.3 0
    endloop
  endfacet
  facet normal 0 0 -1
    outer loop
      vertex 0 0 0
      vertex 2.6 3.3 0
      vertex 2.6 0 0
    endloop
  endfacet
  facet normal -0 0 -1
    outer loop
      vertex 2.6 3.3 0
      vertex 0 0 0
      vertex 0 3.3 0
    endloop
  endfacet
  facet normal 0 -1 0
    outer loop
      vertex 0 0 0
      vertex 2.6 0 4.1
      vertex 0 0 4.1
    endloop
  endfacet
  facet normal 0 -1 -0
    outer loop
      vertex 2.6 0 4.1
      vertex 0 0 0
      vertex 2.6 0 0
    endloop
  endfacet
  facet normal 0 0 -1
    outer loop
      vertex 0 0.799999 2.6
      vertex 1.6 2 2.6
      vertex 1.6 0.799999 2.6
    endloop
  endfacet
  facet normal -0 0 -1
    outer loop
      vertex 1.6 2 2.6
      vertex 0 0.799999 2.6
      vertex 0 2 2.6
    endloop
  endfacet
  facet normal -1 0 0
    outer loop
      vertex 1.6 0.799999 1.2
      vertex 1.6 2 2.6
      vertex 1.6 2 1.2
    endloop
  endfacet
  facet normal -1 -0 0
    outer loop
      vertex 1.6 2 2.6
      vertex 1.6 0.799999 1.2
      vertex 1.6 0.799999 2.6
    endloop
  endfacet
  facet normal -0 0 1
    outer loop
      vertex 0 2 1.2
      vertex 1.6 0.799999 1.2
      vertex 1.6 2 1.2
    endloop
  endfacet
  facet normal 0 0 1
    outer loop
      vertex 1.6 0.799999 1.2
      vertex 0 2 1.2
      vertex 0 0.799999 1.2
    endloop
  endfacet
  facet normal 0 1 -0
    outer loop
      vertex 1.6 0.799999 1.2
      vertex 0 0.799999 2.6
      vertex 1.6 0.799999 2.6
    endloop
  endfacet
  facet normal 0 1 0
    outer loop
      vertex 0 0.799999 2.6
      vertex 1.6 0.799999 1.2
      vertex 0 0.799999 1.2
    endloop
  endfacet
  facet normal 0 -1 0
    outer loop
      vertex 0 2 1.2
      vertex 1.6 2 2.6
      vertex 0 2 2.6
    endloop
  endfacet
  facet normal 0 -1 -0
    outer loop
      vertex 1.6 2 2.6
      vertex 0 2 1.2
      vertex 1.6 2 1.2
    endloop
  endfacet
endsolid OpenSCAD_Model
