solid OpenSCAD_Model
  facet normal -1 0 0
    outer loop
      vertex 0 1.9 2.5
      vertex 0 3.1 0
      vertex 0 1.9 1.2
    endloop
  endfacet
  facet normal -1 0 0
    outer loop
      vertex 0 0 0
      vertex 0 1.9 1.2
      vertex 0 3.1 0
    endloop
  endfacet
  facet normal -1 -0 0
    outer loop
      vertex 0 0.799999 1.2
      vertex 0 0 0
      vertex 0 0.799999 2.5
    endloop
  endfacet
  facet normal -1 -0 0
    outer loop
      vertex 0 1.9 1.2
      vertex 0 0 0
      vertex 0 0.799999 1.2
    endloop
  endfacet
  facet normal -1 0 0
    outer loop
      vertex 0 3.1 0
      vertex 0 1.9 2.5
      vertex 0 3.1 4.1
    endloop
  endfacet
  facet normal -1 0 0
    outer loop
      vertex 0 0 4.1
      vertex 0 1.9 2.5
      vertex 0 0.799999 2.5
    endloop
  endfacet
  facet normal -1 0 0
    outer loop
      vertex 0 1.9 2.5
      vertex 0 0 4.1
      vertex 0 3.1 4.1
    endloop
  endfacet
  facet normal -1 0 0
    outer loop
      vertex 0 0 4.1
      vertex 0 0.799999 2.5
      vertex 0 0 0
    endloop
  endfacet
  facet normal -0 0 1
    outer loop
      vertex 0 3.1 4.1
      vertex 2.4 0 4.1
      vertex 2.4 3.1 4.1
    endloop
  endfacet
  facet normal 0 0 1
    outer loop
      vertex 2.4 0 4.1
      vertex 0 3.1 4.1
      vertex 0 0 4.1
    endloop
  endfacet
  facet normal 1 -0 0
    outer loop
      vertex 2.4 0 4.1
      vertex 2.4 3.1 0
      vertex 2.4 3.1 4.1
    endloop
  endfacet
  facet normal 1 0 0
    outer loop
      vertex 2.4 3.1 0
      vertex 2.4 0 4.1
      vertex 2.4 0 0
    endloop
  endfacet
  facet normal 0 1 -0
    outer loop
      vertex 2.4 3.1 0
      vertex 0 3.1 4.1
      vertex 2.4 3.1 4.1
    endloop
  endfacet
  facet normal 0 1 0
    outer loop
      vertex 0 3.1 4.1
      vertex 2.4 3.1 0
      vertex 0 3.1 0
    endloop
  endfacet
  facet normal 0 0 -1
    outer loop
      vertex 0 0 0
      vertex 2.4 3.1 0
      vertex 2.4 0 0
    endloop
  endfacet
  facet normal -0 0 -1
    outer loop
      vertex 2.4 3.1 0
      vertex 0 0 0
      vertex 0 3.1 0
    endloop
  endfacet
  facet normal 0 -1 0
    outer loop
      vertex 0 0 0
      vertex 2.4 0 4.1
      vertex 0 0 4.1
    endloop
  endfacet
  facet normal 0 -1 -0
    outer loop
      vertex 2.4 0 4.1
      vertex 0 0 0
      vertex 2.4 0 0
    endloop
  endfacet
  facet normal 0 0 -1
    outer loop
      vertex 0 0.799999 2.5
      vertex 1.6 1.9 2.5
      vertex 1.6 0.799999 2.5
    endloop
  endfacet
  facet normal -0 0 -1
    outer loop
      vertex 1.6 1.9 2.5
      vertex 0 0.799999 2.5
      vertex 0 1.9 2.5
    endloop
  endfacet
  facet normal -1 0 0
    outer loop
      vertex 1.6 0.799999 1.2
      vertex 1.6 1.9 2.5
      vertex 1.6 1.9 1.2
    endloop
  endfacet
  facet normal -1 -0 0
    outer loop
      vertex 1.6 1.9 2.5
      vertex 1.6 0.799999 1.2
      vertex 1.6 0.799999 2.5
    endloop
  endfacet
  facet normal 0 -1 0
    outer loop
      vertex 0 1.9 1.2
      vertex 1.6 1.9 2.5
      vertex 0 1.9 2.5
    endloop
  endfacet
  facet normal 0 -1 -0
    outer loop
      vertex 1.6 1.9 2.5
      vertex 0 1.9 1.2
      vertex 1.6 1.9 1.2
    endloop
  endfacet
  facet normal -0 0 1
    outer loop
      vertex 0 1.9 1.2
      vertex 1.6 0.799999 1.2
      vertex 1.6 1.9 1.2
    endloop
  endfacet
  facet normal 0 0 1
    outer loop
      vertex 1.6 0.799999 1.2
      vertex 0 1.9 1.2
      vertex 0 0.799999 1.2
    endloop
  endfacet
  facet normal 0 1 -0
    outer loop
      vertex 1.6 0.799999 1.2
      vertex 0 0.799999 2.5
      vertex 1.6 0.799999 2.5
    endloop
  endfacet
  facet normal 0 1 0
    outer loop
      vertex 0 0.799999 2.5
      vertex 1.6 0.799999 1.2
      vertex 0 0.799999 1.2
    endloop
  endfacet
endsolid OpenSCAD_Model
